%TF.GenerationSoftware,KiCad,Pcbnew,8.0.5-8.0.5-0~ubuntu20.04.1*%
%TF.CreationDate,2024-10-07T16:45:42+02:00*%
%TF.ProjectId,bottom_plate,626f7474-6f6d-45f7-906c-6174652e6b69,v1.0.0*%
%TF.SameCoordinates,Original*%
%TF.FileFunction,Profile,NP*%
%FSLAX46Y46*%
G04 Gerber Fmt 4.6, Leading zero omitted, Abs format (unit mm)*
G04 Created by KiCad (PCBNEW 8.0.5-8.0.5-0~ubuntu20.04.1) date 2024-10-07 16:45:42*
%MOMM*%
%LPD*%
G01*
G04 APERTURE LIST*
%TA.AperFunction,Profile*%
%ADD10C,0.150000*%
%TD*%
G04 APERTURE END LIST*
D10*
X224021278Y-184856373D02*
X235067230Y-154507871D01*
X221438188Y-186044444D02*
X207387249Y-180762856D01*
X206121339Y-178543449D02*
X206145578Y-178405982D01*
X204523259Y-176089070D02*
X186945837Y-172989696D01*
X186645344Y-172959859D02*
X168953197Y-172545721D01*
X167000000Y-170546268D02*
X167000000Y-161801964D01*
X165008052Y-159801980D02*
X91991948Y-159508020D01*
X90000000Y-157508036D02*
X90000000Y-85500000D01*
X92000000Y-83500000D02*
X106763932Y-83500000D01*
X108552786Y-82394427D02*
X109000000Y-81500000D01*
X109000000Y-81500000D02*
X125265409Y-81500000D01*
X127245308Y-79782843D02*
X127754692Y-76217157D01*
X129734591Y-74500000D02*
X144360392Y-74500000D01*
X146321554Y-72892232D02*
X146678446Y-71107768D01*
X148639608Y-69500000D02*
X165305746Y-69500000D01*
X167278534Y-71171202D02*
X167721466Y-73828798D01*
X169694254Y-75500000D02*
X184763932Y-75500000D01*
X186552786Y-76605573D02*
X187000000Y-77500000D01*
X187000000Y-77500000D02*
X225000000Y-77500000D01*
X227000000Y-79500000D02*
X227000000Y-127538673D01*
X227094632Y-128146597D02*
X235093213Y-153215907D01*
X224021278Y-184856373D02*
G75*
G02*
X221438188Y-186044444I-1879385J684040D01*
G01*
X207387250Y-180762856D02*
G75*
G02*
X206121339Y-178543449I703705J1872111D01*
G01*
X204523259Y-176089071D02*
G75*
G02*
X206145578Y-178405982I-347296J-1969615D01*
G01*
X186645344Y-172959859D02*
G75*
G02*
X186945837Y-172989696I-46804J-1999453D01*
G01*
X168953197Y-172545720D02*
G75*
G02*
X167000000Y-170546268I46803J1999452D01*
G01*
X165008052Y-159801980D02*
G75*
G02*
X167000000Y-161801964I-8052J-1999984D01*
G01*
X91991948Y-159508020D02*
G75*
G02*
X90000000Y-157508036I8052J1999984D01*
G01*
X90000000Y-85500000D02*
G75*
G02*
X92000000Y-83500000I2000000J0D01*
G01*
X108552786Y-82394427D02*
G75*
G02*
X106763932Y-83500000I-1788854J894427D01*
G01*
X127245308Y-79782843D02*
G75*
G02*
X125265409Y-81500000I-1979899J282843D01*
G01*
X127754692Y-76217157D02*
G75*
G02*
X129734591Y-74500000I1979899J-282843D01*
G01*
X146321553Y-72892232D02*
G75*
G02*
X144360392Y-74500000I-1961161J392232D01*
G01*
X146678447Y-71107768D02*
G75*
G02*
X148639608Y-69500000I1961161J-392232D01*
G01*
X165305746Y-69500000D02*
G75*
G02*
X167278534Y-71171202I0J-2000000D01*
G01*
X169694254Y-75500000D02*
G75*
G02*
X167721466Y-73828798I0J2000000D01*
G01*
X184763932Y-75500000D02*
G75*
G02*
X186552786Y-76605573I0J-2000000D01*
G01*
X225000000Y-77500000D02*
G75*
G02*
X227000000Y-79500000I0J-2000000D01*
G01*
X227094632Y-128146597D02*
G75*
G02*
X227000000Y-127538673I1905368J607924D01*
G01*
X235093213Y-153215906D02*
G75*
G02*
X235067230Y-154507871I-1905369J-607925D01*
G01*
M02*
