%TF.GenerationSoftware,KiCad,Pcbnew,8.0.5-8.0.5-0~ubuntu20.04.1*%
%TF.CreationDate,2024-10-07T16:45:45+02:00*%
%TF.ProjectId,bottom_plate,626f7474-6f6d-45f7-906c-6174652e6b69,v1.0.0*%
%TF.SameCoordinates,Original*%
%TF.FileFunction,Drillmap*%
%TF.FilePolarity,Positive*%
%FSLAX45Y45*%
G04 Gerber Fmt 4.5, Leading zero omitted, Abs format (unit mm)*
G04 Created by KiCad (PCBNEW 8.0.5-8.0.5-0~ubuntu20.04.1) date 2024-10-07 16:45:45*
%MOMM*%
%LPD*%
G01*
G04 APERTURE LIST*
%ADD10C,0.150000*%
%ADD11C,0.200000*%
%ADD12C,0.220000*%
G04 APERTURE END LIST*
D10*
X22402128Y-18485637D02*
X23506723Y-15450787D01*
X22143819Y-18604444D02*
X20738725Y-18076286D01*
X20612134Y-17854345D02*
X20614558Y-17840598D01*
X20452326Y-17608907D02*
X18694584Y-17298970D01*
X18664534Y-17295986D02*
X16895320Y-17254572D01*
X16700000Y-17054627D02*
X16700000Y-16180196D01*
X16500805Y-15980198D02*
X9199195Y-15950802D01*
X9000000Y-15750804D02*
X9000000Y-8550000D01*
X9200000Y-8350000D02*
X10676393Y-8350000D01*
X10855279Y-8239443D02*
X10900000Y-8150000D01*
X10900000Y-8150000D02*
X12526541Y-8150000D01*
X12724531Y-7978284D02*
X12775469Y-7621716D01*
X12973459Y-7450000D02*
X14436039Y-7450000D01*
X14632155Y-7289223D02*
X14667845Y-7110777D01*
X14863961Y-6950000D02*
X16530575Y-6950000D01*
X16727853Y-7117120D02*
X16772147Y-7382880D01*
X16969425Y-7550000D02*
X18476393Y-7550000D01*
X18655279Y-7660557D02*
X18700000Y-7750000D01*
X18700000Y-7750000D02*
X22500000Y-7750000D01*
X22700000Y-7950000D02*
X22700000Y-12753867D01*
X22709463Y-12814660D02*
X23509321Y-15321591D01*
X22402128Y-18485637D02*
G75*
G02*
X22143819Y-18604444I-187939J68404D01*
G01*
X20738725Y-18076286D02*
G75*
G02*
X20612134Y-17854345I70371J187211D01*
G01*
X20452326Y-17608907D02*
G75*
G02*
X20614558Y-17840598I-34730J-196962D01*
G01*
X18664534Y-17295986D02*
G75*
G02*
X18694584Y-17298970I-4680J-199945D01*
G01*
X16895320Y-17254572D02*
G75*
G02*
X16700000Y-17054627I4680J199945D01*
G01*
X16500805Y-15980198D02*
G75*
G02*
X16700000Y-16180196I-805J-199998D01*
G01*
X9199195Y-15950802D02*
G75*
G02*
X9000000Y-15750804I805J199998D01*
G01*
X9000000Y-8550000D02*
G75*
G02*
X9200000Y-8350000I200000J0D01*
G01*
X10855279Y-8239443D02*
G75*
G02*
X10676393Y-8350000I-178885J89443D01*
G01*
X12724531Y-7978284D02*
G75*
G02*
X12526541Y-8150000I-197990J28284D01*
G01*
X12775469Y-7621716D02*
G75*
G02*
X12973459Y-7450000I197990J-28284D01*
G01*
X14632155Y-7289223D02*
G75*
G02*
X14436039Y-7450000I-196116J39223D01*
G01*
X14667845Y-7110777D02*
G75*
G02*
X14863961Y-6950000I196116J-39223D01*
G01*
X16530575Y-6950000D02*
G75*
G02*
X16727853Y-7117120I0J-200000D01*
G01*
X16969425Y-7550000D02*
G75*
G02*
X16772147Y-7382880I0J200000D01*
G01*
X18476393Y-7550000D02*
G75*
G02*
X18655279Y-7660557I0J-200000D01*
G01*
X22500000Y-7750000D02*
G75*
G02*
X22700000Y-7950000I0J-200000D01*
G01*
X22709463Y-12814660D02*
G75*
G02*
X22700000Y-12753867I190537J60792D01*
G01*
X23509321Y-15321591D02*
G75*
G02*
X23506723Y-15450787I-190537J-60793D01*
G01*
D11*
D12*
X10835000Y-9390000D02*
X11055000Y-9610000D01*
X11055000Y-9390000D02*
X10835000Y-9610000D01*
X10835000Y-11982000D02*
X11055000Y-12202000D01*
X11055000Y-11982000D02*
X10835000Y-12202000D01*
X10835000Y-15090000D02*
X11055000Y-15310000D01*
X11055000Y-15090000D02*
X10835000Y-15310000D01*
X14635000Y-14090000D02*
X14855000Y-14310000D01*
X14855000Y-14090000D02*
X14635000Y-14310000D01*
X14645000Y-8735000D02*
X14865000Y-8955000D01*
X14865000Y-8735000D02*
X14645000Y-8955000D01*
X14645000Y-10645000D02*
X14865000Y-10865000D01*
X14865000Y-10645000D02*
X14645000Y-10865000D01*
X18435000Y-11245000D02*
X18655000Y-11465000D01*
X18655000Y-11245000D02*
X18435000Y-11465000D01*
X18445000Y-8790000D02*
X18665000Y-9010000D01*
X18665000Y-8790000D02*
X18445000Y-9010000D01*
X18445000Y-14590000D02*
X18665000Y-14810000D01*
X18665000Y-14590000D02*
X18445000Y-14810000D01*
X20691276Y-16943876D02*
X20911276Y-17163876D01*
X20911276Y-16943876D02*
X20691276Y-17163876D01*
D11*
X9253277Y-18936217D02*
X9253277Y-18736217D01*
X9253277Y-18736217D02*
X9300896Y-18736217D01*
X9300896Y-18736217D02*
X9329467Y-18745741D01*
X9329467Y-18745741D02*
X9348515Y-18764789D01*
X9348515Y-18764789D02*
X9358039Y-18783836D01*
X9358039Y-18783836D02*
X9367563Y-18821931D01*
X9367563Y-18821931D02*
X9367563Y-18850503D01*
X9367563Y-18850503D02*
X9358039Y-18888598D01*
X9358039Y-18888598D02*
X9348515Y-18907646D01*
X9348515Y-18907646D02*
X9329467Y-18926693D01*
X9329467Y-18926693D02*
X9300896Y-18936217D01*
X9300896Y-18936217D02*
X9253277Y-18936217D01*
X9453277Y-18936217D02*
X9453277Y-18802884D01*
X9453277Y-18840979D02*
X9462801Y-18821931D01*
X9462801Y-18821931D02*
X9472324Y-18812408D01*
X9472324Y-18812408D02*
X9491372Y-18802884D01*
X9491372Y-18802884D02*
X9510420Y-18802884D01*
X9577086Y-18936217D02*
X9577086Y-18802884D01*
X9577086Y-18736217D02*
X9567563Y-18745741D01*
X9567563Y-18745741D02*
X9577086Y-18755265D01*
X9577086Y-18755265D02*
X9586610Y-18745741D01*
X9586610Y-18745741D02*
X9577086Y-18736217D01*
X9577086Y-18736217D02*
X9577086Y-18755265D01*
X9700896Y-18936217D02*
X9681848Y-18926693D01*
X9681848Y-18926693D02*
X9672324Y-18907646D01*
X9672324Y-18907646D02*
X9672324Y-18736217D01*
X9805658Y-18936217D02*
X9786610Y-18926693D01*
X9786610Y-18926693D02*
X9777086Y-18907646D01*
X9777086Y-18907646D02*
X9777086Y-18736217D01*
X10034229Y-18936217D02*
X10034229Y-18736217D01*
X10034229Y-18736217D02*
X10100896Y-18879074D01*
X10100896Y-18879074D02*
X10167563Y-18736217D01*
X10167563Y-18736217D02*
X10167563Y-18936217D01*
X10348515Y-18936217D02*
X10348515Y-18831455D01*
X10348515Y-18831455D02*
X10338991Y-18812408D01*
X10338991Y-18812408D02*
X10319944Y-18802884D01*
X10319944Y-18802884D02*
X10281848Y-18802884D01*
X10281848Y-18802884D02*
X10262801Y-18812408D01*
X10348515Y-18926693D02*
X10329467Y-18936217D01*
X10329467Y-18936217D02*
X10281848Y-18936217D01*
X10281848Y-18936217D02*
X10262801Y-18926693D01*
X10262801Y-18926693D02*
X10253277Y-18907646D01*
X10253277Y-18907646D02*
X10253277Y-18888598D01*
X10253277Y-18888598D02*
X10262801Y-18869550D01*
X10262801Y-18869550D02*
X10281848Y-18860027D01*
X10281848Y-18860027D02*
X10329467Y-18860027D01*
X10329467Y-18860027D02*
X10348515Y-18850503D01*
X10443753Y-18802884D02*
X10443753Y-19002884D01*
X10443753Y-18812408D02*
X10462801Y-18802884D01*
X10462801Y-18802884D02*
X10500896Y-18802884D01*
X10500896Y-18802884D02*
X10519944Y-18812408D01*
X10519944Y-18812408D02*
X10529467Y-18821931D01*
X10529467Y-18821931D02*
X10538991Y-18840979D01*
X10538991Y-18840979D02*
X10538991Y-18898122D01*
X10538991Y-18898122D02*
X10529467Y-18917169D01*
X10529467Y-18917169D02*
X10519944Y-18926693D01*
X10519944Y-18926693D02*
X10500896Y-18936217D01*
X10500896Y-18936217D02*
X10462801Y-18936217D01*
X10462801Y-18936217D02*
X10443753Y-18926693D01*
X10624705Y-18917169D02*
X10634229Y-18926693D01*
X10634229Y-18926693D02*
X10624705Y-18936217D01*
X10624705Y-18936217D02*
X10615182Y-18926693D01*
X10615182Y-18926693D02*
X10624705Y-18917169D01*
X10624705Y-18917169D02*
X10624705Y-18936217D01*
X10624705Y-18812408D02*
X10634229Y-18821931D01*
X10634229Y-18821931D02*
X10624705Y-18831455D01*
X10624705Y-18831455D02*
X10615182Y-18821931D01*
X10615182Y-18821931D02*
X10624705Y-18812408D01*
X10624705Y-18812408D02*
X10624705Y-18831455D01*
X8792500Y-19164733D02*
X8992500Y-19364733D01*
X8992500Y-19164733D02*
X8792500Y-19364733D01*
X9243753Y-19175265D02*
X9253277Y-19165741D01*
X9253277Y-19165741D02*
X9272324Y-19156217D01*
X9272324Y-19156217D02*
X9319944Y-19156217D01*
X9319944Y-19156217D02*
X9338991Y-19165741D01*
X9338991Y-19165741D02*
X9348515Y-19175265D01*
X9348515Y-19175265D02*
X9358039Y-19194312D01*
X9358039Y-19194312D02*
X9358039Y-19213360D01*
X9358039Y-19213360D02*
X9348515Y-19241931D01*
X9348515Y-19241931D02*
X9234229Y-19356217D01*
X9234229Y-19356217D02*
X9358039Y-19356217D01*
X9443753Y-19337169D02*
X9453277Y-19346693D01*
X9453277Y-19346693D02*
X9443753Y-19356217D01*
X9443753Y-19356217D02*
X9434229Y-19346693D01*
X9434229Y-19346693D02*
X9443753Y-19337169D01*
X9443753Y-19337169D02*
X9443753Y-19356217D01*
X9529467Y-19175265D02*
X9538991Y-19165741D01*
X9538991Y-19165741D02*
X9558039Y-19156217D01*
X9558039Y-19156217D02*
X9605658Y-19156217D01*
X9605658Y-19156217D02*
X9624705Y-19165741D01*
X9624705Y-19165741D02*
X9634229Y-19175265D01*
X9634229Y-19175265D02*
X9643753Y-19194312D01*
X9643753Y-19194312D02*
X9643753Y-19213360D01*
X9643753Y-19213360D02*
X9634229Y-19241931D01*
X9634229Y-19241931D02*
X9519944Y-19356217D01*
X9519944Y-19356217D02*
X9643753Y-19356217D01*
X9767563Y-19156217D02*
X9786610Y-19156217D01*
X9786610Y-19156217D02*
X9805658Y-19165741D01*
X9805658Y-19165741D02*
X9815182Y-19175265D01*
X9815182Y-19175265D02*
X9824705Y-19194312D01*
X9824705Y-19194312D02*
X9834229Y-19232408D01*
X9834229Y-19232408D02*
X9834229Y-19280027D01*
X9834229Y-19280027D02*
X9824705Y-19318122D01*
X9824705Y-19318122D02*
X9815182Y-19337169D01*
X9815182Y-19337169D02*
X9805658Y-19346693D01*
X9805658Y-19346693D02*
X9786610Y-19356217D01*
X9786610Y-19356217D02*
X9767563Y-19356217D01*
X9767563Y-19356217D02*
X9748515Y-19346693D01*
X9748515Y-19346693D02*
X9738991Y-19337169D01*
X9738991Y-19337169D02*
X9729467Y-19318122D01*
X9729467Y-19318122D02*
X9719944Y-19280027D01*
X9719944Y-19280027D02*
X9719944Y-19232408D01*
X9719944Y-19232408D02*
X9729467Y-19194312D01*
X9729467Y-19194312D02*
X9738991Y-19175265D01*
X9738991Y-19175265D02*
X9748515Y-19165741D01*
X9748515Y-19165741D02*
X9767563Y-19156217D01*
X9958039Y-19156217D02*
X9977086Y-19156217D01*
X9977086Y-19156217D02*
X9996134Y-19165741D01*
X9996134Y-19165741D02*
X10005658Y-19175265D01*
X10005658Y-19175265D02*
X10015182Y-19194312D01*
X10015182Y-19194312D02*
X10024705Y-19232408D01*
X10024705Y-19232408D02*
X10024705Y-19280027D01*
X10024705Y-19280027D02*
X10015182Y-19318122D01*
X10015182Y-19318122D02*
X10005658Y-19337169D01*
X10005658Y-19337169D02*
X9996134Y-19346693D01*
X9996134Y-19346693D02*
X9977086Y-19356217D01*
X9977086Y-19356217D02*
X9958039Y-19356217D01*
X9958039Y-19356217D02*
X9938991Y-19346693D01*
X9938991Y-19346693D02*
X9929467Y-19337169D01*
X9929467Y-19337169D02*
X9919944Y-19318122D01*
X9919944Y-19318122D02*
X9910420Y-19280027D01*
X9910420Y-19280027D02*
X9910420Y-19232408D01*
X9910420Y-19232408D02*
X9919944Y-19194312D01*
X9919944Y-19194312D02*
X9929467Y-19175265D01*
X9929467Y-19175265D02*
X9938991Y-19165741D01*
X9938991Y-19165741D02*
X9958039Y-19156217D01*
X10110420Y-19356217D02*
X10110420Y-19222884D01*
X10110420Y-19241931D02*
X10119944Y-19232408D01*
X10119944Y-19232408D02*
X10138991Y-19222884D01*
X10138991Y-19222884D02*
X10167563Y-19222884D01*
X10167563Y-19222884D02*
X10186610Y-19232408D01*
X10186610Y-19232408D02*
X10196134Y-19251455D01*
X10196134Y-19251455D02*
X10196134Y-19356217D01*
X10196134Y-19251455D02*
X10205658Y-19232408D01*
X10205658Y-19232408D02*
X10224705Y-19222884D01*
X10224705Y-19222884D02*
X10253277Y-19222884D01*
X10253277Y-19222884D02*
X10272325Y-19232408D01*
X10272325Y-19232408D02*
X10281848Y-19251455D01*
X10281848Y-19251455D02*
X10281848Y-19356217D01*
X10377086Y-19356217D02*
X10377086Y-19222884D01*
X10377086Y-19241931D02*
X10386610Y-19232408D01*
X10386610Y-19232408D02*
X10405658Y-19222884D01*
X10405658Y-19222884D02*
X10434229Y-19222884D01*
X10434229Y-19222884D02*
X10453277Y-19232408D01*
X10453277Y-19232408D02*
X10462801Y-19251455D01*
X10462801Y-19251455D02*
X10462801Y-19356217D01*
X10462801Y-19251455D02*
X10472325Y-19232408D01*
X10472325Y-19232408D02*
X10491372Y-19222884D01*
X10491372Y-19222884D02*
X10519944Y-19222884D01*
X10519944Y-19222884D02*
X10538991Y-19232408D01*
X10538991Y-19232408D02*
X10548515Y-19251455D01*
X10548515Y-19251455D02*
X10548515Y-19356217D01*
X10938991Y-19146693D02*
X10767563Y-19403836D01*
X11196134Y-19156217D02*
X11215182Y-19156217D01*
X11215182Y-19156217D02*
X11234229Y-19165741D01*
X11234229Y-19165741D02*
X11243753Y-19175265D01*
X11243753Y-19175265D02*
X11253277Y-19194312D01*
X11253277Y-19194312D02*
X11262801Y-19232408D01*
X11262801Y-19232408D02*
X11262801Y-19280027D01*
X11262801Y-19280027D02*
X11253277Y-19318122D01*
X11253277Y-19318122D02*
X11243753Y-19337169D01*
X11243753Y-19337169D02*
X11234229Y-19346693D01*
X11234229Y-19346693D02*
X11215182Y-19356217D01*
X11215182Y-19356217D02*
X11196134Y-19356217D01*
X11196134Y-19356217D02*
X11177087Y-19346693D01*
X11177087Y-19346693D02*
X11167563Y-19337169D01*
X11167563Y-19337169D02*
X11158039Y-19318122D01*
X11158039Y-19318122D02*
X11148515Y-19280027D01*
X11148515Y-19280027D02*
X11148515Y-19232408D01*
X11148515Y-19232408D02*
X11158039Y-19194312D01*
X11158039Y-19194312D02*
X11167563Y-19175265D01*
X11167563Y-19175265D02*
X11177087Y-19165741D01*
X11177087Y-19165741D02*
X11196134Y-19156217D01*
X11348515Y-19337169D02*
X11358039Y-19346693D01*
X11358039Y-19346693D02*
X11348515Y-19356217D01*
X11348515Y-19356217D02*
X11338991Y-19346693D01*
X11338991Y-19346693D02*
X11348515Y-19337169D01*
X11348515Y-19337169D02*
X11348515Y-19356217D01*
X11481848Y-19156217D02*
X11500896Y-19156217D01*
X11500896Y-19156217D02*
X11519944Y-19165741D01*
X11519944Y-19165741D02*
X11529467Y-19175265D01*
X11529467Y-19175265D02*
X11538991Y-19194312D01*
X11538991Y-19194312D02*
X11548515Y-19232408D01*
X11548515Y-19232408D02*
X11548515Y-19280027D01*
X11548515Y-19280027D02*
X11538991Y-19318122D01*
X11538991Y-19318122D02*
X11529467Y-19337169D01*
X11529467Y-19337169D02*
X11519944Y-19346693D01*
X11519944Y-19346693D02*
X11500896Y-19356217D01*
X11500896Y-19356217D02*
X11481848Y-19356217D01*
X11481848Y-19356217D02*
X11462801Y-19346693D01*
X11462801Y-19346693D02*
X11453277Y-19337169D01*
X11453277Y-19337169D02*
X11443753Y-19318122D01*
X11443753Y-19318122D02*
X11434229Y-19280027D01*
X11434229Y-19280027D02*
X11434229Y-19232408D01*
X11434229Y-19232408D02*
X11443753Y-19194312D01*
X11443753Y-19194312D02*
X11453277Y-19175265D01*
X11453277Y-19175265D02*
X11462801Y-19165741D01*
X11462801Y-19165741D02*
X11481848Y-19156217D01*
X11662801Y-19241931D02*
X11643753Y-19232408D01*
X11643753Y-19232408D02*
X11634229Y-19222884D01*
X11634229Y-19222884D02*
X11624706Y-19203836D01*
X11624706Y-19203836D02*
X11624706Y-19194312D01*
X11624706Y-19194312D02*
X11634229Y-19175265D01*
X11634229Y-19175265D02*
X11643753Y-19165741D01*
X11643753Y-19165741D02*
X11662801Y-19156217D01*
X11662801Y-19156217D02*
X11700896Y-19156217D01*
X11700896Y-19156217D02*
X11719944Y-19165741D01*
X11719944Y-19165741D02*
X11729467Y-19175265D01*
X11729467Y-19175265D02*
X11738991Y-19194312D01*
X11738991Y-19194312D02*
X11738991Y-19203836D01*
X11738991Y-19203836D02*
X11729467Y-19222884D01*
X11729467Y-19222884D02*
X11719944Y-19232408D01*
X11719944Y-19232408D02*
X11700896Y-19241931D01*
X11700896Y-19241931D02*
X11662801Y-19241931D01*
X11662801Y-19241931D02*
X11643753Y-19251455D01*
X11643753Y-19251455D02*
X11634229Y-19260979D01*
X11634229Y-19260979D02*
X11624706Y-19280027D01*
X11624706Y-19280027D02*
X11624706Y-19318122D01*
X11624706Y-19318122D02*
X11634229Y-19337169D01*
X11634229Y-19337169D02*
X11643753Y-19346693D01*
X11643753Y-19346693D02*
X11662801Y-19356217D01*
X11662801Y-19356217D02*
X11700896Y-19356217D01*
X11700896Y-19356217D02*
X11719944Y-19346693D01*
X11719944Y-19346693D02*
X11729467Y-19337169D01*
X11729467Y-19337169D02*
X11738991Y-19318122D01*
X11738991Y-19318122D02*
X11738991Y-19280027D01*
X11738991Y-19280027D02*
X11729467Y-19260979D01*
X11729467Y-19260979D02*
X11719944Y-19251455D01*
X11719944Y-19251455D02*
X11700896Y-19241931D01*
X11910420Y-19156217D02*
X11872325Y-19156217D01*
X11872325Y-19156217D02*
X11853277Y-19165741D01*
X11853277Y-19165741D02*
X11843753Y-19175265D01*
X11843753Y-19175265D02*
X11824706Y-19203836D01*
X11824706Y-19203836D02*
X11815182Y-19241931D01*
X11815182Y-19241931D02*
X11815182Y-19318122D01*
X11815182Y-19318122D02*
X11824706Y-19337169D01*
X11824706Y-19337169D02*
X11834229Y-19346693D01*
X11834229Y-19346693D02*
X11853277Y-19356217D01*
X11853277Y-19356217D02*
X11891372Y-19356217D01*
X11891372Y-19356217D02*
X11910420Y-19346693D01*
X11910420Y-19346693D02*
X11919944Y-19337169D01*
X11919944Y-19337169D02*
X11929467Y-19318122D01*
X11929467Y-19318122D02*
X11929467Y-19270503D01*
X11929467Y-19270503D02*
X11919944Y-19251455D01*
X11919944Y-19251455D02*
X11910420Y-19241931D01*
X11910420Y-19241931D02*
X11891372Y-19232408D01*
X11891372Y-19232408D02*
X11853277Y-19232408D01*
X11853277Y-19232408D02*
X11834229Y-19241931D01*
X11834229Y-19241931D02*
X11824706Y-19251455D01*
X11824706Y-19251455D02*
X11815182Y-19270503D01*
X12100896Y-19156217D02*
X12062801Y-19156217D01*
X12062801Y-19156217D02*
X12043753Y-19165741D01*
X12043753Y-19165741D02*
X12034229Y-19175265D01*
X12034229Y-19175265D02*
X12015182Y-19203836D01*
X12015182Y-19203836D02*
X12005658Y-19241931D01*
X12005658Y-19241931D02*
X12005658Y-19318122D01*
X12005658Y-19318122D02*
X12015182Y-19337169D01*
X12015182Y-19337169D02*
X12024706Y-19346693D01*
X12024706Y-19346693D02*
X12043753Y-19356217D01*
X12043753Y-19356217D02*
X12081848Y-19356217D01*
X12081848Y-19356217D02*
X12100896Y-19346693D01*
X12100896Y-19346693D02*
X12110420Y-19337169D01*
X12110420Y-19337169D02*
X12119944Y-19318122D01*
X12119944Y-19318122D02*
X12119944Y-19270503D01*
X12119944Y-19270503D02*
X12110420Y-19251455D01*
X12110420Y-19251455D02*
X12100896Y-19241931D01*
X12100896Y-19241931D02*
X12081848Y-19232408D01*
X12081848Y-19232408D02*
X12043753Y-19232408D01*
X12043753Y-19232408D02*
X12024706Y-19241931D01*
X12024706Y-19241931D02*
X12015182Y-19251455D01*
X12015182Y-19251455D02*
X12005658Y-19270503D01*
X12196134Y-19156217D02*
X12196134Y-19194312D01*
X12272325Y-19156217D02*
X12272325Y-19194312D01*
X12567563Y-19432408D02*
X12558039Y-19422884D01*
X12558039Y-19422884D02*
X12538991Y-19394312D01*
X12538991Y-19394312D02*
X12529468Y-19375265D01*
X12529468Y-19375265D02*
X12519944Y-19346693D01*
X12519944Y-19346693D02*
X12510420Y-19299074D01*
X12510420Y-19299074D02*
X12510420Y-19260979D01*
X12510420Y-19260979D02*
X12519944Y-19213360D01*
X12519944Y-19213360D02*
X12529468Y-19184789D01*
X12529468Y-19184789D02*
X12538991Y-19165741D01*
X12538991Y-19165741D02*
X12558039Y-19137169D01*
X12558039Y-19137169D02*
X12567563Y-19127646D01*
X12748515Y-19356217D02*
X12634229Y-19356217D01*
X12691372Y-19356217D02*
X12691372Y-19156217D01*
X12691372Y-19156217D02*
X12672325Y-19184789D01*
X12672325Y-19184789D02*
X12653277Y-19203836D01*
X12653277Y-19203836D02*
X12634229Y-19213360D01*
X12872325Y-19156217D02*
X12891372Y-19156217D01*
X12891372Y-19156217D02*
X12910420Y-19165741D01*
X12910420Y-19165741D02*
X12919944Y-19175265D01*
X12919944Y-19175265D02*
X12929468Y-19194312D01*
X12929468Y-19194312D02*
X12938991Y-19232408D01*
X12938991Y-19232408D02*
X12938991Y-19280027D01*
X12938991Y-19280027D02*
X12929468Y-19318122D01*
X12929468Y-19318122D02*
X12919944Y-19337169D01*
X12919944Y-19337169D02*
X12910420Y-19346693D01*
X12910420Y-19346693D02*
X12891372Y-19356217D01*
X12891372Y-19356217D02*
X12872325Y-19356217D01*
X12872325Y-19356217D02*
X12853277Y-19346693D01*
X12853277Y-19346693D02*
X12843753Y-19337169D01*
X12843753Y-19337169D02*
X12834229Y-19318122D01*
X12834229Y-19318122D02*
X12824706Y-19280027D01*
X12824706Y-19280027D02*
X12824706Y-19232408D01*
X12824706Y-19232408D02*
X12834229Y-19194312D01*
X12834229Y-19194312D02*
X12843753Y-19175265D01*
X12843753Y-19175265D02*
X12853277Y-19165741D01*
X12853277Y-19165741D02*
X12872325Y-19156217D01*
X13177087Y-19356217D02*
X13177087Y-19156217D01*
X13262801Y-19356217D02*
X13262801Y-19251455D01*
X13262801Y-19251455D02*
X13253277Y-19232408D01*
X13253277Y-19232408D02*
X13234230Y-19222884D01*
X13234230Y-19222884D02*
X13205658Y-19222884D01*
X13205658Y-19222884D02*
X13186610Y-19232408D01*
X13186610Y-19232408D02*
X13177087Y-19241931D01*
X13386610Y-19356217D02*
X13367563Y-19346693D01*
X13367563Y-19346693D02*
X13358039Y-19337169D01*
X13358039Y-19337169D02*
X13348515Y-19318122D01*
X13348515Y-19318122D02*
X13348515Y-19260979D01*
X13348515Y-19260979D02*
X13358039Y-19241931D01*
X13358039Y-19241931D02*
X13367563Y-19232408D01*
X13367563Y-19232408D02*
X13386610Y-19222884D01*
X13386610Y-19222884D02*
X13415182Y-19222884D01*
X13415182Y-19222884D02*
X13434230Y-19232408D01*
X13434230Y-19232408D02*
X13443753Y-19241931D01*
X13443753Y-19241931D02*
X13453277Y-19260979D01*
X13453277Y-19260979D02*
X13453277Y-19318122D01*
X13453277Y-19318122D02*
X13443753Y-19337169D01*
X13443753Y-19337169D02*
X13434230Y-19346693D01*
X13434230Y-19346693D02*
X13415182Y-19356217D01*
X13415182Y-19356217D02*
X13386610Y-19356217D01*
X13567563Y-19356217D02*
X13548515Y-19346693D01*
X13548515Y-19346693D02*
X13538991Y-19327646D01*
X13538991Y-19327646D02*
X13538991Y-19156217D01*
X13719944Y-19346693D02*
X13700896Y-19356217D01*
X13700896Y-19356217D02*
X13662801Y-19356217D01*
X13662801Y-19356217D02*
X13643753Y-19346693D01*
X13643753Y-19346693D02*
X13634230Y-19327646D01*
X13634230Y-19327646D02*
X13634230Y-19251455D01*
X13634230Y-19251455D02*
X13643753Y-19232408D01*
X13643753Y-19232408D02*
X13662801Y-19222884D01*
X13662801Y-19222884D02*
X13700896Y-19222884D01*
X13700896Y-19222884D02*
X13719944Y-19232408D01*
X13719944Y-19232408D02*
X13729468Y-19251455D01*
X13729468Y-19251455D02*
X13729468Y-19270503D01*
X13729468Y-19270503D02*
X13634230Y-19289550D01*
X13805658Y-19346693D02*
X13824706Y-19356217D01*
X13824706Y-19356217D02*
X13862801Y-19356217D01*
X13862801Y-19356217D02*
X13881849Y-19346693D01*
X13881849Y-19346693D02*
X13891372Y-19327646D01*
X13891372Y-19327646D02*
X13891372Y-19318122D01*
X13891372Y-19318122D02*
X13881849Y-19299074D01*
X13881849Y-19299074D02*
X13862801Y-19289550D01*
X13862801Y-19289550D02*
X13834230Y-19289550D01*
X13834230Y-19289550D02*
X13815182Y-19280027D01*
X13815182Y-19280027D02*
X13805658Y-19260979D01*
X13805658Y-19260979D02*
X13805658Y-19251455D01*
X13805658Y-19251455D02*
X13815182Y-19232408D01*
X13815182Y-19232408D02*
X13834230Y-19222884D01*
X13834230Y-19222884D02*
X13862801Y-19222884D01*
X13862801Y-19222884D02*
X13881849Y-19232408D01*
X13958039Y-19432408D02*
X13967563Y-19422884D01*
X13967563Y-19422884D02*
X13986611Y-19394312D01*
X13986611Y-19394312D02*
X13996134Y-19375265D01*
X13996134Y-19375265D02*
X14005658Y-19346693D01*
X14005658Y-19346693D02*
X14015182Y-19299074D01*
X14015182Y-19299074D02*
X14015182Y-19260979D01*
X14015182Y-19260979D02*
X14005658Y-19213360D01*
X14005658Y-19213360D02*
X13996134Y-19184789D01*
X13996134Y-19184789D02*
X13986611Y-19165741D01*
X13986611Y-19165741D02*
X13967563Y-19137169D01*
X13967563Y-19137169D02*
X13958039Y-19127646D01*
M02*
