M48
; DRILL file {KiCad 8.0.5-8.0.5-0~ubuntu20.04.1} date 2024-10-07T16:46:16+0200
; FORMAT={-:-/ absolute / inch / decimal}
; #@! TF.CreationDate,2024-10-07T16:46:16+02:00
; #@! TF.GenerationSoftware,Kicad,Pcbnew,8.0.5-8.0.5-0~ubuntu20.04.1
; #@! TF.FileFunction,Plated,1,2,PTH
FMAT,2
INCH
; #@! TA.AperFunction,Plated,PTH,ViaDrill
T1C0.0157
; #@! TA.AperFunction,Plated,PTH,ComponentDrill
T2C0.0157
; #@! TA.AperFunction,Plated,PTH,ComponentDrill
T3C0.0295
; #@! TA.AperFunction,Plated,PTH,ComponentDrill
T4C0.0354
; #@! TA.AperFunction,Plated,PTH,ComponentDrill
T5C0.0390
; #@! TA.AperFunction,Plated,PTH,ComponentDrill
T6C0.0394
; #@! TA.AperFunction,Plated,PTH,ComponentDrill
T7C0.0866
%
G90
G05
T1
X3.9173Y-4.8031
X3.937Y-3.3071
X3.937Y-4.0551
X3.937Y-5.5315
X4.252Y-3.6417
X4.252Y-4.6063
X4.2717Y-5.3543
X4.2717Y-5.8661
X4.685Y-3.248
X4.685Y-3.9764
X4.685Y-4.7441
X4.685Y-5.4724
X5.0131Y-3.7336
X5.0192Y-5.216
X5.0197Y-4.4685
X5.0197Y-6.0236
X5.4331Y-2.9724
X5.4331Y-3.7205
X5.4331Y-4.4685
X5.4331Y-5.2165
X5.6914Y-5.5094
X5.7087Y-3.4252
X5.7677Y-4.1339
X5.7677Y-5.0
X6.1811Y-2.7756
X6.1811Y-3.5236
X6.1811Y-4.2717
X6.1811Y-5.0197
X6.4961Y-3.3071
X6.4961Y-3.8976
X6.4961Y-4.8031
X6.4961Y-5.5512
X6.9291Y-3.0118
X6.9291Y-3.7598
X6.9291Y-4.5079
X6.9291Y-5.2559
X6.9882Y-6.0827
X7.2441Y-3.4055
X7.2441Y-5.0394
X7.2441Y-5.6299
X7.2638Y-4.2913
X7.2835Y-6.6142
X7.654Y-3.7042
X7.6772Y-3.0906
X7.6772Y-3.8386
X7.6772Y-4.5866
X7.6772Y-5.3346
X7.874Y-6.1614
X7.9921Y-3.622
X7.9921Y-4.9606
X7.9921Y-5.689
X8.0118Y-4.3701
X8.0512Y-4.4685
X8.1083Y-4.9803
X8.1102Y-6.5945
X8.2283Y-4.812
X8.2283Y-5.0591
X8.2677Y-5.689
X8.2874Y-4.7244
X8.2874Y-6.4764
X8.3465Y-4.5866
X8.3661Y-4.7549
X8.3661Y-4.812
X8.3858Y-4.9803
X8.4055Y-4.7244
X8.4252Y-4.812
X8.5236Y-4.4565
X8.6417Y-4.5866
X8.7205Y-6.1614
X8.7598Y-4.812
X8.7992Y-4.8228
X8.81Y-4.685
X8.8583Y-6.3189
X8.878Y-5.6102
X8.9065Y-5.841
T2
X8.3701Y-3.3189
X8.3701Y-3.4189
X8.3701Y-3.5189
X8.3701Y-3.6189
X8.3701Y-3.7189
X8.3701Y-3.8189
X8.3701Y-3.9189
X8.3701Y-4.0189
X8.3701Y-4.1189
X8.3701Y-4.2189
X8.3701Y-4.3189
X8.3701Y-4.4189
X8.6378Y-3.3189
X8.6378Y-3.4189
X8.6378Y-3.5189
X8.6378Y-3.6189
X8.6378Y-3.7189
X8.6378Y-3.8189
X8.6378Y-3.9189
X8.6378Y-4.0189
X8.6378Y-4.1189
X8.6378Y-4.2189
X8.6378Y-4.3189
X8.6378Y-4.4189
T3
X8.5433Y-4.6063
X8.5433Y-4.6063
X8.5433Y-4.685
X8.5433Y-4.685
T5
X3.787Y-3.8583
X3.787Y-4.6063
X3.787Y-5.3543
X3.787Y-6.1024
X4.087Y-3.8583
X4.087Y-4.6063
X4.087Y-5.3543
X4.087Y-6.1024
X4.535Y-3.7795
X4.535Y-4.5276
X4.535Y-5.2756
X4.535Y-6.0236
X4.835Y-3.7795
X4.835Y-4.5276
X4.835Y-5.2756
X4.835Y-6.0236
X5.2831Y-3.5039
X5.2831Y-4.252
X5.2831Y-5.0
X5.2831Y-5.748
X5.5831Y-3.5039
X5.5831Y-4.252
X5.5831Y-5.0
X5.5831Y-5.748
X6.0311Y-3.3071
X6.0311Y-4.0551
X6.0311Y-4.8031
X6.0311Y-5.5512
X6.3311Y-3.3071
X6.3311Y-4.0551
X6.3311Y-4.8031
X6.3311Y-5.5512
X6.7791Y-3.5433
X6.7791Y-4.2913
X6.7791Y-5.0394
X6.7791Y-5.7874
X6.8185Y-6.6142
X7.0791Y-3.5433
X7.0791Y-4.2913
X7.0791Y-5.0394
X7.0791Y-5.7874
X7.1185Y-6.6142
X7.5272Y-3.622
X7.5272Y-4.3701
X7.5272Y-5.1181
X7.5272Y-5.8661
X7.625Y-6.6774
X7.8272Y-3.622
X7.8272Y-4.3701
X7.8272Y-5.1181
X7.8272Y-5.8661
X7.9204Y-6.7295
X8.7767Y-6.878
X8.8793Y-6.5961
T6
X8.2039Y-3.3189
X8.2039Y-3.4189
X8.2039Y-3.5189
X8.2039Y-3.6189
X8.2039Y-3.7189
X8.2039Y-3.8189
X8.2039Y-3.9189
X8.2039Y-4.0189
X8.2039Y-4.1189
X8.2039Y-4.2189
X8.2039Y-4.3189
X8.2039Y-4.4189
X8.8039Y-3.3189
X8.8039Y-3.4189
X8.8039Y-3.5189
X8.8039Y-3.6189
X8.8039Y-3.7189
X8.8039Y-3.8189
X8.8039Y-3.9189
X8.8039Y-4.0189
X8.8039Y-4.1189
X8.8039Y-4.2189
X8.8039Y-4.3189
X8.8039Y-4.4189
T7
X4.3091Y-3.7402
X4.3091Y-4.7606
X4.3091Y-5.9843
X5.8051Y-5.5906
X5.8091Y-3.4823
X5.8091Y-4.2343
X7.3012Y-4.4705
X7.3051Y-3.5039
X7.3051Y-5.7874
X8.1895Y-6.7141
T4
G00X8.3858Y-4.8701
M15
G01X8.3622Y-4.8701
M16
G05
G00X8.3858Y-5.0512
M15
G01X8.3622Y-5.0512
M16
G05
G00X8.4291Y-4.8701
M15
G01X8.4055Y-4.8701
M16
G05
G00X8.4291Y-5.0512
M15
G01X8.4055Y-5.0512
M16
G05
G00X8.5866Y-4.8701
M15
G01X8.563Y-4.8701
M16
G05
G00X8.5866Y-5.0512
M15
G01X8.563Y-5.0512
M16
G05
G00X8.7047Y-4.8701
M15
G01X8.6811Y-4.8701
M16
G05
G00X8.7047Y-5.0512
M15
G01X8.6811Y-5.0512
M16
G05
M30
