%TF.GenerationSoftware,KiCad,Pcbnew,8.0.5-8.0.5-0~ubuntu20.04.1*%
%TF.CreationDate,2024-10-07T16:46:15+02:00*%
%TF.ProjectId,keyboard_pcb,6b657962-6f61-4726-945f-7063622e6b69,v1.0.0*%
%TF.SameCoordinates,Original*%
%TF.FileFunction,Legend,Top*%
%TF.FilePolarity,Positive*%
%FSLAX46Y46*%
G04 Gerber Fmt 4.6, Leading zero omitted, Abs format (unit mm)*
G04 Created by KiCad (PCBNEW 8.0.5-8.0.5-0~ubuntu20.04.1) date 2024-10-07 16:46:15*
%MOMM*%
%LPD*%
G01*
G04 APERTURE LIST*
%ADD10C,0.150000*%
%ADD11C,0.100000*%
%ADD12C,0.120000*%
G04 APERTURE END LIST*
D10*
X216235714Y-112694819D02*
X216235714Y-111694819D01*
X216235714Y-111694819D02*
X216616666Y-111694819D01*
X216616666Y-111694819D02*
X216711904Y-111742438D01*
X216711904Y-111742438D02*
X216759523Y-111790057D01*
X216759523Y-111790057D02*
X216807142Y-111885295D01*
X216807142Y-111885295D02*
X216807142Y-112028152D01*
X216807142Y-112028152D02*
X216759523Y-112123390D01*
X216759523Y-112123390D02*
X216711904Y-112171009D01*
X216711904Y-112171009D02*
X216616666Y-112218628D01*
X216616666Y-112218628D02*
X216235714Y-112218628D01*
X217759523Y-112694819D02*
X217188095Y-112694819D01*
X217473809Y-112694819D02*
X217473809Y-111694819D01*
X217473809Y-111694819D02*
X217378571Y-111837676D01*
X217378571Y-111837676D02*
X217283333Y-111932914D01*
X217283333Y-111932914D02*
X217188095Y-111980533D01*
X218378571Y-111694819D02*
X218473809Y-111694819D01*
X218473809Y-111694819D02*
X218569047Y-111742438D01*
X218569047Y-111742438D02*
X218616666Y-111790057D01*
X218616666Y-111790057D02*
X218664285Y-111885295D01*
X218664285Y-111885295D02*
X218711904Y-112075771D01*
X218711904Y-112075771D02*
X218711904Y-112313866D01*
X218711904Y-112313866D02*
X218664285Y-112504342D01*
X218664285Y-112504342D02*
X218616666Y-112599580D01*
X218616666Y-112599580D02*
X218569047Y-112647200D01*
X218569047Y-112647200D02*
X218473809Y-112694819D01*
X218473809Y-112694819D02*
X218378571Y-112694819D01*
X218378571Y-112694819D02*
X218283333Y-112647200D01*
X218283333Y-112647200D02*
X218235714Y-112599580D01*
X218235714Y-112599580D02*
X218188095Y-112504342D01*
X218188095Y-112504342D02*
X218140476Y-112313866D01*
X218140476Y-112313866D02*
X218140476Y-112075771D01*
X218140476Y-112075771D02*
X218188095Y-111885295D01*
X218188095Y-111885295D02*
X218235714Y-111790057D01*
X218235714Y-111790057D02*
X218283333Y-111742438D01*
X218283333Y-111742438D02*
X218378571Y-111694819D01*
X216759523Y-84754819D02*
X216426190Y-84278628D01*
X216188095Y-84754819D02*
X216188095Y-83754819D01*
X216188095Y-83754819D02*
X216569047Y-83754819D01*
X216569047Y-83754819D02*
X216664285Y-83802438D01*
X216664285Y-83802438D02*
X216711904Y-83850057D01*
X216711904Y-83850057D02*
X216759523Y-83945295D01*
X216759523Y-83945295D02*
X216759523Y-84088152D01*
X216759523Y-84088152D02*
X216711904Y-84183390D01*
X216711904Y-84183390D02*
X216664285Y-84231009D01*
X216664285Y-84231009D02*
X216569047Y-84278628D01*
X216569047Y-84278628D02*
X216188095Y-84278628D01*
X217140476Y-84469104D02*
X217616666Y-84469104D01*
X217045238Y-84754819D02*
X217378571Y-83754819D01*
X217378571Y-83754819D02*
X217711904Y-84754819D01*
X217950000Y-83754819D02*
X218188095Y-84754819D01*
X218188095Y-84754819D02*
X218378571Y-84040533D01*
X218378571Y-84040533D02*
X218569047Y-84754819D01*
X218569047Y-84754819D02*
X218807143Y-83754819D01*
X216116667Y-91374819D02*
X216450000Y-92374819D01*
X216450000Y-92374819D02*
X216783333Y-91374819D01*
X217688095Y-92279580D02*
X217640476Y-92327200D01*
X217640476Y-92327200D02*
X217497619Y-92374819D01*
X217497619Y-92374819D02*
X217402381Y-92374819D01*
X217402381Y-92374819D02*
X217259524Y-92327200D01*
X217259524Y-92327200D02*
X217164286Y-92231961D01*
X217164286Y-92231961D02*
X217116667Y-92136723D01*
X217116667Y-92136723D02*
X217069048Y-91946247D01*
X217069048Y-91946247D02*
X217069048Y-91803390D01*
X217069048Y-91803390D02*
X217116667Y-91612914D01*
X217116667Y-91612914D02*
X217164286Y-91517676D01*
X217164286Y-91517676D02*
X217259524Y-91422438D01*
X217259524Y-91422438D02*
X217402381Y-91374819D01*
X217402381Y-91374819D02*
X217497619Y-91374819D01*
X217497619Y-91374819D02*
X217640476Y-91422438D01*
X217640476Y-91422438D02*
X217688095Y-91470057D01*
X218688095Y-92279580D02*
X218640476Y-92327200D01*
X218640476Y-92327200D02*
X218497619Y-92374819D01*
X218497619Y-92374819D02*
X218402381Y-92374819D01*
X218402381Y-92374819D02*
X218259524Y-92327200D01*
X218259524Y-92327200D02*
X218164286Y-92231961D01*
X218164286Y-92231961D02*
X218116667Y-92136723D01*
X218116667Y-92136723D02*
X218069048Y-91946247D01*
X218069048Y-91946247D02*
X218069048Y-91803390D01*
X218069048Y-91803390D02*
X218116667Y-91612914D01*
X218116667Y-91612914D02*
X218164286Y-91517676D01*
X218164286Y-91517676D02*
X218259524Y-91422438D01*
X218259524Y-91422438D02*
X218402381Y-91374819D01*
X218402381Y-91374819D02*
X218497619Y-91374819D01*
X218497619Y-91374819D02*
X218640476Y-91422438D01*
X218640476Y-91422438D02*
X218688095Y-91470057D01*
X213221905Y-84754819D02*
X213221905Y-83754819D01*
X213221905Y-83754819D02*
X213602857Y-83754819D01*
X213602857Y-83754819D02*
X213698095Y-83802438D01*
X213698095Y-83802438D02*
X213745714Y-83850057D01*
X213745714Y-83850057D02*
X213793333Y-83945295D01*
X213793333Y-83945295D02*
X213793333Y-84088152D01*
X213793333Y-84088152D02*
X213745714Y-84183390D01*
X213745714Y-84183390D02*
X213698095Y-84231009D01*
X213698095Y-84231009D02*
X213602857Y-84278628D01*
X213602857Y-84278628D02*
X213221905Y-84278628D01*
X214745714Y-84754819D02*
X214174286Y-84754819D01*
X214460000Y-84754819D02*
X214460000Y-83754819D01*
X214460000Y-83754819D02*
X214364762Y-83897676D01*
X214364762Y-83897676D02*
X214269524Y-83992914D01*
X214269524Y-83992914D02*
X214174286Y-84040533D01*
X213454761Y-104979580D02*
X213407142Y-105027200D01*
X213407142Y-105027200D02*
X213264285Y-105074819D01*
X213264285Y-105074819D02*
X213169047Y-105074819D01*
X213169047Y-105074819D02*
X213026190Y-105027200D01*
X213026190Y-105027200D02*
X212930952Y-104931961D01*
X212930952Y-104931961D02*
X212883333Y-104836723D01*
X212883333Y-104836723D02*
X212835714Y-104646247D01*
X212835714Y-104646247D02*
X212835714Y-104503390D01*
X212835714Y-104503390D02*
X212883333Y-104312914D01*
X212883333Y-104312914D02*
X212930952Y-104217676D01*
X212930952Y-104217676D02*
X213026190Y-104122438D01*
X213026190Y-104122438D02*
X213169047Y-104074819D01*
X213169047Y-104074819D02*
X213264285Y-104074819D01*
X213264285Y-104074819D02*
X213407142Y-104122438D01*
X213407142Y-104122438D02*
X213454761Y-104170057D01*
X214073809Y-104074819D02*
X214264285Y-104074819D01*
X214264285Y-104074819D02*
X214359523Y-104122438D01*
X214359523Y-104122438D02*
X214454761Y-104217676D01*
X214454761Y-104217676D02*
X214502380Y-104408152D01*
X214502380Y-104408152D02*
X214502380Y-104741485D01*
X214502380Y-104741485D02*
X214454761Y-104931961D01*
X214454761Y-104931961D02*
X214359523Y-105027200D01*
X214359523Y-105027200D02*
X214264285Y-105074819D01*
X214264285Y-105074819D02*
X214073809Y-105074819D01*
X214073809Y-105074819D02*
X213978571Y-105027200D01*
X213978571Y-105027200D02*
X213883333Y-104931961D01*
X213883333Y-104931961D02*
X213835714Y-104741485D01*
X213835714Y-104741485D02*
X213835714Y-104408152D01*
X213835714Y-104408152D02*
X213883333Y-104217676D01*
X213883333Y-104217676D02*
X213978571Y-104122438D01*
X213978571Y-104122438D02*
X214073809Y-104074819D01*
X215407142Y-105074819D02*
X214930952Y-105074819D01*
X214930952Y-105074819D02*
X214930952Y-104074819D01*
X216169047Y-104408152D02*
X216169047Y-105074819D01*
X215930952Y-104027200D02*
X215692857Y-104741485D01*
X215692857Y-104741485D02*
X216311904Y-104741485D01*
X213788095Y-88882438D02*
X213692857Y-88834819D01*
X213692857Y-88834819D02*
X213550000Y-88834819D01*
X213550000Y-88834819D02*
X213407143Y-88882438D01*
X213407143Y-88882438D02*
X213311905Y-88977676D01*
X213311905Y-88977676D02*
X213264286Y-89072914D01*
X213264286Y-89072914D02*
X213216667Y-89263390D01*
X213216667Y-89263390D02*
X213216667Y-89406247D01*
X213216667Y-89406247D02*
X213264286Y-89596723D01*
X213264286Y-89596723D02*
X213311905Y-89691961D01*
X213311905Y-89691961D02*
X213407143Y-89787200D01*
X213407143Y-89787200D02*
X213550000Y-89834819D01*
X213550000Y-89834819D02*
X213645238Y-89834819D01*
X213645238Y-89834819D02*
X213788095Y-89787200D01*
X213788095Y-89787200D02*
X213835714Y-89739580D01*
X213835714Y-89739580D02*
X213835714Y-89406247D01*
X213835714Y-89406247D02*
X213645238Y-89406247D01*
X214264286Y-89834819D02*
X214264286Y-88834819D01*
X214264286Y-88834819D02*
X214835714Y-89834819D01*
X214835714Y-89834819D02*
X214835714Y-88834819D01*
X215311905Y-89834819D02*
X215311905Y-88834819D01*
X215311905Y-88834819D02*
X215550000Y-88834819D01*
X215550000Y-88834819D02*
X215692857Y-88882438D01*
X215692857Y-88882438D02*
X215788095Y-88977676D01*
X215788095Y-88977676D02*
X215835714Y-89072914D01*
X215835714Y-89072914D02*
X215883333Y-89263390D01*
X215883333Y-89263390D02*
X215883333Y-89406247D01*
X215883333Y-89406247D02*
X215835714Y-89596723D01*
X215835714Y-89596723D02*
X215788095Y-89691961D01*
X215788095Y-89691961D02*
X215692857Y-89787200D01*
X215692857Y-89787200D02*
X215550000Y-89834819D01*
X215550000Y-89834819D02*
X215311905Y-89834819D01*
X216235714Y-107614819D02*
X216235714Y-106614819D01*
X216235714Y-106614819D02*
X216616666Y-106614819D01*
X216616666Y-106614819D02*
X216711904Y-106662438D01*
X216711904Y-106662438D02*
X216759523Y-106710057D01*
X216759523Y-106710057D02*
X216807142Y-106805295D01*
X216807142Y-106805295D02*
X216807142Y-106948152D01*
X216807142Y-106948152D02*
X216759523Y-107043390D01*
X216759523Y-107043390D02*
X216711904Y-107091009D01*
X216711904Y-107091009D02*
X216616666Y-107138628D01*
X216616666Y-107138628D02*
X216235714Y-107138628D01*
X217759523Y-107614819D02*
X217188095Y-107614819D01*
X217473809Y-107614819D02*
X217473809Y-106614819D01*
X217473809Y-106614819D02*
X217378571Y-106757676D01*
X217378571Y-106757676D02*
X217283333Y-106852914D01*
X217283333Y-106852914D02*
X217188095Y-106900533D01*
X218616666Y-106948152D02*
X218616666Y-107614819D01*
X218378571Y-106567200D02*
X218140476Y-107281485D01*
X218140476Y-107281485D02*
X218759523Y-107281485D01*
X213454761Y-107519580D02*
X213407142Y-107567200D01*
X213407142Y-107567200D02*
X213264285Y-107614819D01*
X213264285Y-107614819D02*
X213169047Y-107614819D01*
X213169047Y-107614819D02*
X213026190Y-107567200D01*
X213026190Y-107567200D02*
X212930952Y-107471961D01*
X212930952Y-107471961D02*
X212883333Y-107376723D01*
X212883333Y-107376723D02*
X212835714Y-107186247D01*
X212835714Y-107186247D02*
X212835714Y-107043390D01*
X212835714Y-107043390D02*
X212883333Y-106852914D01*
X212883333Y-106852914D02*
X212930952Y-106757676D01*
X212930952Y-106757676D02*
X213026190Y-106662438D01*
X213026190Y-106662438D02*
X213169047Y-106614819D01*
X213169047Y-106614819D02*
X213264285Y-106614819D01*
X213264285Y-106614819D02*
X213407142Y-106662438D01*
X213407142Y-106662438D02*
X213454761Y-106710057D01*
X214073809Y-106614819D02*
X214264285Y-106614819D01*
X214264285Y-106614819D02*
X214359523Y-106662438D01*
X214359523Y-106662438D02*
X214454761Y-106757676D01*
X214454761Y-106757676D02*
X214502380Y-106948152D01*
X214502380Y-106948152D02*
X214502380Y-107281485D01*
X214502380Y-107281485D02*
X214454761Y-107471961D01*
X214454761Y-107471961D02*
X214359523Y-107567200D01*
X214359523Y-107567200D02*
X214264285Y-107614819D01*
X214264285Y-107614819D02*
X214073809Y-107614819D01*
X214073809Y-107614819D02*
X213978571Y-107567200D01*
X213978571Y-107567200D02*
X213883333Y-107471961D01*
X213883333Y-107471961D02*
X213835714Y-107281485D01*
X213835714Y-107281485D02*
X213835714Y-106948152D01*
X213835714Y-106948152D02*
X213883333Y-106757676D01*
X213883333Y-106757676D02*
X213978571Y-106662438D01*
X213978571Y-106662438D02*
X214073809Y-106614819D01*
X215407142Y-107614819D02*
X214930952Y-107614819D01*
X214930952Y-107614819D02*
X214930952Y-106614819D01*
X216216666Y-106614819D02*
X215740476Y-106614819D01*
X215740476Y-106614819D02*
X215692857Y-107091009D01*
X215692857Y-107091009D02*
X215740476Y-107043390D01*
X215740476Y-107043390D02*
X215835714Y-106995771D01*
X215835714Y-106995771D02*
X216073809Y-106995771D01*
X216073809Y-106995771D02*
X216169047Y-107043390D01*
X216169047Y-107043390D02*
X216216666Y-107091009D01*
X216216666Y-107091009D02*
X216264285Y-107186247D01*
X216264285Y-107186247D02*
X216264285Y-107424342D01*
X216264285Y-107424342D02*
X216216666Y-107519580D01*
X216216666Y-107519580D02*
X216169047Y-107567200D01*
X216169047Y-107567200D02*
X216073809Y-107614819D01*
X216073809Y-107614819D02*
X215835714Y-107614819D01*
X215835714Y-107614819D02*
X215740476Y-107567200D01*
X215740476Y-107567200D02*
X215692857Y-107519580D01*
X213454761Y-99899580D02*
X213407142Y-99947200D01*
X213407142Y-99947200D02*
X213264285Y-99994819D01*
X213264285Y-99994819D02*
X213169047Y-99994819D01*
X213169047Y-99994819D02*
X213026190Y-99947200D01*
X213026190Y-99947200D02*
X212930952Y-99851961D01*
X212930952Y-99851961D02*
X212883333Y-99756723D01*
X212883333Y-99756723D02*
X212835714Y-99566247D01*
X212835714Y-99566247D02*
X212835714Y-99423390D01*
X212835714Y-99423390D02*
X212883333Y-99232914D01*
X212883333Y-99232914D02*
X212930952Y-99137676D01*
X212930952Y-99137676D02*
X213026190Y-99042438D01*
X213026190Y-99042438D02*
X213169047Y-98994819D01*
X213169047Y-98994819D02*
X213264285Y-98994819D01*
X213264285Y-98994819D02*
X213407142Y-99042438D01*
X213407142Y-99042438D02*
X213454761Y-99090057D01*
X214073809Y-98994819D02*
X214264285Y-98994819D01*
X214264285Y-98994819D02*
X214359523Y-99042438D01*
X214359523Y-99042438D02*
X214454761Y-99137676D01*
X214454761Y-99137676D02*
X214502380Y-99328152D01*
X214502380Y-99328152D02*
X214502380Y-99661485D01*
X214502380Y-99661485D02*
X214454761Y-99851961D01*
X214454761Y-99851961D02*
X214359523Y-99947200D01*
X214359523Y-99947200D02*
X214264285Y-99994819D01*
X214264285Y-99994819D02*
X214073809Y-99994819D01*
X214073809Y-99994819D02*
X213978571Y-99947200D01*
X213978571Y-99947200D02*
X213883333Y-99851961D01*
X213883333Y-99851961D02*
X213835714Y-99661485D01*
X213835714Y-99661485D02*
X213835714Y-99328152D01*
X213835714Y-99328152D02*
X213883333Y-99137676D01*
X213883333Y-99137676D02*
X213978571Y-99042438D01*
X213978571Y-99042438D02*
X214073809Y-98994819D01*
X215407142Y-99994819D02*
X214930952Y-99994819D01*
X214930952Y-99994819D02*
X214930952Y-98994819D01*
X215692857Y-99090057D02*
X215740476Y-99042438D01*
X215740476Y-99042438D02*
X215835714Y-98994819D01*
X215835714Y-98994819D02*
X216073809Y-98994819D01*
X216073809Y-98994819D02*
X216169047Y-99042438D01*
X216169047Y-99042438D02*
X216216666Y-99090057D01*
X216216666Y-99090057D02*
X216264285Y-99185295D01*
X216264285Y-99185295D02*
X216264285Y-99280533D01*
X216264285Y-99280533D02*
X216216666Y-99423390D01*
X216216666Y-99423390D02*
X215645238Y-99994819D01*
X215645238Y-99994819D02*
X216264285Y-99994819D01*
X213454761Y-94819580D02*
X213407142Y-94867200D01*
X213407142Y-94867200D02*
X213264285Y-94914819D01*
X213264285Y-94914819D02*
X213169047Y-94914819D01*
X213169047Y-94914819D02*
X213026190Y-94867200D01*
X213026190Y-94867200D02*
X212930952Y-94771961D01*
X212930952Y-94771961D02*
X212883333Y-94676723D01*
X212883333Y-94676723D02*
X212835714Y-94486247D01*
X212835714Y-94486247D02*
X212835714Y-94343390D01*
X212835714Y-94343390D02*
X212883333Y-94152914D01*
X212883333Y-94152914D02*
X212930952Y-94057676D01*
X212930952Y-94057676D02*
X213026190Y-93962438D01*
X213026190Y-93962438D02*
X213169047Y-93914819D01*
X213169047Y-93914819D02*
X213264285Y-93914819D01*
X213264285Y-93914819D02*
X213407142Y-93962438D01*
X213407142Y-93962438D02*
X213454761Y-94010057D01*
X214073809Y-93914819D02*
X214264285Y-93914819D01*
X214264285Y-93914819D02*
X214359523Y-93962438D01*
X214359523Y-93962438D02*
X214454761Y-94057676D01*
X214454761Y-94057676D02*
X214502380Y-94248152D01*
X214502380Y-94248152D02*
X214502380Y-94581485D01*
X214502380Y-94581485D02*
X214454761Y-94771961D01*
X214454761Y-94771961D02*
X214359523Y-94867200D01*
X214359523Y-94867200D02*
X214264285Y-94914819D01*
X214264285Y-94914819D02*
X214073809Y-94914819D01*
X214073809Y-94914819D02*
X213978571Y-94867200D01*
X213978571Y-94867200D02*
X213883333Y-94771961D01*
X213883333Y-94771961D02*
X213835714Y-94581485D01*
X213835714Y-94581485D02*
X213835714Y-94248152D01*
X213835714Y-94248152D02*
X213883333Y-94057676D01*
X213883333Y-94057676D02*
X213978571Y-93962438D01*
X213978571Y-93962438D02*
X214073809Y-93914819D01*
X215407142Y-94914819D02*
X214930952Y-94914819D01*
X214930952Y-94914819D02*
X214930952Y-93914819D01*
X215930952Y-93914819D02*
X216026190Y-93914819D01*
X216026190Y-93914819D02*
X216121428Y-93962438D01*
X216121428Y-93962438D02*
X216169047Y-94010057D01*
X216169047Y-94010057D02*
X216216666Y-94105295D01*
X216216666Y-94105295D02*
X216264285Y-94295771D01*
X216264285Y-94295771D02*
X216264285Y-94533866D01*
X216264285Y-94533866D02*
X216216666Y-94724342D01*
X216216666Y-94724342D02*
X216169047Y-94819580D01*
X216169047Y-94819580D02*
X216121428Y-94867200D01*
X216121428Y-94867200D02*
X216026190Y-94914819D01*
X216026190Y-94914819D02*
X215930952Y-94914819D01*
X215930952Y-94914819D02*
X215835714Y-94867200D01*
X215835714Y-94867200D02*
X215788095Y-94819580D01*
X215788095Y-94819580D02*
X215740476Y-94724342D01*
X215740476Y-94724342D02*
X215692857Y-94533866D01*
X215692857Y-94533866D02*
X215692857Y-94295771D01*
X215692857Y-94295771D02*
X215740476Y-94105295D01*
X215740476Y-94105295D02*
X215788095Y-94010057D01*
X215788095Y-94010057D02*
X215835714Y-93962438D01*
X215835714Y-93962438D02*
X215930952Y-93914819D01*
X216188095Y-97454819D02*
X215854762Y-96978628D01*
X215616667Y-97454819D02*
X215616667Y-96454819D01*
X215616667Y-96454819D02*
X215997619Y-96454819D01*
X215997619Y-96454819D02*
X216092857Y-96502438D01*
X216092857Y-96502438D02*
X216140476Y-96550057D01*
X216140476Y-96550057D02*
X216188095Y-96645295D01*
X216188095Y-96645295D02*
X216188095Y-96788152D01*
X216188095Y-96788152D02*
X216140476Y-96883390D01*
X216140476Y-96883390D02*
X216092857Y-96931009D01*
X216092857Y-96931009D02*
X215997619Y-96978628D01*
X215997619Y-96978628D02*
X215616667Y-96978628D01*
X216807143Y-96454819D02*
X216997619Y-96454819D01*
X216997619Y-96454819D02*
X217092857Y-96502438D01*
X217092857Y-96502438D02*
X217188095Y-96597676D01*
X217188095Y-96597676D02*
X217235714Y-96788152D01*
X217235714Y-96788152D02*
X217235714Y-97121485D01*
X217235714Y-97121485D02*
X217188095Y-97311961D01*
X217188095Y-97311961D02*
X217092857Y-97407200D01*
X217092857Y-97407200D02*
X216997619Y-97454819D01*
X216997619Y-97454819D02*
X216807143Y-97454819D01*
X216807143Y-97454819D02*
X216711905Y-97407200D01*
X216711905Y-97407200D02*
X216616667Y-97311961D01*
X216616667Y-97311961D02*
X216569048Y-97121485D01*
X216569048Y-97121485D02*
X216569048Y-96788152D01*
X216569048Y-96788152D02*
X216616667Y-96597676D01*
X216616667Y-96597676D02*
X216711905Y-96502438D01*
X216711905Y-96502438D02*
X216807143Y-96454819D01*
X217569048Y-96454819D02*
X217807143Y-97454819D01*
X217807143Y-97454819D02*
X217997619Y-96740533D01*
X217997619Y-96740533D02*
X218188095Y-97454819D01*
X218188095Y-97454819D02*
X218426191Y-96454819D01*
X219330952Y-97454819D02*
X218759524Y-97454819D01*
X219045238Y-97454819D02*
X219045238Y-96454819D01*
X219045238Y-96454819D02*
X218950000Y-96597676D01*
X218950000Y-96597676D02*
X218854762Y-96692914D01*
X218854762Y-96692914D02*
X218759524Y-96740533D01*
X213221905Y-87294819D02*
X213221905Y-86294819D01*
X213221905Y-86294819D02*
X213602857Y-86294819D01*
X213602857Y-86294819D02*
X213698095Y-86342438D01*
X213698095Y-86342438D02*
X213745714Y-86390057D01*
X213745714Y-86390057D02*
X213793333Y-86485295D01*
X213793333Y-86485295D02*
X213793333Y-86628152D01*
X213793333Y-86628152D02*
X213745714Y-86723390D01*
X213745714Y-86723390D02*
X213698095Y-86771009D01*
X213698095Y-86771009D02*
X213602857Y-86818628D01*
X213602857Y-86818628D02*
X213221905Y-86818628D01*
X214412381Y-86294819D02*
X214507619Y-86294819D01*
X214507619Y-86294819D02*
X214602857Y-86342438D01*
X214602857Y-86342438D02*
X214650476Y-86390057D01*
X214650476Y-86390057D02*
X214698095Y-86485295D01*
X214698095Y-86485295D02*
X214745714Y-86675771D01*
X214745714Y-86675771D02*
X214745714Y-86913866D01*
X214745714Y-86913866D02*
X214698095Y-87104342D01*
X214698095Y-87104342D02*
X214650476Y-87199580D01*
X214650476Y-87199580D02*
X214602857Y-87247200D01*
X214602857Y-87247200D02*
X214507619Y-87294819D01*
X214507619Y-87294819D02*
X214412381Y-87294819D01*
X214412381Y-87294819D02*
X214317143Y-87247200D01*
X214317143Y-87247200D02*
X214269524Y-87199580D01*
X214269524Y-87199580D02*
X214221905Y-87104342D01*
X214221905Y-87104342D02*
X214174286Y-86913866D01*
X214174286Y-86913866D02*
X214174286Y-86675771D01*
X214174286Y-86675771D02*
X214221905Y-86485295D01*
X214221905Y-86485295D02*
X214269524Y-86390057D01*
X214269524Y-86390057D02*
X214317143Y-86342438D01*
X214317143Y-86342438D02*
X214412381Y-86294819D01*
X213221905Y-112694819D02*
X213221905Y-111694819D01*
X213221905Y-111694819D02*
X213602857Y-111694819D01*
X213602857Y-111694819D02*
X213698095Y-111742438D01*
X213698095Y-111742438D02*
X213745714Y-111790057D01*
X213745714Y-111790057D02*
X213793333Y-111885295D01*
X213793333Y-111885295D02*
X213793333Y-112028152D01*
X213793333Y-112028152D02*
X213745714Y-112123390D01*
X213745714Y-112123390D02*
X213698095Y-112171009D01*
X213698095Y-112171009D02*
X213602857Y-112218628D01*
X213602857Y-112218628D02*
X213221905Y-112218628D01*
X214269524Y-112694819D02*
X214460000Y-112694819D01*
X214460000Y-112694819D02*
X214555238Y-112647200D01*
X214555238Y-112647200D02*
X214602857Y-112599580D01*
X214602857Y-112599580D02*
X214698095Y-112456723D01*
X214698095Y-112456723D02*
X214745714Y-112266247D01*
X214745714Y-112266247D02*
X214745714Y-111885295D01*
X214745714Y-111885295D02*
X214698095Y-111790057D01*
X214698095Y-111790057D02*
X214650476Y-111742438D01*
X214650476Y-111742438D02*
X214555238Y-111694819D01*
X214555238Y-111694819D02*
X214364762Y-111694819D01*
X214364762Y-111694819D02*
X214269524Y-111742438D01*
X214269524Y-111742438D02*
X214221905Y-111790057D01*
X214221905Y-111790057D02*
X214174286Y-111885295D01*
X214174286Y-111885295D02*
X214174286Y-112123390D01*
X214174286Y-112123390D02*
X214221905Y-112218628D01*
X214221905Y-112218628D02*
X214269524Y-112266247D01*
X214269524Y-112266247D02*
X214364762Y-112313866D01*
X214364762Y-112313866D02*
X214555238Y-112313866D01*
X214555238Y-112313866D02*
X214650476Y-112266247D01*
X214650476Y-112266247D02*
X214698095Y-112218628D01*
X214698095Y-112218628D02*
X214745714Y-112123390D01*
X213788095Y-91422438D02*
X213692857Y-91374819D01*
X213692857Y-91374819D02*
X213550000Y-91374819D01*
X213550000Y-91374819D02*
X213407143Y-91422438D01*
X213407143Y-91422438D02*
X213311905Y-91517676D01*
X213311905Y-91517676D02*
X213264286Y-91612914D01*
X213264286Y-91612914D02*
X213216667Y-91803390D01*
X213216667Y-91803390D02*
X213216667Y-91946247D01*
X213216667Y-91946247D02*
X213264286Y-92136723D01*
X213264286Y-92136723D02*
X213311905Y-92231961D01*
X213311905Y-92231961D02*
X213407143Y-92327200D01*
X213407143Y-92327200D02*
X213550000Y-92374819D01*
X213550000Y-92374819D02*
X213645238Y-92374819D01*
X213645238Y-92374819D02*
X213788095Y-92327200D01*
X213788095Y-92327200D02*
X213835714Y-92279580D01*
X213835714Y-92279580D02*
X213835714Y-91946247D01*
X213835714Y-91946247D02*
X213645238Y-91946247D01*
X214264286Y-92374819D02*
X214264286Y-91374819D01*
X214264286Y-91374819D02*
X214835714Y-92374819D01*
X214835714Y-92374819D02*
X214835714Y-91374819D01*
X215311905Y-92374819D02*
X215311905Y-91374819D01*
X215311905Y-91374819D02*
X215550000Y-91374819D01*
X215550000Y-91374819D02*
X215692857Y-91422438D01*
X215692857Y-91422438D02*
X215788095Y-91517676D01*
X215788095Y-91517676D02*
X215835714Y-91612914D01*
X215835714Y-91612914D02*
X215883333Y-91803390D01*
X215883333Y-91803390D02*
X215883333Y-91946247D01*
X215883333Y-91946247D02*
X215835714Y-92136723D01*
X215835714Y-92136723D02*
X215788095Y-92231961D01*
X215788095Y-92231961D02*
X215692857Y-92327200D01*
X215692857Y-92327200D02*
X215550000Y-92374819D01*
X215550000Y-92374819D02*
X215311905Y-92374819D01*
X216688095Y-86342438D02*
X216592857Y-86294819D01*
X216592857Y-86294819D02*
X216450000Y-86294819D01*
X216450000Y-86294819D02*
X216307143Y-86342438D01*
X216307143Y-86342438D02*
X216211905Y-86437676D01*
X216211905Y-86437676D02*
X216164286Y-86532914D01*
X216164286Y-86532914D02*
X216116667Y-86723390D01*
X216116667Y-86723390D02*
X216116667Y-86866247D01*
X216116667Y-86866247D02*
X216164286Y-87056723D01*
X216164286Y-87056723D02*
X216211905Y-87151961D01*
X216211905Y-87151961D02*
X216307143Y-87247200D01*
X216307143Y-87247200D02*
X216450000Y-87294819D01*
X216450000Y-87294819D02*
X216545238Y-87294819D01*
X216545238Y-87294819D02*
X216688095Y-87247200D01*
X216688095Y-87247200D02*
X216735714Y-87199580D01*
X216735714Y-87199580D02*
X216735714Y-86866247D01*
X216735714Y-86866247D02*
X216545238Y-86866247D01*
X217164286Y-87294819D02*
X217164286Y-86294819D01*
X217164286Y-86294819D02*
X217735714Y-87294819D01*
X217735714Y-87294819D02*
X217735714Y-86294819D01*
X218211905Y-87294819D02*
X218211905Y-86294819D01*
X218211905Y-86294819D02*
X218450000Y-86294819D01*
X218450000Y-86294819D02*
X218592857Y-86342438D01*
X218592857Y-86342438D02*
X218688095Y-86437676D01*
X218688095Y-86437676D02*
X218735714Y-86532914D01*
X218735714Y-86532914D02*
X218783333Y-86723390D01*
X218783333Y-86723390D02*
X218783333Y-86866247D01*
X218783333Y-86866247D02*
X218735714Y-87056723D01*
X218735714Y-87056723D02*
X218688095Y-87151961D01*
X218688095Y-87151961D02*
X218592857Y-87247200D01*
X218592857Y-87247200D02*
X218450000Y-87294819D01*
X218450000Y-87294819D02*
X218211905Y-87294819D01*
X216188095Y-105074819D02*
X215854762Y-104598628D01*
X215616667Y-105074819D02*
X215616667Y-104074819D01*
X215616667Y-104074819D02*
X215997619Y-104074819D01*
X215997619Y-104074819D02*
X216092857Y-104122438D01*
X216092857Y-104122438D02*
X216140476Y-104170057D01*
X216140476Y-104170057D02*
X216188095Y-104265295D01*
X216188095Y-104265295D02*
X216188095Y-104408152D01*
X216188095Y-104408152D02*
X216140476Y-104503390D01*
X216140476Y-104503390D02*
X216092857Y-104551009D01*
X216092857Y-104551009D02*
X215997619Y-104598628D01*
X215997619Y-104598628D02*
X215616667Y-104598628D01*
X216807143Y-104074819D02*
X216997619Y-104074819D01*
X216997619Y-104074819D02*
X217092857Y-104122438D01*
X217092857Y-104122438D02*
X217188095Y-104217676D01*
X217188095Y-104217676D02*
X217235714Y-104408152D01*
X217235714Y-104408152D02*
X217235714Y-104741485D01*
X217235714Y-104741485D02*
X217188095Y-104931961D01*
X217188095Y-104931961D02*
X217092857Y-105027200D01*
X217092857Y-105027200D02*
X216997619Y-105074819D01*
X216997619Y-105074819D02*
X216807143Y-105074819D01*
X216807143Y-105074819D02*
X216711905Y-105027200D01*
X216711905Y-105027200D02*
X216616667Y-104931961D01*
X216616667Y-104931961D02*
X216569048Y-104741485D01*
X216569048Y-104741485D02*
X216569048Y-104408152D01*
X216569048Y-104408152D02*
X216616667Y-104217676D01*
X216616667Y-104217676D02*
X216711905Y-104122438D01*
X216711905Y-104122438D02*
X216807143Y-104074819D01*
X217569048Y-104074819D02*
X217807143Y-105074819D01*
X217807143Y-105074819D02*
X217997619Y-104360533D01*
X217997619Y-104360533D02*
X218188095Y-105074819D01*
X218188095Y-105074819D02*
X218426191Y-104074819D01*
X219235714Y-104408152D02*
X219235714Y-105074819D01*
X218997619Y-104027200D02*
X218759524Y-104741485D01*
X218759524Y-104741485D02*
X219378571Y-104741485D01*
X216902380Y-89834819D02*
X216569047Y-89358628D01*
X216330952Y-89834819D02*
X216330952Y-88834819D01*
X216330952Y-88834819D02*
X216711904Y-88834819D01*
X216711904Y-88834819D02*
X216807142Y-88882438D01*
X216807142Y-88882438D02*
X216854761Y-88930057D01*
X216854761Y-88930057D02*
X216902380Y-89025295D01*
X216902380Y-89025295D02*
X216902380Y-89168152D01*
X216902380Y-89168152D02*
X216854761Y-89263390D01*
X216854761Y-89263390D02*
X216807142Y-89311009D01*
X216807142Y-89311009D02*
X216711904Y-89358628D01*
X216711904Y-89358628D02*
X216330952Y-89358628D01*
X217283333Y-89787200D02*
X217426190Y-89834819D01*
X217426190Y-89834819D02*
X217664285Y-89834819D01*
X217664285Y-89834819D02*
X217759523Y-89787200D01*
X217759523Y-89787200D02*
X217807142Y-89739580D01*
X217807142Y-89739580D02*
X217854761Y-89644342D01*
X217854761Y-89644342D02*
X217854761Y-89549104D01*
X217854761Y-89549104D02*
X217807142Y-89453866D01*
X217807142Y-89453866D02*
X217759523Y-89406247D01*
X217759523Y-89406247D02*
X217664285Y-89358628D01*
X217664285Y-89358628D02*
X217473809Y-89311009D01*
X217473809Y-89311009D02*
X217378571Y-89263390D01*
X217378571Y-89263390D02*
X217330952Y-89215771D01*
X217330952Y-89215771D02*
X217283333Y-89120533D01*
X217283333Y-89120533D02*
X217283333Y-89025295D01*
X217283333Y-89025295D02*
X217330952Y-88930057D01*
X217330952Y-88930057D02*
X217378571Y-88882438D01*
X217378571Y-88882438D02*
X217473809Y-88834819D01*
X217473809Y-88834819D02*
X217711904Y-88834819D01*
X217711904Y-88834819D02*
X217854761Y-88882438D01*
X218140476Y-88834819D02*
X218711904Y-88834819D01*
X218426190Y-89834819D02*
X218426190Y-88834819D01*
X216188095Y-99994819D02*
X215854762Y-99518628D01*
X215616667Y-99994819D02*
X215616667Y-98994819D01*
X215616667Y-98994819D02*
X215997619Y-98994819D01*
X215997619Y-98994819D02*
X216092857Y-99042438D01*
X216092857Y-99042438D02*
X216140476Y-99090057D01*
X216140476Y-99090057D02*
X216188095Y-99185295D01*
X216188095Y-99185295D02*
X216188095Y-99328152D01*
X216188095Y-99328152D02*
X216140476Y-99423390D01*
X216140476Y-99423390D02*
X216092857Y-99471009D01*
X216092857Y-99471009D02*
X215997619Y-99518628D01*
X215997619Y-99518628D02*
X215616667Y-99518628D01*
X216807143Y-98994819D02*
X216997619Y-98994819D01*
X216997619Y-98994819D02*
X217092857Y-99042438D01*
X217092857Y-99042438D02*
X217188095Y-99137676D01*
X217188095Y-99137676D02*
X217235714Y-99328152D01*
X217235714Y-99328152D02*
X217235714Y-99661485D01*
X217235714Y-99661485D02*
X217188095Y-99851961D01*
X217188095Y-99851961D02*
X217092857Y-99947200D01*
X217092857Y-99947200D02*
X216997619Y-99994819D01*
X216997619Y-99994819D02*
X216807143Y-99994819D01*
X216807143Y-99994819D02*
X216711905Y-99947200D01*
X216711905Y-99947200D02*
X216616667Y-99851961D01*
X216616667Y-99851961D02*
X216569048Y-99661485D01*
X216569048Y-99661485D02*
X216569048Y-99328152D01*
X216569048Y-99328152D02*
X216616667Y-99137676D01*
X216616667Y-99137676D02*
X216711905Y-99042438D01*
X216711905Y-99042438D02*
X216807143Y-98994819D01*
X217569048Y-98994819D02*
X217807143Y-99994819D01*
X217807143Y-99994819D02*
X217997619Y-99280533D01*
X217997619Y-99280533D02*
X218188095Y-99994819D01*
X218188095Y-99994819D02*
X218426191Y-98994819D01*
X218759524Y-99090057D02*
X218807143Y-99042438D01*
X218807143Y-99042438D02*
X218902381Y-98994819D01*
X218902381Y-98994819D02*
X219140476Y-98994819D01*
X219140476Y-98994819D02*
X219235714Y-99042438D01*
X219235714Y-99042438D02*
X219283333Y-99090057D01*
X219283333Y-99090057D02*
X219330952Y-99185295D01*
X219330952Y-99185295D02*
X219330952Y-99280533D01*
X219330952Y-99280533D02*
X219283333Y-99423390D01*
X219283333Y-99423390D02*
X218711905Y-99994819D01*
X218711905Y-99994819D02*
X219330952Y-99994819D01*
X213454761Y-102439580D02*
X213407142Y-102487200D01*
X213407142Y-102487200D02*
X213264285Y-102534819D01*
X213264285Y-102534819D02*
X213169047Y-102534819D01*
X213169047Y-102534819D02*
X213026190Y-102487200D01*
X213026190Y-102487200D02*
X212930952Y-102391961D01*
X212930952Y-102391961D02*
X212883333Y-102296723D01*
X212883333Y-102296723D02*
X212835714Y-102106247D01*
X212835714Y-102106247D02*
X212835714Y-101963390D01*
X212835714Y-101963390D02*
X212883333Y-101772914D01*
X212883333Y-101772914D02*
X212930952Y-101677676D01*
X212930952Y-101677676D02*
X213026190Y-101582438D01*
X213026190Y-101582438D02*
X213169047Y-101534819D01*
X213169047Y-101534819D02*
X213264285Y-101534819D01*
X213264285Y-101534819D02*
X213407142Y-101582438D01*
X213407142Y-101582438D02*
X213454761Y-101630057D01*
X214073809Y-101534819D02*
X214264285Y-101534819D01*
X214264285Y-101534819D02*
X214359523Y-101582438D01*
X214359523Y-101582438D02*
X214454761Y-101677676D01*
X214454761Y-101677676D02*
X214502380Y-101868152D01*
X214502380Y-101868152D02*
X214502380Y-102201485D01*
X214502380Y-102201485D02*
X214454761Y-102391961D01*
X214454761Y-102391961D02*
X214359523Y-102487200D01*
X214359523Y-102487200D02*
X214264285Y-102534819D01*
X214264285Y-102534819D02*
X214073809Y-102534819D01*
X214073809Y-102534819D02*
X213978571Y-102487200D01*
X213978571Y-102487200D02*
X213883333Y-102391961D01*
X213883333Y-102391961D02*
X213835714Y-102201485D01*
X213835714Y-102201485D02*
X213835714Y-101868152D01*
X213835714Y-101868152D02*
X213883333Y-101677676D01*
X213883333Y-101677676D02*
X213978571Y-101582438D01*
X213978571Y-101582438D02*
X214073809Y-101534819D01*
X215407142Y-102534819D02*
X214930952Y-102534819D01*
X214930952Y-102534819D02*
X214930952Y-101534819D01*
X215645238Y-101534819D02*
X216264285Y-101534819D01*
X216264285Y-101534819D02*
X215930952Y-101915771D01*
X215930952Y-101915771D02*
X216073809Y-101915771D01*
X216073809Y-101915771D02*
X216169047Y-101963390D01*
X216169047Y-101963390D02*
X216216666Y-102011009D01*
X216216666Y-102011009D02*
X216264285Y-102106247D01*
X216264285Y-102106247D02*
X216264285Y-102344342D01*
X216264285Y-102344342D02*
X216216666Y-102439580D01*
X216216666Y-102439580D02*
X216169047Y-102487200D01*
X216169047Y-102487200D02*
X216073809Y-102534819D01*
X216073809Y-102534819D02*
X215788095Y-102534819D01*
X215788095Y-102534819D02*
X215692857Y-102487200D01*
X215692857Y-102487200D02*
X215645238Y-102439580D01*
X213454761Y-97359580D02*
X213407142Y-97407200D01*
X213407142Y-97407200D02*
X213264285Y-97454819D01*
X213264285Y-97454819D02*
X213169047Y-97454819D01*
X213169047Y-97454819D02*
X213026190Y-97407200D01*
X213026190Y-97407200D02*
X212930952Y-97311961D01*
X212930952Y-97311961D02*
X212883333Y-97216723D01*
X212883333Y-97216723D02*
X212835714Y-97026247D01*
X212835714Y-97026247D02*
X212835714Y-96883390D01*
X212835714Y-96883390D02*
X212883333Y-96692914D01*
X212883333Y-96692914D02*
X212930952Y-96597676D01*
X212930952Y-96597676D02*
X213026190Y-96502438D01*
X213026190Y-96502438D02*
X213169047Y-96454819D01*
X213169047Y-96454819D02*
X213264285Y-96454819D01*
X213264285Y-96454819D02*
X213407142Y-96502438D01*
X213407142Y-96502438D02*
X213454761Y-96550057D01*
X214073809Y-96454819D02*
X214264285Y-96454819D01*
X214264285Y-96454819D02*
X214359523Y-96502438D01*
X214359523Y-96502438D02*
X214454761Y-96597676D01*
X214454761Y-96597676D02*
X214502380Y-96788152D01*
X214502380Y-96788152D02*
X214502380Y-97121485D01*
X214502380Y-97121485D02*
X214454761Y-97311961D01*
X214454761Y-97311961D02*
X214359523Y-97407200D01*
X214359523Y-97407200D02*
X214264285Y-97454819D01*
X214264285Y-97454819D02*
X214073809Y-97454819D01*
X214073809Y-97454819D02*
X213978571Y-97407200D01*
X213978571Y-97407200D02*
X213883333Y-97311961D01*
X213883333Y-97311961D02*
X213835714Y-97121485D01*
X213835714Y-97121485D02*
X213835714Y-96788152D01*
X213835714Y-96788152D02*
X213883333Y-96597676D01*
X213883333Y-96597676D02*
X213978571Y-96502438D01*
X213978571Y-96502438D02*
X214073809Y-96454819D01*
X215407142Y-97454819D02*
X214930952Y-97454819D01*
X214930952Y-97454819D02*
X214930952Y-96454819D01*
X216264285Y-97454819D02*
X215692857Y-97454819D01*
X215978571Y-97454819D02*
X215978571Y-96454819D01*
X215978571Y-96454819D02*
X215883333Y-96597676D01*
X215883333Y-96597676D02*
X215788095Y-96692914D01*
X215788095Y-96692914D02*
X215692857Y-96740533D01*
X216188095Y-94914819D02*
X215854762Y-94438628D01*
X215616667Y-94914819D02*
X215616667Y-93914819D01*
X215616667Y-93914819D02*
X215997619Y-93914819D01*
X215997619Y-93914819D02*
X216092857Y-93962438D01*
X216092857Y-93962438D02*
X216140476Y-94010057D01*
X216140476Y-94010057D02*
X216188095Y-94105295D01*
X216188095Y-94105295D02*
X216188095Y-94248152D01*
X216188095Y-94248152D02*
X216140476Y-94343390D01*
X216140476Y-94343390D02*
X216092857Y-94391009D01*
X216092857Y-94391009D02*
X215997619Y-94438628D01*
X215997619Y-94438628D02*
X215616667Y-94438628D01*
X216807143Y-93914819D02*
X216997619Y-93914819D01*
X216997619Y-93914819D02*
X217092857Y-93962438D01*
X217092857Y-93962438D02*
X217188095Y-94057676D01*
X217188095Y-94057676D02*
X217235714Y-94248152D01*
X217235714Y-94248152D02*
X217235714Y-94581485D01*
X217235714Y-94581485D02*
X217188095Y-94771961D01*
X217188095Y-94771961D02*
X217092857Y-94867200D01*
X217092857Y-94867200D02*
X216997619Y-94914819D01*
X216997619Y-94914819D02*
X216807143Y-94914819D01*
X216807143Y-94914819D02*
X216711905Y-94867200D01*
X216711905Y-94867200D02*
X216616667Y-94771961D01*
X216616667Y-94771961D02*
X216569048Y-94581485D01*
X216569048Y-94581485D02*
X216569048Y-94248152D01*
X216569048Y-94248152D02*
X216616667Y-94057676D01*
X216616667Y-94057676D02*
X216711905Y-93962438D01*
X216711905Y-93962438D02*
X216807143Y-93914819D01*
X217569048Y-93914819D02*
X217807143Y-94914819D01*
X217807143Y-94914819D02*
X217997619Y-94200533D01*
X217997619Y-94200533D02*
X218188095Y-94914819D01*
X218188095Y-94914819D02*
X218426191Y-93914819D01*
X218997619Y-93914819D02*
X219092857Y-93914819D01*
X219092857Y-93914819D02*
X219188095Y-93962438D01*
X219188095Y-93962438D02*
X219235714Y-94010057D01*
X219235714Y-94010057D02*
X219283333Y-94105295D01*
X219283333Y-94105295D02*
X219330952Y-94295771D01*
X219330952Y-94295771D02*
X219330952Y-94533866D01*
X219330952Y-94533866D02*
X219283333Y-94724342D01*
X219283333Y-94724342D02*
X219235714Y-94819580D01*
X219235714Y-94819580D02*
X219188095Y-94867200D01*
X219188095Y-94867200D02*
X219092857Y-94914819D01*
X219092857Y-94914819D02*
X218997619Y-94914819D01*
X218997619Y-94914819D02*
X218902381Y-94867200D01*
X218902381Y-94867200D02*
X218854762Y-94819580D01*
X218854762Y-94819580D02*
X218807143Y-94724342D01*
X218807143Y-94724342D02*
X218759524Y-94533866D01*
X218759524Y-94533866D02*
X218759524Y-94295771D01*
X218759524Y-94295771D02*
X218807143Y-94105295D01*
X218807143Y-94105295D02*
X218854762Y-94010057D01*
X218854762Y-94010057D02*
X218902381Y-93962438D01*
X218902381Y-93962438D02*
X218997619Y-93914819D01*
X216188095Y-102534819D02*
X215854762Y-102058628D01*
X215616667Y-102534819D02*
X215616667Y-101534819D01*
X215616667Y-101534819D02*
X215997619Y-101534819D01*
X215997619Y-101534819D02*
X216092857Y-101582438D01*
X216092857Y-101582438D02*
X216140476Y-101630057D01*
X216140476Y-101630057D02*
X216188095Y-101725295D01*
X216188095Y-101725295D02*
X216188095Y-101868152D01*
X216188095Y-101868152D02*
X216140476Y-101963390D01*
X216140476Y-101963390D02*
X216092857Y-102011009D01*
X216092857Y-102011009D02*
X215997619Y-102058628D01*
X215997619Y-102058628D02*
X215616667Y-102058628D01*
X216807143Y-101534819D02*
X216997619Y-101534819D01*
X216997619Y-101534819D02*
X217092857Y-101582438D01*
X217092857Y-101582438D02*
X217188095Y-101677676D01*
X217188095Y-101677676D02*
X217235714Y-101868152D01*
X217235714Y-101868152D02*
X217235714Y-102201485D01*
X217235714Y-102201485D02*
X217188095Y-102391961D01*
X217188095Y-102391961D02*
X217092857Y-102487200D01*
X217092857Y-102487200D02*
X216997619Y-102534819D01*
X216997619Y-102534819D02*
X216807143Y-102534819D01*
X216807143Y-102534819D02*
X216711905Y-102487200D01*
X216711905Y-102487200D02*
X216616667Y-102391961D01*
X216616667Y-102391961D02*
X216569048Y-102201485D01*
X216569048Y-102201485D02*
X216569048Y-101868152D01*
X216569048Y-101868152D02*
X216616667Y-101677676D01*
X216616667Y-101677676D02*
X216711905Y-101582438D01*
X216711905Y-101582438D02*
X216807143Y-101534819D01*
X217569048Y-101534819D02*
X217807143Y-102534819D01*
X217807143Y-102534819D02*
X217997619Y-101820533D01*
X217997619Y-101820533D02*
X218188095Y-102534819D01*
X218188095Y-102534819D02*
X218426191Y-101534819D01*
X218711905Y-101534819D02*
X219330952Y-101534819D01*
X219330952Y-101534819D02*
X218997619Y-101915771D01*
X218997619Y-101915771D02*
X219140476Y-101915771D01*
X219140476Y-101915771D02*
X219235714Y-101963390D01*
X219235714Y-101963390D02*
X219283333Y-102011009D01*
X219283333Y-102011009D02*
X219330952Y-102106247D01*
X219330952Y-102106247D02*
X219330952Y-102344342D01*
X219330952Y-102344342D02*
X219283333Y-102439580D01*
X219283333Y-102439580D02*
X219235714Y-102487200D01*
X219235714Y-102487200D02*
X219140476Y-102534819D01*
X219140476Y-102534819D02*
X218854762Y-102534819D01*
X218854762Y-102534819D02*
X218759524Y-102487200D01*
X218759524Y-102487200D02*
X218711905Y-102439580D01*
X208309523Y-82209819D02*
X207976190Y-81733628D01*
X207738095Y-82209819D02*
X207738095Y-81209819D01*
X207738095Y-81209819D02*
X208119047Y-81209819D01*
X208119047Y-81209819D02*
X208214285Y-81257438D01*
X208214285Y-81257438D02*
X208261904Y-81305057D01*
X208261904Y-81305057D02*
X208309523Y-81400295D01*
X208309523Y-81400295D02*
X208309523Y-81543152D01*
X208309523Y-81543152D02*
X208261904Y-81638390D01*
X208261904Y-81638390D02*
X208214285Y-81686009D01*
X208214285Y-81686009D02*
X208119047Y-81733628D01*
X208119047Y-81733628D02*
X207738095Y-81733628D01*
X209785714Y-81209819D02*
X209785714Y-81924104D01*
X209785714Y-81924104D02*
X209738095Y-82066961D01*
X209738095Y-82066961D02*
X209642857Y-82162200D01*
X209642857Y-82162200D02*
X209500000Y-82209819D01*
X209500000Y-82209819D02*
X209404762Y-82209819D01*
X210690476Y-81543152D02*
X210690476Y-82209819D01*
X210261905Y-81543152D02*
X210261905Y-82066961D01*
X210261905Y-82066961D02*
X210309524Y-82162200D01*
X210309524Y-82162200D02*
X210404762Y-82209819D01*
X210404762Y-82209819D02*
X210547619Y-82209819D01*
X210547619Y-82209819D02*
X210642857Y-82162200D01*
X210642857Y-82162200D02*
X210690476Y-82114580D01*
X211166667Y-82209819D02*
X211166667Y-81543152D01*
X211166667Y-81638390D02*
X211214286Y-81590771D01*
X211214286Y-81590771D02*
X211309524Y-81543152D01*
X211309524Y-81543152D02*
X211452381Y-81543152D01*
X211452381Y-81543152D02*
X211547619Y-81590771D01*
X211547619Y-81590771D02*
X211595238Y-81686009D01*
X211595238Y-81686009D02*
X211595238Y-82209819D01*
X211595238Y-81686009D02*
X211642857Y-81590771D01*
X211642857Y-81590771D02*
X211738095Y-81543152D01*
X211738095Y-81543152D02*
X211880952Y-81543152D01*
X211880952Y-81543152D02*
X211976191Y-81590771D01*
X211976191Y-81590771D02*
X212023810Y-81686009D01*
X212023810Y-81686009D02*
X212023810Y-82209819D01*
X212500000Y-81543152D02*
X212500000Y-82543152D01*
X212500000Y-81590771D02*
X212595238Y-81543152D01*
X212595238Y-81543152D02*
X212785714Y-81543152D01*
X212785714Y-81543152D02*
X212880952Y-81590771D01*
X212880952Y-81590771D02*
X212928571Y-81638390D01*
X212928571Y-81638390D02*
X212976190Y-81733628D01*
X212976190Y-81733628D02*
X212976190Y-82019342D01*
X212976190Y-82019342D02*
X212928571Y-82114580D01*
X212928571Y-82114580D02*
X212880952Y-82162200D01*
X212880952Y-82162200D02*
X212785714Y-82209819D01*
X212785714Y-82209819D02*
X212595238Y-82209819D01*
X212595238Y-82209819D02*
X212500000Y-82162200D01*
X213785714Y-82162200D02*
X213690476Y-82209819D01*
X213690476Y-82209819D02*
X213500000Y-82209819D01*
X213500000Y-82209819D02*
X213404762Y-82162200D01*
X213404762Y-82162200D02*
X213357143Y-82066961D01*
X213357143Y-82066961D02*
X213357143Y-81686009D01*
X213357143Y-81686009D02*
X213404762Y-81590771D01*
X213404762Y-81590771D02*
X213500000Y-81543152D01*
X213500000Y-81543152D02*
X213690476Y-81543152D01*
X213690476Y-81543152D02*
X213785714Y-81590771D01*
X213785714Y-81590771D02*
X213833333Y-81686009D01*
X213833333Y-81686009D02*
X213833333Y-81781247D01*
X213833333Y-81781247D02*
X213357143Y-81876485D01*
X214261905Y-82209819D02*
X214261905Y-81543152D01*
X214261905Y-81733628D02*
X214309524Y-81638390D01*
X214309524Y-81638390D02*
X214357143Y-81590771D01*
X214357143Y-81590771D02*
X214452381Y-81543152D01*
X214452381Y-81543152D02*
X214547619Y-81543152D01*
X214833334Y-82162200D02*
X214928572Y-82209819D01*
X214928572Y-82209819D02*
X215119048Y-82209819D01*
X215119048Y-82209819D02*
X215214286Y-82162200D01*
X215214286Y-82162200D02*
X215261905Y-82066961D01*
X215261905Y-82066961D02*
X215261905Y-82019342D01*
X215261905Y-82019342D02*
X215214286Y-81924104D01*
X215214286Y-81924104D02*
X215119048Y-81876485D01*
X215119048Y-81876485D02*
X214976191Y-81876485D01*
X214976191Y-81876485D02*
X214880953Y-81828866D01*
X214880953Y-81828866D02*
X214833334Y-81733628D01*
X214833334Y-81733628D02*
X214833334Y-81686009D01*
X214833334Y-81686009D02*
X214880953Y-81590771D01*
X214880953Y-81590771D02*
X214976191Y-81543152D01*
X214976191Y-81543152D02*
X215119048Y-81543152D01*
X215119048Y-81543152D02*
X215214286Y-81590771D01*
X215738096Y-82162200D02*
X215738096Y-82209819D01*
X215738096Y-82209819D02*
X215690477Y-82305057D01*
X215690477Y-82305057D02*
X215642858Y-82352676D01*
X216928572Y-82209819D02*
X216928572Y-81209819D01*
X216928572Y-81209819D02*
X217261905Y-81924104D01*
X217261905Y-81924104D02*
X217595238Y-81209819D01*
X217595238Y-81209819D02*
X217595238Y-82209819D01*
X218642857Y-82114580D02*
X218595238Y-82162200D01*
X218595238Y-82162200D02*
X218452381Y-82209819D01*
X218452381Y-82209819D02*
X218357143Y-82209819D01*
X218357143Y-82209819D02*
X218214286Y-82162200D01*
X218214286Y-82162200D02*
X218119048Y-82066961D01*
X218119048Y-82066961D02*
X218071429Y-81971723D01*
X218071429Y-81971723D02*
X218023810Y-81781247D01*
X218023810Y-81781247D02*
X218023810Y-81638390D01*
X218023810Y-81638390D02*
X218071429Y-81447914D01*
X218071429Y-81447914D02*
X218119048Y-81352676D01*
X218119048Y-81352676D02*
X218214286Y-81257438D01*
X218214286Y-81257438D02*
X218357143Y-81209819D01*
X218357143Y-81209819D02*
X218452381Y-81209819D01*
X218452381Y-81209819D02*
X218595238Y-81257438D01*
X218595238Y-81257438D02*
X218642857Y-81305057D01*
X219071429Y-81209819D02*
X219071429Y-82019342D01*
X219071429Y-82019342D02*
X219119048Y-82114580D01*
X219119048Y-82114580D02*
X219166667Y-82162200D01*
X219166667Y-82162200D02*
X219261905Y-82209819D01*
X219261905Y-82209819D02*
X219452381Y-82209819D01*
X219452381Y-82209819D02*
X219547619Y-82162200D01*
X219547619Y-82162200D02*
X219595238Y-82114580D01*
X219595238Y-82114580D02*
X219642857Y-82019342D01*
X219642857Y-82019342D02*
X219642857Y-81209819D01*
X220880953Y-82209819D02*
X220880953Y-81209819D01*
X220880953Y-81209819D02*
X221119048Y-81209819D01*
X221119048Y-81209819D02*
X221261905Y-81257438D01*
X221261905Y-81257438D02*
X221357143Y-81352676D01*
X221357143Y-81352676D02*
X221404762Y-81447914D01*
X221404762Y-81447914D02*
X221452381Y-81638390D01*
X221452381Y-81638390D02*
X221452381Y-81781247D01*
X221452381Y-81781247D02*
X221404762Y-81971723D01*
X221404762Y-81971723D02*
X221357143Y-82066961D01*
X221357143Y-82066961D02*
X221261905Y-82162200D01*
X221261905Y-82162200D02*
X221119048Y-82209819D01*
X221119048Y-82209819D02*
X220880953Y-82209819D01*
X222023810Y-82209819D02*
X221928572Y-82162200D01*
X221928572Y-82162200D02*
X221880953Y-82114580D01*
X221880953Y-82114580D02*
X221833334Y-82019342D01*
X221833334Y-82019342D02*
X221833334Y-81733628D01*
X221833334Y-81733628D02*
X221880953Y-81638390D01*
X221880953Y-81638390D02*
X221928572Y-81590771D01*
X221928572Y-81590771D02*
X222023810Y-81543152D01*
X222023810Y-81543152D02*
X222166667Y-81543152D01*
X222166667Y-81543152D02*
X222261905Y-81590771D01*
X222261905Y-81590771D02*
X222309524Y-81638390D01*
X222309524Y-81638390D02*
X222357143Y-81733628D01*
X222357143Y-81733628D02*
X222357143Y-82019342D01*
X222357143Y-82019342D02*
X222309524Y-82114580D01*
X222309524Y-82114580D02*
X222261905Y-82162200D01*
X222261905Y-82162200D02*
X222166667Y-82209819D01*
X222166667Y-82209819D02*
X222023810Y-82209819D01*
X222690477Y-81543152D02*
X222880953Y-82209819D01*
X222880953Y-82209819D02*
X223071429Y-81733628D01*
X223071429Y-81733628D02*
X223261905Y-82209819D01*
X223261905Y-82209819D02*
X223452381Y-81543152D01*
X223833334Y-81543152D02*
X223833334Y-82209819D01*
X223833334Y-81638390D02*
X223880953Y-81590771D01*
X223880953Y-81590771D02*
X223976191Y-81543152D01*
X223976191Y-81543152D02*
X224119048Y-81543152D01*
X224119048Y-81543152D02*
X224214286Y-81590771D01*
X224214286Y-81590771D02*
X224261905Y-81686009D01*
X224261905Y-81686009D02*
X224261905Y-82209819D01*
X211254819Y-126633333D02*
X210778628Y-126966666D01*
X211254819Y-127204761D02*
X210254819Y-127204761D01*
X210254819Y-127204761D02*
X210254819Y-126823809D01*
X210254819Y-126823809D02*
X210302438Y-126728571D01*
X210302438Y-126728571D02*
X210350057Y-126680952D01*
X210350057Y-126680952D02*
X210445295Y-126633333D01*
X210445295Y-126633333D02*
X210588152Y-126633333D01*
X210588152Y-126633333D02*
X210683390Y-126680952D01*
X210683390Y-126680952D02*
X210731009Y-126728571D01*
X210731009Y-126728571D02*
X210778628Y-126823809D01*
X210778628Y-126823809D02*
X210778628Y-127204761D01*
X210731009Y-126204761D02*
X210731009Y-125871428D01*
X211254819Y-125728571D02*
X211254819Y-126204761D01*
X211254819Y-126204761D02*
X210254819Y-126204761D01*
X210254819Y-126204761D02*
X210254819Y-125728571D01*
X210731009Y-124966666D02*
X210731009Y-125299999D01*
X211254819Y-125299999D02*
X210254819Y-125299999D01*
X210254819Y-125299999D02*
X210254819Y-124823809D01*
X210254819Y-124299999D02*
X210492914Y-124299999D01*
X210397676Y-124538094D02*
X210492914Y-124299999D01*
X210492914Y-124299999D02*
X210397676Y-124061904D01*
X210683390Y-124442856D02*
X210492914Y-124299999D01*
X210492914Y-124299999D02*
X210683390Y-124157142D01*
X210254819Y-123538094D02*
X210492914Y-123538094D01*
X210397676Y-123776189D02*
X210492914Y-123538094D01*
X210492914Y-123538094D02*
X210397676Y-123299999D01*
X210683390Y-123680951D02*
X210492914Y-123538094D01*
X210492914Y-123538094D02*
X210683390Y-123395237D01*
%TO.C,T1*%
X227461795Y-148321585D02*
X229719128Y-154523555D01*
X229719128Y-154523555D02*
X232397252Y-153548797D01*
X230139919Y-147346826D02*
X227461795Y-148321585D01*
X231268585Y-150447812D02*
X230139919Y-147346826D01*
X231268585Y-150447812D02*
X232397252Y-153548797D01*
X231935524Y-152280211D02*
X230601646Y-148615411D01*
%TO.C,B1*%
X208250000Y-115750000D02*
X208250000Y-118250000D01*
X208250000Y-115750000D02*
X209750000Y-114250000D01*
X208250000Y-118250000D02*
X209750000Y-119750000D01*
X209750000Y-114250000D02*
X212250000Y-114250000D01*
X209750000Y-119750000D02*
X212250000Y-119750000D01*
X213750000Y-115750000D02*
X212250000Y-114250000D01*
X213750000Y-115750000D02*
X213750000Y-118250000D01*
X213750000Y-118250000D02*
X212250000Y-119750000D01*
D11*
%TO.C,D6*%
X118250000Y-134000000D02*
X118650000Y-134000000D01*
X118650000Y-134000000D02*
X118650000Y-133450000D01*
X118650000Y-134000000D02*
X118650000Y-134550000D01*
X118650000Y-134000000D02*
X119250000Y-133600000D01*
X119250000Y-133600000D02*
X119250000Y-134400000D01*
X119250000Y-134000000D02*
X119750000Y-134000000D01*
X119250000Y-134400000D02*
X118650000Y-134000000D01*
%TO.C,D10*%
X137250000Y-127000000D02*
X137650000Y-127000000D01*
X137650000Y-127000000D02*
X137650000Y-126450000D01*
X137650000Y-127000000D02*
X137650000Y-127550000D01*
X137650000Y-127000000D02*
X138250000Y-126600000D01*
X138250000Y-126600000D02*
X138250000Y-127400000D01*
X138250000Y-127000000D02*
X138750000Y-127000000D01*
X138250000Y-127400000D02*
X137650000Y-127000000D01*
D12*
%TO.C,MCU1*%
X207050000Y-82970000D02*
X207050000Y-113570000D01*
X207050000Y-82970000D02*
X209710000Y-82970000D01*
X207050000Y-113570000D02*
X209710000Y-113570000D01*
X209710000Y-82970000D02*
X209710000Y-113570000D01*
X222290000Y-82970000D02*
X222290000Y-113570000D01*
X222290000Y-82970000D02*
X224950000Y-82970000D01*
X222290000Y-85570000D02*
X224950000Y-85570000D01*
X222290000Y-113570000D02*
X224950000Y-113570000D01*
X224950000Y-82970000D02*
X224950000Y-113570000D01*
D11*
%TO.C,D17*%
X175250000Y-147000000D02*
X175650000Y-147000000D01*
X175650000Y-147000000D02*
X175650000Y-146450000D01*
X175650000Y-147000000D02*
X175650000Y-147550000D01*
X175650000Y-147000000D02*
X176250000Y-146600000D01*
X176250000Y-146600000D02*
X176250000Y-147400000D01*
X176250000Y-147000000D02*
X176750000Y-147000000D01*
X176250000Y-147400000D02*
X175650000Y-147000000D01*
%TO.C,D23*%
X194250000Y-111000000D02*
X194650000Y-111000000D01*
X194650000Y-111000000D02*
X194650000Y-110450000D01*
X194650000Y-111000000D02*
X194650000Y-111550000D01*
X194650000Y-111000000D02*
X195250000Y-110600000D01*
X195250000Y-110600000D02*
X195250000Y-111400000D01*
X195250000Y-111000000D02*
X195750000Y-111000000D01*
X195250000Y-111400000D02*
X194650000Y-111000000D01*
%TO.C,D2*%
X99250000Y-136000000D02*
X99650000Y-136000000D01*
X99650000Y-136000000D02*
X99650000Y-135450000D01*
X99650000Y-136000000D02*
X99650000Y-136550000D01*
X99650000Y-136000000D02*
X100250000Y-135600000D01*
X100250000Y-135600000D02*
X100250000Y-136400000D01*
X100250000Y-136000000D02*
X100750000Y-136000000D01*
X100250000Y-136400000D02*
X99650000Y-136000000D01*
%TO.C,D21*%
X194250000Y-149000000D02*
X194650000Y-149000000D01*
X194650000Y-149000000D02*
X194650000Y-148450000D01*
X194650000Y-149000000D02*
X194650000Y-149550000D01*
X194650000Y-149000000D02*
X195250000Y-148600000D01*
X195250000Y-148600000D02*
X195250000Y-149400000D01*
X195250000Y-149000000D02*
X195750000Y-149000000D01*
X195250000Y-149400000D02*
X194650000Y-149000000D01*
%TO.C,D19*%
X175250000Y-109000000D02*
X175650000Y-109000000D01*
X175650000Y-109000000D02*
X175650000Y-108450000D01*
X175650000Y-109000000D02*
X175650000Y-109550000D01*
X175650000Y-109000000D02*
X176250000Y-108600000D01*
X176250000Y-108600000D02*
X176250000Y-109400000D01*
X176250000Y-109000000D02*
X176750000Y-109000000D01*
X176250000Y-109400000D02*
X175650000Y-109000000D01*
%TO.C,D8*%
X118250000Y-96000000D02*
X118650000Y-96000000D01*
X118650000Y-96000000D02*
X118650000Y-95450000D01*
X118650000Y-96000000D02*
X118650000Y-96550000D01*
X118650000Y-96000000D02*
X119250000Y-95600000D01*
X119250000Y-95600000D02*
X119250000Y-96400000D01*
X119250000Y-96000000D02*
X119750000Y-96000000D01*
X119250000Y-96400000D02*
X118650000Y-96000000D01*
D10*
%TO.C,JST1*%
X215650000Y-115050000D02*
X215650000Y-115750000D01*
X215650000Y-115750000D02*
X217250000Y-115750000D01*
X215650000Y-120250000D02*
X215650000Y-120950000D01*
X215650000Y-120950000D02*
X223250000Y-120950000D01*
X217250000Y-115750000D02*
X217250000Y-120250000D01*
X217250000Y-120250000D02*
X215650000Y-120250000D01*
X218500000Y-119000000D02*
X219000000Y-119000000D01*
X218750000Y-119250000D02*
X218750000Y-118750000D01*
X223250000Y-115050000D02*
X215650000Y-115050000D01*
X223250000Y-120950000D02*
X223250000Y-115050000D01*
D11*
%TO.C,D11*%
X137250000Y-108000000D02*
X137650000Y-108000000D01*
X137650000Y-108000000D02*
X137650000Y-107450000D01*
X137650000Y-108000000D02*
X137650000Y-108550000D01*
X137650000Y-108000000D02*
X138250000Y-107600000D01*
X138250000Y-107600000D02*
X138250000Y-108400000D01*
X138250000Y-108000000D02*
X138750000Y-108000000D01*
X138250000Y-108400000D02*
X137650000Y-108000000D01*
%TO.C,D15*%
X156250000Y-103000000D02*
X156650000Y-103000000D01*
X156650000Y-103000000D02*
X156650000Y-102450000D01*
X156650000Y-103000000D02*
X156650000Y-103550000D01*
X156650000Y-103000000D02*
X157250000Y-102600000D01*
X157250000Y-102600000D02*
X157250000Y-103400000D01*
X157250000Y-103000000D02*
X157750000Y-103000000D01*
X157250000Y-103400000D02*
X156650000Y-103000000D01*
%TO.C,D18*%
X175250000Y-128000000D02*
X175650000Y-128000000D01*
X175650000Y-128000000D02*
X175650000Y-127450000D01*
X175650000Y-128000000D02*
X175650000Y-128550000D01*
X175650000Y-128000000D02*
X176250000Y-127600000D01*
X176250000Y-127600000D02*
X176250000Y-128400000D01*
X176250000Y-128000000D02*
X176750000Y-128000000D01*
X176250000Y-128400000D02*
X175650000Y-128000000D01*
%TO.C,D27*%
X223941342Y-170749354D02*
X224693096Y-171022970D01*
X223975199Y-171825854D02*
X224112007Y-171449977D01*
X224112007Y-171449977D02*
X223595176Y-171261866D01*
X224112007Y-171449977D02*
X223941342Y-170749354D01*
X224112007Y-171449977D02*
X224628838Y-171638088D01*
X224317219Y-170886162D02*
X224488229Y-170416316D01*
X224693096Y-171022970D02*
X224112007Y-171449977D01*
%TO.C,D25*%
X176250000Y-168000000D02*
X176650000Y-168000000D01*
X176650000Y-168000000D02*
X176650000Y-167450000D01*
X176650000Y-168000000D02*
X176650000Y-168550000D01*
X176650000Y-168000000D02*
X177250000Y-167600000D01*
X177250000Y-167600000D02*
X177250000Y-168400000D01*
X177250000Y-168000000D02*
X177750000Y-168000000D01*
X177250000Y-168400000D02*
X176650000Y-168000000D01*
%TO.C,D14*%
X156250000Y-122000000D02*
X156650000Y-122000000D01*
X156650000Y-122000000D02*
X156650000Y-121450000D01*
X156650000Y-122000000D02*
X156650000Y-122550000D01*
X156650000Y-122000000D02*
X157250000Y-121600000D01*
X157250000Y-121600000D02*
X157250000Y-122400000D01*
X157250000Y-122000000D02*
X157750000Y-122000000D01*
X157250000Y-122400000D02*
X156650000Y-122000000D01*
%TO.C,D12*%
X137250000Y-89000000D02*
X137650000Y-89000000D01*
X137650000Y-89000000D02*
X137650000Y-88450000D01*
X137650000Y-89000000D02*
X137650000Y-89550000D01*
X137650000Y-89000000D02*
X138250000Y-88600000D01*
X138250000Y-88600000D02*
X138250000Y-89400000D01*
X138250000Y-89000000D02*
X138750000Y-89000000D01*
X138250000Y-89400000D02*
X137650000Y-89000000D01*
%TO.C,D13*%
X156250000Y-141000000D02*
X156650000Y-141000000D01*
X156650000Y-141000000D02*
X156650000Y-140450000D01*
X156650000Y-141000000D02*
X156650000Y-141550000D01*
X156650000Y-141000000D02*
X157250000Y-140600000D01*
X157250000Y-140600000D02*
X157250000Y-141400000D01*
X157250000Y-141000000D02*
X157750000Y-141000000D01*
X157250000Y-141400000D02*
X156650000Y-141000000D01*
%TO.C,D24*%
X194250000Y-92000000D02*
X194650000Y-92000000D01*
X194650000Y-92000000D02*
X194650000Y-91450000D01*
X194650000Y-92000000D02*
X194650000Y-92550000D01*
X194650000Y-92000000D02*
X195250000Y-91600000D01*
X195250000Y-91600000D02*
X195250000Y-92400000D01*
X195250000Y-92000000D02*
X195750000Y-92000000D01*
X195250000Y-92400000D02*
X194650000Y-92000000D01*
%TO.C,D22*%
X194250000Y-130000000D02*
X194650000Y-130000000D01*
X194650000Y-130000000D02*
X194650000Y-129450000D01*
X194650000Y-130000000D02*
X194650000Y-130550000D01*
X194650000Y-130000000D02*
X195250000Y-129600000D01*
X195250000Y-129600000D02*
X195250000Y-130400000D01*
X195250000Y-130000000D02*
X195750000Y-130000000D01*
X195250000Y-130400000D02*
X194650000Y-130000000D01*
%TO.C,D9*%
X137250000Y-146000000D02*
X137650000Y-146000000D01*
X137650000Y-146000000D02*
X137650000Y-145450000D01*
X137650000Y-146000000D02*
X137650000Y-146550000D01*
X137650000Y-146000000D02*
X138250000Y-145600000D01*
X138250000Y-145600000D02*
X138250000Y-146400000D01*
X138250000Y-146000000D02*
X138750000Y-146000000D01*
X138250000Y-146400000D02*
X137650000Y-146000000D01*
%TO.C,D5*%
X118250000Y-153000000D02*
X118650000Y-153000000D01*
X118650000Y-153000000D02*
X118650000Y-152450000D01*
X118650000Y-153000000D02*
X118650000Y-153550000D01*
X118650000Y-153000000D02*
X119250000Y-152600000D01*
X119250000Y-152600000D02*
X119250000Y-153400000D01*
X119250000Y-153000000D02*
X119750000Y-153000000D01*
X119250000Y-153400000D02*
X118650000Y-153000000D01*
%TO.C,D3*%
X99250000Y-117000000D02*
X99650000Y-117000000D01*
X99650000Y-117000000D02*
X99650000Y-116450000D01*
X99650000Y-117000000D02*
X99650000Y-117550000D01*
X99650000Y-117000000D02*
X100250000Y-116600000D01*
X100250000Y-116600000D02*
X100250000Y-117400000D01*
X100250000Y-117000000D02*
X100750000Y-117000000D01*
X100250000Y-117400000D02*
X99650000Y-117000000D01*
%TO.C,D4*%
X99250000Y-98000000D02*
X99650000Y-98000000D01*
X99650000Y-98000000D02*
X99650000Y-97450000D01*
X99650000Y-98000000D02*
X99650000Y-98550000D01*
X99650000Y-98000000D02*
X100250000Y-97600000D01*
X100250000Y-97600000D02*
X100250000Y-98400000D01*
X100250000Y-98000000D02*
X100750000Y-98000000D01*
X100250000Y-98400000D02*
X99650000Y-98000000D01*
D12*
%TO.C,REF\u002A\u002A*%
X207500000Y-123800000D02*
X207500000Y-124400000D01*
X207800000Y-124100000D02*
X207500000Y-123800000D01*
X207800000Y-124100000D02*
X207500000Y-124400000D01*
X208000000Y-126700000D02*
X208000000Y-123900000D01*
X208700000Y-123250000D02*
X209300000Y-123250000D01*
X209300000Y-127350000D02*
X208700000Y-127350000D01*
X210000000Y-123900000D02*
X210000000Y-126700000D01*
X208000000Y-123950000D02*
G75*
G02*
X208700000Y-123250000I699999J1D01*
G01*
X208700000Y-127350000D02*
G75*
G02*
X208000000Y-126650000I0J700000D01*
G01*
X209300000Y-123250000D02*
G75*
G02*
X210000000Y-123950000I1J-699999D01*
G01*
X210000000Y-126650000D02*
G75*
G02*
X209300000Y-127350000I-700000J0D01*
G01*
D11*
%TO.C,D26*%
X196687608Y-170138014D02*
X197081531Y-170207473D01*
X197081531Y-170207473D02*
X196986025Y-170749117D01*
X197081531Y-170207473D02*
X197177038Y-169665829D01*
X197081531Y-170207473D02*
X197741875Y-169917739D01*
X197602957Y-170705585D02*
X197081531Y-170207473D01*
X197672416Y-170311662D02*
X198164820Y-170398486D01*
X197741875Y-169917739D02*
X197602957Y-170705585D01*
%TO.C,D7*%
X118250000Y-115000000D02*
X118650000Y-115000000D01*
X118650000Y-115000000D02*
X118650000Y-114450000D01*
X118650000Y-115000000D02*
X118650000Y-115550000D01*
X118650000Y-115000000D02*
X119250000Y-114600000D01*
X119250000Y-114600000D02*
X119250000Y-115400000D01*
X119250000Y-115000000D02*
X119750000Y-115000000D01*
X119250000Y-115400000D02*
X118650000Y-115000000D01*
%TO.C,D16*%
X156250000Y-84000000D02*
X156650000Y-84000000D01*
X156650000Y-84000000D02*
X156650000Y-83450000D01*
X156650000Y-84000000D02*
X156650000Y-84550000D01*
X156650000Y-84000000D02*
X157250000Y-83600000D01*
X157250000Y-83600000D02*
X157250000Y-84400000D01*
X157250000Y-84000000D02*
X157750000Y-84000000D01*
X157250000Y-84400000D02*
X156650000Y-84000000D01*
%TO.C,D1*%
X99250000Y-155000000D02*
X99650000Y-155000000D01*
X99650000Y-155000000D02*
X99650000Y-154450000D01*
X99650000Y-155000000D02*
X99650000Y-155550000D01*
X99650000Y-155000000D02*
X100250000Y-154600000D01*
X100250000Y-154600000D02*
X100250000Y-155400000D01*
X100250000Y-155000000D02*
X100750000Y-155000000D01*
X100250000Y-155400000D02*
X99650000Y-155000000D01*
%TO.C,D20*%
X175250000Y-90000000D02*
X175650000Y-90000000D01*
X175650000Y-90000000D02*
X175650000Y-89450000D01*
X175650000Y-90000000D02*
X175650000Y-90550000D01*
X175650000Y-90000000D02*
X176250000Y-89600000D01*
X176250000Y-89600000D02*
X176250000Y-90400000D01*
X176250000Y-90000000D02*
X176750000Y-90000000D01*
X176250000Y-90400000D02*
X175650000Y-90000000D01*
%TD*%
M02*
