%TF.GenerationSoftware,KiCad,Pcbnew,8.0.5-8.0.5-0~ubuntu20.04.1*%
%TF.CreationDate,2024-10-07T16:46:15+02:00*%
%TF.ProjectId,keyboard_pcb,6b657962-6f61-4726-945f-7063622e6b69,v1.0.0*%
%TF.SameCoordinates,Original*%
%TF.FileFunction,Soldermask,Top*%
%TF.FilePolarity,Negative*%
%FSLAX46Y46*%
G04 Gerber Fmt 4.6, Leading zero omitted, Abs format (unit mm)*
G04 Created by KiCad (PCBNEW 8.0.5-8.0.5-0~ubuntu20.04.1) date 2024-10-07 16:46:15*
%MOMM*%
%LPD*%
G01*
G04 APERTURE LIST*
G04 Aperture macros list*
%AMRoundRect*
0 Rectangle with rounded corners*
0 $1 Rounding radius*
0 $2 $3 $4 $5 $6 $7 $8 $9 X,Y pos of 4 corners*
0 Add a 4 corners polygon primitive as box body*
4,1,4,$2,$3,$4,$5,$6,$7,$8,$9,$2,$3,0*
0 Add four circle primitives for the rounded corners*
1,1,$1+$1,$2,$3*
1,1,$1+$1,$4,$5*
1,1,$1+$1,$6,$7*
1,1,$1+$1,$8,$9*
0 Add four rect primitives between the rounded corners*
20,1,$1+$1,$2,$3,$4,$5,0*
20,1,$1+$1,$4,$5,$6,$7,0*
20,1,$1+$1,$6,$7,$8,$9,0*
20,1,$1+$1,$8,$9,$2,$3,0*%
%AMFreePoly0*
4,1,16,-0.214645,0.660355,-0.210957,0.656235,0.289043,0.031235,0.299694,-0.005522,0.289043,-0.031235,-0.210957,-0.656235,-0.244478,-0.674694,-0.250000,-0.675000,-0.500000,-0.675000,-0.535355,-0.660355,-0.550000,-0.625000,-0.550000,0.625000,-0.535355,0.660355,-0.500000,0.675000,-0.250000,0.675000,-0.214645,0.660355,-0.214645,0.660355,$1*%
%AMFreePoly1*
4,1,16,0.535355,0.660355,0.550000,0.625000,0.550000,-0.625000,0.535355,-0.660355,0.500000,-0.675000,-0.650000,-0.675000,-0.685355,-0.660355,-0.700000,-0.625000,-0.689043,-0.593765,-0.214031,0.000000,-0.689043,0.593765,-0.699694,0.630522,-0.681235,0.664043,-0.650000,0.675000,0.500000,0.675000,0.535355,0.660355,0.535355,0.660355,$1*%
%AMFreePoly2*
4,1,35,0.585355,0.785355,0.600000,0.750000,0.600000,-0.750000,0.585355,-0.785355,0.550000,-0.800000,0.000000,-0.800000,-0.012286,-0.794911,-0.071157,-0.794911,-0.085244,-0.792886,-0.221795,-0.752791,-0.234740,-0.746879,-0.354462,-0.669938,-0.365217,-0.660618,-0.458414,-0.553063,-0.466109,-0.541091,-0.525228,-0.411637,-0.529237,-0.397982,-0.549491,-0.257116,-0.550000,-0.250000,-0.550000,0.250000,
-0.549491,0.257116,-0.529237,0.397982,-0.525228,0.411637,-0.466109,0.541091,-0.458414,0.553063,-0.365217,0.660618,-0.354462,0.669938,-0.234740,0.746879,-0.221795,0.752791,-0.085244,0.792886,-0.071157,0.794911,-0.012286,0.794911,0.000000,0.800000,0.550000,0.800000,0.585355,0.785355,0.585355,0.785355,$1*%
%AMFreePoly3*
4,1,35,0.012286,0.794911,0.071157,0.794911,0.085244,0.792886,0.221795,0.752791,0.234740,0.746879,0.354462,0.669938,0.365217,0.660618,0.458414,0.553063,0.466109,0.541091,0.525228,0.411637,0.529237,0.397982,0.549491,0.257116,0.550000,0.250000,0.550000,-0.250000,0.549491,-0.257116,0.529237,-0.397982,0.525228,-0.411637,0.466109,-0.541091,0.458414,-0.553063,0.365217,-0.660618,
0.354462,-0.669938,0.234740,-0.746879,0.221795,-0.752791,0.085244,-0.792886,0.071157,-0.794911,0.012286,-0.794911,0.000000,-0.800000,-0.550000,-0.800000,-0.585355,-0.785355,-0.600000,-0.750000,-0.600000,0.750000,-0.585355,0.785355,-0.550000,0.800000,0.000000,0.800000,0.012286,0.794911,0.012286,0.794911,$1*%
G04 Aperture macros list end*
%ADD10RoundRect,0.050000X-0.576771X0.268953X-0.268953X-0.576771X0.576771X-0.268953X0.268953X0.576771X0*%
%ADD11C,1.100000*%
%ADD12RoundRect,0.050000X-0.741217X0.209099X-0.433399X-0.636624X0.741217X-0.209099X0.433399X0.636624X0*%
%ADD13RoundRect,0.050000X-0.900000X-0.550000X0.900000X-0.550000X0.900000X0.550000X-0.900000X0.550000X0*%
%ADD14C,1.801800*%
%ADD15C,3.100000*%
%ADD16C,3.529000*%
%ADD17RoundRect,0.050000X-1.300000X-1.300000X1.300000X-1.300000X1.300000X1.300000X-1.300000X1.300000X0*%
%ADD18RoundRect,0.050000X-0.889000X-0.889000X0.889000X-0.889000X0.889000X0.889000X-0.889000X0.889000X0*%
%ADD19RoundRect,0.050000X-0.450000X-0.600000X0.450000X-0.600000X0.450000X0.600000X-0.450000X0.600000X0*%
%ADD20C,2.005000*%
%ADD21FreePoly0,180.000000*%
%ADD22C,1.800000*%
%ADD23FreePoly0,0.000000*%
%ADD24C,0.900000*%
%ADD25FreePoly1,180.000000*%
%ADD26FreePoly1,0.000000*%
%ADD27C,3.900000*%
%ADD28RoundRect,0.050000X0.850000X-0.600000X0.850000X0.600000X-0.850000X0.600000X-0.850000X-0.600000X0*%
%ADD29O,1.800000X1.300000*%
%ADD30RoundRect,0.050000X0.776974X-1.666227X1.666227X0.776974X-0.776974X1.666227X-1.666227X-0.776974X0*%
%ADD31RoundRect,0.050000X0.531331X-1.139443X1.139443X0.531331X-0.531331X1.139443X-1.139443X-0.531331X0*%
%ADD32RoundRect,0.050000X0.409907X-0.628074X0.717725X0.217650X-0.409907X0.628074X-0.717725X-0.217650X0*%
%ADD33C,1.600000*%
%ADD34O,2.300000X1.700000*%
%ADD35FreePoly2,270.000000*%
%ADD36RoundRect,0.050000X-0.750000X0.500000X-0.750000X-0.500000X0.750000X-0.500000X0.750000X0.500000X0*%
%ADD37FreePoly3,270.000000*%
%ADD38RoundRect,0.050000X-1.029867X-0.721121X0.721121X-1.029867X1.029867X0.721121X-0.721121X1.029867X0*%
%ADD39RoundRect,0.050000X-0.547352X-0.512743X0.338975X-0.669026X0.547352X0.512743X-0.338975X0.669026X0*%
%ADD40RoundRect,0.050000X-1.505993X-1.054507X1.054507X-1.505993X1.505993X1.054507X-1.054507X1.505993X0*%
G04 APERTURE END LIST*
D10*
%TO.C,T1*%
X229768187Y-147056454D03*
X227700865Y-147808898D03*
D11*
X229486970Y-149500000D03*
X230513030Y-152319078D03*
D10*
X232299135Y-154010180D03*
X230231813Y-154762624D03*
D12*
X228819683Y-153733539D03*
X227793623Y-150914461D03*
X227280592Y-149504921D03*
%TD*%
D13*
%TO.C,B1*%
X207900000Y-115150000D03*
X214100000Y-115150000D03*
X207900000Y-118850000D03*
X214100000Y-118850000D03*
%TD*%
D14*
%TO.C,S1*%
X94500000Y-150000000D03*
D15*
X95000000Y-146250000D03*
X100000000Y-144050000D03*
X100000000Y-144050000D03*
D16*
X100000000Y-150000000D03*
D15*
X105000000Y-146250000D03*
D14*
X105500000Y-150000000D03*
D17*
X103275000Y-144050000D03*
X91725000Y-146250000D03*
%TD*%
D18*
%TO.C,D6*%
X115190000Y-134000000D03*
D19*
X117350000Y-134000000D03*
X120650000Y-134000000D03*
D20*
X122810000Y-134000000D03*
%TD*%
D14*
%TO.C,S19*%
X170500000Y-104000000D03*
D15*
X171000000Y-100250000D03*
X176000000Y-98050000D03*
X176000000Y-98050000D03*
D16*
X176000000Y-104000000D03*
D15*
X181000000Y-100250000D03*
D14*
X181500000Y-104000000D03*
D17*
X179275000Y-98050000D03*
X167725000Y-100250000D03*
%TD*%
D18*
%TO.C,D10*%
X134190000Y-127000000D03*
D19*
X136350000Y-127000000D03*
X139650000Y-127000000D03*
D20*
X141810000Y-127000000D03*
%TD*%
D21*
%TO.C,MCU1*%
X221500000Y-84300000D03*
D22*
X223620000Y-84300000D03*
D21*
X221500000Y-86840000D03*
D22*
X223620000Y-86840000D03*
D21*
X221500000Y-89380000D03*
D22*
X223620000Y-89380000D03*
D21*
X221500000Y-91920000D03*
D22*
X223620000Y-91920000D03*
D21*
X221500000Y-94460000D03*
D22*
X223620000Y-94460000D03*
D21*
X221500000Y-97000000D03*
D22*
X223620000Y-97000000D03*
D21*
X221500000Y-99540000D03*
D22*
X223620000Y-99540000D03*
D21*
X221500000Y-102080000D03*
D22*
X223620000Y-102080000D03*
D21*
X221500000Y-104620000D03*
D22*
X223620000Y-104620000D03*
D21*
X221500000Y-107160000D03*
D22*
X223620000Y-107160000D03*
D21*
X221500000Y-109700000D03*
D22*
X223620000Y-109700000D03*
D21*
X221500000Y-112240000D03*
D22*
X223620000Y-112240000D03*
X208380000Y-112240000D03*
D23*
X210500000Y-112240000D03*
D22*
X208380000Y-109700000D03*
D23*
X210500000Y-109700000D03*
D22*
X208380000Y-107160000D03*
D23*
X210500000Y-107160000D03*
D22*
X208380000Y-104620000D03*
D23*
X210500000Y-104620000D03*
D22*
X208380000Y-102080000D03*
D23*
X210500000Y-102080000D03*
D22*
X208380000Y-99540000D03*
D23*
X210500000Y-99540000D03*
D22*
X208380000Y-97000000D03*
D23*
X210500000Y-97000000D03*
D22*
X208380000Y-94460000D03*
D23*
X210500000Y-94460000D03*
D22*
X208380000Y-91920000D03*
D23*
X210500000Y-91920000D03*
D22*
X208380000Y-89380000D03*
D23*
X210500000Y-89380000D03*
D22*
X208380000Y-86840000D03*
D23*
X210500000Y-86840000D03*
D22*
X208380000Y-84300000D03*
D23*
X210500000Y-84300000D03*
D24*
X219400000Y-84300000D03*
D25*
X220775000Y-84300000D03*
D24*
X219400000Y-86840000D03*
D25*
X220775000Y-86840000D03*
D24*
X219400000Y-89380000D03*
D25*
X220775000Y-89380000D03*
D24*
X219400000Y-91920000D03*
D25*
X220775000Y-91920000D03*
D24*
X219400000Y-94460000D03*
D25*
X220775000Y-94460000D03*
D24*
X219400000Y-97000000D03*
D25*
X220775000Y-97000000D03*
D24*
X219400000Y-99540000D03*
D25*
X220775000Y-99540000D03*
D24*
X219400000Y-102080000D03*
D25*
X220775000Y-102080000D03*
D24*
X219400000Y-104620000D03*
D25*
X220775000Y-104620000D03*
D24*
X219400000Y-107160000D03*
D25*
X220775000Y-107160000D03*
D24*
X219400000Y-109700000D03*
D25*
X220775000Y-109700000D03*
D24*
X219400000Y-112240000D03*
D25*
X220775000Y-112240000D03*
D26*
X211225000Y-112240000D03*
D24*
X212600000Y-112240000D03*
D26*
X211225000Y-109700000D03*
D24*
X212600000Y-109700000D03*
D26*
X211225000Y-107160000D03*
D24*
X212600000Y-107160000D03*
D26*
X211225000Y-104620000D03*
D24*
X212600000Y-104620000D03*
D26*
X211225000Y-102080000D03*
D24*
X212600000Y-102080000D03*
D26*
X211225000Y-99540000D03*
D24*
X212600000Y-99540000D03*
D26*
X211225000Y-97000000D03*
D24*
X212600000Y-97000000D03*
D26*
X211225000Y-94460000D03*
D24*
X212600000Y-94460000D03*
D26*
X211225000Y-91920000D03*
D24*
X212600000Y-91920000D03*
D26*
X211225000Y-89380000D03*
D24*
X212600000Y-89380000D03*
D26*
X211225000Y-86840000D03*
D24*
X212600000Y-86840000D03*
D26*
X211225000Y-84300000D03*
D24*
X212600000Y-84300000D03*
%TD*%
D14*
%TO.C,S8*%
X113500000Y-91000000D03*
D15*
X114000000Y-87250000D03*
X119000000Y-85050000D03*
X119000000Y-85050000D03*
D16*
X119000000Y-91000000D03*
D15*
X124000000Y-87250000D03*
D14*
X124500000Y-91000000D03*
D17*
X122275000Y-85050000D03*
X110725000Y-87250000D03*
%TD*%
D18*
%TO.C,D17*%
X172190000Y-147000000D03*
D19*
X174350000Y-147000000D03*
X177650000Y-147000000D03*
D20*
X179810000Y-147000000D03*
%TD*%
D14*
%TO.C,S3*%
X94500000Y-112000000D03*
D15*
X95000000Y-108250000D03*
X100000000Y-106050000D03*
X100000000Y-106050000D03*
D16*
X100000000Y-112000000D03*
D15*
X105000000Y-108250000D03*
D14*
X105500000Y-112000000D03*
D17*
X103275000Y-106050000D03*
X91725000Y-108250000D03*
%TD*%
D18*
%TO.C,D23*%
X191190000Y-111000000D03*
D19*
X193350000Y-111000000D03*
X196650000Y-111000000D03*
D20*
X198810000Y-111000000D03*
%TD*%
D27*
%TO.C,H3*%
X109450000Y-152000000D03*
%TD*%
%TO.C,H8*%
X109450000Y-120920000D03*
%TD*%
D18*
%TO.C,D2*%
X96190000Y-136000000D03*
D19*
X98350000Y-136000000D03*
X101650000Y-136000000D03*
D20*
X103810000Y-136000000D03*
%TD*%
D18*
%TO.C,D21*%
X191190000Y-149000000D03*
D19*
X193350000Y-149000000D03*
X196650000Y-149000000D03*
D20*
X198810000Y-149000000D03*
%TD*%
D28*
%TO.C,JST2*%
X217000000Y-119000000D03*
D29*
X217000000Y-117000000D03*
%TD*%
D11*
%TO.C,T2*%
X229486970Y-149500000D03*
X230513030Y-152319078D03*
%TD*%
D18*
%TO.C,D19*%
X172190000Y-109000000D03*
D19*
X174350000Y-109000000D03*
X177650000Y-109000000D03*
D20*
X179810000Y-109000000D03*
%TD*%
D18*
%TO.C,D8*%
X115190000Y-96000000D03*
D19*
X117350000Y-96000000D03*
X120650000Y-96000000D03*
D20*
X122810000Y-96000000D03*
%TD*%
D28*
%TO.C,JST1*%
X217000000Y-119000000D03*
D29*
X217000000Y-117000000D03*
%TD*%
D14*
%TO.C,S16*%
X151500000Y-79000000D03*
D15*
X152000000Y-75250000D03*
X157000000Y-73050000D03*
X157000000Y-73050000D03*
D16*
X157000000Y-79000000D03*
D15*
X162000000Y-75250000D03*
D14*
X162500000Y-79000000D03*
D17*
X160275000Y-73050000D03*
X148725000Y-75250000D03*
%TD*%
D14*
%TO.C,S4*%
X94500000Y-93000000D03*
D15*
X95000000Y-89250000D03*
X100000000Y-87050000D03*
X100000000Y-87050000D03*
D16*
X100000000Y-93000000D03*
D15*
X105000000Y-89250000D03*
D14*
X105500000Y-93000000D03*
D17*
X103275000Y-87050000D03*
X91725000Y-89250000D03*
%TD*%
D18*
%TO.C,D11*%
X134190000Y-108000000D03*
D19*
X136350000Y-108000000D03*
X139650000Y-108000000D03*
D20*
X141810000Y-108000000D03*
%TD*%
D14*
%TO.C,S2*%
X94500000Y-131000000D03*
D15*
X95000000Y-127250000D03*
X100000000Y-125050000D03*
X100000000Y-125050000D03*
D16*
X100000000Y-131000000D03*
D15*
X105000000Y-127250000D03*
D14*
X105500000Y-131000000D03*
D17*
X103275000Y-125050000D03*
X91725000Y-127250000D03*
%TD*%
D14*
%TO.C,S24*%
X189500000Y-87000000D03*
D15*
X190000000Y-83250000D03*
X195000000Y-81050000D03*
X195000000Y-81050000D03*
D16*
X195000000Y-87000000D03*
D15*
X200000000Y-83250000D03*
D14*
X200500000Y-87000000D03*
D17*
X198275000Y-81050000D03*
X186725000Y-83250000D03*
%TD*%
D14*
%TO.C,S27*%
X217652140Y-174579294D03*
D15*
X214299303Y-172826873D03*
X213942080Y-167375965D03*
X213942080Y-167375965D03*
D16*
X219533251Y-169410985D03*
D15*
X217719504Y-163429946D03*
D14*
X221414362Y-164242676D03*
D30*
X215062196Y-164298472D03*
X213179187Y-175904366D03*
%TD*%
D18*
%TO.C,D15*%
X153190000Y-103000000D03*
D19*
X155350000Y-103000000D03*
X158650000Y-103000000D03*
D20*
X160810000Y-103000000D03*
%TD*%
D18*
%TO.C,D18*%
X172190000Y-128000000D03*
D19*
X174350000Y-128000000D03*
X177650000Y-128000000D03*
D20*
X179810000Y-128000000D03*
%TD*%
D31*
%TO.C,D27*%
X222928617Y-174701314D03*
D32*
X223667381Y-172671578D03*
X224796047Y-169570592D03*
D20*
X225534811Y-167540856D03*
%TD*%
D27*
%TO.C,H2*%
X109450000Y-95000000D03*
%TD*%
%TO.C,H1*%
X185550000Y-89000000D03*
%TD*%
D18*
%TO.C,D25*%
X173190000Y-168000000D03*
D19*
X175350000Y-168000000D03*
X178650000Y-168000000D03*
D20*
X180810000Y-168000000D03*
%TD*%
D33*
%TO.C,TRRS1*%
X222400000Y-126000000D03*
X215400000Y-126000000D03*
D34*
X212700000Y-123700000D03*
X212700000Y-128300000D03*
X213800000Y-123700000D03*
X213800000Y-128300000D03*
X217800000Y-123700000D03*
X217800000Y-128300000D03*
X220800000Y-123700000D03*
X220800000Y-128300000D03*
%TD*%
D18*
%TO.C,D14*%
X153190000Y-122000000D03*
D19*
X155350000Y-122000000D03*
X158650000Y-122000000D03*
D20*
X160810000Y-122000000D03*
%TD*%
D14*
%TO.C,S20*%
X170500000Y-85000000D03*
D15*
X171000000Y-81250000D03*
X176000000Y-79050000D03*
X176000000Y-79050000D03*
D16*
X176000000Y-85000000D03*
D15*
X181000000Y-81250000D03*
D14*
X181500000Y-85000000D03*
D17*
X179275000Y-79050000D03*
X167725000Y-81250000D03*
%TD*%
D14*
%TO.C,S11*%
X132500000Y-103000000D03*
D15*
X133000000Y-99250000D03*
X138000000Y-97050000D03*
X138000000Y-97050000D03*
D16*
X138000000Y-103000000D03*
D15*
X143000000Y-99250000D03*
D14*
X143500000Y-103000000D03*
D17*
X141275000Y-97050000D03*
X129725000Y-99250000D03*
%TD*%
D14*
%TO.C,S9*%
X132500000Y-141000000D03*
D15*
X133000000Y-137250000D03*
X138000000Y-135050000D03*
X138000000Y-135050000D03*
D16*
X138000000Y-141000000D03*
D15*
X143000000Y-137250000D03*
D14*
X143500000Y-141000000D03*
D17*
X141275000Y-135050000D03*
X129725000Y-137250000D03*
%TD*%
D14*
%TO.C,S12*%
X132500000Y-84000000D03*
D15*
X133000000Y-80250000D03*
X138000000Y-78050000D03*
X138000000Y-78050000D03*
D16*
X138000000Y-84000000D03*
D15*
X143000000Y-80250000D03*
D14*
X143500000Y-84000000D03*
D17*
X141275000Y-78050000D03*
X129725000Y-80250000D03*
%TD*%
D18*
%TO.C,D12*%
X134190000Y-89000000D03*
D19*
X136350000Y-89000000D03*
X139650000Y-89000000D03*
D20*
X141810000Y-89000000D03*
%TD*%
D14*
%TO.C,S10*%
X132500000Y-122000000D03*
D15*
X133000000Y-118250000D03*
X138000000Y-116050000D03*
X138000000Y-116050000D03*
D16*
X138000000Y-122000000D03*
D15*
X143000000Y-118250000D03*
D14*
X143500000Y-122000000D03*
D17*
X141275000Y-116050000D03*
X129725000Y-118250000D03*
%TD*%
D18*
%TO.C,D13*%
X153190000Y-141000000D03*
D19*
X155350000Y-141000000D03*
X158650000Y-141000000D03*
D20*
X160810000Y-141000000D03*
%TD*%
D27*
%TO.C,H5*%
X147550000Y-107550000D03*
%TD*%
D14*
%TO.C,S5*%
X113500000Y-148000000D03*
D15*
X114000000Y-144250000D03*
X119000000Y-142050000D03*
X119000000Y-142050000D03*
D16*
X119000000Y-148000000D03*
D15*
X124000000Y-144250000D03*
D14*
X124500000Y-148000000D03*
D17*
X122275000Y-142050000D03*
X110725000Y-144250000D03*
%TD*%
D27*
%TO.C,H7*%
X208012759Y-170538758D03*
%TD*%
D14*
%TO.C,S13*%
X151500000Y-136000000D03*
D15*
X152000000Y-132250000D03*
X157000000Y-130050000D03*
X157000000Y-130050000D03*
D16*
X157000000Y-136000000D03*
D15*
X162000000Y-132250000D03*
D14*
X162500000Y-136000000D03*
D17*
X160275000Y-130050000D03*
X148725000Y-132250000D03*
%TD*%
D14*
%TO.C,S17*%
X170500000Y-142000000D03*
D15*
X171000000Y-138250000D03*
X176000000Y-136050000D03*
X176000000Y-136050000D03*
D16*
X176000000Y-142000000D03*
D15*
X181000000Y-138250000D03*
D14*
X181500000Y-142000000D03*
D17*
X179275000Y-136050000D03*
X167725000Y-138250000D03*
%TD*%
D27*
%TO.C,H4*%
X185550000Y-147000000D03*
%TD*%
D18*
%TO.C,D24*%
X191190000Y-92000000D03*
D19*
X193350000Y-92000000D03*
X196650000Y-92000000D03*
D20*
X198810000Y-92000000D03*
%TD*%
D14*
%TO.C,S21*%
X189500000Y-144000000D03*
D15*
X190000000Y-140250000D03*
X195000000Y-138050000D03*
X195000000Y-138050000D03*
D16*
X195000000Y-144000000D03*
D15*
X200000000Y-140250000D03*
D14*
X200500000Y-144000000D03*
D17*
X198275000Y-138050000D03*
X186725000Y-140250000D03*
%TD*%
D18*
%TO.C,D22*%
X191190000Y-130000000D03*
D19*
X193350000Y-130000000D03*
X196650000Y-130000000D03*
D20*
X198810000Y-130000000D03*
%TD*%
D18*
%TO.C,D9*%
X134190000Y-146000000D03*
D19*
X136350000Y-146000000D03*
X139650000Y-146000000D03*
D20*
X141810000Y-146000000D03*
%TD*%
D14*
%TO.C,S18*%
X170500000Y-123000000D03*
D15*
X171000000Y-119250000D03*
X176000000Y-117050000D03*
X176000000Y-117050000D03*
D16*
X176000000Y-123000000D03*
D15*
X181000000Y-119250000D03*
D14*
X181500000Y-123000000D03*
D17*
X179275000Y-117050000D03*
X167725000Y-119250000D03*
%TD*%
D18*
%TO.C,D5*%
X115190000Y-153000000D03*
D19*
X117350000Y-153000000D03*
X120650000Y-153000000D03*
D20*
X122810000Y-153000000D03*
%TD*%
D14*
%TO.C,S22*%
X189500000Y-125000000D03*
D15*
X190000000Y-121250000D03*
X195000000Y-119050000D03*
X195000000Y-119050000D03*
D16*
X195000000Y-125000000D03*
D15*
X200000000Y-121250000D03*
D14*
X200500000Y-125000000D03*
D17*
X198275000Y-119050000D03*
X186725000Y-121250000D03*
%TD*%
D18*
%TO.C,D3*%
X96190000Y-117000000D03*
D19*
X98350000Y-117000000D03*
X101650000Y-117000000D03*
D20*
X103810000Y-117000000D03*
%TD*%
D18*
%TO.C,D4*%
X96190000Y-98000000D03*
D19*
X98350000Y-98000000D03*
X101650000Y-98000000D03*
D20*
X103810000Y-98000000D03*
%TD*%
D27*
%TO.C,H6*%
X147450000Y-142000000D03*
%TD*%
D14*
%TO.C,S23*%
X189500000Y-106000000D03*
D15*
X190000000Y-102250000D03*
X195000000Y-100050000D03*
X195000000Y-100050000D03*
D16*
X195000000Y-106000000D03*
D15*
X200000000Y-102250000D03*
D14*
X200500000Y-106000000D03*
D17*
X198275000Y-100050000D03*
X186725000Y-102250000D03*
%TD*%
D35*
%TO.C,REF\u002A\u002A*%
X209000000Y-124000000D03*
D36*
X209000000Y-125300000D03*
D37*
X209000000Y-126600000D03*
%TD*%
D38*
%TO.C,D26*%
X193674094Y-169606650D03*
D39*
X195801281Y-169981731D03*
X199051147Y-170554769D03*
D20*
X201178334Y-170929850D03*
%TD*%
D18*
%TO.C,D7*%
X115190000Y-115000000D03*
D19*
X117350000Y-115000000D03*
X120650000Y-115000000D03*
D20*
X122810000Y-115000000D03*
%TD*%
D14*
%TO.C,S6*%
X113500000Y-129000000D03*
D15*
X114000000Y-125250000D03*
X119000000Y-123050000D03*
X119000000Y-123050000D03*
D16*
X119000000Y-129000000D03*
D15*
X124000000Y-125250000D03*
D14*
X124500000Y-129000000D03*
D17*
X122275000Y-123050000D03*
X110725000Y-125250000D03*
%TD*%
D14*
%TO.C,S25*%
X171500000Y-163000000D03*
D15*
X172000000Y-159250000D03*
X177000000Y-157050000D03*
X177000000Y-157050000D03*
D16*
X177000000Y-163000000D03*
D15*
X182000000Y-159250000D03*
D14*
X182500000Y-163000000D03*
D17*
X180275000Y-157050000D03*
X168725000Y-159250000D03*
%TD*%
D27*
%TO.C,H9*%
X147550000Y-88450000D03*
%TD*%
%TO.C,H10*%
X185450000Y-113550000D03*
%TD*%
D14*
%TO.C,S26*%
X192878012Y-164389146D03*
D15*
X194021597Y-160782941D03*
X199327662Y-159484605D03*
X199327662Y-159484605D03*
D16*
X198294455Y-165344211D03*
D15*
X203869674Y-162519423D03*
D14*
X203710898Y-166299276D03*
D40*
X202552907Y-160053303D03*
X190796352Y-160214243D03*
%TD*%
D14*
%TO.C,S7*%
X113500000Y-110000000D03*
D15*
X114000000Y-106250000D03*
X119000000Y-104050000D03*
X119000000Y-104050000D03*
D16*
X119000000Y-110000000D03*
D15*
X124000000Y-106250000D03*
D14*
X124500000Y-110000000D03*
D17*
X122275000Y-104050000D03*
X110725000Y-106250000D03*
%TD*%
D18*
%TO.C,D16*%
X153190000Y-84000000D03*
D19*
X155350000Y-84000000D03*
X158650000Y-84000000D03*
D20*
X160810000Y-84000000D03*
%TD*%
D18*
%TO.C,D1*%
X96190000Y-155000000D03*
D19*
X98350000Y-155000000D03*
X101650000Y-155000000D03*
D20*
X103810000Y-155000000D03*
%TD*%
D14*
%TO.C,S15*%
X151500000Y-98000000D03*
D15*
X152000000Y-94250000D03*
X157000000Y-92050000D03*
X157000000Y-92050000D03*
D16*
X157000000Y-98000000D03*
D15*
X162000000Y-94250000D03*
D14*
X162500000Y-98000000D03*
D17*
X160275000Y-92050000D03*
X148725000Y-94250000D03*
%TD*%
D14*
%TO.C,S14*%
X151500000Y-117000000D03*
D15*
X152000000Y-113250000D03*
X157000000Y-111050000D03*
X157000000Y-111050000D03*
D16*
X157000000Y-117000000D03*
D15*
X162000000Y-113250000D03*
D14*
X162500000Y-117000000D03*
D17*
X160275000Y-111050000D03*
X148725000Y-113250000D03*
%TD*%
D18*
%TO.C,D20*%
X172190000Y-90000000D03*
D19*
X174350000Y-90000000D03*
X177650000Y-90000000D03*
D20*
X179810000Y-90000000D03*
%TD*%
M02*
