M48
; DRILL file {KiCad 8.0.5-8.0.5-0~ubuntu20.04.1} date 2024-10-07T16:46:16+0200
; FORMAT={-:-/ absolute / inch / decimal}
; #@! TF.CreationDate,2024-10-07T16:46:16+02:00
; #@! TF.GenerationSoftware,Kicad,Pcbnew,8.0.5-8.0.5-0~ubuntu20.04.1
; #@! TF.FileFunction,NonPlated,1,2,NPTH
FMAT,2
INCH
; #@! TA.AperFunction,NonPlated,NPTH,ComponentDrill
T1C0.0354
; #@! TA.AperFunction,NonPlated,NPTH,ComponentDrill
T2C0.0591
; #@! TA.AperFunction,NonPlated,NPTH,ComponentDrill
T3C0.0670
; #@! TA.AperFunction,NonPlated,NPTH,ComponentDrill
T4C0.1181
; #@! TA.AperFunction,NonPlated,NPTH,ComponentDrill
T5C0.1350
%
G90
G05
T1
X9.0349Y-5.8858
X9.0349Y-5.8858
X9.0753Y-5.9968
X9.0753Y-5.9968
T2
X8.4803Y-4.9606
X8.7559Y-4.9606
T3
X3.7205Y-3.6614
X3.7205Y-4.4094
X3.7205Y-5.1575
X3.7205Y-5.9055
X4.1535Y-3.6614
X4.1535Y-4.4094
X4.1535Y-5.1575
X4.1535Y-5.9055
X4.4685Y-3.5827
X4.4685Y-4.3307
X4.4685Y-5.0787
X4.4685Y-5.8268
X4.9016Y-3.5827
X4.9016Y-4.3307
X4.9016Y-5.0787
X4.9016Y-5.8268
X5.2165Y-3.3071
X5.2165Y-4.0551
X5.2165Y-4.8031
X5.2165Y-5.5512
X5.6496Y-3.3071
X5.6496Y-4.0551
X5.6496Y-4.8031
X5.6496Y-5.5512
X5.9646Y-3.1102
X5.9646Y-3.8583
X5.9646Y-4.6063
X5.9646Y-5.3543
X6.3976Y-3.1102
X6.3976Y-3.8583
X6.3976Y-4.6063
X6.3976Y-5.3543
X6.7126Y-3.3465
X6.7126Y-4.0945
X6.7126Y-4.8425
X6.7126Y-5.5906
X6.752Y-6.4173
X7.1457Y-3.3465
X7.1457Y-4.0945
X7.1457Y-4.8425
X7.1457Y-5.5906
X7.185Y-6.4173
X7.4606Y-3.4252
X7.4606Y-4.1732
X7.4606Y-4.9213
X7.4606Y-5.6693
X7.5936Y-6.472
X7.8937Y-3.4252
X7.8937Y-4.1732
X7.8937Y-4.9213
X7.8937Y-5.6693
X8.0201Y-6.5472
X8.569Y-6.8732
X8.7171Y-6.4662
T4
X3.7402Y-3.5138
X3.7402Y-4.2618
X3.7402Y-5.0098
X3.7402Y-5.7579
X3.937Y-3.4272
X3.937Y-3.4272
X3.937Y-4.1752
X3.937Y-4.1752
X3.937Y-4.9232
X3.937Y-4.9232
X3.937Y-5.6713
X3.937Y-5.6713
X4.1339Y-3.5138
X4.1339Y-4.2618
X4.1339Y-5.0098
X4.1339Y-5.7579
X4.4882Y-3.435
X4.4882Y-4.1831
X4.4882Y-4.9311
X4.4882Y-5.6791
X4.685Y-3.3484
X4.685Y-3.3484
X4.685Y-4.0965
X4.685Y-4.0965
X4.685Y-4.8445
X4.685Y-4.8445
X4.685Y-5.5925
X4.685Y-5.5925
X4.8819Y-3.435
X4.8819Y-4.1831
X4.8819Y-4.9311
X4.8819Y-5.6791
X5.2362Y-3.1594
X5.2362Y-3.9075
X5.2362Y-4.6555
X5.2362Y-5.4035
X5.4331Y-3.0728
X5.4331Y-3.0728
X5.4331Y-3.8209
X5.4331Y-3.8209
X5.4331Y-4.5689
X5.4331Y-4.5689
X5.4331Y-5.3169
X5.4331Y-5.3169
X5.6299Y-3.1594
X5.6299Y-3.9075
X5.6299Y-4.6555
X5.6299Y-5.4035
X5.9843Y-2.9626
X5.9843Y-3.7106
X5.9843Y-4.4587
X5.9843Y-5.2067
X6.1811Y-2.876
X6.1811Y-2.876
X6.1811Y-3.624
X6.1811Y-3.624
X6.1811Y-4.372
X6.1811Y-4.372
X6.1811Y-5.1201
X6.1811Y-5.1201
X6.378Y-2.9626
X6.378Y-3.7106
X6.378Y-4.4587
X6.378Y-5.2067
X6.7323Y-3.1988
X6.7323Y-3.9469
X6.7323Y-4.6949
X6.7323Y-5.4429
X6.7717Y-6.2697
X6.9291Y-3.1122
X6.9291Y-3.1122
X6.9291Y-3.8602
X6.9291Y-3.8602
X6.9291Y-4.6083
X6.9291Y-4.6083
X6.9291Y-5.3563
X6.9291Y-5.3563
X6.9685Y-6.1831
X6.9685Y-6.1831
X7.126Y-3.1988
X7.126Y-3.9469
X7.126Y-4.6949
X7.126Y-5.4429
X7.1654Y-6.2697
X7.4803Y-3.2776
X7.4803Y-4.0256
X7.4803Y-4.7736
X7.4803Y-5.5217
X7.6386Y-6.33
X7.6772Y-3.1909
X7.6772Y-3.1909
X7.6772Y-3.939
X7.6772Y-3.939
X7.6772Y-4.687
X7.6772Y-4.687
X7.6772Y-5.435
X7.6772Y-5.435
X7.8475Y-6.2789
X7.8475Y-6.2789
X7.874Y-3.2776
X7.874Y-4.0256
X7.874Y-4.7736
X7.874Y-5.5217
X8.0264Y-6.3984
X8.4229Y-6.5896
X8.4229Y-6.5896
X8.437Y-6.8042
X8.5716Y-6.4342
T5
X3.937Y-3.6614
X3.937Y-4.4094
X3.937Y-5.1575
X3.937Y-5.9055
X4.685Y-3.5827
X4.685Y-4.3307
X4.685Y-5.0787
X4.685Y-5.8268
X5.4331Y-3.3071
X5.4331Y-4.0551
X5.4331Y-4.8031
X5.4331Y-5.5512
X6.1811Y-3.1102
X6.1811Y-3.8583
X6.1811Y-4.6063
X6.1811Y-5.3543
X6.9291Y-3.3465
X6.9291Y-4.0945
X6.9291Y-4.8425
X6.9291Y-5.5906
X6.9685Y-6.4173
X7.6772Y-3.4252
X7.6772Y-4.1732
X7.6772Y-4.9213
X7.6772Y-5.6693
X7.8069Y-6.5096
X8.643Y-6.6697
M30
