%TF.GenerationSoftware,KiCad,Pcbnew,8.0.5-8.0.5-0~ubuntu20.04.1*%
%TF.CreationDate,2024-10-07T16:46:15+02:00*%
%TF.ProjectId,keyboard_pcb,6b657962-6f61-4726-945f-7063622e6b69,v1.0.0*%
%TF.SameCoordinates,Original*%
%TF.FileFunction,Legend,Bot*%
%TF.FilePolarity,Positive*%
%FSLAX46Y46*%
G04 Gerber Fmt 4.6, Leading zero omitted, Abs format (unit mm)*
G04 Created by KiCad (PCBNEW 8.0.5-8.0.5-0~ubuntu20.04.1) date 2024-10-07 16:46:15*
%MOMM*%
%LPD*%
G01*
G04 APERTURE LIST*
%ADD10C,0.150000*%
%ADD11C,0.100000*%
%ADD12C,0.120000*%
G04 APERTURE END LIST*
D10*
X215811904Y-97454819D02*
X216145237Y-96978628D01*
X216383332Y-97454819D02*
X216383332Y-96454819D01*
X216383332Y-96454819D02*
X216002380Y-96454819D01*
X216002380Y-96454819D02*
X215907142Y-96502438D01*
X215907142Y-96502438D02*
X215859523Y-96550057D01*
X215859523Y-96550057D02*
X215811904Y-96645295D01*
X215811904Y-96645295D02*
X215811904Y-96788152D01*
X215811904Y-96788152D02*
X215859523Y-96883390D01*
X215859523Y-96883390D02*
X215907142Y-96931009D01*
X215907142Y-96931009D02*
X216002380Y-96978628D01*
X216002380Y-96978628D02*
X216383332Y-96978628D01*
X215192856Y-96454819D02*
X215002380Y-96454819D01*
X215002380Y-96454819D02*
X214907142Y-96502438D01*
X214907142Y-96502438D02*
X214811904Y-96597676D01*
X214811904Y-96597676D02*
X214764285Y-96788152D01*
X214764285Y-96788152D02*
X214764285Y-97121485D01*
X214764285Y-97121485D02*
X214811904Y-97311961D01*
X214811904Y-97311961D02*
X214907142Y-97407200D01*
X214907142Y-97407200D02*
X215002380Y-97454819D01*
X215002380Y-97454819D02*
X215192856Y-97454819D01*
X215192856Y-97454819D02*
X215288094Y-97407200D01*
X215288094Y-97407200D02*
X215383332Y-97311961D01*
X215383332Y-97311961D02*
X215430951Y-97121485D01*
X215430951Y-97121485D02*
X215430951Y-96788152D01*
X215430951Y-96788152D02*
X215383332Y-96597676D01*
X215383332Y-96597676D02*
X215288094Y-96502438D01*
X215288094Y-96502438D02*
X215192856Y-96454819D01*
X214430951Y-96454819D02*
X214192856Y-97454819D01*
X214192856Y-97454819D02*
X214002380Y-96740533D01*
X214002380Y-96740533D02*
X213811904Y-97454819D01*
X213811904Y-97454819D02*
X213573809Y-96454819D01*
X212669047Y-97454819D02*
X213240475Y-97454819D01*
X212954761Y-97454819D02*
X212954761Y-96454819D01*
X212954761Y-96454819D02*
X213049999Y-96597676D01*
X213049999Y-96597676D02*
X213145237Y-96692914D01*
X213145237Y-96692914D02*
X213240475Y-96740533D01*
X218545238Y-107519580D02*
X218592857Y-107567200D01*
X218592857Y-107567200D02*
X218735714Y-107614819D01*
X218735714Y-107614819D02*
X218830952Y-107614819D01*
X218830952Y-107614819D02*
X218973809Y-107567200D01*
X218973809Y-107567200D02*
X219069047Y-107471961D01*
X219069047Y-107471961D02*
X219116666Y-107376723D01*
X219116666Y-107376723D02*
X219164285Y-107186247D01*
X219164285Y-107186247D02*
X219164285Y-107043390D01*
X219164285Y-107043390D02*
X219116666Y-106852914D01*
X219116666Y-106852914D02*
X219069047Y-106757676D01*
X219069047Y-106757676D02*
X218973809Y-106662438D01*
X218973809Y-106662438D02*
X218830952Y-106614819D01*
X218830952Y-106614819D02*
X218735714Y-106614819D01*
X218735714Y-106614819D02*
X218592857Y-106662438D01*
X218592857Y-106662438D02*
X218545238Y-106710057D01*
X217926190Y-106614819D02*
X217735714Y-106614819D01*
X217735714Y-106614819D02*
X217640476Y-106662438D01*
X217640476Y-106662438D02*
X217545238Y-106757676D01*
X217545238Y-106757676D02*
X217497619Y-106948152D01*
X217497619Y-106948152D02*
X217497619Y-107281485D01*
X217497619Y-107281485D02*
X217545238Y-107471961D01*
X217545238Y-107471961D02*
X217640476Y-107567200D01*
X217640476Y-107567200D02*
X217735714Y-107614819D01*
X217735714Y-107614819D02*
X217926190Y-107614819D01*
X217926190Y-107614819D02*
X218021428Y-107567200D01*
X218021428Y-107567200D02*
X218116666Y-107471961D01*
X218116666Y-107471961D02*
X218164285Y-107281485D01*
X218164285Y-107281485D02*
X218164285Y-106948152D01*
X218164285Y-106948152D02*
X218116666Y-106757676D01*
X218116666Y-106757676D02*
X218021428Y-106662438D01*
X218021428Y-106662438D02*
X217926190Y-106614819D01*
X216592857Y-107614819D02*
X217069047Y-107614819D01*
X217069047Y-107614819D02*
X217069047Y-106614819D01*
X215783333Y-106614819D02*
X216259523Y-106614819D01*
X216259523Y-106614819D02*
X216307142Y-107091009D01*
X216307142Y-107091009D02*
X216259523Y-107043390D01*
X216259523Y-107043390D02*
X216164285Y-106995771D01*
X216164285Y-106995771D02*
X215926190Y-106995771D01*
X215926190Y-106995771D02*
X215830952Y-107043390D01*
X215830952Y-107043390D02*
X215783333Y-107091009D01*
X215783333Y-107091009D02*
X215735714Y-107186247D01*
X215735714Y-107186247D02*
X215735714Y-107424342D01*
X215735714Y-107424342D02*
X215783333Y-107519580D01*
X215783333Y-107519580D02*
X215830952Y-107567200D01*
X215830952Y-107567200D02*
X215926190Y-107614819D01*
X215926190Y-107614819D02*
X216164285Y-107614819D01*
X216164285Y-107614819D02*
X216259523Y-107567200D01*
X216259523Y-107567200D02*
X216307142Y-107519580D01*
X218778094Y-87294819D02*
X218778094Y-86294819D01*
X218778094Y-86294819D02*
X218397142Y-86294819D01*
X218397142Y-86294819D02*
X218301904Y-86342438D01*
X218301904Y-86342438D02*
X218254285Y-86390057D01*
X218254285Y-86390057D02*
X218206666Y-86485295D01*
X218206666Y-86485295D02*
X218206666Y-86628152D01*
X218206666Y-86628152D02*
X218254285Y-86723390D01*
X218254285Y-86723390D02*
X218301904Y-86771009D01*
X218301904Y-86771009D02*
X218397142Y-86818628D01*
X218397142Y-86818628D02*
X218778094Y-86818628D01*
X217587618Y-86294819D02*
X217492380Y-86294819D01*
X217492380Y-86294819D02*
X217397142Y-86342438D01*
X217397142Y-86342438D02*
X217349523Y-86390057D01*
X217349523Y-86390057D02*
X217301904Y-86485295D01*
X217301904Y-86485295D02*
X217254285Y-86675771D01*
X217254285Y-86675771D02*
X217254285Y-86913866D01*
X217254285Y-86913866D02*
X217301904Y-87104342D01*
X217301904Y-87104342D02*
X217349523Y-87199580D01*
X217349523Y-87199580D02*
X217397142Y-87247200D01*
X217397142Y-87247200D02*
X217492380Y-87294819D01*
X217492380Y-87294819D02*
X217587618Y-87294819D01*
X217587618Y-87294819D02*
X217682856Y-87247200D01*
X217682856Y-87247200D02*
X217730475Y-87199580D01*
X217730475Y-87199580D02*
X217778094Y-87104342D01*
X217778094Y-87104342D02*
X217825713Y-86913866D01*
X217825713Y-86913866D02*
X217825713Y-86675771D01*
X217825713Y-86675771D02*
X217778094Y-86485295D01*
X217778094Y-86485295D02*
X217730475Y-86390057D01*
X217730475Y-86390057D02*
X217682856Y-86342438D01*
X217682856Y-86342438D02*
X217587618Y-86294819D01*
X215311904Y-86342438D02*
X215407142Y-86294819D01*
X215407142Y-86294819D02*
X215549999Y-86294819D01*
X215549999Y-86294819D02*
X215692856Y-86342438D01*
X215692856Y-86342438D02*
X215788094Y-86437676D01*
X215788094Y-86437676D02*
X215835713Y-86532914D01*
X215835713Y-86532914D02*
X215883332Y-86723390D01*
X215883332Y-86723390D02*
X215883332Y-86866247D01*
X215883332Y-86866247D02*
X215835713Y-87056723D01*
X215835713Y-87056723D02*
X215788094Y-87151961D01*
X215788094Y-87151961D02*
X215692856Y-87247200D01*
X215692856Y-87247200D02*
X215549999Y-87294819D01*
X215549999Y-87294819D02*
X215454761Y-87294819D01*
X215454761Y-87294819D02*
X215311904Y-87247200D01*
X215311904Y-87247200D02*
X215264285Y-87199580D01*
X215264285Y-87199580D02*
X215264285Y-86866247D01*
X215264285Y-86866247D02*
X215454761Y-86866247D01*
X214835713Y-87294819D02*
X214835713Y-86294819D01*
X214835713Y-86294819D02*
X214264285Y-87294819D01*
X214264285Y-87294819D02*
X214264285Y-86294819D01*
X213788094Y-87294819D02*
X213788094Y-86294819D01*
X213788094Y-86294819D02*
X213549999Y-86294819D01*
X213549999Y-86294819D02*
X213407142Y-86342438D01*
X213407142Y-86342438D02*
X213311904Y-86437676D01*
X213311904Y-86437676D02*
X213264285Y-86532914D01*
X213264285Y-86532914D02*
X213216666Y-86723390D01*
X213216666Y-86723390D02*
X213216666Y-86866247D01*
X213216666Y-86866247D02*
X213264285Y-87056723D01*
X213264285Y-87056723D02*
X213311904Y-87151961D01*
X213311904Y-87151961D02*
X213407142Y-87247200D01*
X213407142Y-87247200D02*
X213549999Y-87294819D01*
X213549999Y-87294819D02*
X213788094Y-87294819D01*
X215811904Y-102534819D02*
X216145237Y-102058628D01*
X216383332Y-102534819D02*
X216383332Y-101534819D01*
X216383332Y-101534819D02*
X216002380Y-101534819D01*
X216002380Y-101534819D02*
X215907142Y-101582438D01*
X215907142Y-101582438D02*
X215859523Y-101630057D01*
X215859523Y-101630057D02*
X215811904Y-101725295D01*
X215811904Y-101725295D02*
X215811904Y-101868152D01*
X215811904Y-101868152D02*
X215859523Y-101963390D01*
X215859523Y-101963390D02*
X215907142Y-102011009D01*
X215907142Y-102011009D02*
X216002380Y-102058628D01*
X216002380Y-102058628D02*
X216383332Y-102058628D01*
X215192856Y-101534819D02*
X215002380Y-101534819D01*
X215002380Y-101534819D02*
X214907142Y-101582438D01*
X214907142Y-101582438D02*
X214811904Y-101677676D01*
X214811904Y-101677676D02*
X214764285Y-101868152D01*
X214764285Y-101868152D02*
X214764285Y-102201485D01*
X214764285Y-102201485D02*
X214811904Y-102391961D01*
X214811904Y-102391961D02*
X214907142Y-102487200D01*
X214907142Y-102487200D02*
X215002380Y-102534819D01*
X215002380Y-102534819D02*
X215192856Y-102534819D01*
X215192856Y-102534819D02*
X215288094Y-102487200D01*
X215288094Y-102487200D02*
X215383332Y-102391961D01*
X215383332Y-102391961D02*
X215430951Y-102201485D01*
X215430951Y-102201485D02*
X215430951Y-101868152D01*
X215430951Y-101868152D02*
X215383332Y-101677676D01*
X215383332Y-101677676D02*
X215288094Y-101582438D01*
X215288094Y-101582438D02*
X215192856Y-101534819D01*
X214430951Y-101534819D02*
X214192856Y-102534819D01*
X214192856Y-102534819D02*
X214002380Y-101820533D01*
X214002380Y-101820533D02*
X213811904Y-102534819D01*
X213811904Y-102534819D02*
X213573809Y-101534819D01*
X213288094Y-101534819D02*
X212669047Y-101534819D01*
X212669047Y-101534819D02*
X213002380Y-101915771D01*
X213002380Y-101915771D02*
X212859523Y-101915771D01*
X212859523Y-101915771D02*
X212764285Y-101963390D01*
X212764285Y-101963390D02*
X212716666Y-102011009D01*
X212716666Y-102011009D02*
X212669047Y-102106247D01*
X212669047Y-102106247D02*
X212669047Y-102344342D01*
X212669047Y-102344342D02*
X212716666Y-102439580D01*
X212716666Y-102439580D02*
X212764285Y-102487200D01*
X212764285Y-102487200D02*
X212859523Y-102534819D01*
X212859523Y-102534819D02*
X213145237Y-102534819D01*
X213145237Y-102534819D02*
X213240475Y-102487200D01*
X213240475Y-102487200D02*
X213288094Y-102439580D01*
X218545238Y-99899580D02*
X218592857Y-99947200D01*
X218592857Y-99947200D02*
X218735714Y-99994819D01*
X218735714Y-99994819D02*
X218830952Y-99994819D01*
X218830952Y-99994819D02*
X218973809Y-99947200D01*
X218973809Y-99947200D02*
X219069047Y-99851961D01*
X219069047Y-99851961D02*
X219116666Y-99756723D01*
X219116666Y-99756723D02*
X219164285Y-99566247D01*
X219164285Y-99566247D02*
X219164285Y-99423390D01*
X219164285Y-99423390D02*
X219116666Y-99232914D01*
X219116666Y-99232914D02*
X219069047Y-99137676D01*
X219069047Y-99137676D02*
X218973809Y-99042438D01*
X218973809Y-99042438D02*
X218830952Y-98994819D01*
X218830952Y-98994819D02*
X218735714Y-98994819D01*
X218735714Y-98994819D02*
X218592857Y-99042438D01*
X218592857Y-99042438D02*
X218545238Y-99090057D01*
X217926190Y-98994819D02*
X217735714Y-98994819D01*
X217735714Y-98994819D02*
X217640476Y-99042438D01*
X217640476Y-99042438D02*
X217545238Y-99137676D01*
X217545238Y-99137676D02*
X217497619Y-99328152D01*
X217497619Y-99328152D02*
X217497619Y-99661485D01*
X217497619Y-99661485D02*
X217545238Y-99851961D01*
X217545238Y-99851961D02*
X217640476Y-99947200D01*
X217640476Y-99947200D02*
X217735714Y-99994819D01*
X217735714Y-99994819D02*
X217926190Y-99994819D01*
X217926190Y-99994819D02*
X218021428Y-99947200D01*
X218021428Y-99947200D02*
X218116666Y-99851961D01*
X218116666Y-99851961D02*
X218164285Y-99661485D01*
X218164285Y-99661485D02*
X218164285Y-99328152D01*
X218164285Y-99328152D02*
X218116666Y-99137676D01*
X218116666Y-99137676D02*
X218021428Y-99042438D01*
X218021428Y-99042438D02*
X217926190Y-98994819D01*
X216592857Y-99994819D02*
X217069047Y-99994819D01*
X217069047Y-99994819D02*
X217069047Y-98994819D01*
X216307142Y-99090057D02*
X216259523Y-99042438D01*
X216259523Y-99042438D02*
X216164285Y-98994819D01*
X216164285Y-98994819D02*
X215926190Y-98994819D01*
X215926190Y-98994819D02*
X215830952Y-99042438D01*
X215830952Y-99042438D02*
X215783333Y-99090057D01*
X215783333Y-99090057D02*
X215735714Y-99185295D01*
X215735714Y-99185295D02*
X215735714Y-99280533D01*
X215735714Y-99280533D02*
X215783333Y-99423390D01*
X215783333Y-99423390D02*
X216354761Y-99994819D01*
X216354761Y-99994819D02*
X215735714Y-99994819D01*
X218545238Y-102439580D02*
X218592857Y-102487200D01*
X218592857Y-102487200D02*
X218735714Y-102534819D01*
X218735714Y-102534819D02*
X218830952Y-102534819D01*
X218830952Y-102534819D02*
X218973809Y-102487200D01*
X218973809Y-102487200D02*
X219069047Y-102391961D01*
X219069047Y-102391961D02*
X219116666Y-102296723D01*
X219116666Y-102296723D02*
X219164285Y-102106247D01*
X219164285Y-102106247D02*
X219164285Y-101963390D01*
X219164285Y-101963390D02*
X219116666Y-101772914D01*
X219116666Y-101772914D02*
X219069047Y-101677676D01*
X219069047Y-101677676D02*
X218973809Y-101582438D01*
X218973809Y-101582438D02*
X218830952Y-101534819D01*
X218830952Y-101534819D02*
X218735714Y-101534819D01*
X218735714Y-101534819D02*
X218592857Y-101582438D01*
X218592857Y-101582438D02*
X218545238Y-101630057D01*
X217926190Y-101534819D02*
X217735714Y-101534819D01*
X217735714Y-101534819D02*
X217640476Y-101582438D01*
X217640476Y-101582438D02*
X217545238Y-101677676D01*
X217545238Y-101677676D02*
X217497619Y-101868152D01*
X217497619Y-101868152D02*
X217497619Y-102201485D01*
X217497619Y-102201485D02*
X217545238Y-102391961D01*
X217545238Y-102391961D02*
X217640476Y-102487200D01*
X217640476Y-102487200D02*
X217735714Y-102534819D01*
X217735714Y-102534819D02*
X217926190Y-102534819D01*
X217926190Y-102534819D02*
X218021428Y-102487200D01*
X218021428Y-102487200D02*
X218116666Y-102391961D01*
X218116666Y-102391961D02*
X218164285Y-102201485D01*
X218164285Y-102201485D02*
X218164285Y-101868152D01*
X218164285Y-101868152D02*
X218116666Y-101677676D01*
X218116666Y-101677676D02*
X218021428Y-101582438D01*
X218021428Y-101582438D02*
X217926190Y-101534819D01*
X216592857Y-102534819D02*
X217069047Y-102534819D01*
X217069047Y-102534819D02*
X217069047Y-101534819D01*
X216354761Y-101534819D02*
X215735714Y-101534819D01*
X215735714Y-101534819D02*
X216069047Y-101915771D01*
X216069047Y-101915771D02*
X215926190Y-101915771D01*
X215926190Y-101915771D02*
X215830952Y-101963390D01*
X215830952Y-101963390D02*
X215783333Y-102011009D01*
X215783333Y-102011009D02*
X215735714Y-102106247D01*
X215735714Y-102106247D02*
X215735714Y-102344342D01*
X215735714Y-102344342D02*
X215783333Y-102439580D01*
X215783333Y-102439580D02*
X215830952Y-102487200D01*
X215830952Y-102487200D02*
X215926190Y-102534819D01*
X215926190Y-102534819D02*
X216211904Y-102534819D01*
X216211904Y-102534819D02*
X216307142Y-102487200D01*
X216307142Y-102487200D02*
X216354761Y-102439580D01*
X215764285Y-107614819D02*
X215764285Y-106614819D01*
X215764285Y-106614819D02*
X215383333Y-106614819D01*
X215383333Y-106614819D02*
X215288095Y-106662438D01*
X215288095Y-106662438D02*
X215240476Y-106710057D01*
X215240476Y-106710057D02*
X215192857Y-106805295D01*
X215192857Y-106805295D02*
X215192857Y-106948152D01*
X215192857Y-106948152D02*
X215240476Y-107043390D01*
X215240476Y-107043390D02*
X215288095Y-107091009D01*
X215288095Y-107091009D02*
X215383333Y-107138628D01*
X215383333Y-107138628D02*
X215764285Y-107138628D01*
X214240476Y-107614819D02*
X214811904Y-107614819D01*
X214526190Y-107614819D02*
X214526190Y-106614819D01*
X214526190Y-106614819D02*
X214621428Y-106757676D01*
X214621428Y-106757676D02*
X214716666Y-106852914D01*
X214716666Y-106852914D02*
X214811904Y-106900533D01*
X213383333Y-106948152D02*
X213383333Y-107614819D01*
X213621428Y-106567200D02*
X213859523Y-107281485D01*
X213859523Y-107281485D02*
X213240476Y-107281485D01*
X218545238Y-94819580D02*
X218592857Y-94867200D01*
X218592857Y-94867200D02*
X218735714Y-94914819D01*
X218735714Y-94914819D02*
X218830952Y-94914819D01*
X218830952Y-94914819D02*
X218973809Y-94867200D01*
X218973809Y-94867200D02*
X219069047Y-94771961D01*
X219069047Y-94771961D02*
X219116666Y-94676723D01*
X219116666Y-94676723D02*
X219164285Y-94486247D01*
X219164285Y-94486247D02*
X219164285Y-94343390D01*
X219164285Y-94343390D02*
X219116666Y-94152914D01*
X219116666Y-94152914D02*
X219069047Y-94057676D01*
X219069047Y-94057676D02*
X218973809Y-93962438D01*
X218973809Y-93962438D02*
X218830952Y-93914819D01*
X218830952Y-93914819D02*
X218735714Y-93914819D01*
X218735714Y-93914819D02*
X218592857Y-93962438D01*
X218592857Y-93962438D02*
X218545238Y-94010057D01*
X217926190Y-93914819D02*
X217735714Y-93914819D01*
X217735714Y-93914819D02*
X217640476Y-93962438D01*
X217640476Y-93962438D02*
X217545238Y-94057676D01*
X217545238Y-94057676D02*
X217497619Y-94248152D01*
X217497619Y-94248152D02*
X217497619Y-94581485D01*
X217497619Y-94581485D02*
X217545238Y-94771961D01*
X217545238Y-94771961D02*
X217640476Y-94867200D01*
X217640476Y-94867200D02*
X217735714Y-94914819D01*
X217735714Y-94914819D02*
X217926190Y-94914819D01*
X217926190Y-94914819D02*
X218021428Y-94867200D01*
X218021428Y-94867200D02*
X218116666Y-94771961D01*
X218116666Y-94771961D02*
X218164285Y-94581485D01*
X218164285Y-94581485D02*
X218164285Y-94248152D01*
X218164285Y-94248152D02*
X218116666Y-94057676D01*
X218116666Y-94057676D02*
X218021428Y-93962438D01*
X218021428Y-93962438D02*
X217926190Y-93914819D01*
X216592857Y-94914819D02*
X217069047Y-94914819D01*
X217069047Y-94914819D02*
X217069047Y-93914819D01*
X216069047Y-93914819D02*
X215973809Y-93914819D01*
X215973809Y-93914819D02*
X215878571Y-93962438D01*
X215878571Y-93962438D02*
X215830952Y-94010057D01*
X215830952Y-94010057D02*
X215783333Y-94105295D01*
X215783333Y-94105295D02*
X215735714Y-94295771D01*
X215735714Y-94295771D02*
X215735714Y-94533866D01*
X215735714Y-94533866D02*
X215783333Y-94724342D01*
X215783333Y-94724342D02*
X215830952Y-94819580D01*
X215830952Y-94819580D02*
X215878571Y-94867200D01*
X215878571Y-94867200D02*
X215973809Y-94914819D01*
X215973809Y-94914819D02*
X216069047Y-94914819D01*
X216069047Y-94914819D02*
X216164285Y-94867200D01*
X216164285Y-94867200D02*
X216211904Y-94819580D01*
X216211904Y-94819580D02*
X216259523Y-94724342D01*
X216259523Y-94724342D02*
X216307142Y-94533866D01*
X216307142Y-94533866D02*
X216307142Y-94295771D01*
X216307142Y-94295771D02*
X216259523Y-94105295D01*
X216259523Y-94105295D02*
X216211904Y-94010057D01*
X216211904Y-94010057D02*
X216164285Y-93962438D01*
X216164285Y-93962438D02*
X216069047Y-93914819D01*
X218211904Y-91422438D02*
X218307142Y-91374819D01*
X218307142Y-91374819D02*
X218449999Y-91374819D01*
X218449999Y-91374819D02*
X218592856Y-91422438D01*
X218592856Y-91422438D02*
X218688094Y-91517676D01*
X218688094Y-91517676D02*
X218735713Y-91612914D01*
X218735713Y-91612914D02*
X218783332Y-91803390D01*
X218783332Y-91803390D02*
X218783332Y-91946247D01*
X218783332Y-91946247D02*
X218735713Y-92136723D01*
X218735713Y-92136723D02*
X218688094Y-92231961D01*
X218688094Y-92231961D02*
X218592856Y-92327200D01*
X218592856Y-92327200D02*
X218449999Y-92374819D01*
X218449999Y-92374819D02*
X218354761Y-92374819D01*
X218354761Y-92374819D02*
X218211904Y-92327200D01*
X218211904Y-92327200D02*
X218164285Y-92279580D01*
X218164285Y-92279580D02*
X218164285Y-91946247D01*
X218164285Y-91946247D02*
X218354761Y-91946247D01*
X217735713Y-92374819D02*
X217735713Y-91374819D01*
X217735713Y-91374819D02*
X217164285Y-92374819D01*
X217164285Y-92374819D02*
X217164285Y-91374819D01*
X216688094Y-92374819D02*
X216688094Y-91374819D01*
X216688094Y-91374819D02*
X216449999Y-91374819D01*
X216449999Y-91374819D02*
X216307142Y-91422438D01*
X216307142Y-91422438D02*
X216211904Y-91517676D01*
X216211904Y-91517676D02*
X216164285Y-91612914D01*
X216164285Y-91612914D02*
X216116666Y-91803390D01*
X216116666Y-91803390D02*
X216116666Y-91946247D01*
X216116666Y-91946247D02*
X216164285Y-92136723D01*
X216164285Y-92136723D02*
X216211904Y-92231961D01*
X216211904Y-92231961D02*
X216307142Y-92327200D01*
X216307142Y-92327200D02*
X216449999Y-92374819D01*
X216449999Y-92374819D02*
X216688094Y-92374819D01*
X215764285Y-112694819D02*
X215764285Y-111694819D01*
X215764285Y-111694819D02*
X215383333Y-111694819D01*
X215383333Y-111694819D02*
X215288095Y-111742438D01*
X215288095Y-111742438D02*
X215240476Y-111790057D01*
X215240476Y-111790057D02*
X215192857Y-111885295D01*
X215192857Y-111885295D02*
X215192857Y-112028152D01*
X215192857Y-112028152D02*
X215240476Y-112123390D01*
X215240476Y-112123390D02*
X215288095Y-112171009D01*
X215288095Y-112171009D02*
X215383333Y-112218628D01*
X215383333Y-112218628D02*
X215764285Y-112218628D01*
X214240476Y-112694819D02*
X214811904Y-112694819D01*
X214526190Y-112694819D02*
X214526190Y-111694819D01*
X214526190Y-111694819D02*
X214621428Y-111837676D01*
X214621428Y-111837676D02*
X214716666Y-111932914D01*
X214716666Y-111932914D02*
X214811904Y-111980533D01*
X213621428Y-111694819D02*
X213526190Y-111694819D01*
X213526190Y-111694819D02*
X213430952Y-111742438D01*
X213430952Y-111742438D02*
X213383333Y-111790057D01*
X213383333Y-111790057D02*
X213335714Y-111885295D01*
X213335714Y-111885295D02*
X213288095Y-112075771D01*
X213288095Y-112075771D02*
X213288095Y-112313866D01*
X213288095Y-112313866D02*
X213335714Y-112504342D01*
X213335714Y-112504342D02*
X213383333Y-112599580D01*
X213383333Y-112599580D02*
X213430952Y-112647200D01*
X213430952Y-112647200D02*
X213526190Y-112694819D01*
X213526190Y-112694819D02*
X213621428Y-112694819D01*
X213621428Y-112694819D02*
X213716666Y-112647200D01*
X213716666Y-112647200D02*
X213764285Y-112599580D01*
X213764285Y-112599580D02*
X213811904Y-112504342D01*
X213811904Y-112504342D02*
X213859523Y-112313866D01*
X213859523Y-112313866D02*
X213859523Y-112075771D01*
X213859523Y-112075771D02*
X213811904Y-111885295D01*
X213811904Y-111885295D02*
X213764285Y-111790057D01*
X213764285Y-111790057D02*
X213716666Y-111742438D01*
X213716666Y-111742438D02*
X213621428Y-111694819D01*
X218778094Y-84754819D02*
X218778094Y-83754819D01*
X218778094Y-83754819D02*
X218397142Y-83754819D01*
X218397142Y-83754819D02*
X218301904Y-83802438D01*
X218301904Y-83802438D02*
X218254285Y-83850057D01*
X218254285Y-83850057D02*
X218206666Y-83945295D01*
X218206666Y-83945295D02*
X218206666Y-84088152D01*
X218206666Y-84088152D02*
X218254285Y-84183390D01*
X218254285Y-84183390D02*
X218301904Y-84231009D01*
X218301904Y-84231009D02*
X218397142Y-84278628D01*
X218397142Y-84278628D02*
X218778094Y-84278628D01*
X217254285Y-84754819D02*
X217825713Y-84754819D01*
X217539999Y-84754819D02*
X217539999Y-83754819D01*
X217539999Y-83754819D02*
X217635237Y-83897676D01*
X217635237Y-83897676D02*
X217730475Y-83992914D01*
X217730475Y-83992914D02*
X217825713Y-84040533D01*
X218778094Y-112694819D02*
X218778094Y-111694819D01*
X218778094Y-111694819D02*
X218397142Y-111694819D01*
X218397142Y-111694819D02*
X218301904Y-111742438D01*
X218301904Y-111742438D02*
X218254285Y-111790057D01*
X218254285Y-111790057D02*
X218206666Y-111885295D01*
X218206666Y-111885295D02*
X218206666Y-112028152D01*
X218206666Y-112028152D02*
X218254285Y-112123390D01*
X218254285Y-112123390D02*
X218301904Y-112171009D01*
X218301904Y-112171009D02*
X218397142Y-112218628D01*
X218397142Y-112218628D02*
X218778094Y-112218628D01*
X217730475Y-112694819D02*
X217539999Y-112694819D01*
X217539999Y-112694819D02*
X217444761Y-112647200D01*
X217444761Y-112647200D02*
X217397142Y-112599580D01*
X217397142Y-112599580D02*
X217301904Y-112456723D01*
X217301904Y-112456723D02*
X217254285Y-112266247D01*
X217254285Y-112266247D02*
X217254285Y-111885295D01*
X217254285Y-111885295D02*
X217301904Y-111790057D01*
X217301904Y-111790057D02*
X217349523Y-111742438D01*
X217349523Y-111742438D02*
X217444761Y-111694819D01*
X217444761Y-111694819D02*
X217635237Y-111694819D01*
X217635237Y-111694819D02*
X217730475Y-111742438D01*
X217730475Y-111742438D02*
X217778094Y-111790057D01*
X217778094Y-111790057D02*
X217825713Y-111885295D01*
X217825713Y-111885295D02*
X217825713Y-112123390D01*
X217825713Y-112123390D02*
X217778094Y-112218628D01*
X217778094Y-112218628D02*
X217730475Y-112266247D01*
X217730475Y-112266247D02*
X217635237Y-112313866D01*
X217635237Y-112313866D02*
X217444761Y-112313866D01*
X217444761Y-112313866D02*
X217349523Y-112266247D01*
X217349523Y-112266247D02*
X217301904Y-112218628D01*
X217301904Y-112218628D02*
X217254285Y-112123390D01*
X215097619Y-89834819D02*
X215430952Y-89358628D01*
X215669047Y-89834819D02*
X215669047Y-88834819D01*
X215669047Y-88834819D02*
X215288095Y-88834819D01*
X215288095Y-88834819D02*
X215192857Y-88882438D01*
X215192857Y-88882438D02*
X215145238Y-88930057D01*
X215145238Y-88930057D02*
X215097619Y-89025295D01*
X215097619Y-89025295D02*
X215097619Y-89168152D01*
X215097619Y-89168152D02*
X215145238Y-89263390D01*
X215145238Y-89263390D02*
X215192857Y-89311009D01*
X215192857Y-89311009D02*
X215288095Y-89358628D01*
X215288095Y-89358628D02*
X215669047Y-89358628D01*
X214716666Y-89787200D02*
X214573809Y-89834819D01*
X214573809Y-89834819D02*
X214335714Y-89834819D01*
X214335714Y-89834819D02*
X214240476Y-89787200D01*
X214240476Y-89787200D02*
X214192857Y-89739580D01*
X214192857Y-89739580D02*
X214145238Y-89644342D01*
X214145238Y-89644342D02*
X214145238Y-89549104D01*
X214145238Y-89549104D02*
X214192857Y-89453866D01*
X214192857Y-89453866D02*
X214240476Y-89406247D01*
X214240476Y-89406247D02*
X214335714Y-89358628D01*
X214335714Y-89358628D02*
X214526190Y-89311009D01*
X214526190Y-89311009D02*
X214621428Y-89263390D01*
X214621428Y-89263390D02*
X214669047Y-89215771D01*
X214669047Y-89215771D02*
X214716666Y-89120533D01*
X214716666Y-89120533D02*
X214716666Y-89025295D01*
X214716666Y-89025295D02*
X214669047Y-88930057D01*
X214669047Y-88930057D02*
X214621428Y-88882438D01*
X214621428Y-88882438D02*
X214526190Y-88834819D01*
X214526190Y-88834819D02*
X214288095Y-88834819D01*
X214288095Y-88834819D02*
X214145238Y-88882438D01*
X213859523Y-88834819D02*
X213288095Y-88834819D01*
X213573809Y-89834819D02*
X213573809Y-88834819D01*
X215811904Y-94914819D02*
X216145237Y-94438628D01*
X216383332Y-94914819D02*
X216383332Y-93914819D01*
X216383332Y-93914819D02*
X216002380Y-93914819D01*
X216002380Y-93914819D02*
X215907142Y-93962438D01*
X215907142Y-93962438D02*
X215859523Y-94010057D01*
X215859523Y-94010057D02*
X215811904Y-94105295D01*
X215811904Y-94105295D02*
X215811904Y-94248152D01*
X215811904Y-94248152D02*
X215859523Y-94343390D01*
X215859523Y-94343390D02*
X215907142Y-94391009D01*
X215907142Y-94391009D02*
X216002380Y-94438628D01*
X216002380Y-94438628D02*
X216383332Y-94438628D01*
X215192856Y-93914819D02*
X215002380Y-93914819D01*
X215002380Y-93914819D02*
X214907142Y-93962438D01*
X214907142Y-93962438D02*
X214811904Y-94057676D01*
X214811904Y-94057676D02*
X214764285Y-94248152D01*
X214764285Y-94248152D02*
X214764285Y-94581485D01*
X214764285Y-94581485D02*
X214811904Y-94771961D01*
X214811904Y-94771961D02*
X214907142Y-94867200D01*
X214907142Y-94867200D02*
X215002380Y-94914819D01*
X215002380Y-94914819D02*
X215192856Y-94914819D01*
X215192856Y-94914819D02*
X215288094Y-94867200D01*
X215288094Y-94867200D02*
X215383332Y-94771961D01*
X215383332Y-94771961D02*
X215430951Y-94581485D01*
X215430951Y-94581485D02*
X215430951Y-94248152D01*
X215430951Y-94248152D02*
X215383332Y-94057676D01*
X215383332Y-94057676D02*
X215288094Y-93962438D01*
X215288094Y-93962438D02*
X215192856Y-93914819D01*
X214430951Y-93914819D02*
X214192856Y-94914819D01*
X214192856Y-94914819D02*
X214002380Y-94200533D01*
X214002380Y-94200533D02*
X213811904Y-94914819D01*
X213811904Y-94914819D02*
X213573809Y-93914819D01*
X213002380Y-93914819D02*
X212907142Y-93914819D01*
X212907142Y-93914819D02*
X212811904Y-93962438D01*
X212811904Y-93962438D02*
X212764285Y-94010057D01*
X212764285Y-94010057D02*
X212716666Y-94105295D01*
X212716666Y-94105295D02*
X212669047Y-94295771D01*
X212669047Y-94295771D02*
X212669047Y-94533866D01*
X212669047Y-94533866D02*
X212716666Y-94724342D01*
X212716666Y-94724342D02*
X212764285Y-94819580D01*
X212764285Y-94819580D02*
X212811904Y-94867200D01*
X212811904Y-94867200D02*
X212907142Y-94914819D01*
X212907142Y-94914819D02*
X213002380Y-94914819D01*
X213002380Y-94914819D02*
X213097618Y-94867200D01*
X213097618Y-94867200D02*
X213145237Y-94819580D01*
X213145237Y-94819580D02*
X213192856Y-94724342D01*
X213192856Y-94724342D02*
X213240475Y-94533866D01*
X213240475Y-94533866D02*
X213240475Y-94295771D01*
X213240475Y-94295771D02*
X213192856Y-94105295D01*
X213192856Y-94105295D02*
X213145237Y-94010057D01*
X213145237Y-94010057D02*
X213097618Y-93962438D01*
X213097618Y-93962438D02*
X213002380Y-93914819D01*
X218545238Y-104979580D02*
X218592857Y-105027200D01*
X218592857Y-105027200D02*
X218735714Y-105074819D01*
X218735714Y-105074819D02*
X218830952Y-105074819D01*
X218830952Y-105074819D02*
X218973809Y-105027200D01*
X218973809Y-105027200D02*
X219069047Y-104931961D01*
X219069047Y-104931961D02*
X219116666Y-104836723D01*
X219116666Y-104836723D02*
X219164285Y-104646247D01*
X219164285Y-104646247D02*
X219164285Y-104503390D01*
X219164285Y-104503390D02*
X219116666Y-104312914D01*
X219116666Y-104312914D02*
X219069047Y-104217676D01*
X219069047Y-104217676D02*
X218973809Y-104122438D01*
X218973809Y-104122438D02*
X218830952Y-104074819D01*
X218830952Y-104074819D02*
X218735714Y-104074819D01*
X218735714Y-104074819D02*
X218592857Y-104122438D01*
X218592857Y-104122438D02*
X218545238Y-104170057D01*
X217926190Y-104074819D02*
X217735714Y-104074819D01*
X217735714Y-104074819D02*
X217640476Y-104122438D01*
X217640476Y-104122438D02*
X217545238Y-104217676D01*
X217545238Y-104217676D02*
X217497619Y-104408152D01*
X217497619Y-104408152D02*
X217497619Y-104741485D01*
X217497619Y-104741485D02*
X217545238Y-104931961D01*
X217545238Y-104931961D02*
X217640476Y-105027200D01*
X217640476Y-105027200D02*
X217735714Y-105074819D01*
X217735714Y-105074819D02*
X217926190Y-105074819D01*
X217926190Y-105074819D02*
X218021428Y-105027200D01*
X218021428Y-105027200D02*
X218116666Y-104931961D01*
X218116666Y-104931961D02*
X218164285Y-104741485D01*
X218164285Y-104741485D02*
X218164285Y-104408152D01*
X218164285Y-104408152D02*
X218116666Y-104217676D01*
X218116666Y-104217676D02*
X218021428Y-104122438D01*
X218021428Y-104122438D02*
X217926190Y-104074819D01*
X216592857Y-105074819D02*
X217069047Y-105074819D01*
X217069047Y-105074819D02*
X217069047Y-104074819D01*
X215830952Y-104408152D02*
X215830952Y-105074819D01*
X216069047Y-104027200D02*
X216307142Y-104741485D01*
X216307142Y-104741485D02*
X215688095Y-104741485D01*
X215240476Y-84754819D02*
X215573809Y-84278628D01*
X215811904Y-84754819D02*
X215811904Y-83754819D01*
X215811904Y-83754819D02*
X215430952Y-83754819D01*
X215430952Y-83754819D02*
X215335714Y-83802438D01*
X215335714Y-83802438D02*
X215288095Y-83850057D01*
X215288095Y-83850057D02*
X215240476Y-83945295D01*
X215240476Y-83945295D02*
X215240476Y-84088152D01*
X215240476Y-84088152D02*
X215288095Y-84183390D01*
X215288095Y-84183390D02*
X215335714Y-84231009D01*
X215335714Y-84231009D02*
X215430952Y-84278628D01*
X215430952Y-84278628D02*
X215811904Y-84278628D01*
X214859523Y-84469104D02*
X214383333Y-84469104D01*
X214954761Y-84754819D02*
X214621428Y-83754819D01*
X214621428Y-83754819D02*
X214288095Y-84754819D01*
X214049999Y-83754819D02*
X213811904Y-84754819D01*
X213811904Y-84754819D02*
X213621428Y-84040533D01*
X213621428Y-84040533D02*
X213430952Y-84754819D01*
X213430952Y-84754819D02*
X213192857Y-83754819D01*
X218211904Y-88882438D02*
X218307142Y-88834819D01*
X218307142Y-88834819D02*
X218449999Y-88834819D01*
X218449999Y-88834819D02*
X218592856Y-88882438D01*
X218592856Y-88882438D02*
X218688094Y-88977676D01*
X218688094Y-88977676D02*
X218735713Y-89072914D01*
X218735713Y-89072914D02*
X218783332Y-89263390D01*
X218783332Y-89263390D02*
X218783332Y-89406247D01*
X218783332Y-89406247D02*
X218735713Y-89596723D01*
X218735713Y-89596723D02*
X218688094Y-89691961D01*
X218688094Y-89691961D02*
X218592856Y-89787200D01*
X218592856Y-89787200D02*
X218449999Y-89834819D01*
X218449999Y-89834819D02*
X218354761Y-89834819D01*
X218354761Y-89834819D02*
X218211904Y-89787200D01*
X218211904Y-89787200D02*
X218164285Y-89739580D01*
X218164285Y-89739580D02*
X218164285Y-89406247D01*
X218164285Y-89406247D02*
X218354761Y-89406247D01*
X217735713Y-89834819D02*
X217735713Y-88834819D01*
X217735713Y-88834819D02*
X217164285Y-89834819D01*
X217164285Y-89834819D02*
X217164285Y-88834819D01*
X216688094Y-89834819D02*
X216688094Y-88834819D01*
X216688094Y-88834819D02*
X216449999Y-88834819D01*
X216449999Y-88834819D02*
X216307142Y-88882438D01*
X216307142Y-88882438D02*
X216211904Y-88977676D01*
X216211904Y-88977676D02*
X216164285Y-89072914D01*
X216164285Y-89072914D02*
X216116666Y-89263390D01*
X216116666Y-89263390D02*
X216116666Y-89406247D01*
X216116666Y-89406247D02*
X216164285Y-89596723D01*
X216164285Y-89596723D02*
X216211904Y-89691961D01*
X216211904Y-89691961D02*
X216307142Y-89787200D01*
X216307142Y-89787200D02*
X216449999Y-89834819D01*
X216449999Y-89834819D02*
X216688094Y-89834819D01*
X215811904Y-99994819D02*
X216145237Y-99518628D01*
X216383332Y-99994819D02*
X216383332Y-98994819D01*
X216383332Y-98994819D02*
X216002380Y-98994819D01*
X216002380Y-98994819D02*
X215907142Y-99042438D01*
X215907142Y-99042438D02*
X215859523Y-99090057D01*
X215859523Y-99090057D02*
X215811904Y-99185295D01*
X215811904Y-99185295D02*
X215811904Y-99328152D01*
X215811904Y-99328152D02*
X215859523Y-99423390D01*
X215859523Y-99423390D02*
X215907142Y-99471009D01*
X215907142Y-99471009D02*
X216002380Y-99518628D01*
X216002380Y-99518628D02*
X216383332Y-99518628D01*
X215192856Y-98994819D02*
X215002380Y-98994819D01*
X215002380Y-98994819D02*
X214907142Y-99042438D01*
X214907142Y-99042438D02*
X214811904Y-99137676D01*
X214811904Y-99137676D02*
X214764285Y-99328152D01*
X214764285Y-99328152D02*
X214764285Y-99661485D01*
X214764285Y-99661485D02*
X214811904Y-99851961D01*
X214811904Y-99851961D02*
X214907142Y-99947200D01*
X214907142Y-99947200D02*
X215002380Y-99994819D01*
X215002380Y-99994819D02*
X215192856Y-99994819D01*
X215192856Y-99994819D02*
X215288094Y-99947200D01*
X215288094Y-99947200D02*
X215383332Y-99851961D01*
X215383332Y-99851961D02*
X215430951Y-99661485D01*
X215430951Y-99661485D02*
X215430951Y-99328152D01*
X215430951Y-99328152D02*
X215383332Y-99137676D01*
X215383332Y-99137676D02*
X215288094Y-99042438D01*
X215288094Y-99042438D02*
X215192856Y-98994819D01*
X214430951Y-98994819D02*
X214192856Y-99994819D01*
X214192856Y-99994819D02*
X214002380Y-99280533D01*
X214002380Y-99280533D02*
X213811904Y-99994819D01*
X213811904Y-99994819D02*
X213573809Y-98994819D01*
X213240475Y-99090057D02*
X213192856Y-99042438D01*
X213192856Y-99042438D02*
X213097618Y-98994819D01*
X213097618Y-98994819D02*
X212859523Y-98994819D01*
X212859523Y-98994819D02*
X212764285Y-99042438D01*
X212764285Y-99042438D02*
X212716666Y-99090057D01*
X212716666Y-99090057D02*
X212669047Y-99185295D01*
X212669047Y-99185295D02*
X212669047Y-99280533D01*
X212669047Y-99280533D02*
X212716666Y-99423390D01*
X212716666Y-99423390D02*
X213288094Y-99994819D01*
X213288094Y-99994819D02*
X212669047Y-99994819D01*
X215883332Y-91374819D02*
X215549999Y-92374819D01*
X215549999Y-92374819D02*
X215216666Y-91374819D01*
X214311904Y-92279580D02*
X214359523Y-92327200D01*
X214359523Y-92327200D02*
X214502380Y-92374819D01*
X214502380Y-92374819D02*
X214597618Y-92374819D01*
X214597618Y-92374819D02*
X214740475Y-92327200D01*
X214740475Y-92327200D02*
X214835713Y-92231961D01*
X214835713Y-92231961D02*
X214883332Y-92136723D01*
X214883332Y-92136723D02*
X214930951Y-91946247D01*
X214930951Y-91946247D02*
X214930951Y-91803390D01*
X214930951Y-91803390D02*
X214883332Y-91612914D01*
X214883332Y-91612914D02*
X214835713Y-91517676D01*
X214835713Y-91517676D02*
X214740475Y-91422438D01*
X214740475Y-91422438D02*
X214597618Y-91374819D01*
X214597618Y-91374819D02*
X214502380Y-91374819D01*
X214502380Y-91374819D02*
X214359523Y-91422438D01*
X214359523Y-91422438D02*
X214311904Y-91470057D01*
X213311904Y-92279580D02*
X213359523Y-92327200D01*
X213359523Y-92327200D02*
X213502380Y-92374819D01*
X213502380Y-92374819D02*
X213597618Y-92374819D01*
X213597618Y-92374819D02*
X213740475Y-92327200D01*
X213740475Y-92327200D02*
X213835713Y-92231961D01*
X213835713Y-92231961D02*
X213883332Y-92136723D01*
X213883332Y-92136723D02*
X213930951Y-91946247D01*
X213930951Y-91946247D02*
X213930951Y-91803390D01*
X213930951Y-91803390D02*
X213883332Y-91612914D01*
X213883332Y-91612914D02*
X213835713Y-91517676D01*
X213835713Y-91517676D02*
X213740475Y-91422438D01*
X213740475Y-91422438D02*
X213597618Y-91374819D01*
X213597618Y-91374819D02*
X213502380Y-91374819D01*
X213502380Y-91374819D02*
X213359523Y-91422438D01*
X213359523Y-91422438D02*
X213311904Y-91470057D01*
X215811904Y-105074819D02*
X216145237Y-104598628D01*
X216383332Y-105074819D02*
X216383332Y-104074819D01*
X216383332Y-104074819D02*
X216002380Y-104074819D01*
X216002380Y-104074819D02*
X215907142Y-104122438D01*
X215907142Y-104122438D02*
X215859523Y-104170057D01*
X215859523Y-104170057D02*
X215811904Y-104265295D01*
X215811904Y-104265295D02*
X215811904Y-104408152D01*
X215811904Y-104408152D02*
X215859523Y-104503390D01*
X215859523Y-104503390D02*
X215907142Y-104551009D01*
X215907142Y-104551009D02*
X216002380Y-104598628D01*
X216002380Y-104598628D02*
X216383332Y-104598628D01*
X215192856Y-104074819D02*
X215002380Y-104074819D01*
X215002380Y-104074819D02*
X214907142Y-104122438D01*
X214907142Y-104122438D02*
X214811904Y-104217676D01*
X214811904Y-104217676D02*
X214764285Y-104408152D01*
X214764285Y-104408152D02*
X214764285Y-104741485D01*
X214764285Y-104741485D02*
X214811904Y-104931961D01*
X214811904Y-104931961D02*
X214907142Y-105027200D01*
X214907142Y-105027200D02*
X215002380Y-105074819D01*
X215002380Y-105074819D02*
X215192856Y-105074819D01*
X215192856Y-105074819D02*
X215288094Y-105027200D01*
X215288094Y-105027200D02*
X215383332Y-104931961D01*
X215383332Y-104931961D02*
X215430951Y-104741485D01*
X215430951Y-104741485D02*
X215430951Y-104408152D01*
X215430951Y-104408152D02*
X215383332Y-104217676D01*
X215383332Y-104217676D02*
X215288094Y-104122438D01*
X215288094Y-104122438D02*
X215192856Y-104074819D01*
X214430951Y-104074819D02*
X214192856Y-105074819D01*
X214192856Y-105074819D02*
X214002380Y-104360533D01*
X214002380Y-104360533D02*
X213811904Y-105074819D01*
X213811904Y-105074819D02*
X213573809Y-104074819D01*
X212764285Y-104408152D02*
X212764285Y-105074819D01*
X213002380Y-104027200D02*
X213240475Y-104741485D01*
X213240475Y-104741485D02*
X212621428Y-104741485D01*
X218545238Y-97359580D02*
X218592857Y-97407200D01*
X218592857Y-97407200D02*
X218735714Y-97454819D01*
X218735714Y-97454819D02*
X218830952Y-97454819D01*
X218830952Y-97454819D02*
X218973809Y-97407200D01*
X218973809Y-97407200D02*
X219069047Y-97311961D01*
X219069047Y-97311961D02*
X219116666Y-97216723D01*
X219116666Y-97216723D02*
X219164285Y-97026247D01*
X219164285Y-97026247D02*
X219164285Y-96883390D01*
X219164285Y-96883390D02*
X219116666Y-96692914D01*
X219116666Y-96692914D02*
X219069047Y-96597676D01*
X219069047Y-96597676D02*
X218973809Y-96502438D01*
X218973809Y-96502438D02*
X218830952Y-96454819D01*
X218830952Y-96454819D02*
X218735714Y-96454819D01*
X218735714Y-96454819D02*
X218592857Y-96502438D01*
X218592857Y-96502438D02*
X218545238Y-96550057D01*
X217926190Y-96454819D02*
X217735714Y-96454819D01*
X217735714Y-96454819D02*
X217640476Y-96502438D01*
X217640476Y-96502438D02*
X217545238Y-96597676D01*
X217545238Y-96597676D02*
X217497619Y-96788152D01*
X217497619Y-96788152D02*
X217497619Y-97121485D01*
X217497619Y-97121485D02*
X217545238Y-97311961D01*
X217545238Y-97311961D02*
X217640476Y-97407200D01*
X217640476Y-97407200D02*
X217735714Y-97454819D01*
X217735714Y-97454819D02*
X217926190Y-97454819D01*
X217926190Y-97454819D02*
X218021428Y-97407200D01*
X218021428Y-97407200D02*
X218116666Y-97311961D01*
X218116666Y-97311961D02*
X218164285Y-97121485D01*
X218164285Y-97121485D02*
X218164285Y-96788152D01*
X218164285Y-96788152D02*
X218116666Y-96597676D01*
X218116666Y-96597676D02*
X218021428Y-96502438D01*
X218021428Y-96502438D02*
X217926190Y-96454819D01*
X216592857Y-97454819D02*
X217069047Y-97454819D01*
X217069047Y-97454819D02*
X217069047Y-96454819D01*
X215735714Y-97454819D02*
X216307142Y-97454819D01*
X216021428Y-97454819D02*
X216021428Y-96454819D01*
X216021428Y-96454819D02*
X216116666Y-96597676D01*
X216116666Y-96597676D02*
X216211904Y-96692914D01*
X216211904Y-96692914D02*
X216307142Y-96740533D01*
X223690476Y-82209819D02*
X224166666Y-82209819D01*
X224166666Y-82209819D02*
X224166666Y-81209819D01*
X222309523Y-81209819D02*
X222309523Y-81924104D01*
X222309523Y-81924104D02*
X222357142Y-82066961D01*
X222357142Y-82066961D02*
X222452380Y-82162200D01*
X222452380Y-82162200D02*
X222595237Y-82209819D01*
X222595237Y-82209819D02*
X222690475Y-82209819D01*
X221404761Y-81543152D02*
X221404761Y-82209819D01*
X221833332Y-81543152D02*
X221833332Y-82066961D01*
X221833332Y-82066961D02*
X221785713Y-82162200D01*
X221785713Y-82162200D02*
X221690475Y-82209819D01*
X221690475Y-82209819D02*
X221547618Y-82209819D01*
X221547618Y-82209819D02*
X221452380Y-82162200D01*
X221452380Y-82162200D02*
X221404761Y-82114580D01*
X220928570Y-82209819D02*
X220928570Y-81543152D01*
X220928570Y-81638390D02*
X220880951Y-81590771D01*
X220880951Y-81590771D02*
X220785713Y-81543152D01*
X220785713Y-81543152D02*
X220642856Y-81543152D01*
X220642856Y-81543152D02*
X220547618Y-81590771D01*
X220547618Y-81590771D02*
X220499999Y-81686009D01*
X220499999Y-81686009D02*
X220499999Y-82209819D01*
X220499999Y-81686009D02*
X220452380Y-81590771D01*
X220452380Y-81590771D02*
X220357142Y-81543152D01*
X220357142Y-81543152D02*
X220214285Y-81543152D01*
X220214285Y-81543152D02*
X220119046Y-81590771D01*
X220119046Y-81590771D02*
X220071427Y-81686009D01*
X220071427Y-81686009D02*
X220071427Y-82209819D01*
X219595237Y-81543152D02*
X219595237Y-82543152D01*
X219595237Y-81590771D02*
X219499999Y-81543152D01*
X219499999Y-81543152D02*
X219309523Y-81543152D01*
X219309523Y-81543152D02*
X219214285Y-81590771D01*
X219214285Y-81590771D02*
X219166666Y-81638390D01*
X219166666Y-81638390D02*
X219119047Y-81733628D01*
X219119047Y-81733628D02*
X219119047Y-82019342D01*
X219119047Y-82019342D02*
X219166666Y-82114580D01*
X219166666Y-82114580D02*
X219214285Y-82162200D01*
X219214285Y-82162200D02*
X219309523Y-82209819D01*
X219309523Y-82209819D02*
X219499999Y-82209819D01*
X219499999Y-82209819D02*
X219595237Y-82162200D01*
X218309523Y-82162200D02*
X218404761Y-82209819D01*
X218404761Y-82209819D02*
X218595237Y-82209819D01*
X218595237Y-82209819D02*
X218690475Y-82162200D01*
X218690475Y-82162200D02*
X218738094Y-82066961D01*
X218738094Y-82066961D02*
X218738094Y-81686009D01*
X218738094Y-81686009D02*
X218690475Y-81590771D01*
X218690475Y-81590771D02*
X218595237Y-81543152D01*
X218595237Y-81543152D02*
X218404761Y-81543152D01*
X218404761Y-81543152D02*
X218309523Y-81590771D01*
X218309523Y-81590771D02*
X218261904Y-81686009D01*
X218261904Y-81686009D02*
X218261904Y-81781247D01*
X218261904Y-81781247D02*
X218738094Y-81876485D01*
X217833332Y-82209819D02*
X217833332Y-81543152D01*
X217833332Y-81733628D02*
X217785713Y-81638390D01*
X217785713Y-81638390D02*
X217738094Y-81590771D01*
X217738094Y-81590771D02*
X217642856Y-81543152D01*
X217642856Y-81543152D02*
X217547618Y-81543152D01*
X217261903Y-82162200D02*
X217166665Y-82209819D01*
X217166665Y-82209819D02*
X216976189Y-82209819D01*
X216976189Y-82209819D02*
X216880951Y-82162200D01*
X216880951Y-82162200D02*
X216833332Y-82066961D01*
X216833332Y-82066961D02*
X216833332Y-82019342D01*
X216833332Y-82019342D02*
X216880951Y-81924104D01*
X216880951Y-81924104D02*
X216976189Y-81876485D01*
X216976189Y-81876485D02*
X217119046Y-81876485D01*
X217119046Y-81876485D02*
X217214284Y-81828866D01*
X217214284Y-81828866D02*
X217261903Y-81733628D01*
X217261903Y-81733628D02*
X217261903Y-81686009D01*
X217261903Y-81686009D02*
X217214284Y-81590771D01*
X217214284Y-81590771D02*
X217119046Y-81543152D01*
X217119046Y-81543152D02*
X216976189Y-81543152D01*
X216976189Y-81543152D02*
X216880951Y-81590771D01*
X216357141Y-82162200D02*
X216357141Y-82209819D01*
X216357141Y-82209819D02*
X216404760Y-82305057D01*
X216404760Y-82305057D02*
X216452379Y-82352676D01*
X215166665Y-82209819D02*
X215166665Y-81209819D01*
X215166665Y-81209819D02*
X214833332Y-81924104D01*
X214833332Y-81924104D02*
X214499999Y-81209819D01*
X214499999Y-81209819D02*
X214499999Y-82209819D01*
X213452380Y-82114580D02*
X213499999Y-82162200D01*
X213499999Y-82162200D02*
X213642856Y-82209819D01*
X213642856Y-82209819D02*
X213738094Y-82209819D01*
X213738094Y-82209819D02*
X213880951Y-82162200D01*
X213880951Y-82162200D02*
X213976189Y-82066961D01*
X213976189Y-82066961D02*
X214023808Y-81971723D01*
X214023808Y-81971723D02*
X214071427Y-81781247D01*
X214071427Y-81781247D02*
X214071427Y-81638390D01*
X214071427Y-81638390D02*
X214023808Y-81447914D01*
X214023808Y-81447914D02*
X213976189Y-81352676D01*
X213976189Y-81352676D02*
X213880951Y-81257438D01*
X213880951Y-81257438D02*
X213738094Y-81209819D01*
X213738094Y-81209819D02*
X213642856Y-81209819D01*
X213642856Y-81209819D02*
X213499999Y-81257438D01*
X213499999Y-81257438D02*
X213452380Y-81305057D01*
X213023808Y-81209819D02*
X213023808Y-82019342D01*
X213023808Y-82019342D02*
X212976189Y-82114580D01*
X212976189Y-82114580D02*
X212928570Y-82162200D01*
X212928570Y-82162200D02*
X212833332Y-82209819D01*
X212833332Y-82209819D02*
X212642856Y-82209819D01*
X212642856Y-82209819D02*
X212547618Y-82162200D01*
X212547618Y-82162200D02*
X212499999Y-82114580D01*
X212499999Y-82114580D02*
X212452380Y-82019342D01*
X212452380Y-82019342D02*
X212452380Y-81209819D01*
X211214284Y-82209819D02*
X211214284Y-81209819D01*
X211214284Y-81209819D02*
X210976189Y-81209819D01*
X210976189Y-81209819D02*
X210833332Y-81257438D01*
X210833332Y-81257438D02*
X210738094Y-81352676D01*
X210738094Y-81352676D02*
X210690475Y-81447914D01*
X210690475Y-81447914D02*
X210642856Y-81638390D01*
X210642856Y-81638390D02*
X210642856Y-81781247D01*
X210642856Y-81781247D02*
X210690475Y-81971723D01*
X210690475Y-81971723D02*
X210738094Y-82066961D01*
X210738094Y-82066961D02*
X210833332Y-82162200D01*
X210833332Y-82162200D02*
X210976189Y-82209819D01*
X210976189Y-82209819D02*
X211214284Y-82209819D01*
X210071427Y-82209819D02*
X210166665Y-82162200D01*
X210166665Y-82162200D02*
X210214284Y-82114580D01*
X210214284Y-82114580D02*
X210261903Y-82019342D01*
X210261903Y-82019342D02*
X210261903Y-81733628D01*
X210261903Y-81733628D02*
X210214284Y-81638390D01*
X210214284Y-81638390D02*
X210166665Y-81590771D01*
X210166665Y-81590771D02*
X210071427Y-81543152D01*
X210071427Y-81543152D02*
X209928570Y-81543152D01*
X209928570Y-81543152D02*
X209833332Y-81590771D01*
X209833332Y-81590771D02*
X209785713Y-81638390D01*
X209785713Y-81638390D02*
X209738094Y-81733628D01*
X209738094Y-81733628D02*
X209738094Y-82019342D01*
X209738094Y-82019342D02*
X209785713Y-82114580D01*
X209785713Y-82114580D02*
X209833332Y-82162200D01*
X209833332Y-82162200D02*
X209928570Y-82209819D01*
X209928570Y-82209819D02*
X210071427Y-82209819D01*
X209404760Y-81543152D02*
X209214284Y-82209819D01*
X209214284Y-82209819D02*
X209023808Y-81733628D01*
X209023808Y-81733628D02*
X208833332Y-82209819D01*
X208833332Y-82209819D02*
X208642856Y-81543152D01*
X208261903Y-81543152D02*
X208261903Y-82209819D01*
X208261903Y-81638390D02*
X208214284Y-81590771D01*
X208214284Y-81590771D02*
X208119046Y-81543152D01*
X208119046Y-81543152D02*
X207976189Y-81543152D01*
X207976189Y-81543152D02*
X207880951Y-81590771D01*
X207880951Y-81590771D02*
X207833332Y-81686009D01*
X207833332Y-81686009D02*
X207833332Y-82209819D01*
X207654819Y-123966666D02*
X207178628Y-123633333D01*
X207654819Y-123395238D02*
X206654819Y-123395238D01*
X206654819Y-123395238D02*
X206654819Y-123776190D01*
X206654819Y-123776190D02*
X206702438Y-123871428D01*
X206702438Y-123871428D02*
X206750057Y-123919047D01*
X206750057Y-123919047D02*
X206845295Y-123966666D01*
X206845295Y-123966666D02*
X206988152Y-123966666D01*
X206988152Y-123966666D02*
X207083390Y-123919047D01*
X207083390Y-123919047D02*
X207131009Y-123871428D01*
X207131009Y-123871428D02*
X207178628Y-123776190D01*
X207178628Y-123776190D02*
X207178628Y-123395238D01*
X207131009Y-124395238D02*
X207131009Y-124728571D01*
X207654819Y-124871428D02*
X207654819Y-124395238D01*
X207654819Y-124395238D02*
X206654819Y-124395238D01*
X206654819Y-124395238D02*
X206654819Y-124871428D01*
X207131009Y-125633333D02*
X207131009Y-125300000D01*
X207654819Y-125300000D02*
X206654819Y-125300000D01*
X206654819Y-125300000D02*
X206654819Y-125776190D01*
X206654819Y-126300000D02*
X206892914Y-126300000D01*
X206797676Y-126061905D02*
X206892914Y-126300000D01*
X206892914Y-126300000D02*
X206797676Y-126538095D01*
X207083390Y-126157143D02*
X206892914Y-126300000D01*
X206892914Y-126300000D02*
X207083390Y-126442857D01*
X206654819Y-127061905D02*
X206892914Y-127061905D01*
X206797676Y-126823810D02*
X206892914Y-127061905D01*
X206892914Y-127061905D02*
X206797676Y-127300000D01*
X207083390Y-126919048D02*
X206892914Y-127061905D01*
X206892914Y-127061905D02*
X207083390Y-127204762D01*
D11*
%TO.C,D6*%
X118250000Y-134000000D02*
X118650000Y-134000000D01*
X118650000Y-134000000D02*
X118650000Y-133450000D01*
X118650000Y-134000000D02*
X118650000Y-134550000D01*
X118650000Y-134000000D02*
X119250000Y-133600000D01*
X119250000Y-133600000D02*
X119250000Y-134400000D01*
X119250000Y-134000000D02*
X119750000Y-134000000D01*
X119250000Y-134400000D02*
X118650000Y-134000000D01*
%TO.C,D10*%
X137250000Y-127000000D02*
X137650000Y-127000000D01*
X137650000Y-127000000D02*
X137650000Y-126450000D01*
X137650000Y-127000000D02*
X137650000Y-127550000D01*
X137650000Y-127000000D02*
X138250000Y-126600000D01*
X138250000Y-126600000D02*
X138250000Y-127400000D01*
X138250000Y-127000000D02*
X138750000Y-127000000D01*
X138250000Y-127400000D02*
X137650000Y-127000000D01*
D12*
%TO.C,MCU1*%
X207050000Y-82970000D02*
X207050000Y-113570000D01*
X207050000Y-85570000D02*
X209710000Y-85570000D01*
X209710000Y-82970000D02*
X207050000Y-82970000D01*
X209710000Y-82970000D02*
X209710000Y-113570000D01*
X209710000Y-113570000D02*
X207050000Y-113570000D01*
X222290000Y-82970000D02*
X222290000Y-113570000D01*
X224950000Y-82970000D02*
X222290000Y-82970000D01*
X224950000Y-82970000D02*
X224950000Y-113570000D01*
X224950000Y-113570000D02*
X222290000Y-113570000D01*
D11*
%TO.C,D17*%
X175250000Y-147000000D02*
X175650000Y-147000000D01*
X175650000Y-147000000D02*
X175650000Y-146450000D01*
X175650000Y-147000000D02*
X175650000Y-147550000D01*
X175650000Y-147000000D02*
X176250000Y-146600000D01*
X176250000Y-146600000D02*
X176250000Y-147400000D01*
X176250000Y-147000000D02*
X176750000Y-147000000D01*
X176250000Y-147400000D02*
X175650000Y-147000000D01*
%TO.C,D23*%
X194250000Y-111000000D02*
X194650000Y-111000000D01*
X194650000Y-111000000D02*
X194650000Y-110450000D01*
X194650000Y-111000000D02*
X194650000Y-111550000D01*
X194650000Y-111000000D02*
X195250000Y-110600000D01*
X195250000Y-110600000D02*
X195250000Y-111400000D01*
X195250000Y-111000000D02*
X195750000Y-111000000D01*
X195250000Y-111400000D02*
X194650000Y-111000000D01*
%TO.C,D2*%
X99250000Y-136000000D02*
X99650000Y-136000000D01*
X99650000Y-136000000D02*
X99650000Y-135450000D01*
X99650000Y-136000000D02*
X99650000Y-136550000D01*
X99650000Y-136000000D02*
X100250000Y-135600000D01*
X100250000Y-135600000D02*
X100250000Y-136400000D01*
X100250000Y-136000000D02*
X100750000Y-136000000D01*
X100250000Y-136400000D02*
X99650000Y-136000000D01*
%TO.C,D21*%
X194250000Y-149000000D02*
X194650000Y-149000000D01*
X194650000Y-149000000D02*
X194650000Y-148450000D01*
X194650000Y-149000000D02*
X194650000Y-149550000D01*
X194650000Y-149000000D02*
X195250000Y-148600000D01*
X195250000Y-148600000D02*
X195250000Y-149400000D01*
X195250000Y-149000000D02*
X195750000Y-149000000D01*
X195250000Y-149400000D02*
X194650000Y-149000000D01*
D10*
%TO.C,JST2*%
X215650000Y-115050000D02*
X215650000Y-115750000D01*
X215650000Y-115750000D02*
X217250000Y-115750000D01*
X215650000Y-120250000D02*
X215650000Y-120950000D01*
X215650000Y-120950000D02*
X223250000Y-120950000D01*
X217250000Y-115750000D02*
X217250000Y-120250000D01*
X217250000Y-120250000D02*
X215650000Y-120250000D01*
X218500000Y-119000000D02*
X219000000Y-119000000D01*
X218750000Y-119250000D02*
X218750000Y-118750000D01*
X223250000Y-115050000D02*
X215650000Y-115050000D01*
X223250000Y-120950000D02*
X223250000Y-115050000D01*
%TO.C,T2*%
X227461795Y-148321585D02*
X229719128Y-154523555D01*
X229719128Y-154523555D02*
X232397252Y-153548797D01*
X230139919Y-147346826D02*
X227461795Y-148321585D01*
X231268585Y-150447812D02*
X230139919Y-147346826D01*
X231268585Y-150447812D02*
X232397252Y-153548797D01*
X231935524Y-152280211D02*
X230601646Y-148615411D01*
D11*
%TO.C,D19*%
X175250000Y-109000000D02*
X175650000Y-109000000D01*
X175650000Y-109000000D02*
X175650000Y-108450000D01*
X175650000Y-109000000D02*
X175650000Y-109550000D01*
X175650000Y-109000000D02*
X176250000Y-108600000D01*
X176250000Y-108600000D02*
X176250000Y-109400000D01*
X176250000Y-109000000D02*
X176750000Y-109000000D01*
X176250000Y-109400000D02*
X175650000Y-109000000D01*
%TO.C,D8*%
X118250000Y-96000000D02*
X118650000Y-96000000D01*
X118650000Y-96000000D02*
X118650000Y-95450000D01*
X118650000Y-96000000D02*
X118650000Y-96550000D01*
X118650000Y-96000000D02*
X119250000Y-95600000D01*
X119250000Y-95600000D02*
X119250000Y-96400000D01*
X119250000Y-96000000D02*
X119750000Y-96000000D01*
X119250000Y-96400000D02*
X118650000Y-96000000D01*
%TO.C,D11*%
X137250000Y-108000000D02*
X137650000Y-108000000D01*
X137650000Y-108000000D02*
X137650000Y-107450000D01*
X137650000Y-108000000D02*
X137650000Y-108550000D01*
X137650000Y-108000000D02*
X138250000Y-107600000D01*
X138250000Y-107600000D02*
X138250000Y-108400000D01*
X138250000Y-108000000D02*
X138750000Y-108000000D01*
X138250000Y-108400000D02*
X137650000Y-108000000D01*
%TO.C,D15*%
X156250000Y-103000000D02*
X156650000Y-103000000D01*
X156650000Y-103000000D02*
X156650000Y-102450000D01*
X156650000Y-103000000D02*
X156650000Y-103550000D01*
X156650000Y-103000000D02*
X157250000Y-102600000D01*
X157250000Y-102600000D02*
X157250000Y-103400000D01*
X157250000Y-103000000D02*
X157750000Y-103000000D01*
X157250000Y-103400000D02*
X156650000Y-103000000D01*
%TO.C,D18*%
X175250000Y-128000000D02*
X175650000Y-128000000D01*
X175650000Y-128000000D02*
X175650000Y-127450000D01*
X175650000Y-128000000D02*
X175650000Y-128550000D01*
X175650000Y-128000000D02*
X176250000Y-127600000D01*
X176250000Y-127600000D02*
X176250000Y-128400000D01*
X176250000Y-128000000D02*
X176750000Y-128000000D01*
X176250000Y-128400000D02*
X175650000Y-128000000D01*
%TO.C,D27*%
X223941342Y-170749354D02*
X224693096Y-171022970D01*
X223975199Y-171825854D02*
X224112007Y-171449977D01*
X224112007Y-171449977D02*
X223595176Y-171261866D01*
X224112007Y-171449977D02*
X223941342Y-170749354D01*
X224112007Y-171449977D02*
X224628838Y-171638088D01*
X224317219Y-170886162D02*
X224488229Y-170416316D01*
X224693096Y-171022970D02*
X224112007Y-171449977D01*
%TO.C,D25*%
X176250000Y-168000000D02*
X176650000Y-168000000D01*
X176650000Y-168000000D02*
X176650000Y-167450000D01*
X176650000Y-168000000D02*
X176650000Y-168550000D01*
X176650000Y-168000000D02*
X177250000Y-167600000D01*
X177250000Y-167600000D02*
X177250000Y-168400000D01*
X177250000Y-168000000D02*
X177750000Y-168000000D01*
X177250000Y-168400000D02*
X176650000Y-168000000D01*
%TO.C,D14*%
X156250000Y-122000000D02*
X156650000Y-122000000D01*
X156650000Y-122000000D02*
X156650000Y-121450000D01*
X156650000Y-122000000D02*
X156650000Y-122550000D01*
X156650000Y-122000000D02*
X157250000Y-121600000D01*
X157250000Y-121600000D02*
X157250000Y-122400000D01*
X157250000Y-122000000D02*
X157750000Y-122000000D01*
X157250000Y-122400000D02*
X156650000Y-122000000D01*
%TO.C,D12*%
X137250000Y-89000000D02*
X137650000Y-89000000D01*
X137650000Y-89000000D02*
X137650000Y-88450000D01*
X137650000Y-89000000D02*
X137650000Y-89550000D01*
X137650000Y-89000000D02*
X138250000Y-88600000D01*
X138250000Y-88600000D02*
X138250000Y-89400000D01*
X138250000Y-89000000D02*
X138750000Y-89000000D01*
X138250000Y-89400000D02*
X137650000Y-89000000D01*
D10*
%TO.C,B2*%
X208250000Y-115750000D02*
X208250000Y-118250000D01*
X208250000Y-115750000D02*
X209750000Y-114250000D01*
X208250000Y-118250000D02*
X209750000Y-119750000D01*
X209750000Y-114250000D02*
X212250000Y-114250000D01*
X209750000Y-119750000D02*
X212250000Y-119750000D01*
X213750000Y-115750000D02*
X212250000Y-114250000D01*
X213750000Y-115750000D02*
X213750000Y-118250000D01*
X213750000Y-118250000D02*
X212250000Y-119750000D01*
D11*
%TO.C,D13*%
X156250000Y-141000000D02*
X156650000Y-141000000D01*
X156650000Y-141000000D02*
X156650000Y-140450000D01*
X156650000Y-141000000D02*
X156650000Y-141550000D01*
X156650000Y-141000000D02*
X157250000Y-140600000D01*
X157250000Y-140600000D02*
X157250000Y-141400000D01*
X157250000Y-141000000D02*
X157750000Y-141000000D01*
X157250000Y-141400000D02*
X156650000Y-141000000D01*
%TO.C,D24*%
X194250000Y-92000000D02*
X194650000Y-92000000D01*
X194650000Y-92000000D02*
X194650000Y-91450000D01*
X194650000Y-92000000D02*
X194650000Y-92550000D01*
X194650000Y-92000000D02*
X195250000Y-91600000D01*
X195250000Y-91600000D02*
X195250000Y-92400000D01*
X195250000Y-92000000D02*
X195750000Y-92000000D01*
X195250000Y-92400000D02*
X194650000Y-92000000D01*
%TO.C,D22*%
X194250000Y-130000000D02*
X194650000Y-130000000D01*
X194650000Y-130000000D02*
X194650000Y-129450000D01*
X194650000Y-130000000D02*
X194650000Y-130550000D01*
X194650000Y-130000000D02*
X195250000Y-129600000D01*
X195250000Y-129600000D02*
X195250000Y-130400000D01*
X195250000Y-130000000D02*
X195750000Y-130000000D01*
X195250000Y-130400000D02*
X194650000Y-130000000D01*
%TO.C,D9*%
X137250000Y-146000000D02*
X137650000Y-146000000D01*
X137650000Y-146000000D02*
X137650000Y-145450000D01*
X137650000Y-146000000D02*
X137650000Y-146550000D01*
X137650000Y-146000000D02*
X138250000Y-145600000D01*
X138250000Y-145600000D02*
X138250000Y-146400000D01*
X138250000Y-146000000D02*
X138750000Y-146000000D01*
X138250000Y-146400000D02*
X137650000Y-146000000D01*
%TO.C,D5*%
X118250000Y-153000000D02*
X118650000Y-153000000D01*
X118650000Y-153000000D02*
X118650000Y-152450000D01*
X118650000Y-153000000D02*
X118650000Y-153550000D01*
X118650000Y-153000000D02*
X119250000Y-152600000D01*
X119250000Y-152600000D02*
X119250000Y-153400000D01*
X119250000Y-153000000D02*
X119750000Y-153000000D01*
X119250000Y-153400000D02*
X118650000Y-153000000D01*
%TO.C,D3*%
X99250000Y-117000000D02*
X99650000Y-117000000D01*
X99650000Y-117000000D02*
X99650000Y-116450000D01*
X99650000Y-117000000D02*
X99650000Y-117550000D01*
X99650000Y-117000000D02*
X100250000Y-116600000D01*
X100250000Y-116600000D02*
X100250000Y-117400000D01*
X100250000Y-117000000D02*
X100750000Y-117000000D01*
X100250000Y-117400000D02*
X99650000Y-117000000D01*
%TO.C,D4*%
X99250000Y-98000000D02*
X99650000Y-98000000D01*
X99650000Y-98000000D02*
X99650000Y-97450000D01*
X99650000Y-98000000D02*
X99650000Y-98550000D01*
X99650000Y-98000000D02*
X100250000Y-97600000D01*
X100250000Y-97600000D02*
X100250000Y-98400000D01*
X100250000Y-98000000D02*
X100750000Y-98000000D01*
X100250000Y-98400000D02*
X99650000Y-98000000D01*
%TO.C,D26*%
X196687608Y-170138014D02*
X197081531Y-170207473D01*
X197081531Y-170207473D02*
X196986025Y-170749117D01*
X197081531Y-170207473D02*
X197177038Y-169665829D01*
X197081531Y-170207473D02*
X197741875Y-169917739D01*
X197602957Y-170705585D02*
X197081531Y-170207473D01*
X197672416Y-170311662D02*
X198164820Y-170398486D01*
X197741875Y-169917739D02*
X197602957Y-170705585D01*
%TO.C,D7*%
X118250000Y-115000000D02*
X118650000Y-115000000D01*
X118650000Y-115000000D02*
X118650000Y-114450000D01*
X118650000Y-115000000D02*
X118650000Y-115550000D01*
X118650000Y-115000000D02*
X119250000Y-114600000D01*
X119250000Y-114600000D02*
X119250000Y-115400000D01*
X119250000Y-115000000D02*
X119750000Y-115000000D01*
X119250000Y-115400000D02*
X118650000Y-115000000D01*
%TO.C,D16*%
X156250000Y-84000000D02*
X156650000Y-84000000D01*
X156650000Y-84000000D02*
X156650000Y-83450000D01*
X156650000Y-84000000D02*
X156650000Y-84550000D01*
X156650000Y-84000000D02*
X157250000Y-83600000D01*
X157250000Y-83600000D02*
X157250000Y-84400000D01*
X157250000Y-84000000D02*
X157750000Y-84000000D01*
X157250000Y-84400000D02*
X156650000Y-84000000D01*
%TO.C,D1*%
X99250000Y-155000000D02*
X99650000Y-155000000D01*
X99650000Y-155000000D02*
X99650000Y-154450000D01*
X99650000Y-155000000D02*
X99650000Y-155550000D01*
X99650000Y-155000000D02*
X100250000Y-154600000D01*
X100250000Y-154600000D02*
X100250000Y-155400000D01*
X100250000Y-155000000D02*
X100750000Y-155000000D01*
X100250000Y-155400000D02*
X99650000Y-155000000D01*
%TO.C,D20*%
X175250000Y-90000000D02*
X175650000Y-90000000D01*
X175650000Y-90000000D02*
X175650000Y-89450000D01*
X175650000Y-90000000D02*
X175650000Y-90550000D01*
X175650000Y-90000000D02*
X176250000Y-89600000D01*
X176250000Y-89600000D02*
X176250000Y-90400000D01*
X176250000Y-90000000D02*
X176750000Y-90000000D01*
X176250000Y-90400000D02*
X175650000Y-90000000D01*
D12*
%TO.C,REF\u002A\u002A*%
X208000000Y-126700000D02*
X208000000Y-123900000D01*
X208700000Y-123250000D02*
X209300000Y-123250000D01*
X209300000Y-127350000D02*
X208700000Y-127350000D01*
X210000000Y-123900000D02*
X210000000Y-126700000D01*
X210500000Y-123800000D02*
X210200000Y-124100000D01*
X210500000Y-124400000D02*
X210200000Y-124100000D01*
X210500000Y-124400000D02*
X210500000Y-123800000D01*
X208000000Y-123950000D02*
G75*
G02*
X208700000Y-123250000I699999J1D01*
G01*
X208700000Y-127350000D02*
G75*
G02*
X208000000Y-126650000I0J700000D01*
G01*
X209300000Y-123250000D02*
G75*
G02*
X210000000Y-123950000I1J-699999D01*
G01*
X210000000Y-126650000D02*
G75*
G02*
X209300000Y-127350000I-700000J0D01*
G01*
%TD*%
M02*
