%TF.GenerationSoftware,KiCad,Pcbnew,8.0.5-8.0.5-0~ubuntu20.04.1*%
%TF.CreationDate,2024-10-07T16:46:15+02:00*%
%TF.ProjectId,keyboard_pcb,6b657962-6f61-4726-945f-7063622e6b69,v1.0.0*%
%TF.SameCoordinates,Original*%
%TF.FileFunction,Copper,L2,Bot*%
%TF.FilePolarity,Positive*%
%FSLAX46Y46*%
G04 Gerber Fmt 4.6, Leading zero omitted, Abs format (unit mm)*
G04 Created by KiCad (PCBNEW 8.0.5-8.0.5-0~ubuntu20.04.1) date 2024-10-07 16:46:15*
%MOMM*%
%LPD*%
G01*
G04 APERTURE LIST*
G04 Aperture macros list*
%AMRotRect*
0 Rectangle, with rotation*
0 The origin of the aperture is its center*
0 $1 length*
0 $2 width*
0 $3 Rotation angle, in degrees counterclockwise*
0 Add horizontal line*
21,1,$1,$2,0,0,$3*%
%AMFreePoly0*
4,1,6,0.250000,0.000000,-0.250000,-0.625000,-0.500000,-0.625000,-0.500000,0.625000,-0.250000,0.625000,0.250000,0.000000,0.250000,0.000000,$1*%
%AMFreePoly1*
4,1,6,0.500000,-0.625000,-0.650000,-0.625000,-0.150000,0.000000,-0.650000,0.625000,0.500000,0.625000,0.500000,-0.625000,0.500000,-0.625000,$1*%
%AMFreePoly2*
4,1,19,0.550000,-0.750000,0.000000,-0.750000,0.000000,-0.744911,-0.071157,-0.744911,-0.207708,-0.704816,-0.327430,-0.627875,-0.420627,-0.520320,-0.479746,-0.390866,-0.500000,-0.250000,-0.500000,0.250000,-0.479746,0.390866,-0.420627,0.520320,-0.327430,0.627875,-0.207708,0.704816,-0.071157,0.744911,0.000000,0.744911,0.000000,0.750000,0.550000,0.750000,0.550000,-0.750000,0.550000,-0.750000,
$1*%
%AMFreePoly3*
4,1,19,0.000000,0.744911,0.071157,0.744911,0.207708,0.704816,0.327430,0.627875,0.420627,0.520320,0.479746,0.390866,0.500000,0.250000,0.500000,-0.250000,0.479746,-0.390866,0.420627,-0.520320,0.327430,-0.627875,0.207708,-0.704816,0.071157,-0.744911,0.000000,-0.744911,0.000000,-0.750000,-0.550000,-0.750000,-0.550000,0.750000,0.000000,0.750000,0.000000,0.744911,0.000000,0.744911,
$1*%
G04 Aperture macros list end*
%TA.AperFunction,WasherPad*%
%ADD10C,1.000000*%
%TD*%
%TA.AperFunction,SMDPad,CuDef*%
%ADD11R,2.600000X2.600000*%
%TD*%
%TA.AperFunction,ComponentPad*%
%ADD12R,1.778000X1.778000*%
%TD*%
%TA.AperFunction,SMDPad,CuDef*%
%ADD13R,0.900000X1.200000*%
%TD*%
%TA.AperFunction,ComponentPad*%
%ADD14C,1.905000*%
%TD*%
%TA.AperFunction,SMDPad,CuDef*%
%ADD15FreePoly0,180.000000*%
%TD*%
%TA.AperFunction,ComponentPad*%
%ADD16C,1.700000*%
%TD*%
%TA.AperFunction,SMDPad,CuDef*%
%ADD17FreePoly0,0.000000*%
%TD*%
%TA.AperFunction,SMDPad,CuDef*%
%ADD18FreePoly1,0.000000*%
%TD*%
%TA.AperFunction,ComponentPad*%
%ADD19C,0.800000*%
%TD*%
%TA.AperFunction,SMDPad,CuDef*%
%ADD20FreePoly1,180.000000*%
%TD*%
%TA.AperFunction,ComponentPad*%
%ADD21C,3.800000*%
%TD*%
%TA.AperFunction,ComponentPad*%
%ADD22R,1.700000X1.200000*%
%TD*%
%TA.AperFunction,ComponentPad*%
%ADD23O,1.700000X1.200000*%
%TD*%
%TA.AperFunction,SMDPad,CuDef*%
%ADD24RotRect,0.900000X0.900000X290.000000*%
%TD*%
%TA.AperFunction,SMDPad,CuDef*%
%ADD25RotRect,0.900000X1.250000X290.000000*%
%TD*%
%TA.AperFunction,SMDPad,CuDef*%
%ADD26RotRect,2.600000X2.600000X70.000000*%
%TD*%
%TA.AperFunction,ComponentPad*%
%ADD27RotRect,1.778000X1.778000X70.000000*%
%TD*%
%TA.AperFunction,SMDPad,CuDef*%
%ADD28RotRect,0.900000X1.200000X70.000000*%
%TD*%
%TA.AperFunction,ComponentPad*%
%ADD29O,2.200000X1.600000*%
%TD*%
%TA.AperFunction,SMDPad,CuDef*%
%ADD30R,1.800000X1.100000*%
%TD*%
%TA.AperFunction,ComponentPad*%
%ADD31RotRect,1.778000X1.778000X350.000000*%
%TD*%
%TA.AperFunction,SMDPad,CuDef*%
%ADD32RotRect,0.900000X1.200000X350.000000*%
%TD*%
%TA.AperFunction,SMDPad,CuDef*%
%ADD33RotRect,2.600000X2.600000X350.000000*%
%TD*%
%TA.AperFunction,SMDPad,CuDef*%
%ADD34FreePoly2,270.000000*%
%TD*%
%TA.AperFunction,SMDPad,CuDef*%
%ADD35R,1.500000X1.000000*%
%TD*%
%TA.AperFunction,SMDPad,CuDef*%
%ADD36FreePoly3,270.000000*%
%TD*%
%TA.AperFunction,ViaPad*%
%ADD37C,0.800000*%
%TD*%
%TA.AperFunction,Conductor*%
%ADD38C,0.250000*%
%TD*%
G04 APERTURE END LIST*
D10*
%TO.P,T1,*%
%TO.N,*%
X229486970Y-149500000D03*
X230513030Y-152319078D03*
%TD*%
D11*
%TO.P,S1,1*%
%TO.N,COL0*%
X96725000Y-144050000D03*
%TO.P,S1,2*%
%TO.N,pinky_bottom*%
X108275000Y-146250000D03*
%TD*%
D12*
%TO.P,D6,1*%
%TO.N,ROW3*%
X115190000Y-134000000D03*
D13*
X117350000Y-134000000D03*
%TO.P,D6,2*%
%TO.N,shift_home*%
X120650000Y-134000000D03*
D14*
X122810000Y-134000000D03*
%TD*%
D11*
%TO.P,S19,1*%
%TO.N,COL4*%
X172725000Y-98050000D03*
%TO.P,S19,2*%
%TO.N,index_num*%
X184275000Y-100250000D03*
%TD*%
D12*
%TO.P,D10,1*%
%TO.N,ROW3*%
X134190000Y-127000000D03*
D13*
X136350000Y-127000000D03*
%TO.P,D10,2*%
%TO.N,ring_home*%
X139650000Y-127000000D03*
D14*
X141810000Y-127000000D03*
%TD*%
D15*
%TO.P,MCU1,1*%
%TO.N,MCU1_1*%
X221500000Y-84300000D03*
D16*
X223620000Y-84300000D03*
D15*
%TO.P,MCU1,2*%
%TO.N,MCU1_2*%
X221500000Y-86840000D03*
D16*
X223620000Y-86840000D03*
D15*
%TO.P,MCU1,3*%
%TO.N,MCU1_3*%
X221500000Y-89380000D03*
D16*
X223620000Y-89380000D03*
D15*
%TO.P,MCU1,4*%
%TO.N,MCU1_4*%
X221500000Y-91920000D03*
D16*
X223620000Y-91920000D03*
D15*
%TO.P,MCU1,5*%
%TO.N,MCU1_5*%
X221500000Y-94460000D03*
D16*
X223620000Y-94460000D03*
D15*
%TO.P,MCU1,6*%
%TO.N,MCU1_6*%
X221500000Y-97000000D03*
D16*
X223620000Y-97000000D03*
D15*
%TO.P,MCU1,7*%
%TO.N,MCU1_7*%
X221500000Y-99540000D03*
D16*
X223620000Y-99540000D03*
D15*
%TO.P,MCU1,8*%
%TO.N,MCU1_8*%
X221500000Y-102080000D03*
D16*
X223620000Y-102080000D03*
D15*
%TO.P,MCU1,9*%
%TO.N,MCU1_9*%
X221500000Y-104620000D03*
D16*
X223620000Y-104620000D03*
D15*
%TO.P,MCU1,10*%
%TO.N,MCU1_10*%
X221500000Y-107160000D03*
D16*
X223620000Y-107160000D03*
D15*
%TO.P,MCU1,11*%
%TO.N,MCU1_11*%
X221500000Y-109700000D03*
D16*
X223620000Y-109700000D03*
D15*
%TO.P,MCU1,12*%
%TO.N,MCU1_12*%
X221500000Y-112240000D03*
D16*
X223620000Y-112240000D03*
%TO.P,MCU1,13*%
%TO.N,MCU1_13*%
X208380000Y-112240000D03*
D17*
X210500000Y-112240000D03*
D16*
%TO.P,MCU1,14*%
%TO.N,MCU1_14*%
X208380000Y-109700000D03*
D17*
X210500000Y-109700000D03*
D16*
%TO.P,MCU1,15*%
%TO.N,MCU1_15*%
X208380000Y-107160000D03*
D17*
X210500000Y-107160000D03*
D16*
%TO.P,MCU1,16*%
%TO.N,MCU1_16*%
X208380000Y-104620000D03*
D17*
X210500000Y-104620000D03*
D16*
%TO.P,MCU1,17*%
%TO.N,MCU1_17*%
X208380000Y-102080000D03*
D17*
X210500000Y-102080000D03*
D16*
%TO.P,MCU1,18*%
%TO.N,MCU1_18*%
X208380000Y-99540000D03*
D17*
X210500000Y-99540000D03*
D16*
%TO.P,MCU1,19*%
%TO.N,MCU1_19*%
X208380000Y-97000000D03*
D17*
X210500000Y-97000000D03*
D16*
%TO.P,MCU1,20*%
%TO.N,MCU1_20*%
X208380000Y-94460000D03*
D17*
X210500000Y-94460000D03*
D16*
%TO.P,MCU1,21*%
%TO.N,MCU1_21*%
X208380000Y-91920000D03*
D17*
X210500000Y-91920000D03*
D16*
%TO.P,MCU1,22*%
%TO.N,MCU1_22*%
X208380000Y-89380000D03*
D17*
X210500000Y-89380000D03*
D16*
%TO.P,MCU1,23*%
%TO.N,MCU1_23*%
X208380000Y-86840000D03*
D17*
X210500000Y-86840000D03*
D16*
%TO.P,MCU1,24*%
%TO.N,MCU1_24*%
X208380000Y-84300000D03*
D17*
X210500000Y-84300000D03*
D18*
%TO.P,MCU1,101*%
%TO.N,P1*%
X211225000Y-84300000D03*
D19*
X219400000Y-84300000D03*
D18*
%TO.P,MCU1,102*%
%TO.N,P0*%
X211225000Y-86840000D03*
D19*
X219400000Y-86840000D03*
D18*
%TO.P,MCU1,103*%
%TO.N,GND*%
X211225000Y-89380000D03*
D19*
X219400000Y-89380000D03*
D18*
%TO.P,MCU1,104*%
X211225000Y-91920000D03*
D19*
X219400000Y-91920000D03*
D18*
%TO.P,MCU1,105*%
%TO.N,COL0*%
X211225000Y-94460000D03*
D19*
X219400000Y-94460000D03*
D18*
%TO.P,MCU1,106*%
%TO.N,COL1*%
X211225000Y-97000000D03*
D19*
X219400000Y-97000000D03*
D18*
%TO.P,MCU1,107*%
%TO.N,COL2*%
X211225000Y-99540000D03*
D19*
X219400000Y-99540000D03*
D18*
%TO.P,MCU1,108*%
%TO.N,COL3*%
X211225000Y-102080000D03*
D19*
X219400000Y-102080000D03*
D18*
%TO.P,MCU1,109*%
%TO.N,COL4*%
X211225000Y-104620000D03*
D19*
X219400000Y-104620000D03*
D18*
%TO.P,MCU1,110*%
%TO.N,COL5*%
X211225000Y-107160000D03*
D19*
X219400000Y-107160000D03*
D18*
%TO.P,MCU1,111*%
%TO.N,P8*%
X211225000Y-109700000D03*
D19*
X219400000Y-109700000D03*
D18*
%TO.P,MCU1,112*%
%TO.N,P9*%
X211225000Y-112240000D03*
D19*
X219400000Y-112240000D03*
%TO.P,MCU1,113*%
%TO.N,P10*%
X212600000Y-112240000D03*
D20*
X220775000Y-112240000D03*
D19*
%TO.P,MCU1,114*%
%TO.N,P16*%
X212600000Y-109700000D03*
D20*
X220775000Y-109700000D03*
D19*
%TO.P,MCU1,115*%
%TO.N,P14*%
X212600000Y-107160000D03*
D20*
X220775000Y-107160000D03*
D19*
%TO.P,MCU1,116*%
%TO.N,ROW4*%
X212600000Y-104620000D03*
D20*
X220775000Y-104620000D03*
D19*
%TO.P,MCU1,117*%
%TO.N,ROW3*%
X212600000Y-102080000D03*
D20*
X220775000Y-102080000D03*
D19*
%TO.P,MCU1,118*%
%TO.N,ROW2*%
X212600000Y-99540000D03*
D20*
X220775000Y-99540000D03*
D19*
%TO.P,MCU1,119*%
%TO.N,ROW1*%
X212600000Y-97000000D03*
D20*
X220775000Y-97000000D03*
D19*
%TO.P,MCU1,120*%
%TO.N,ROW0*%
X212600000Y-94460000D03*
D20*
X220775000Y-94460000D03*
D19*
%TO.P,MCU1,121*%
%TO.N,VCC*%
X212600000Y-91920000D03*
D20*
X220775000Y-91920000D03*
D19*
%TO.P,MCU1,122*%
%TO.N,RST*%
X212600000Y-89380000D03*
D20*
X220775000Y-89380000D03*
D19*
%TO.P,MCU1,123*%
%TO.N,GND*%
X212600000Y-86840000D03*
D20*
X220775000Y-86840000D03*
D19*
%TO.P,MCU1,124*%
%TO.N,RAW*%
X212600000Y-84300000D03*
D20*
X220775000Y-84300000D03*
%TD*%
D11*
%TO.P,S8,1*%
%TO.N,COL1*%
X115725000Y-85050000D03*
%TO.P,S8,2*%
%TO.N,shift_top*%
X127275000Y-87250000D03*
%TD*%
D12*
%TO.P,D17,1*%
%TO.N,ROW4*%
X172190000Y-147000000D03*
D13*
X174350000Y-147000000D03*
%TO.P,D17,2*%
%TO.N,index_bottom*%
X177650000Y-147000000D03*
D14*
X179810000Y-147000000D03*
%TD*%
D11*
%TO.P,S3,1*%
%TO.N,COL0*%
X96725000Y-106050000D03*
%TO.P,S3,2*%
%TO.N,pinky_num*%
X108275000Y-108250000D03*
%TD*%
D12*
%TO.P,D23,1*%
%TO.N,ROW2*%
X191190000Y-111000000D03*
D13*
X193350000Y-111000000D03*
%TO.P,D23,2*%
%TO.N,inner_num*%
X196650000Y-111000000D03*
D14*
X198810000Y-111000000D03*
%TD*%
D21*
%TO.P,H3,*%
%TO.N,*%
X109450000Y-152000000D03*
%TD*%
%TO.P,H8,*%
%TO.N,*%
X109450000Y-120920000D03*
%TD*%
D12*
%TO.P,D2,1*%
%TO.N,ROW3*%
X96190000Y-136000000D03*
D13*
X98350000Y-136000000D03*
%TO.P,D2,2*%
%TO.N,pinky_home*%
X101650000Y-136000000D03*
D14*
X103810000Y-136000000D03*
%TD*%
D12*
%TO.P,D21,1*%
%TO.N,ROW4*%
X191190000Y-149000000D03*
D13*
X193350000Y-149000000D03*
%TO.P,D21,2*%
%TO.N,inner_bottom*%
X196650000Y-149000000D03*
D14*
X198810000Y-149000000D03*
%TD*%
D22*
%TO.P,JST2,1*%
%TO.N,VCC*%
X217000000Y-119000000D03*
D23*
%TO.P,JST2,2*%
%TO.N,GND*%
X217000000Y-117000000D03*
%TD*%
D24*
%TO.P,T2,*%
%TO.N,*%
X229768187Y-147056454D03*
X227700865Y-147808898D03*
D10*
X229486970Y-149500000D03*
X230513030Y-152319078D03*
D24*
X232299135Y-154010180D03*
X230231813Y-154762624D03*
D25*
%TO.P,T2,1*%
%TO.N,VCC*%
X227280592Y-149504921D03*
%TO.P,T2,2*%
%TO.N,GND*%
X228306653Y-152324000D03*
%TO.P,T2,3*%
%TO.N,N/C*%
X228819683Y-153733539D03*
%TD*%
D12*
%TO.P,D19,1*%
%TO.N,ROW2*%
X172190000Y-109000000D03*
D13*
X174350000Y-109000000D03*
%TO.P,D19,2*%
%TO.N,index_num*%
X177650000Y-109000000D03*
D14*
X179810000Y-109000000D03*
%TD*%
D12*
%TO.P,D8,1*%
%TO.N,ROW1*%
X115190000Y-96000000D03*
D13*
X117350000Y-96000000D03*
%TO.P,D8,2*%
%TO.N,shift_top*%
X120650000Y-96000000D03*
D14*
X122810000Y-96000000D03*
%TD*%
D22*
%TO.P,JST1,1*%
%TO.N,VCC*%
X217000000Y-119000000D03*
D23*
%TO.P,JST1,2*%
%TO.N,GND*%
X217000000Y-117000000D03*
%TD*%
D11*
%TO.P,S16,1*%
%TO.N,COL3*%
X153725000Y-73050000D03*
%TO.P,S16,2*%
%TO.N,middle_top*%
X165275000Y-75250000D03*
%TD*%
%TO.P,S4,1*%
%TO.N,COL0*%
X96725000Y-87050000D03*
%TO.P,S4,2*%
%TO.N,pinky_top*%
X108275000Y-89250000D03*
%TD*%
D12*
%TO.P,D11,1*%
%TO.N,ROW2*%
X134190000Y-108000000D03*
D13*
X136350000Y-108000000D03*
%TO.P,D11,2*%
%TO.N,ring_num*%
X139650000Y-108000000D03*
D14*
X141810000Y-108000000D03*
%TD*%
D11*
%TO.P,S2,1*%
%TO.N,COL0*%
X96725000Y-125050000D03*
%TO.P,S2,2*%
%TO.N,pinky_home*%
X108275000Y-127250000D03*
%TD*%
%TO.P,S24,1*%
%TO.N,COL5*%
X191725000Y-81050000D03*
%TO.P,S24,2*%
%TO.N,inner_top*%
X203275000Y-83250000D03*
%TD*%
D26*
%TO.P,S27,1*%
%TO.N,COL5*%
X212821964Y-170453458D03*
%TO.P,S27,2*%
%TO.N,far_thumb*%
X218839620Y-160352453D03*
%TD*%
D12*
%TO.P,D15,1*%
%TO.N,ROW2*%
X153190000Y-103000000D03*
D13*
X155350000Y-103000000D03*
%TO.P,D15,2*%
%TO.N,middle_num*%
X158650000Y-103000000D03*
D14*
X160810000Y-103000000D03*
%TD*%
D12*
%TO.P,D18,1*%
%TO.N,ROW3*%
X172190000Y-128000000D03*
D13*
X174350000Y-128000000D03*
%TO.P,D18,2*%
%TO.N,index_home*%
X177650000Y-128000000D03*
D14*
X179810000Y-128000000D03*
%TD*%
D27*
%TO.P,D27,1*%
%TO.N,ROW0*%
X222928617Y-174701314D03*
D28*
X223667381Y-172671578D03*
%TO.P,D27,2*%
%TO.N,far_thumb*%
X224796047Y-169570592D03*
D14*
X225534811Y-167540856D03*
%TD*%
D21*
%TO.P,H2,*%
%TO.N,*%
X109450000Y-95000000D03*
%TD*%
%TO.P,H1,*%
%TO.N,*%
X185550000Y-89000000D03*
%TD*%
D12*
%TO.P,D25,1*%
%TO.N,ROW0*%
X173190000Y-168000000D03*
D13*
X175350000Y-168000000D03*
%TO.P,D25,2*%
%TO.N,near_thumb*%
X178650000Y-168000000D03*
D14*
X180810000Y-168000000D03*
%TD*%
D29*
%TO.P,TRRS1,1*%
%TO.N,VCC*%
X212700000Y-123700000D03*
X212700000Y-128300000D03*
%TO.P,TRRS1,2*%
%TO.N,GND*%
X213800000Y-123700000D03*
X213800000Y-128300000D03*
%TO.P,TRRS1,3*%
%TO.N,P1*%
X217800000Y-123700000D03*
X217800000Y-128300000D03*
%TO.P,TRRS1,4*%
%TO.N,P0*%
X220800000Y-123700000D03*
X220800000Y-128300000D03*
%TD*%
D12*
%TO.P,D14,1*%
%TO.N,ROW3*%
X153190000Y-122000000D03*
D13*
X155350000Y-122000000D03*
%TO.P,D14,2*%
%TO.N,middle_home*%
X158650000Y-122000000D03*
D14*
X160810000Y-122000000D03*
%TD*%
D11*
%TO.P,S20,1*%
%TO.N,COL4*%
X172725000Y-79050000D03*
%TO.P,S20,2*%
%TO.N,index_top*%
X184275000Y-81250000D03*
%TD*%
%TO.P,S11,1*%
%TO.N,COL2*%
X134725000Y-97050000D03*
%TO.P,S11,2*%
%TO.N,ring_num*%
X146275000Y-99250000D03*
%TD*%
%TO.P,S9,1*%
%TO.N,COL2*%
X134725000Y-135050000D03*
%TO.P,S9,2*%
%TO.N,ring_bottom*%
X146275000Y-137250000D03*
%TD*%
%TO.P,S12,1*%
%TO.N,COL2*%
X134725000Y-78050000D03*
%TO.P,S12,2*%
%TO.N,ring_top*%
X146275000Y-80250000D03*
%TD*%
D12*
%TO.P,D12,1*%
%TO.N,ROW1*%
X134190000Y-89000000D03*
D13*
X136350000Y-89000000D03*
%TO.P,D12,2*%
%TO.N,ring_top*%
X139650000Y-89000000D03*
D14*
X141810000Y-89000000D03*
%TD*%
D11*
%TO.P,S10,1*%
%TO.N,COL2*%
X134725000Y-116050000D03*
%TO.P,S10,2*%
%TO.N,ring_home*%
X146275000Y-118250000D03*
%TD*%
D30*
%TO.P,B2,1*%
%TO.N,GND*%
X207900000Y-115150000D03*
X214100000Y-115150000D03*
%TO.P,B2,2*%
%TO.N,RST*%
X207900000Y-118850000D03*
X214100000Y-118850000D03*
%TD*%
D12*
%TO.P,D13,1*%
%TO.N,ROW4*%
X153190000Y-141000000D03*
D13*
X155350000Y-141000000D03*
%TO.P,D13,2*%
%TO.N,middle_bottom*%
X158650000Y-141000000D03*
D14*
X160810000Y-141000000D03*
%TD*%
D21*
%TO.P,H5,*%
%TO.N,*%
X147550000Y-107550000D03*
%TD*%
D11*
%TO.P,S5,1*%
%TO.N,COL1*%
X115725000Y-142050000D03*
%TO.P,S5,2*%
%TO.N,shift_bottom*%
X127275000Y-144250000D03*
%TD*%
D21*
%TO.P,H7,*%
%TO.N,*%
X208012759Y-170538758D03*
%TD*%
D11*
%TO.P,S13,1*%
%TO.N,COL3*%
X153725000Y-130050000D03*
%TO.P,S13,2*%
%TO.N,middle_bottom*%
X165275000Y-132250000D03*
%TD*%
%TO.P,S17,1*%
%TO.N,COL4*%
X172725000Y-136050000D03*
%TO.P,S17,2*%
%TO.N,index_bottom*%
X184275000Y-138250000D03*
%TD*%
D21*
%TO.P,H4,*%
%TO.N,*%
X185550000Y-147000000D03*
%TD*%
D12*
%TO.P,D24,1*%
%TO.N,ROW1*%
X191190000Y-92000000D03*
D13*
X193350000Y-92000000D03*
%TO.P,D24,2*%
%TO.N,inner_top*%
X196650000Y-92000000D03*
D14*
X198810000Y-92000000D03*
%TD*%
D11*
%TO.P,S21,1*%
%TO.N,COL5*%
X191725000Y-138050000D03*
%TO.P,S21,2*%
%TO.N,inner_bottom*%
X203275000Y-140250000D03*
%TD*%
D12*
%TO.P,D22,1*%
%TO.N,ROW3*%
X191190000Y-130000000D03*
D13*
X193350000Y-130000000D03*
%TO.P,D22,2*%
%TO.N,inner_home*%
X196650000Y-130000000D03*
D14*
X198810000Y-130000000D03*
%TD*%
D12*
%TO.P,D9,1*%
%TO.N,ROW4*%
X134190000Y-146000000D03*
D13*
X136350000Y-146000000D03*
%TO.P,D9,2*%
%TO.N,ring_bottom*%
X139650000Y-146000000D03*
D14*
X141810000Y-146000000D03*
%TD*%
D11*
%TO.P,S18,1*%
%TO.N,COL4*%
X172725000Y-117050000D03*
%TO.P,S18,2*%
%TO.N,index_home*%
X184275000Y-119250000D03*
%TD*%
D12*
%TO.P,D5,1*%
%TO.N,ROW4*%
X115190000Y-153000000D03*
D13*
X117350000Y-153000000D03*
%TO.P,D5,2*%
%TO.N,shift_bottom*%
X120650000Y-153000000D03*
D14*
X122810000Y-153000000D03*
%TD*%
D11*
%TO.P,S22,1*%
%TO.N,COL5*%
X191725000Y-119050000D03*
%TO.P,S22,2*%
%TO.N,inner_home*%
X203275000Y-121250000D03*
%TD*%
D12*
%TO.P,D3,1*%
%TO.N,ROW2*%
X96190000Y-117000000D03*
D13*
X98350000Y-117000000D03*
%TO.P,D3,2*%
%TO.N,pinky_num*%
X101650000Y-117000000D03*
D14*
X103810000Y-117000000D03*
%TD*%
D12*
%TO.P,D4,1*%
%TO.N,ROW1*%
X96190000Y-98000000D03*
D13*
X98350000Y-98000000D03*
%TO.P,D4,2*%
%TO.N,pinky_top*%
X101650000Y-98000000D03*
D14*
X103810000Y-98000000D03*
%TD*%
D21*
%TO.P,H6,*%
%TO.N,*%
X147450000Y-142000000D03*
%TD*%
D11*
%TO.P,S23,1*%
%TO.N,COL5*%
X191725000Y-100050000D03*
%TO.P,S23,2*%
%TO.N,inner_num*%
X203275000Y-102250000D03*
%TD*%
D31*
%TO.P,D26,1*%
%TO.N,ROW0*%
X193674094Y-169606650D03*
D32*
X195801281Y-169981731D03*
%TO.P,D26,2*%
%TO.N,home_thumb*%
X199051147Y-170554769D03*
D14*
X201178334Y-170929850D03*
%TD*%
D12*
%TO.P,D7,1*%
%TO.N,ROW2*%
X115190000Y-115000000D03*
D13*
X117350000Y-115000000D03*
%TO.P,D7,2*%
%TO.N,shift_num*%
X120650000Y-115000000D03*
D14*
X122810000Y-115000000D03*
%TD*%
D11*
%TO.P,S6,1*%
%TO.N,COL1*%
X115725000Y-123050000D03*
%TO.P,S6,2*%
%TO.N,shift_home*%
X127275000Y-125250000D03*
%TD*%
%TO.P,S25,1*%
%TO.N,COL3*%
X173725000Y-157050000D03*
%TO.P,S25,2*%
%TO.N,near_thumb*%
X185275000Y-159250000D03*
%TD*%
D21*
%TO.P,H9,*%
%TO.N,*%
X147550000Y-88450000D03*
%TD*%
%TO.P,H10,*%
%TO.N,*%
X185450000Y-113550000D03*
%TD*%
D33*
%TO.P,S26,1*%
%TO.N,COL4*%
X196102416Y-158915907D03*
%TO.P,S26,2*%
%TO.N,home_thumb*%
X207094920Y-163088121D03*
%TD*%
D11*
%TO.P,S7,1*%
%TO.N,COL1*%
X115725000Y-104050000D03*
%TO.P,S7,2*%
%TO.N,shift_num*%
X127275000Y-106250000D03*
%TD*%
D12*
%TO.P,D16,1*%
%TO.N,ROW1*%
X153190000Y-84000000D03*
D13*
X155350000Y-84000000D03*
%TO.P,D16,2*%
%TO.N,middle_top*%
X158650000Y-84000000D03*
D14*
X160810000Y-84000000D03*
%TD*%
D12*
%TO.P,D1,1*%
%TO.N,ROW4*%
X96190000Y-155000000D03*
D13*
X98350000Y-155000000D03*
%TO.P,D1,2*%
%TO.N,pinky_bottom*%
X101650000Y-155000000D03*
D14*
X103810000Y-155000000D03*
%TD*%
D11*
%TO.P,S15,1*%
%TO.N,COL3*%
X153725000Y-92050000D03*
%TO.P,S15,2*%
%TO.N,middle_num*%
X165275000Y-94250000D03*
%TD*%
%TO.P,S14,1*%
%TO.N,COL3*%
X153725000Y-111050000D03*
%TO.P,S14,2*%
%TO.N,middle_home*%
X165275000Y-113250000D03*
%TD*%
D12*
%TO.P,D20,1*%
%TO.N,ROW1*%
X172190000Y-90000000D03*
D13*
X174350000Y-90000000D03*
%TO.P,D20,2*%
%TO.N,index_top*%
X177650000Y-90000000D03*
D14*
X179810000Y-90000000D03*
%TD*%
D34*
%TO.P,REF\u002A\u002A,1*%
%TO.N,VCC*%
X209000000Y-124000000D03*
D35*
%TO.P,REF\u002A\u002A,2*%
%TO.N,GND*%
X209000000Y-125300000D03*
D36*
%TO.P,REF\u002A\u002A,3*%
X209000000Y-126600000D03*
%TD*%
D37*
%TO.N,COL0*%
X100000000Y-140500000D03*
X100000000Y-84000000D03*
X194412347Y-94087653D03*
X99500000Y-122000000D03*
X100000000Y-103000000D03*
%TO.N,pinky_bottom*%
X108500000Y-149000000D03*
%TO.N,pinky_home*%
X108500000Y-136000000D03*
%TO.N,pinky_num*%
X108000000Y-117000000D03*
%TO.N,pinky_top*%
X108000000Y-92500000D03*
%TO.N,COL1*%
X119000000Y-120500000D03*
X204500000Y-113500000D03*
X119000000Y-101000000D03*
X119000000Y-82500000D03*
X119000000Y-139000000D03*
%TO.N,shift_bottom*%
X127500000Y-153000000D03*
%TO.N,shift_home*%
X127487347Y-132487347D03*
%TO.N,shift_num*%
X127500000Y-113500000D03*
%TO.N,shift_top*%
X127332347Y-94832347D03*
%TO.N,COL2*%
X138000000Y-113500000D03*
X138000000Y-132500000D03*
X205950000Y-126500000D03*
X138000000Y-94500000D03*
X138000000Y-75500000D03*
%TO.N,ring_bottom*%
X144561297Y-139938703D03*
%TO.N,ring_home*%
X146500000Y-127000000D03*
%TO.N,ring_num*%
X146500000Y-105000000D03*
%TO.N,ring_top*%
X145000000Y-87000000D03*
%TO.N,COL3*%
X157000000Y-127500000D03*
X157000000Y-70500000D03*
X177500000Y-154500000D03*
X157000000Y-89500000D03*
X157000000Y-108500000D03*
%TO.N,middle_bottom*%
X165000000Y-141000000D03*
%TO.N,middle_home*%
X165000000Y-122000000D03*
%TO.N,middle_num*%
X165000000Y-99000000D03*
%TO.N,middle_top*%
X165000000Y-84000000D03*
%TO.N,COL4*%
X176000000Y-95500000D03*
X176000000Y-76500000D03*
X200000000Y-156500000D03*
X176000000Y-114500000D03*
X176000000Y-133500000D03*
%TO.N,index_bottom*%
X184000000Y-143000000D03*
%TO.N,index_home*%
X184000000Y-128000000D03*
%TO.N,index_num*%
X184500000Y-109000000D03*
%TO.N,index_top*%
X184000000Y-86500000D03*
%TO.N,COL5*%
X195000000Y-135500000D03*
X195000000Y-116500000D03*
X210500000Y-164500000D03*
X195000000Y-97500000D03*
X195000000Y-78500000D03*
%TO.N,inner_bottom*%
X203000000Y-144500000D03*
%TO.N,inner_home*%
X203000000Y-126000000D03*
%TO.N,inner_num*%
X203500000Y-111000000D03*
%TO.N,inner_top*%
X203000000Y-92000000D03*
%TO.N,near_thumb*%
X185000000Y-168000000D03*
%TO.N,home_thumb*%
X206000000Y-167500000D03*
%TO.N,far_thumb*%
X225000000Y-160500000D03*
%TO.N,ROW0*%
X210000000Y-144500000D03*
X221500000Y-156500000D03*
%TO.N,GND*%
X213000000Y-126500000D03*
X213500000Y-120000000D03*
X214000000Y-122225000D03*
X209000000Y-128500000D03*
X225500000Y-142500000D03*
X219500000Y-116500000D03*
%TO.N,RST*%
X212000000Y-116500000D03*
X216500000Y-113195000D03*
X210500000Y-120000000D03*
%TO.N,VCC*%
X212500000Y-120775000D03*
X212500000Y-122225000D03*
X223775000Y-119000000D03*
X226225000Y-148362165D03*
X209000000Y-122225000D03*
%TO.N,P1*%
X222500000Y-122225000D03*
%TO.N,P0*%
X223500000Y-122500000D03*
%TD*%
D38*
%TO.N,COL0*%
X96500000Y-141000000D02*
X96725000Y-141225000D01*
X205412347Y-94087653D02*
X206215000Y-93285000D01*
X96725000Y-106050000D02*
X91500000Y-100825000D01*
X194412347Y-94087653D02*
X205412347Y-94087653D01*
X91500000Y-135500000D02*
X91500000Y-125000000D01*
X211574695Y-94460000D02*
X212299695Y-95185000D01*
X211225000Y-94460000D02*
X211574695Y-94460000D01*
X206215000Y-93285000D02*
X210285000Y-93285000D01*
X100000000Y-84000000D02*
X97500000Y-84000000D01*
X96725000Y-84775000D02*
X96725000Y-87050000D01*
X96725000Y-122225000D02*
X96725000Y-125050000D01*
X212900305Y-95185000D02*
X213395305Y-94690000D01*
X100000000Y-140500000D02*
X96500000Y-140500000D01*
X91500000Y-119825000D02*
X91500000Y-106000000D01*
X212299695Y-95185000D02*
X212900305Y-95185000D01*
X91550000Y-106050000D02*
X96725000Y-106050000D01*
X96725000Y-141225000D02*
X96725000Y-144050000D01*
X91550000Y-125050000D02*
X96725000Y-125050000D01*
X96500000Y-103000000D02*
X96500000Y-103500000D01*
X91550000Y-87050000D02*
X96725000Y-87050000D01*
X100000000Y-103000000D02*
X96500000Y-103000000D01*
X91500000Y-100825000D02*
X91500000Y-87000000D01*
X96500000Y-140500000D02*
X96500000Y-141000000D01*
X211225000Y-94225000D02*
X211225000Y-94460000D01*
X91500000Y-125000000D02*
X91550000Y-125050000D01*
X96500000Y-122000000D02*
X96725000Y-122225000D01*
X99500000Y-122000000D02*
X96500000Y-122000000D01*
X97500000Y-84000000D02*
X96725000Y-84775000D01*
X96725000Y-125050000D02*
X91500000Y-119825000D01*
X91500000Y-87000000D02*
X91550000Y-87050000D01*
X213395305Y-94690000D02*
X219170000Y-94690000D01*
X96500000Y-140500000D02*
X91500000Y-135500000D01*
X210285000Y-93285000D02*
X211225000Y-94225000D01*
X96725000Y-103725000D02*
X96725000Y-106050000D01*
X96500000Y-103500000D02*
X96725000Y-103725000D01*
X91500000Y-106000000D02*
X91550000Y-106050000D01*
%TO.N,pinky_bottom*%
X108275000Y-148775000D02*
X108275000Y-146250000D01*
X108500000Y-149000000D02*
X108275000Y-148775000D01*
X101650000Y-155000000D02*
X103810000Y-155000000D01*
%TO.N,pinky_home*%
X108275000Y-135775000D02*
X108275000Y-127250000D01*
X101650000Y-136000000D02*
X103810000Y-136000000D01*
X108500000Y-136000000D02*
X108275000Y-135775000D01*
%TO.N,pinky_num*%
X108000000Y-117000000D02*
X108275000Y-116725000D01*
X108275000Y-116725000D02*
X108275000Y-108250000D01*
X101650000Y-117000000D02*
X103810000Y-117000000D01*
%TO.N,pinky_top*%
X108275000Y-92225000D02*
X108275000Y-89250000D01*
X101650000Y-98000000D02*
X103810000Y-98000000D01*
X108000000Y-92500000D02*
X108275000Y-92225000D01*
%TO.N,COL1*%
X211225000Y-97000000D02*
X211574695Y-97000000D01*
X211225000Y-96225000D02*
X211225000Y-97000000D01*
X117000000Y-139000000D02*
X115725000Y-140275000D01*
X115725000Y-102275000D02*
X115725000Y-104050000D01*
X111950000Y-123050000D02*
X115725000Y-123050000D01*
X115725000Y-83275000D02*
X115725000Y-85050000D01*
X117000000Y-101000000D02*
X115725000Y-102275000D01*
X204900000Y-98628299D02*
X207893299Y-95635000D01*
X212299695Y-97725000D02*
X212900305Y-97725000D01*
X207893299Y-95635000D02*
X210635000Y-95635000D01*
X111000000Y-118325000D02*
X111000000Y-104000000D01*
X111000000Y-92500000D02*
X111000000Y-85000000D01*
X112274100Y-93774100D02*
X111000000Y-92500000D01*
X119000000Y-139000000D02*
X117000000Y-139000000D01*
X111000000Y-137325000D02*
X111000000Y-124000000D01*
X119000000Y-82500000D02*
X116500000Y-82500000D01*
X211574695Y-97000000D02*
X212299695Y-97725000D01*
X115725000Y-104050000D02*
X112274100Y-100599100D01*
X115725000Y-142050000D02*
X111000000Y-137325000D01*
X116500000Y-120500000D02*
X115725000Y-121275000D01*
X204500000Y-113500000D02*
X204900000Y-113100000D01*
X111000000Y-104000000D02*
X111050000Y-104050000D01*
X119000000Y-120500000D02*
X116500000Y-120500000D01*
X111000000Y-85000000D02*
X111050000Y-85050000D01*
X111000000Y-124000000D02*
X111950000Y-123050000D01*
X115725000Y-123050000D02*
X111000000Y-118325000D01*
X115725000Y-121275000D02*
X115725000Y-123050000D01*
X115725000Y-140275000D02*
X115725000Y-142050000D01*
X116500000Y-82500000D02*
X115725000Y-83275000D01*
X213395305Y-97230000D02*
X219170000Y-97230000D01*
X212900305Y-97725000D02*
X213395305Y-97230000D01*
X204900000Y-113100000D02*
X204900000Y-98628299D01*
X210635000Y-95635000D02*
X211225000Y-96225000D01*
X112274100Y-100599100D02*
X112274100Y-93774100D01*
X111050000Y-104050000D02*
X115725000Y-104050000D01*
X119000000Y-101000000D02*
X117000000Y-101000000D01*
X111050000Y-85050000D02*
X115725000Y-85050000D01*
%TO.N,shift_bottom*%
X127275000Y-152775000D02*
X127275000Y-144250000D01*
X127500000Y-153000000D02*
X127275000Y-152775000D01*
X120650000Y-153000000D02*
X122810000Y-153000000D01*
%TO.N,shift_home*%
X120650000Y-134000000D02*
X122810000Y-134000000D01*
X127275000Y-132275000D02*
X127275000Y-125250000D01*
X127487347Y-132487347D02*
X127275000Y-132275000D01*
%TO.N,shift_num*%
X120650000Y-115000000D02*
X122810000Y-115000000D01*
X127275000Y-113275000D02*
X127275000Y-106250000D01*
X127500000Y-113500000D02*
X127275000Y-113275000D01*
%TO.N,shift_top*%
X127275000Y-94775000D02*
X127275000Y-87250000D01*
X120650000Y-96000000D02*
X122810000Y-96000000D01*
X127332347Y-94832347D02*
X127275000Y-94775000D01*
%TO.N,COL2*%
X134500000Y-94500000D02*
X138000000Y-94500000D01*
X134725000Y-78050000D02*
X134725000Y-75775000D01*
X130000000Y-78000000D02*
X130050000Y-78050000D01*
X129500000Y-78000000D02*
X130000000Y-78000000D01*
X134725000Y-116050000D02*
X134725000Y-113775000D01*
X130050000Y-116050000D02*
X134725000Y-116050000D01*
X129500000Y-91825000D02*
X129500000Y-78000000D01*
X134725000Y-134275000D02*
X134725000Y-135050000D01*
X211574695Y-99540000D02*
X212299695Y-100265000D01*
X129500000Y-129825000D02*
X129500000Y-116000000D01*
X210680000Y-98365000D02*
X211225000Y-98910000D01*
X134725000Y-97050000D02*
X134725000Y-94725000D01*
X138000000Y-132500000D02*
X136500000Y-132500000D01*
X212900305Y-100265000D02*
X213395305Y-99770000D01*
X207893299Y-98365000D02*
X210680000Y-98365000D01*
X135000000Y-75500000D02*
X138000000Y-75500000D01*
X129500000Y-97000000D02*
X129550000Y-97050000D01*
X130050000Y-78050000D02*
X134725000Y-78050000D01*
X136500000Y-132500000D02*
X134725000Y-134275000D01*
X134725000Y-94725000D02*
X134500000Y-94500000D01*
X211225000Y-98910000D02*
X211225000Y-99540000D01*
X134725000Y-116050000D02*
X129500000Y-110825000D01*
X212299695Y-100265000D02*
X212900305Y-100265000D01*
X213395305Y-99770000D02*
X219170000Y-99770000D01*
X134725000Y-97050000D02*
X129500000Y-91825000D01*
X134725000Y-135050000D02*
X129500000Y-129825000D01*
X211225000Y-99540000D02*
X211574695Y-99540000D01*
X134725000Y-75775000D02*
X135000000Y-75500000D01*
X129500000Y-110825000D02*
X129500000Y-97000000D01*
X134725000Y-113775000D02*
X135000000Y-113500000D01*
X130000000Y-116000000D02*
X130050000Y-116050000D01*
X135000000Y-113500000D02*
X138000000Y-113500000D01*
X205950000Y-126500000D02*
X205950000Y-100308299D01*
X205950000Y-100308299D02*
X207893299Y-98365000D01*
X129500000Y-116000000D02*
X130000000Y-116000000D01*
X129550000Y-97050000D02*
X134725000Y-97050000D01*
%TO.N,ring_bottom*%
X146275000Y-138225000D02*
X146275000Y-137250000D01*
X144561297Y-139938703D02*
X146275000Y-138225000D01*
X139650000Y-146000000D02*
X141810000Y-146000000D01*
%TO.N,ring_home*%
X139650000Y-127000000D02*
X141810000Y-127000000D01*
X146500000Y-127000000D02*
X146275000Y-126775000D01*
X146275000Y-126775000D02*
X146275000Y-118250000D01*
%TO.N,ring_num*%
X146500000Y-105000000D02*
X146275000Y-104775000D01*
X146275000Y-104775000D02*
X146275000Y-99250000D01*
X139650000Y-108000000D02*
X141810000Y-108000000D01*
%TO.N,ring_top*%
X139650000Y-89000000D02*
X141810000Y-89000000D01*
X146275000Y-85725000D02*
X146275000Y-80250000D01*
X145000000Y-87000000D02*
X146275000Y-85725000D01*
%TO.N,COL3*%
X149000000Y-73000000D02*
X149050000Y-73050000D01*
X151000000Y-89325000D02*
X151000000Y-87500000D01*
X148550000Y-92050000D02*
X153725000Y-92050000D01*
X153725000Y-73050000D02*
X153725000Y-70725000D01*
X149550000Y-130050000D02*
X153725000Y-130050000D01*
X149050000Y-73050000D02*
X153725000Y-73050000D01*
X149000000Y-139238000D02*
X149000000Y-130000000D01*
X148500000Y-92000000D02*
X148550000Y-92050000D01*
X173725000Y-154775000D02*
X174000000Y-154500000D01*
X153725000Y-111050000D02*
X153725000Y-109500000D01*
X173725000Y-157050000D02*
X166812000Y-157050000D01*
X211574695Y-102080000D02*
X212299695Y-102805000D01*
X153725000Y-130050000D02*
X148500000Y-124825000D01*
X153725000Y-111050000D02*
X153725000Y-108775000D01*
X154000000Y-108500000D02*
X157000000Y-108500000D01*
X212299695Y-102805000D02*
X212900305Y-102805000D01*
X174000000Y-154500000D02*
X177500000Y-154500000D01*
X173725000Y-157050000D02*
X173725000Y-154775000D01*
X153725000Y-92050000D02*
X151000000Y-89325000D01*
X151000000Y-87500000D02*
X149000000Y-85500000D01*
X148550000Y-111050000D02*
X153725000Y-111050000D01*
X157000000Y-127500000D02*
X154500000Y-127500000D01*
X154000000Y-89500000D02*
X157000000Y-89500000D01*
X149000000Y-130000000D02*
X149500000Y-130000000D01*
X153725000Y-128275000D02*
X153725000Y-130050000D01*
X153725000Y-70725000D02*
X153500000Y-70500000D01*
X213395305Y-102310000D02*
X219170000Y-102310000D01*
X154500000Y-127500000D02*
X153725000Y-128275000D01*
X166812000Y-157050000D02*
X149000000Y-139238000D01*
X148500000Y-104275000D02*
X148500000Y-92000000D01*
X212900305Y-102805000D02*
X213395305Y-102310000D01*
X153725000Y-92050000D02*
X153725000Y-89775000D01*
X149500000Y-130000000D02*
X149550000Y-130050000D01*
X153725000Y-109500000D02*
X148500000Y-104275000D01*
X153725000Y-108775000D02*
X154000000Y-108500000D01*
X211225000Y-102080000D02*
X211574695Y-102080000D01*
X149000000Y-85500000D02*
X149000000Y-73000000D01*
X148500000Y-111000000D02*
X148550000Y-111050000D01*
X153500000Y-70500000D02*
X157000000Y-70500000D01*
X148500000Y-124825000D02*
X148500000Y-111000000D01*
X153725000Y-89775000D02*
X154000000Y-89500000D01*
%TO.N,middle_bottom*%
X165275000Y-140725000D02*
X165275000Y-132250000D01*
X160810000Y-141000000D02*
X158650000Y-141000000D01*
X165000000Y-141000000D02*
X165275000Y-140725000D01*
%TO.N,middle_home*%
X158650000Y-122000000D02*
X160810000Y-122000000D01*
X165000000Y-122000000D02*
X165275000Y-121725000D01*
X165275000Y-121725000D02*
X165275000Y-113250000D01*
%TO.N,middle_num*%
X165275000Y-98225000D02*
X165275000Y-94250000D01*
X165000000Y-99000000D02*
X165000000Y-98500000D01*
X158650000Y-103000000D02*
X160810000Y-103000000D01*
X165000000Y-98500000D02*
X165275000Y-98225000D01*
%TO.N,middle_top*%
X165000000Y-84000000D02*
X165275000Y-83725000D01*
X165275000Y-83725000D02*
X165275000Y-75250000D01*
X158650000Y-84000000D02*
X160810000Y-84000000D01*
%TO.N,COL4*%
X172725000Y-136050000D02*
X167500000Y-130825000D01*
X167550000Y-136050000D02*
X172725000Y-136050000D01*
X167500000Y-130825000D02*
X167500000Y-117000000D01*
X167550000Y-98050000D02*
X172725000Y-98050000D01*
X172500000Y-133500000D02*
X176000000Y-133500000D01*
X172725000Y-117050000D02*
X172725000Y-114725000D01*
X211574695Y-104620000D02*
X212299695Y-105345000D01*
X196102416Y-158915907D02*
X194319281Y-158915907D01*
X172725000Y-136050000D02*
X172725000Y-133725000D01*
X211225000Y-104620000D02*
X211574695Y-104620000D01*
X212900305Y-105345000D02*
X213395305Y-104850000D01*
X172725000Y-98050000D02*
X167500000Y-92825000D01*
X168000000Y-79000000D02*
X168050000Y-79050000D01*
X196102416Y-158915907D02*
X196102416Y-156897584D01*
X172725000Y-76725000D02*
X172500000Y-76500000D01*
X167500000Y-117000000D02*
X167550000Y-117050000D01*
X167500000Y-136000000D02*
X167550000Y-136050000D01*
X167500000Y-142500000D02*
X167500000Y-136000000D01*
X194319281Y-158915907D02*
X179903374Y-144500000D01*
X172725000Y-79050000D02*
X172725000Y-76725000D01*
X167500000Y-79000000D02*
X168000000Y-79000000D01*
X167500000Y-98000000D02*
X167550000Y-98050000D01*
X196500000Y-156500000D02*
X200000000Y-156500000D01*
X213395305Y-104850000D02*
X219170000Y-104850000D01*
X172500000Y-95500000D02*
X176000000Y-95500000D01*
X167500000Y-111825000D02*
X167500000Y-98000000D01*
X172725000Y-98050000D02*
X172725000Y-95725000D01*
X168050000Y-79050000D02*
X172725000Y-79050000D01*
X172500000Y-76500000D02*
X176000000Y-76500000D01*
X169500000Y-144500000D02*
X167500000Y-142500000D01*
X172500000Y-114500000D02*
X176000000Y-114500000D01*
X172725000Y-117050000D02*
X167500000Y-111825000D01*
X172725000Y-133725000D02*
X172500000Y-133500000D01*
X172725000Y-95725000D02*
X172500000Y-95500000D01*
X196102416Y-156897584D02*
X196500000Y-156500000D01*
X167500000Y-92825000D02*
X167500000Y-79000000D01*
X212299695Y-105345000D02*
X212900305Y-105345000D01*
X167550000Y-117050000D02*
X172725000Y-117050000D01*
X179903374Y-144500000D02*
X169500000Y-144500000D01*
X172725000Y-114725000D02*
X172500000Y-114500000D01*
%TO.N,index_bottom*%
X177650000Y-147000000D02*
X179810000Y-147000000D01*
X184275000Y-142225000D02*
X184275000Y-138250000D01*
X184000000Y-143000000D02*
X184000000Y-142500000D01*
X184000000Y-142500000D02*
X184275000Y-142225000D01*
%TO.N,index_home*%
X184000000Y-128000000D02*
X184275000Y-127725000D01*
X184275000Y-127725000D02*
X184275000Y-119250000D01*
X177650000Y-128000000D02*
X179810000Y-128000000D01*
%TO.N,index_num*%
X184275000Y-108275000D02*
X184275000Y-100250000D01*
X184500000Y-108500000D02*
X184275000Y-108275000D01*
X184500000Y-109000000D02*
X184500000Y-108500000D01*
X177650000Y-109000000D02*
X179810000Y-109000000D01*
%TO.N,index_top*%
X177650000Y-90000000D02*
X179810000Y-90000000D01*
X184000000Y-86500000D02*
X184275000Y-86225000D01*
X184275000Y-86225000D02*
X184275000Y-81250000D01*
%TO.N,COL5*%
X191725000Y-81050000D02*
X191725000Y-78775000D01*
X191725000Y-100050000D02*
X191725000Y-97775000D01*
X212299695Y-107885000D02*
X212900305Y-107885000D01*
X192000000Y-78500000D02*
X195000000Y-78500000D01*
X211225000Y-107160000D02*
X211574695Y-107160000D01*
X188274100Y-148774100D02*
X188274100Y-145774100D01*
X188274100Y-145774100D02*
X186500000Y-144000000D01*
X186550000Y-138050000D02*
X191725000Y-138050000D01*
X191725000Y-78775000D02*
X192000000Y-78500000D01*
X211574695Y-107160000D02*
X212299695Y-107885000D01*
X192000000Y-135500000D02*
X195000000Y-135500000D01*
X212821964Y-170453458D02*
X209500000Y-167131494D01*
X191725000Y-119050000D02*
X189976000Y-117301000D01*
X187000000Y-110000000D02*
X187000000Y-100000000D01*
X186500000Y-138000000D02*
X186550000Y-138050000D01*
X187000000Y-133325000D02*
X187000000Y-119000000D01*
X191725000Y-138050000D02*
X187000000Y-133325000D01*
X187000000Y-81000000D02*
X187050000Y-81050000D01*
X187000000Y-86500000D02*
X187000000Y-81000000D01*
X212900305Y-107885000D02*
X213395305Y-107390000D01*
X187050000Y-119050000D02*
X191725000Y-119050000D01*
X191725000Y-135775000D02*
X192000000Y-135500000D01*
X191725000Y-119050000D02*
X191725000Y-116725000D01*
X213395305Y-107390000D02*
X219170000Y-107390000D01*
X191500000Y-116500000D02*
X195000000Y-116500000D01*
X209500000Y-155500000D02*
X195262000Y-155500000D01*
X210500000Y-168131494D02*
X210500000Y-164500000D01*
X209500000Y-167131494D02*
X209500000Y-155500000D01*
X191725000Y-100050000D02*
X188500000Y-96825000D01*
X188500000Y-96825000D02*
X188500000Y-88000000D01*
X188500000Y-88000000D02*
X187000000Y-86500000D01*
X187000000Y-119000000D02*
X187050000Y-119050000D01*
X187000000Y-100000000D02*
X187500000Y-100000000D01*
X187500000Y-100000000D02*
X187550000Y-100050000D01*
X195262000Y-155500000D02*
X188762000Y-149000000D01*
X189976000Y-117301000D02*
X189976000Y-112976000D01*
X188762000Y-149000000D02*
X188500000Y-149000000D01*
X188500000Y-149000000D02*
X188274100Y-148774100D01*
X191725000Y-116725000D02*
X191500000Y-116500000D01*
X191725000Y-97775000D02*
X192000000Y-97500000D01*
X186500000Y-144000000D02*
X186500000Y-138000000D01*
X192000000Y-97500000D02*
X195000000Y-97500000D01*
X189976000Y-112976000D02*
X187000000Y-110000000D01*
X187050000Y-81050000D02*
X191725000Y-81050000D01*
X187550000Y-100050000D02*
X191725000Y-100050000D01*
X212821964Y-170453458D02*
X210500000Y-168131494D01*
X191725000Y-138050000D02*
X191725000Y-135775000D01*
%TO.N,inner_bottom*%
X196650000Y-149000000D02*
X198810000Y-149000000D01*
X203000000Y-144000000D02*
X203275000Y-143725000D01*
X203275000Y-143725000D02*
X203275000Y-140250000D01*
X203000000Y-144500000D02*
X203000000Y-144000000D01*
%TO.N,inner_home*%
X196650000Y-130000000D02*
X198810000Y-130000000D01*
X203275000Y-125225000D02*
X203275000Y-121250000D01*
X203000000Y-126000000D02*
X203000000Y-125500000D01*
X203000000Y-125500000D02*
X203275000Y-125225000D01*
%TO.N,inner_num*%
X203500000Y-111000000D02*
X203275000Y-110775000D01*
X196650000Y-111000000D02*
X198810000Y-111000000D01*
X203275000Y-110775000D02*
X203275000Y-102250000D01*
%TO.N,inner_top*%
X203275000Y-91725000D02*
X203275000Y-83250000D01*
X196650000Y-92000000D02*
X198810000Y-92000000D01*
X203000000Y-92000000D02*
X203275000Y-91725000D01*
%TO.N,near_thumb*%
X185000000Y-168000000D02*
X185000000Y-167500000D01*
X185275000Y-167225000D02*
X185275000Y-159250000D01*
X185000000Y-167500000D02*
X185275000Y-167225000D01*
X178650000Y-168000000D02*
X180810000Y-168000000D01*
%TO.N,home_thumb*%
X200803252Y-170554769D02*
X201178333Y-170929850D01*
X206000000Y-167500000D02*
X207094920Y-166405080D01*
X199051147Y-170554769D02*
X200803252Y-170554769D01*
X207094920Y-166405080D02*
X207094920Y-163088121D01*
%TO.N,far_thumb*%
X224852453Y-160352453D02*
X218839620Y-160352453D01*
X224796047Y-168279620D02*
X225534811Y-167540856D01*
X225000000Y-160500000D02*
X224852453Y-160352453D01*
X224796047Y-169570592D02*
X224796047Y-168279620D01*
%TO.N,ROW4*%
X117350000Y-153000000D02*
X115190000Y-153000000D01*
X219700305Y-103895000D02*
X219099695Y-103895000D01*
X219099695Y-103895000D02*
X218594695Y-104400000D01*
X218594695Y-104400000D02*
X212820000Y-104400000D01*
X220425305Y-104620000D02*
X219700305Y-103895000D01*
X172190000Y-147000000D02*
X174350000Y-147000000D01*
X191190000Y-149000000D02*
X193350000Y-149000000D01*
X155350000Y-141000000D02*
X153190000Y-141000000D01*
X98350000Y-155000000D02*
X96190000Y-155000000D01*
X220775000Y-104620000D02*
X220425305Y-104620000D01*
X136350000Y-146000000D02*
X134190000Y-146000000D01*
%TO.N,ROW3*%
X219099695Y-101355000D02*
X218594695Y-101860000D01*
X219700305Y-101355000D02*
X219099695Y-101355000D01*
X117350000Y-134000000D02*
X115190000Y-134000000D01*
X218594695Y-101860000D02*
X212820000Y-101860000D01*
X98350000Y-136000000D02*
X96190000Y-136000000D01*
X136350000Y-127000000D02*
X134190000Y-127000000D01*
X193350000Y-130000000D02*
X191190000Y-130000000D01*
X174350000Y-128000000D02*
X172190000Y-128000000D01*
X220425305Y-102080000D02*
X219700305Y-101355000D01*
X220775000Y-102080000D02*
X220425305Y-102080000D01*
X155350000Y-122000000D02*
X153190000Y-122000000D01*
%TO.N,ROW2*%
X219099695Y-98815000D02*
X218594695Y-99320000D01*
X220425305Y-99540000D02*
X219700305Y-98815000D01*
X193350000Y-111000000D02*
X191190000Y-111000000D01*
X117350000Y-115000000D02*
X115190000Y-115000000D01*
X219700305Y-98815000D02*
X219099695Y-98815000D01*
X136350000Y-108000000D02*
X134190000Y-108000000D01*
X220775000Y-99540000D02*
X220425305Y-99540000D01*
X218594695Y-99320000D02*
X212820000Y-99320000D01*
X98350000Y-117000000D02*
X96190000Y-117000000D01*
X174350000Y-109000000D02*
X172190000Y-109000000D01*
X155350000Y-103000000D02*
X153190000Y-103000000D01*
%TO.N,ROW1*%
X155350000Y-84000000D02*
X153190000Y-84000000D01*
X117350000Y-96000000D02*
X115190000Y-96000000D01*
X220425305Y-97000000D02*
X219700305Y-96275000D01*
X136350000Y-89000000D02*
X134190000Y-89000000D01*
X220775000Y-97000000D02*
X220425305Y-97000000D01*
X98350000Y-98000000D02*
X96190000Y-98000000D01*
X219700305Y-96275000D02*
X219099695Y-96275000D01*
X174350000Y-90000000D02*
X172190000Y-90000000D01*
X218594695Y-96780000D02*
X212820000Y-96780000D01*
X193350000Y-92000000D02*
X191190000Y-92000000D01*
X219099695Y-96275000D02*
X218594695Y-96780000D01*
%TO.N,ROW0*%
X220425305Y-94460000D02*
X219700305Y-93735000D01*
X195801281Y-169981731D02*
X194049176Y-169981731D01*
X223667381Y-172671578D02*
X223667381Y-173962550D01*
X223667381Y-173962550D02*
X222928617Y-174701314D01*
X219700305Y-93735000D02*
X219099695Y-93735000D01*
X175350000Y-168000000D02*
X173190000Y-168000000D01*
X221500000Y-156500000D02*
X210000000Y-145000000D01*
X220775000Y-94460000D02*
X220425305Y-94460000D01*
X210000000Y-145000000D02*
X210000000Y-144500000D01*
X218594695Y-94240000D02*
X212820000Y-94240000D01*
X194049176Y-169981731D02*
X193674095Y-169606650D01*
X219099695Y-93735000D02*
X218594695Y-94240000D01*
%TO.N,RAW*%
X220775000Y-84300000D02*
X220425305Y-84300000D01*
X219099695Y-83575000D02*
X218594695Y-84080000D01*
X220425305Y-84300000D02*
X219700305Y-83575000D01*
X219700305Y-83575000D02*
X219099695Y-83575000D01*
X218594695Y-84080000D02*
X212820000Y-84080000D01*
%TO.N,GND*%
X219700305Y-86115000D02*
X219099695Y-86115000D01*
X212590000Y-93285000D02*
X211225000Y-91920000D01*
X212900000Y-126600000D02*
X213000000Y-126500000D01*
X209000000Y-125300000D02*
X212800000Y-125300000D01*
X219500000Y-115650000D02*
X220000000Y-115150000D01*
X209000000Y-126600000D02*
X209000000Y-128500000D01*
X213395305Y-89610000D02*
X219170000Y-89610000D01*
X219500000Y-116500000D02*
X219500000Y-115650000D01*
X224795000Y-93973299D02*
X224106701Y-93285000D01*
X230669958Y-149960695D02*
X230669958Y-149263569D01*
X209500000Y-127100000D02*
X209000000Y-126600000D01*
X224106701Y-93285000D02*
X212590000Y-93285000D01*
X210000000Y-130000000D02*
X209500000Y-129500000D01*
X230669958Y-149263569D02*
X225500000Y-144093611D01*
X211225000Y-91179695D02*
X211225000Y-91920000D01*
X213775000Y-122000000D02*
X214000000Y-122225000D01*
X214100000Y-115150000D02*
X214100000Y-115950000D01*
X212299695Y-92645000D02*
X212900305Y-92645000D01*
X212900305Y-92645000D02*
X213395305Y-92150000D01*
X212299695Y-90105000D02*
X211225000Y-91179695D01*
X212900305Y-90105000D02*
X213395305Y-89610000D01*
X224795000Y-112726701D02*
X224795000Y-93973299D01*
X213500000Y-122000000D02*
X213775000Y-122000000D01*
X220775000Y-86840000D02*
X220425305Y-86840000D01*
X213500000Y-120000000D02*
X213500000Y-122000000D01*
X218594695Y-86620000D02*
X212820000Y-86620000D01*
X209500000Y-129500000D02*
X209500000Y-127100000D01*
X209000000Y-126600000D02*
X212900000Y-126600000D01*
X213000000Y-130000000D02*
X210000000Y-130000000D01*
X211574695Y-89380000D02*
X212299695Y-90105000D01*
X212299695Y-90105000D02*
X212900305Y-90105000D01*
X225500000Y-144093611D02*
X225500000Y-142500000D01*
X220425305Y-86840000D02*
X219700305Y-86115000D01*
X214100000Y-115950000D02*
X212550000Y-117500000D01*
X210250000Y-117500000D02*
X207900000Y-115150000D01*
X222371701Y-115150000D02*
X224795000Y-112726701D01*
X213395305Y-92150000D02*
X219170000Y-92150000D01*
X214125000Y-126625000D02*
X214125000Y-128300000D01*
X211225000Y-89380000D02*
X211574695Y-89380000D01*
X211574695Y-91920000D02*
X212299695Y-92645000D01*
X225500000Y-142500000D02*
X213000000Y-130000000D01*
X219099695Y-86115000D02*
X218594695Y-86620000D01*
X214100000Y-115150000D02*
X220000000Y-115150000D01*
X212550000Y-117500000D02*
X210250000Y-117500000D01*
X212800000Y-125300000D02*
X214125000Y-126625000D01*
X220000000Y-115150000D02*
X222371701Y-115150000D01*
X228306653Y-152324000D02*
X230669958Y-149960695D01*
X211225000Y-91920000D02*
X211574695Y-91920000D01*
%TO.N,RST*%
X219099695Y-88655000D02*
X218594695Y-89160000D01*
X219700305Y-88655000D02*
X219099695Y-88655000D01*
X210500000Y-118850000D02*
X214100000Y-118850000D01*
X218594695Y-89160000D02*
X212820000Y-89160000D01*
X220425305Y-89380000D02*
X219700305Y-88655000D01*
X220775000Y-89380000D02*
X220425305Y-89380000D01*
X212000000Y-115150000D02*
X213955000Y-113195000D01*
X207900000Y-118850000D02*
X210500000Y-118850000D01*
X213955000Y-113195000D02*
X216500000Y-113195000D01*
X210500000Y-120000000D02*
X210500000Y-118850000D01*
X212000000Y-116500000D02*
X212000000Y-115150000D01*
%TO.N,VCC*%
X220425305Y-91920000D02*
X219700305Y-91195000D01*
X226225000Y-148362165D02*
X224862165Y-146999330D01*
X212500000Y-120775000D02*
X212500000Y-122225000D01*
X212275000Y-122000000D02*
X212500000Y-122225000D01*
X225245000Y-90745000D02*
X221320000Y-90745000D01*
X212375000Y-134599329D02*
X207000000Y-129224329D01*
X224862165Y-146999330D02*
X224775000Y-146999330D01*
X220775000Y-91920000D02*
X220425305Y-91920000D01*
X207000000Y-129224329D02*
X207000000Y-125245000D01*
X224387835Y-146612165D02*
X212375000Y-134599329D01*
X225500000Y-117275000D02*
X225500000Y-91000000D01*
X208245000Y-124000000D02*
X209000000Y-124000000D01*
X219099695Y-91195000D02*
X218594695Y-91700000D01*
X220775000Y-91290000D02*
X220775000Y-91920000D01*
X209000000Y-122000000D02*
X212275000Y-122000000D01*
X207000000Y-125245000D02*
X208245000Y-124000000D01*
X226225000Y-148362165D02*
X226225000Y-148449329D01*
X218594695Y-91700000D02*
X212820000Y-91700000D01*
X225500000Y-91000000D02*
X225245000Y-90745000D01*
X219700305Y-91195000D02*
X219099695Y-91195000D01*
X221320000Y-90745000D02*
X220775000Y-91290000D01*
X226225000Y-148449329D02*
X227280592Y-149504921D01*
X223775000Y-119000000D02*
X225500000Y-117275000D01*
X224775000Y-146999330D02*
X224387835Y-146612165D01*
X209000000Y-124000000D02*
X209000000Y-122000000D01*
%TO.N,P14*%
X219099695Y-106435000D02*
X218594695Y-106940000D01*
X220425305Y-107160000D02*
X219700305Y-106435000D01*
X218594695Y-106940000D02*
X212820000Y-106940000D01*
X220775000Y-107160000D02*
X220425305Y-107160000D01*
X219700305Y-106435000D02*
X219099695Y-106435000D01*
%TO.N,P16*%
X220775000Y-109700000D02*
X220425305Y-109700000D01*
X218594695Y-109480000D02*
X212820000Y-109480000D01*
X219700305Y-108975000D02*
X219099695Y-108975000D01*
X219099695Y-108975000D02*
X218594695Y-109480000D01*
X220425305Y-109700000D02*
X219700305Y-108975000D01*
%TO.N,P10*%
X219099695Y-111515000D02*
X218594695Y-112020000D01*
X220775000Y-112240000D02*
X220425305Y-112240000D01*
X218594695Y-112020000D02*
X212820000Y-112020000D01*
X219700305Y-111515000D02*
X219099695Y-111515000D01*
X220425305Y-112240000D02*
X219700305Y-111515000D01*
%TO.N,P1*%
X212900305Y-85025000D02*
X213395305Y-84530000D01*
X211574695Y-84300000D02*
X212299695Y-85025000D01*
X212299695Y-85025000D02*
X212900305Y-85025000D01*
X226000000Y-82500000D02*
X213025000Y-82500000D01*
X222500000Y-122225000D02*
X226000000Y-118725000D01*
X213025000Y-82500000D02*
X211225000Y-84300000D01*
X211225000Y-84300000D02*
X211574695Y-84300000D01*
X213395305Y-84530000D02*
X219170000Y-84530000D01*
X226000000Y-118725000D02*
X226000000Y-82500000D01*
%TO.N,P0*%
X211574695Y-86840000D02*
X211867347Y-87132653D01*
X211225000Y-86840000D02*
X211574695Y-86840000D01*
X226500000Y-119500000D02*
X226500000Y-80500000D01*
X207205000Y-85204999D02*
X207665001Y-85665000D01*
X210518299Y-80500000D02*
X207205000Y-83813299D01*
X211867347Y-87132653D02*
X212299695Y-87565000D01*
X213395305Y-87070000D02*
X219170000Y-87070000D01*
X207665001Y-85665000D02*
X210399694Y-85665000D01*
X212900305Y-87565000D02*
X213395305Y-87070000D01*
X210399694Y-85665000D02*
X211867347Y-87132653D01*
X207205000Y-83813299D02*
X207205000Y-85204999D01*
X226500000Y-80500000D02*
X210518299Y-80500000D01*
X212299695Y-87565000D02*
X212900305Y-87565000D01*
X223500000Y-122500000D02*
X226500000Y-119500000D01*
%TO.N,P8*%
X212900305Y-110425000D02*
X213395305Y-109930000D01*
X211225000Y-109700000D02*
X211574695Y-109700000D01*
X213395305Y-109930000D02*
X219170000Y-109930000D01*
X212299695Y-110425000D02*
X212900305Y-110425000D01*
X211574695Y-109700000D02*
X212299695Y-110425000D01*
%TO.N,P9*%
X213395305Y-112470000D02*
X219170000Y-112470000D01*
X212900305Y-112965000D02*
X213395305Y-112470000D01*
X211225000Y-112240000D02*
X211574695Y-112240000D01*
X212299695Y-112965000D02*
X212900305Y-112965000D01*
X211574695Y-112240000D02*
X212299695Y-112965000D01*
%TO.N,MCU1_24*%
X208380000Y-84300000D02*
X210500000Y-84300000D01*
%TO.N,MCU1_1*%
X223620000Y-84300000D02*
X221500000Y-84300000D01*
%TO.N,MCU1_23*%
X208380000Y-86840000D02*
X210500000Y-86840000D01*
%TO.N,MCU1_2*%
X223620000Y-86840000D02*
X221500000Y-86840000D01*
%TO.N,MCU1_22*%
X208380000Y-89380000D02*
X210500000Y-89380000D01*
%TO.N,MCU1_3*%
X223620000Y-89380000D02*
X221500000Y-89380000D01*
%TO.N,MCU1_21*%
X208380000Y-91920000D02*
X210500000Y-91920000D01*
%TO.N,MCU1_4*%
X223620000Y-91920000D02*
X221500000Y-91920000D01*
%TO.N,MCU1_20*%
X208380000Y-94460000D02*
X210500000Y-94460000D01*
%TO.N,MCU1_5*%
X223620000Y-94460000D02*
X221500000Y-94460000D01*
%TO.N,MCU1_19*%
X208380000Y-97000000D02*
X210500000Y-97000000D01*
%TO.N,MCU1_6*%
X223620000Y-97000000D02*
X221500000Y-97000000D01*
%TO.N,MCU1_18*%
X208380000Y-99540000D02*
X210500000Y-99540000D01*
%TO.N,MCU1_7*%
X223620000Y-99540000D02*
X221500000Y-99540000D01*
%TO.N,MCU1_17*%
X208380000Y-102080000D02*
X210500000Y-102080000D01*
%TO.N,MCU1_8*%
X223620000Y-102080000D02*
X221500000Y-102080000D01*
%TO.N,MCU1_16*%
X208380000Y-104620000D02*
X210500000Y-104620000D01*
%TO.N,MCU1_9*%
X223620000Y-104620000D02*
X221500000Y-104620000D01*
%TO.N,MCU1_15*%
X208380000Y-107160000D02*
X210500000Y-107160000D01*
%TO.N,MCU1_10*%
X223620000Y-107160000D02*
X221500000Y-107160000D01*
%TO.N,MCU1_14*%
X208380000Y-109700000D02*
X210500000Y-109700000D01*
%TO.N,MCU1_11*%
X223620000Y-109700000D02*
X221500000Y-109700000D01*
%TO.N,MCU1_13*%
X208380000Y-112240000D02*
X210500000Y-112240000D01*
%TO.N,MCU1_12*%
X223620000Y-112240000D02*
X221500000Y-112240000D01*
%TD*%
M02*
