%TF.GenerationSoftware,KiCad,Pcbnew,8.0.5-8.0.5-0~ubuntu20.04.1*%
%TF.CreationDate,2024-10-07T16:46:15+02:00*%
%TF.ProjectId,keyboard_pcb,6b657962-6f61-4726-945f-7063622e6b69,v1.0.0*%
%TF.SameCoordinates,Original*%
%TF.FileFunction,Paste,Top*%
%TF.FilePolarity,Positive*%
%FSLAX46Y46*%
G04 Gerber Fmt 4.6, Leading zero omitted, Abs format (unit mm)*
G04 Created by KiCad (PCBNEW 8.0.5-8.0.5-0~ubuntu20.04.1) date 2024-10-07 16:46:15*
%MOMM*%
%LPD*%
G01*
G04 APERTURE LIST*
G04 Aperture macros list*
%AMRotRect*
0 Rectangle, with rotation*
0 The origin of the aperture is its center*
0 $1 length*
0 $2 width*
0 $3 Rotation angle, in degrees counterclockwise*
0 Add horizontal line*
21,1,$1,$2,0,0,$3*%
%AMFreePoly0*
4,1,6,0.250000,0.000000,-0.250000,-0.625000,-0.500000,-0.625000,-0.500000,0.625000,-0.250000,0.625000,0.250000,0.000000,0.250000,0.000000,$1*%
%AMFreePoly1*
4,1,6,0.500000,-0.625000,-0.650000,-0.625000,-0.150000,0.000000,-0.650000,0.625000,0.500000,0.625000,0.500000,-0.625000,0.500000,-0.625000,$1*%
G04 Aperture macros list end*
%ADD10RotRect,0.900000X0.900000X290.000000*%
%ADD11RotRect,0.900000X1.250000X290.000000*%
%ADD12R,1.800000X1.100000*%
%ADD13R,2.600000X2.600000*%
%ADD14R,0.900000X1.200000*%
%ADD15FreePoly0,180.000000*%
%ADD16FreePoly0,0.000000*%
%ADD17FreePoly1,180.000000*%
%ADD18FreePoly1,0.000000*%
%ADD19RotRect,2.600000X2.600000X70.000000*%
%ADD20RotRect,0.900000X1.200000X70.000000*%
%ADD21RotRect,0.900000X1.200000X350.000000*%
%ADD22RotRect,2.600000X2.600000X350.000000*%
G04 APERTURE END LIST*
D10*
%TO.C,T1*%
X229768187Y-147056454D03*
X227700865Y-147808898D03*
X232299135Y-154010180D03*
X230231813Y-154762624D03*
D11*
X228819683Y-153733539D03*
X227793623Y-150914461D03*
X227280592Y-149504921D03*
%TD*%
D12*
%TO.C,B1*%
X207900000Y-115150000D03*
X214100000Y-115150000D03*
X207900000Y-118850000D03*
X214100000Y-118850000D03*
%TD*%
D13*
%TO.C,S1*%
X103275000Y-144050000D03*
X91725000Y-146250000D03*
%TD*%
D14*
%TO.C,D6*%
X117350000Y-134000000D03*
X120650000Y-134000000D03*
%TD*%
D13*
%TO.C,S19*%
X179275000Y-98050000D03*
X167725000Y-100250000D03*
%TD*%
D14*
%TO.C,D10*%
X136350000Y-127000000D03*
X139650000Y-127000000D03*
%TD*%
D15*
%TO.C,MCU1*%
X221500000Y-84300000D03*
X221500000Y-86840000D03*
X221500000Y-89380000D03*
X221500000Y-91920000D03*
X221500000Y-94460000D03*
X221500000Y-97000000D03*
X221500000Y-99540000D03*
X221500000Y-102080000D03*
X221500000Y-104620000D03*
X221500000Y-107160000D03*
X221500000Y-109700000D03*
X221500000Y-112240000D03*
D16*
X210500000Y-112240000D03*
X210500000Y-109700000D03*
X210500000Y-107160000D03*
X210500000Y-104620000D03*
X210500000Y-102080000D03*
X210500000Y-99540000D03*
X210500000Y-97000000D03*
X210500000Y-94460000D03*
X210500000Y-91920000D03*
X210500000Y-89380000D03*
X210500000Y-86840000D03*
X210500000Y-84300000D03*
D17*
X220775000Y-84300000D03*
X220775000Y-86840000D03*
X220775000Y-89380000D03*
X220775000Y-91920000D03*
X220775000Y-94460000D03*
X220775000Y-97000000D03*
X220775000Y-99540000D03*
X220775000Y-102080000D03*
X220775000Y-104620000D03*
X220775000Y-107160000D03*
X220775000Y-109700000D03*
X220775000Y-112240000D03*
D18*
X211225000Y-112240000D03*
X211225000Y-109700000D03*
X211225000Y-107160000D03*
X211225000Y-104620000D03*
X211225000Y-102080000D03*
X211225000Y-99540000D03*
X211225000Y-97000000D03*
X211225000Y-94460000D03*
X211225000Y-91920000D03*
X211225000Y-89380000D03*
X211225000Y-86840000D03*
X211225000Y-84300000D03*
%TD*%
D13*
%TO.C,S8*%
X122275000Y-85050000D03*
X110725000Y-87250000D03*
%TD*%
D14*
%TO.C,D17*%
X174350000Y-147000000D03*
X177650000Y-147000000D03*
%TD*%
D13*
%TO.C,S3*%
X103275000Y-106050000D03*
X91725000Y-108250000D03*
%TD*%
D14*
%TO.C,D23*%
X193350000Y-111000000D03*
X196650000Y-111000000D03*
%TD*%
%TO.C,D2*%
X98350000Y-136000000D03*
X101650000Y-136000000D03*
%TD*%
%TO.C,D21*%
X193350000Y-149000000D03*
X196650000Y-149000000D03*
%TD*%
%TO.C,D19*%
X174350000Y-109000000D03*
X177650000Y-109000000D03*
%TD*%
%TO.C,D8*%
X117350000Y-96000000D03*
X120650000Y-96000000D03*
%TD*%
D13*
%TO.C,S16*%
X160275000Y-73050000D03*
X148725000Y-75250000D03*
%TD*%
%TO.C,S4*%
X103275000Y-87050000D03*
X91725000Y-89250000D03*
%TD*%
D14*
%TO.C,D11*%
X136350000Y-108000000D03*
X139650000Y-108000000D03*
%TD*%
D13*
%TO.C,S2*%
X103275000Y-125050000D03*
X91725000Y-127250000D03*
%TD*%
%TO.C,S24*%
X198275000Y-81050000D03*
X186725000Y-83250000D03*
%TD*%
D19*
%TO.C,S27*%
X215062196Y-164298472D03*
X213179187Y-175904366D03*
%TD*%
D14*
%TO.C,D15*%
X155350000Y-103000000D03*
X158650000Y-103000000D03*
%TD*%
%TO.C,D18*%
X174350000Y-128000000D03*
X177650000Y-128000000D03*
%TD*%
D20*
%TO.C,D27*%
X223667381Y-172671578D03*
X224796047Y-169570592D03*
%TD*%
D14*
%TO.C,D25*%
X175350000Y-168000000D03*
X178650000Y-168000000D03*
%TD*%
%TO.C,D14*%
X155350000Y-122000000D03*
X158650000Y-122000000D03*
%TD*%
D13*
%TO.C,S20*%
X179275000Y-79050000D03*
X167725000Y-81250000D03*
%TD*%
%TO.C,S11*%
X141275000Y-97050000D03*
X129725000Y-99250000D03*
%TD*%
%TO.C,S9*%
X141275000Y-135050000D03*
X129725000Y-137250000D03*
%TD*%
%TO.C,S12*%
X141275000Y-78050000D03*
X129725000Y-80250000D03*
%TD*%
D14*
%TO.C,D12*%
X136350000Y-89000000D03*
X139650000Y-89000000D03*
%TD*%
D13*
%TO.C,S10*%
X141275000Y-116050000D03*
X129725000Y-118250000D03*
%TD*%
D14*
%TO.C,D13*%
X155350000Y-141000000D03*
X158650000Y-141000000D03*
%TD*%
D13*
%TO.C,S5*%
X122275000Y-142050000D03*
X110725000Y-144250000D03*
%TD*%
%TO.C,S13*%
X160275000Y-130050000D03*
X148725000Y-132250000D03*
%TD*%
%TO.C,S17*%
X179275000Y-136050000D03*
X167725000Y-138250000D03*
%TD*%
D14*
%TO.C,D24*%
X193350000Y-92000000D03*
X196650000Y-92000000D03*
%TD*%
D13*
%TO.C,S21*%
X198275000Y-138050000D03*
X186725000Y-140250000D03*
%TD*%
D14*
%TO.C,D22*%
X193350000Y-130000000D03*
X196650000Y-130000000D03*
%TD*%
%TO.C,D9*%
X136350000Y-146000000D03*
X139650000Y-146000000D03*
%TD*%
D13*
%TO.C,S18*%
X179275000Y-117050000D03*
X167725000Y-119250000D03*
%TD*%
D14*
%TO.C,D5*%
X117350000Y-153000000D03*
X120650000Y-153000000D03*
%TD*%
D13*
%TO.C,S22*%
X198275000Y-119050000D03*
X186725000Y-121250000D03*
%TD*%
D14*
%TO.C,D3*%
X98350000Y-117000000D03*
X101650000Y-117000000D03*
%TD*%
%TO.C,D4*%
X98350000Y-98000000D03*
X101650000Y-98000000D03*
%TD*%
D13*
%TO.C,S23*%
X198275000Y-100050000D03*
X186725000Y-102250000D03*
%TD*%
D21*
%TO.C,D26*%
X195801281Y-169981731D03*
X199051147Y-170554769D03*
%TD*%
D14*
%TO.C,D7*%
X117350000Y-115000000D03*
X120650000Y-115000000D03*
%TD*%
D13*
%TO.C,S6*%
X122275000Y-123050000D03*
X110725000Y-125250000D03*
%TD*%
%TO.C,S25*%
X180275000Y-157050000D03*
X168725000Y-159250000D03*
%TD*%
D22*
%TO.C,S26*%
X202552907Y-160053303D03*
X190796352Y-160214243D03*
%TD*%
D13*
%TO.C,S7*%
X122275000Y-104050000D03*
X110725000Y-106250000D03*
%TD*%
D14*
%TO.C,D16*%
X155350000Y-84000000D03*
X158650000Y-84000000D03*
%TD*%
%TO.C,D1*%
X98350000Y-155000000D03*
X101650000Y-155000000D03*
%TD*%
D13*
%TO.C,S15*%
X160275000Y-92050000D03*
X148725000Y-94250000D03*
%TD*%
%TO.C,S14*%
X160275000Y-111050000D03*
X148725000Y-113250000D03*
%TD*%
D14*
%TO.C,D20*%
X174350000Y-90000000D03*
X177650000Y-90000000D03*
%TD*%
M02*
