%TF.GenerationSoftware,KiCad,Pcbnew,8.0.5-8.0.5-0~ubuntu20.04.1*%
%TF.CreationDate,2024-10-07T16:46:14+02:00*%
%TF.ProjectId,keyboard_pcb,6b657962-6f61-4726-945f-7063622e6b69,v1.0.0*%
%TF.SameCoordinates,Original*%
%TF.FileFunction,Copper,L1,Top*%
%TF.FilePolarity,Positive*%
%FSLAX46Y46*%
G04 Gerber Fmt 4.6, Leading zero omitted, Abs format (unit mm)*
G04 Created by KiCad (PCBNEW 8.0.5-8.0.5-0~ubuntu20.04.1) date 2024-10-07 16:46:14*
%MOMM*%
%LPD*%
G01*
G04 APERTURE LIST*
G04 Aperture macros list*
%AMRotRect*
0 Rectangle, with rotation*
0 The origin of the aperture is its center*
0 $1 length*
0 $2 width*
0 $3 Rotation angle, in degrees counterclockwise*
0 Add horizontal line*
21,1,$1,$2,0,0,$3*%
%AMFreePoly0*
4,1,6,0.250000,0.000000,-0.250000,-0.625000,-0.500000,-0.625000,-0.500000,0.625000,-0.250000,0.625000,0.250000,0.000000,0.250000,0.000000,$1*%
%AMFreePoly1*
4,1,6,0.500000,-0.625000,-0.650000,-0.625000,-0.150000,0.000000,-0.650000,0.625000,0.500000,0.625000,0.500000,-0.625000,0.500000,-0.625000,$1*%
%AMFreePoly2*
4,1,19,0.550000,-0.750000,0.000000,-0.750000,0.000000,-0.744911,-0.071157,-0.744911,-0.207708,-0.704816,-0.327430,-0.627875,-0.420627,-0.520320,-0.479746,-0.390866,-0.500000,-0.250000,-0.500000,0.250000,-0.479746,0.390866,-0.420627,0.520320,-0.327430,0.627875,-0.207708,0.704816,-0.071157,0.744911,0.000000,0.744911,0.000000,0.750000,0.550000,0.750000,0.550000,-0.750000,0.550000,-0.750000,
$1*%
%AMFreePoly3*
4,1,19,0.000000,0.744911,0.071157,0.744911,0.207708,0.704816,0.327430,0.627875,0.420627,0.520320,0.479746,0.390866,0.500000,0.250000,0.500000,-0.250000,0.479746,-0.390866,0.420627,-0.520320,0.327430,-0.627875,0.207708,-0.704816,0.071157,-0.744911,0.000000,-0.744911,0.000000,-0.750000,-0.550000,-0.750000,-0.550000,0.750000,0.000000,0.750000,0.000000,0.744911,0.000000,0.744911,
$1*%
G04 Aperture macros list end*
%TA.AperFunction,SMDPad,CuDef*%
%ADD10RotRect,0.900000X0.900000X290.000000*%
%TD*%
%TA.AperFunction,WasherPad*%
%ADD11C,1.000000*%
%TD*%
%TA.AperFunction,SMDPad,CuDef*%
%ADD12RotRect,0.900000X1.250000X290.000000*%
%TD*%
%TA.AperFunction,SMDPad,CuDef*%
%ADD13R,1.800000X1.100000*%
%TD*%
%TA.AperFunction,SMDPad,CuDef*%
%ADD14R,2.600000X2.600000*%
%TD*%
%TA.AperFunction,ComponentPad*%
%ADD15R,1.778000X1.778000*%
%TD*%
%TA.AperFunction,SMDPad,CuDef*%
%ADD16R,0.900000X1.200000*%
%TD*%
%TA.AperFunction,ComponentPad*%
%ADD17C,1.905000*%
%TD*%
%TA.AperFunction,SMDPad,CuDef*%
%ADD18FreePoly0,180.000000*%
%TD*%
%TA.AperFunction,ComponentPad*%
%ADD19C,1.700000*%
%TD*%
%TA.AperFunction,SMDPad,CuDef*%
%ADD20FreePoly0,0.000000*%
%TD*%
%TA.AperFunction,ComponentPad*%
%ADD21C,0.800000*%
%TD*%
%TA.AperFunction,SMDPad,CuDef*%
%ADD22FreePoly1,180.000000*%
%TD*%
%TA.AperFunction,SMDPad,CuDef*%
%ADD23FreePoly1,0.000000*%
%TD*%
%TA.AperFunction,ComponentPad*%
%ADD24C,3.800000*%
%TD*%
%TA.AperFunction,ComponentPad*%
%ADD25R,1.700000X1.200000*%
%TD*%
%TA.AperFunction,ComponentPad*%
%ADD26O,1.700000X1.200000*%
%TD*%
%TA.AperFunction,SMDPad,CuDef*%
%ADD27RotRect,2.600000X2.600000X70.000000*%
%TD*%
%TA.AperFunction,ComponentPad*%
%ADD28RotRect,1.778000X1.778000X70.000000*%
%TD*%
%TA.AperFunction,SMDPad,CuDef*%
%ADD29RotRect,0.900000X1.200000X70.000000*%
%TD*%
%TA.AperFunction,ComponentPad*%
%ADD30O,2.200000X1.600000*%
%TD*%
%TA.AperFunction,SMDPad,CuDef*%
%ADD31FreePoly2,270.000000*%
%TD*%
%TA.AperFunction,SMDPad,CuDef*%
%ADD32R,1.500000X1.000000*%
%TD*%
%TA.AperFunction,SMDPad,CuDef*%
%ADD33FreePoly3,270.000000*%
%TD*%
%TA.AperFunction,ComponentPad*%
%ADD34RotRect,1.778000X1.778000X350.000000*%
%TD*%
%TA.AperFunction,SMDPad,CuDef*%
%ADD35RotRect,0.900000X1.200000X350.000000*%
%TD*%
%TA.AperFunction,SMDPad,CuDef*%
%ADD36RotRect,2.600000X2.600000X350.000000*%
%TD*%
%TA.AperFunction,ViaPad*%
%ADD37C,0.800000*%
%TD*%
%TA.AperFunction,Conductor*%
%ADD38C,0.250000*%
%TD*%
G04 APERTURE END LIST*
D10*
%TO.P,T1,*%
%TO.N,*%
X229768187Y-147056454D03*
X227700865Y-147808898D03*
D11*
X229486970Y-149500000D03*
X230513030Y-152319078D03*
D10*
X232299135Y-154010180D03*
X230231813Y-154762624D03*
D12*
%TO.P,T1,1*%
%TO.N,VCC*%
X228819683Y-153733539D03*
%TO.P,T1,2*%
%TO.N,GND*%
X227793623Y-150914461D03*
%TO.P,T1,3*%
%TO.N,N/C*%
X227280592Y-149504921D03*
%TD*%
D13*
%TO.P,B1,1*%
%TO.N,GND*%
X207900000Y-115150000D03*
X214100000Y-115150000D03*
%TO.P,B1,2*%
%TO.N,RST*%
X207900000Y-118850000D03*
X214100000Y-118850000D03*
%TD*%
D14*
%TO.P,S1,1*%
%TO.N,COL0*%
X103275000Y-144050000D03*
%TO.P,S1,2*%
%TO.N,pinky_bottom*%
X91725000Y-146250000D03*
%TD*%
D15*
%TO.P,D6,1*%
%TO.N,ROW3*%
X115190000Y-134000000D03*
D16*
X117350000Y-134000000D03*
%TO.P,D6,2*%
%TO.N,shift_home*%
X120650000Y-134000000D03*
D17*
X122810000Y-134000000D03*
%TD*%
D14*
%TO.P,S19,1*%
%TO.N,COL4*%
X179275000Y-98050000D03*
%TO.P,S19,2*%
%TO.N,index_num*%
X167725000Y-100250000D03*
%TD*%
D15*
%TO.P,D10,1*%
%TO.N,ROW3*%
X134190000Y-127000000D03*
D16*
X136350000Y-127000000D03*
%TO.P,D10,2*%
%TO.N,ring_home*%
X139650000Y-127000000D03*
D17*
X141810000Y-127000000D03*
%TD*%
D18*
%TO.P,MCU1,1*%
%TO.N,MCU1_1*%
X221500000Y-84300000D03*
D19*
X223620000Y-84300000D03*
D18*
%TO.P,MCU1,2*%
%TO.N,MCU1_2*%
X221500000Y-86840000D03*
D19*
X223620000Y-86840000D03*
D18*
%TO.P,MCU1,3*%
%TO.N,MCU1_3*%
X221500000Y-89380000D03*
D19*
X223620000Y-89380000D03*
D18*
%TO.P,MCU1,4*%
%TO.N,MCU1_4*%
X221500000Y-91920000D03*
D19*
X223620000Y-91920000D03*
D18*
%TO.P,MCU1,5*%
%TO.N,MCU1_5*%
X221500000Y-94460000D03*
D19*
X223620000Y-94460000D03*
D18*
%TO.P,MCU1,6*%
%TO.N,MCU1_6*%
X221500000Y-97000000D03*
D19*
X223620000Y-97000000D03*
D18*
%TO.P,MCU1,7*%
%TO.N,MCU1_7*%
X221500000Y-99540000D03*
D19*
X223620000Y-99540000D03*
D18*
%TO.P,MCU1,8*%
%TO.N,MCU1_8*%
X221500000Y-102080000D03*
D19*
X223620000Y-102080000D03*
D18*
%TO.P,MCU1,9*%
%TO.N,MCU1_9*%
X221500000Y-104620000D03*
D19*
X223620000Y-104620000D03*
D18*
%TO.P,MCU1,10*%
%TO.N,MCU1_10*%
X221500000Y-107160000D03*
D19*
X223620000Y-107160000D03*
D18*
%TO.P,MCU1,11*%
%TO.N,MCU1_11*%
X221500000Y-109700000D03*
D19*
X223620000Y-109700000D03*
D18*
%TO.P,MCU1,12*%
%TO.N,MCU1_12*%
X221500000Y-112240000D03*
D19*
X223620000Y-112240000D03*
%TO.P,MCU1,13*%
%TO.N,MCU1_13*%
X208380000Y-112240000D03*
D20*
X210500000Y-112240000D03*
D19*
%TO.P,MCU1,14*%
%TO.N,MCU1_14*%
X208380000Y-109700000D03*
D20*
X210500000Y-109700000D03*
D19*
%TO.P,MCU1,15*%
%TO.N,MCU1_15*%
X208380000Y-107160000D03*
D20*
X210500000Y-107160000D03*
D19*
%TO.P,MCU1,16*%
%TO.N,MCU1_16*%
X208380000Y-104620000D03*
D20*
X210500000Y-104620000D03*
D19*
%TO.P,MCU1,17*%
%TO.N,MCU1_17*%
X208380000Y-102080000D03*
D20*
X210500000Y-102080000D03*
D19*
%TO.P,MCU1,18*%
%TO.N,MCU1_18*%
X208380000Y-99540000D03*
D20*
X210500000Y-99540000D03*
D19*
%TO.P,MCU1,19*%
%TO.N,MCU1_19*%
X208380000Y-97000000D03*
D20*
X210500000Y-97000000D03*
D19*
%TO.P,MCU1,20*%
%TO.N,MCU1_20*%
X208380000Y-94460000D03*
D20*
X210500000Y-94460000D03*
D19*
%TO.P,MCU1,21*%
%TO.N,MCU1_21*%
X208380000Y-91920000D03*
D20*
X210500000Y-91920000D03*
D19*
%TO.P,MCU1,22*%
%TO.N,MCU1_22*%
X208380000Y-89380000D03*
D20*
X210500000Y-89380000D03*
D19*
%TO.P,MCU1,23*%
%TO.N,MCU1_23*%
X208380000Y-86840000D03*
D20*
X210500000Y-86840000D03*
D19*
%TO.P,MCU1,24*%
%TO.N,MCU1_24*%
X208380000Y-84300000D03*
D20*
X210500000Y-84300000D03*
D21*
%TO.P,MCU1,101*%
%TO.N,P1*%
X219400000Y-84300000D03*
D22*
X220775000Y-84300000D03*
D21*
%TO.P,MCU1,102*%
%TO.N,P0*%
X219400000Y-86840000D03*
D22*
X220775000Y-86840000D03*
D21*
%TO.P,MCU1,103*%
%TO.N,GND*%
X219400000Y-89380000D03*
D22*
X220775000Y-89380000D03*
D21*
%TO.P,MCU1,104*%
X219400000Y-91920000D03*
D22*
X220775000Y-91920000D03*
D21*
%TO.P,MCU1,105*%
%TO.N,COL0*%
X219400000Y-94460000D03*
D22*
X220775000Y-94460000D03*
D21*
%TO.P,MCU1,106*%
%TO.N,COL1*%
X219400000Y-97000000D03*
D22*
X220775000Y-97000000D03*
D21*
%TO.P,MCU1,107*%
%TO.N,COL2*%
X219400000Y-99540000D03*
D22*
X220775000Y-99540000D03*
D21*
%TO.P,MCU1,108*%
%TO.N,COL3*%
X219400000Y-102080000D03*
D22*
X220775000Y-102080000D03*
D21*
%TO.P,MCU1,109*%
%TO.N,COL4*%
X219400000Y-104620000D03*
D22*
X220775000Y-104620000D03*
D21*
%TO.P,MCU1,110*%
%TO.N,COL5*%
X219400000Y-107160000D03*
D22*
X220775000Y-107160000D03*
D21*
%TO.P,MCU1,111*%
%TO.N,P8*%
X219400000Y-109700000D03*
D22*
X220775000Y-109700000D03*
D21*
%TO.P,MCU1,112*%
%TO.N,P9*%
X219400000Y-112240000D03*
D22*
X220775000Y-112240000D03*
D23*
%TO.P,MCU1,113*%
%TO.N,P10*%
X211225000Y-112240000D03*
D21*
X212600000Y-112240000D03*
D23*
%TO.P,MCU1,114*%
%TO.N,P16*%
X211225000Y-109700000D03*
D21*
X212600000Y-109700000D03*
D23*
%TO.P,MCU1,115*%
%TO.N,P14*%
X211225000Y-107160000D03*
D21*
X212600000Y-107160000D03*
D23*
%TO.P,MCU1,116*%
%TO.N,ROW4*%
X211225000Y-104620000D03*
D21*
X212600000Y-104620000D03*
D23*
%TO.P,MCU1,117*%
%TO.N,ROW3*%
X211225000Y-102080000D03*
D21*
X212600000Y-102080000D03*
D23*
%TO.P,MCU1,118*%
%TO.N,ROW2*%
X211225000Y-99540000D03*
D21*
X212600000Y-99540000D03*
D23*
%TO.P,MCU1,119*%
%TO.N,ROW1*%
X211225000Y-97000000D03*
D21*
X212600000Y-97000000D03*
D23*
%TO.P,MCU1,120*%
%TO.N,ROW0*%
X211225000Y-94460000D03*
D21*
X212600000Y-94460000D03*
D23*
%TO.P,MCU1,121*%
%TO.N,VCC*%
X211225000Y-91920000D03*
D21*
X212600000Y-91920000D03*
D23*
%TO.P,MCU1,122*%
%TO.N,RST*%
X211225000Y-89380000D03*
D21*
X212600000Y-89380000D03*
D23*
%TO.P,MCU1,123*%
%TO.N,GND*%
X211225000Y-86840000D03*
D21*
X212600000Y-86840000D03*
D23*
%TO.P,MCU1,124*%
%TO.N,RAW*%
X211225000Y-84300000D03*
D21*
X212600000Y-84300000D03*
%TD*%
D14*
%TO.P,S8,1*%
%TO.N,COL1*%
X122275000Y-85050000D03*
%TO.P,S8,2*%
%TO.N,shift_top*%
X110725000Y-87250000D03*
%TD*%
D15*
%TO.P,D17,1*%
%TO.N,ROW4*%
X172190000Y-147000000D03*
D16*
X174350000Y-147000000D03*
%TO.P,D17,2*%
%TO.N,index_bottom*%
X177650000Y-147000000D03*
D17*
X179810000Y-147000000D03*
%TD*%
D14*
%TO.P,S3,1*%
%TO.N,COL0*%
X103275000Y-106050000D03*
%TO.P,S3,2*%
%TO.N,pinky_num*%
X91725000Y-108250000D03*
%TD*%
D15*
%TO.P,D23,1*%
%TO.N,ROW2*%
X191190000Y-111000000D03*
D16*
X193350000Y-111000000D03*
%TO.P,D23,2*%
%TO.N,inner_num*%
X196650000Y-111000000D03*
D17*
X198810000Y-111000000D03*
%TD*%
D24*
%TO.P,H3,*%
%TO.N,*%
X109450000Y-152000000D03*
%TD*%
%TO.P,H8,*%
%TO.N,*%
X109450000Y-120920000D03*
%TD*%
D15*
%TO.P,D2,1*%
%TO.N,ROW3*%
X96190000Y-136000000D03*
D16*
X98350000Y-136000000D03*
%TO.P,D2,2*%
%TO.N,pinky_home*%
X101650000Y-136000000D03*
D17*
X103810000Y-136000000D03*
%TD*%
D15*
%TO.P,D21,1*%
%TO.N,ROW4*%
X191190000Y-149000000D03*
D16*
X193350000Y-149000000D03*
%TO.P,D21,2*%
%TO.N,inner_bottom*%
X196650000Y-149000000D03*
D17*
X198810000Y-149000000D03*
%TD*%
D25*
%TO.P,JST2,1*%
%TO.N,VCC*%
X217000000Y-119000000D03*
D26*
%TO.P,JST2,2*%
%TO.N,GND*%
X217000000Y-117000000D03*
%TD*%
D11*
%TO.P,T2,*%
%TO.N,*%
X229486970Y-149500000D03*
X230513030Y-152319078D03*
%TD*%
D15*
%TO.P,D19,1*%
%TO.N,ROW2*%
X172190000Y-109000000D03*
D16*
X174350000Y-109000000D03*
%TO.P,D19,2*%
%TO.N,index_num*%
X177650000Y-109000000D03*
D17*
X179810000Y-109000000D03*
%TD*%
D15*
%TO.P,D8,1*%
%TO.N,ROW1*%
X115190000Y-96000000D03*
D16*
X117350000Y-96000000D03*
%TO.P,D8,2*%
%TO.N,shift_top*%
X120650000Y-96000000D03*
D17*
X122810000Y-96000000D03*
%TD*%
D25*
%TO.P,JST1,1*%
%TO.N,VCC*%
X217000000Y-119000000D03*
D26*
%TO.P,JST1,2*%
%TO.N,GND*%
X217000000Y-117000000D03*
%TD*%
D14*
%TO.P,S16,1*%
%TO.N,COL3*%
X160275000Y-73050000D03*
%TO.P,S16,2*%
%TO.N,middle_top*%
X148725000Y-75250000D03*
%TD*%
%TO.P,S4,1*%
%TO.N,COL0*%
X103275000Y-87050000D03*
%TO.P,S4,2*%
%TO.N,pinky_top*%
X91725000Y-89250000D03*
%TD*%
D15*
%TO.P,D11,1*%
%TO.N,ROW2*%
X134190000Y-108000000D03*
D16*
X136350000Y-108000000D03*
%TO.P,D11,2*%
%TO.N,ring_num*%
X139650000Y-108000000D03*
D17*
X141810000Y-108000000D03*
%TD*%
D14*
%TO.P,S2,1*%
%TO.N,COL0*%
X103275000Y-125050000D03*
%TO.P,S2,2*%
%TO.N,pinky_home*%
X91725000Y-127250000D03*
%TD*%
%TO.P,S24,1*%
%TO.N,COL5*%
X198275000Y-81050000D03*
%TO.P,S24,2*%
%TO.N,inner_top*%
X186725000Y-83250000D03*
%TD*%
D27*
%TO.P,S27,1*%
%TO.N,COL5*%
X215062196Y-164298472D03*
%TO.P,S27,2*%
%TO.N,far_thumb*%
X213179187Y-175904366D03*
%TD*%
D15*
%TO.P,D15,1*%
%TO.N,ROW2*%
X153190000Y-103000000D03*
D16*
X155350000Y-103000000D03*
%TO.P,D15,2*%
%TO.N,middle_num*%
X158650000Y-103000000D03*
D17*
X160810000Y-103000000D03*
%TD*%
D15*
%TO.P,D18,1*%
%TO.N,ROW3*%
X172190000Y-128000000D03*
D16*
X174350000Y-128000000D03*
%TO.P,D18,2*%
%TO.N,index_home*%
X177650000Y-128000000D03*
D17*
X179810000Y-128000000D03*
%TD*%
D28*
%TO.P,D27,1*%
%TO.N,ROW0*%
X222928617Y-174701314D03*
D29*
X223667381Y-172671578D03*
%TO.P,D27,2*%
%TO.N,far_thumb*%
X224796047Y-169570592D03*
D17*
X225534811Y-167540856D03*
%TD*%
D24*
%TO.P,H2,*%
%TO.N,*%
X109450000Y-95000000D03*
%TD*%
%TO.P,H1,*%
%TO.N,*%
X185550000Y-89000000D03*
%TD*%
D15*
%TO.P,D25,1*%
%TO.N,ROW0*%
X173190000Y-168000000D03*
D16*
X175350000Y-168000000D03*
%TO.P,D25,2*%
%TO.N,near_thumb*%
X178650000Y-168000000D03*
D17*
X180810000Y-168000000D03*
%TD*%
D30*
%TO.P,TRRS1,1*%
%TO.N,VCC*%
X212700000Y-123700000D03*
X212700000Y-128300000D03*
%TO.P,TRRS1,2*%
%TO.N,GND*%
X213800000Y-123700000D03*
X213800000Y-128300000D03*
%TO.P,TRRS1,3*%
%TO.N,P1*%
X217800000Y-123700000D03*
X217800000Y-128300000D03*
%TO.P,TRRS1,4*%
%TO.N,P0*%
X220800000Y-123700000D03*
X220800000Y-128300000D03*
%TD*%
D15*
%TO.P,D14,1*%
%TO.N,ROW3*%
X153190000Y-122000000D03*
D16*
X155350000Y-122000000D03*
%TO.P,D14,2*%
%TO.N,middle_home*%
X158650000Y-122000000D03*
D17*
X160810000Y-122000000D03*
%TD*%
D14*
%TO.P,S20,1*%
%TO.N,COL4*%
X179275000Y-79050000D03*
%TO.P,S20,2*%
%TO.N,index_top*%
X167725000Y-81250000D03*
%TD*%
%TO.P,S11,1*%
%TO.N,COL2*%
X141275000Y-97050000D03*
%TO.P,S11,2*%
%TO.N,ring_num*%
X129725000Y-99250000D03*
%TD*%
%TO.P,S9,1*%
%TO.N,COL2*%
X141275000Y-135050000D03*
%TO.P,S9,2*%
%TO.N,ring_bottom*%
X129725000Y-137250000D03*
%TD*%
%TO.P,S12,1*%
%TO.N,COL2*%
X141275000Y-78050000D03*
%TO.P,S12,2*%
%TO.N,ring_top*%
X129725000Y-80250000D03*
%TD*%
D15*
%TO.P,D12,1*%
%TO.N,ROW1*%
X134190000Y-89000000D03*
D16*
X136350000Y-89000000D03*
%TO.P,D12,2*%
%TO.N,ring_top*%
X139650000Y-89000000D03*
D17*
X141810000Y-89000000D03*
%TD*%
D14*
%TO.P,S10,1*%
%TO.N,COL2*%
X141275000Y-116050000D03*
%TO.P,S10,2*%
%TO.N,ring_home*%
X129725000Y-118250000D03*
%TD*%
D15*
%TO.P,D13,1*%
%TO.N,ROW4*%
X153190000Y-141000000D03*
D16*
X155350000Y-141000000D03*
%TO.P,D13,2*%
%TO.N,middle_bottom*%
X158650000Y-141000000D03*
D17*
X160810000Y-141000000D03*
%TD*%
D24*
%TO.P,H5,*%
%TO.N,*%
X147550000Y-107550000D03*
%TD*%
D14*
%TO.P,S5,1*%
%TO.N,COL1*%
X122275000Y-142050000D03*
%TO.P,S5,2*%
%TO.N,shift_bottom*%
X110725000Y-144250000D03*
%TD*%
D24*
%TO.P,H7,*%
%TO.N,*%
X208012759Y-170538758D03*
%TD*%
D14*
%TO.P,S13,1*%
%TO.N,COL3*%
X160275000Y-130050000D03*
%TO.P,S13,2*%
%TO.N,middle_bottom*%
X148725000Y-132250000D03*
%TD*%
%TO.P,S17,1*%
%TO.N,COL4*%
X179275000Y-136050000D03*
%TO.P,S17,2*%
%TO.N,index_bottom*%
X167725000Y-138250000D03*
%TD*%
D24*
%TO.P,H4,*%
%TO.N,*%
X185550000Y-147000000D03*
%TD*%
D15*
%TO.P,D24,1*%
%TO.N,ROW1*%
X191190000Y-92000000D03*
D16*
X193350000Y-92000000D03*
%TO.P,D24,2*%
%TO.N,inner_top*%
X196650000Y-92000000D03*
D17*
X198810000Y-92000000D03*
%TD*%
D14*
%TO.P,S21,1*%
%TO.N,COL5*%
X198275000Y-138050000D03*
%TO.P,S21,2*%
%TO.N,inner_bottom*%
X186725000Y-140250000D03*
%TD*%
D15*
%TO.P,D22,1*%
%TO.N,ROW3*%
X191190000Y-130000000D03*
D16*
X193350000Y-130000000D03*
%TO.P,D22,2*%
%TO.N,inner_home*%
X196650000Y-130000000D03*
D17*
X198810000Y-130000000D03*
%TD*%
D15*
%TO.P,D9,1*%
%TO.N,ROW4*%
X134190000Y-146000000D03*
D16*
X136350000Y-146000000D03*
%TO.P,D9,2*%
%TO.N,ring_bottom*%
X139650000Y-146000000D03*
D17*
X141810000Y-146000000D03*
%TD*%
D14*
%TO.P,S18,1*%
%TO.N,COL4*%
X179275000Y-117050000D03*
%TO.P,S18,2*%
%TO.N,index_home*%
X167725000Y-119250000D03*
%TD*%
D15*
%TO.P,D5,1*%
%TO.N,ROW4*%
X115190000Y-153000000D03*
D16*
X117350000Y-153000000D03*
%TO.P,D5,2*%
%TO.N,shift_bottom*%
X120650000Y-153000000D03*
D17*
X122810000Y-153000000D03*
%TD*%
D14*
%TO.P,S22,1*%
%TO.N,COL5*%
X198275000Y-119050000D03*
%TO.P,S22,2*%
%TO.N,inner_home*%
X186725000Y-121250000D03*
%TD*%
D15*
%TO.P,D3,1*%
%TO.N,ROW2*%
X96190000Y-117000000D03*
D16*
X98350000Y-117000000D03*
%TO.P,D3,2*%
%TO.N,pinky_num*%
X101650000Y-117000000D03*
D17*
X103810000Y-117000000D03*
%TD*%
D15*
%TO.P,D4,1*%
%TO.N,ROW1*%
X96190000Y-98000000D03*
D16*
X98350000Y-98000000D03*
%TO.P,D4,2*%
%TO.N,pinky_top*%
X101650000Y-98000000D03*
D17*
X103810000Y-98000000D03*
%TD*%
D24*
%TO.P,H6,*%
%TO.N,*%
X147450000Y-142000000D03*
%TD*%
D14*
%TO.P,S23,1*%
%TO.N,COL5*%
X198275000Y-100050000D03*
%TO.P,S23,2*%
%TO.N,inner_num*%
X186725000Y-102250000D03*
%TD*%
D31*
%TO.P,REF\u002A\u002A,1*%
%TO.N,VCC*%
X209000000Y-124000000D03*
D32*
%TO.P,REF\u002A\u002A,2*%
%TO.N,GND*%
X209000000Y-125300000D03*
D33*
%TO.P,REF\u002A\u002A,3*%
X209000000Y-126600000D03*
%TD*%
D34*
%TO.P,D26,1*%
%TO.N,ROW0*%
X193674094Y-169606650D03*
D35*
X195801281Y-169981731D03*
%TO.P,D26,2*%
%TO.N,home_thumb*%
X199051147Y-170554769D03*
D17*
X201178334Y-170929850D03*
%TD*%
D15*
%TO.P,D7,1*%
%TO.N,ROW2*%
X115190000Y-115000000D03*
D16*
X117350000Y-115000000D03*
%TO.P,D7,2*%
%TO.N,shift_num*%
X120650000Y-115000000D03*
D17*
X122810000Y-115000000D03*
%TD*%
D14*
%TO.P,S6,1*%
%TO.N,COL1*%
X122275000Y-123050000D03*
%TO.P,S6,2*%
%TO.N,shift_home*%
X110725000Y-125250000D03*
%TD*%
%TO.P,S25,1*%
%TO.N,COL3*%
X180275000Y-157050000D03*
%TO.P,S25,2*%
%TO.N,near_thumb*%
X168725000Y-159250000D03*
%TD*%
D24*
%TO.P,H9,*%
%TO.N,*%
X147550000Y-88450000D03*
%TD*%
%TO.P,H10,*%
%TO.N,*%
X185450000Y-113550000D03*
%TD*%
D36*
%TO.P,S26,1*%
%TO.N,COL4*%
X202552907Y-160053303D03*
%TO.P,S26,2*%
%TO.N,home_thumb*%
X190796352Y-160214243D03*
%TD*%
D14*
%TO.P,S7,1*%
%TO.N,COL1*%
X122275000Y-104050000D03*
%TO.P,S7,2*%
%TO.N,shift_num*%
X110725000Y-106250000D03*
%TD*%
D15*
%TO.P,D16,1*%
%TO.N,ROW1*%
X153190000Y-84000000D03*
D16*
X155350000Y-84000000D03*
%TO.P,D16,2*%
%TO.N,middle_top*%
X158650000Y-84000000D03*
D17*
X160810000Y-84000000D03*
%TD*%
D15*
%TO.P,D1,1*%
%TO.N,ROW4*%
X96190000Y-155000000D03*
D16*
X98350000Y-155000000D03*
%TO.P,D1,2*%
%TO.N,pinky_bottom*%
X101650000Y-155000000D03*
D17*
X103810000Y-155000000D03*
%TD*%
D14*
%TO.P,S15,1*%
%TO.N,COL3*%
X160275000Y-92050000D03*
%TO.P,S15,2*%
%TO.N,middle_num*%
X148725000Y-94250000D03*
%TD*%
%TO.P,S14,1*%
%TO.N,COL3*%
X160275000Y-111050000D03*
%TO.P,S14,2*%
%TO.N,middle_home*%
X148725000Y-113250000D03*
%TD*%
D15*
%TO.P,D20,1*%
%TO.N,ROW1*%
X172190000Y-90000000D03*
D16*
X174350000Y-90000000D03*
%TO.P,D20,2*%
%TO.N,index_top*%
X177650000Y-90000000D03*
D17*
X179810000Y-90000000D03*
%TD*%
D37*
%TO.N,COL0*%
X100000000Y-140500000D03*
X100000000Y-84000000D03*
X194412347Y-94087653D03*
X99500000Y-122000000D03*
X100000000Y-103000000D03*
%TO.N,pinky_bottom*%
X108500000Y-149000000D03*
%TO.N,pinky_home*%
X108500000Y-136000000D03*
%TO.N,pinky_num*%
X108000000Y-117000000D03*
%TO.N,pinky_top*%
X108000000Y-92500000D03*
%TO.N,COL1*%
X119000000Y-120500000D03*
X204500000Y-113500000D03*
X119000000Y-101000000D03*
X119000000Y-82500000D03*
X119000000Y-139000000D03*
%TO.N,shift_bottom*%
X127500000Y-153000000D03*
%TO.N,shift_home*%
X127487347Y-132487347D03*
%TO.N,shift_num*%
X127500000Y-113500000D03*
%TO.N,shift_top*%
X127332347Y-94832347D03*
%TO.N,COL2*%
X138000000Y-113500000D03*
X138000000Y-132500000D03*
X205950000Y-126500000D03*
X138000000Y-94500000D03*
X138000000Y-75500000D03*
%TO.N,ring_bottom*%
X144561297Y-139938703D03*
%TO.N,ring_home*%
X146500000Y-127000000D03*
%TO.N,ring_num*%
X146500000Y-105000000D03*
%TO.N,ring_top*%
X145000000Y-87000000D03*
%TO.N,COL3*%
X157000000Y-127500000D03*
X157000000Y-70500000D03*
X177500000Y-154500000D03*
X157000000Y-89500000D03*
X157000000Y-108500000D03*
%TO.N,middle_bottom*%
X165000000Y-141000000D03*
%TO.N,middle_home*%
X165000000Y-122000000D03*
%TO.N,middle_num*%
X165000000Y-99000000D03*
%TO.N,middle_top*%
X165000000Y-84000000D03*
%TO.N,COL4*%
X176000000Y-95500000D03*
X176000000Y-76500000D03*
X200000000Y-156500000D03*
X176000000Y-114500000D03*
X176000000Y-133500000D03*
%TO.N,index_bottom*%
X184000000Y-143000000D03*
%TO.N,index_home*%
X184000000Y-128000000D03*
%TO.N,index_num*%
X184500000Y-109000000D03*
%TO.N,index_top*%
X184000000Y-86500000D03*
%TO.N,COL5*%
X195000000Y-135500000D03*
X195000000Y-116500000D03*
X210500000Y-164500000D03*
X195000000Y-97500000D03*
X195000000Y-78500000D03*
%TO.N,inner_bottom*%
X203000000Y-144500000D03*
%TO.N,inner_home*%
X203000000Y-126000000D03*
%TO.N,inner_num*%
X203500000Y-111000000D03*
%TO.N,inner_top*%
X203000000Y-92000000D03*
%TO.N,near_thumb*%
X185000000Y-168000000D03*
%TO.N,home_thumb*%
X206000000Y-167500000D03*
%TO.N,far_thumb*%
X225000000Y-160500000D03*
%TO.N,ROW0*%
X210000000Y-144500000D03*
X221500000Y-156500000D03*
%TO.N,GND*%
X213000000Y-126500000D03*
X213500000Y-120000000D03*
X214000000Y-122225000D03*
X209000000Y-128500000D03*
X225500000Y-142500000D03*
X219500000Y-116500000D03*
%TO.N,RST*%
X212000000Y-116500000D03*
X216500000Y-113195000D03*
X210500000Y-120000000D03*
%TO.N,VCC*%
X212500000Y-120775000D03*
X212500000Y-122225000D03*
X223775000Y-119000000D03*
X226225000Y-148362165D03*
X209000000Y-122225000D03*
%TO.N,P1*%
X222500000Y-122225000D03*
%TO.N,P0*%
X223500000Y-122500000D03*
%TD*%
D38*
%TO.N,COL0*%
X126500000Y-98500000D02*
X133000000Y-92000000D01*
X114500000Y-98500000D02*
X126500000Y-98500000D01*
X170863604Y-94000000D02*
X193500000Y-94000000D01*
X103000000Y-140500000D02*
X100000000Y-140500000D01*
X150500000Y-91500000D02*
X154000000Y-88000000D01*
X193500000Y-94000000D02*
X194324694Y-94000000D01*
X103275000Y-125050000D02*
X103275000Y-122225000D01*
X103500000Y-122000000D02*
X99500000Y-122000000D01*
X103275000Y-140775000D02*
X103000000Y-140500000D01*
X154500000Y-88000000D02*
X158000000Y-88000000D01*
X103275000Y-144050000D02*
X103275000Y-140775000D01*
X194324694Y-94000000D02*
X194412347Y-94087653D01*
X103275000Y-84775000D02*
X103000000Y-84500000D01*
X164863604Y-88000000D02*
X170863604Y-94000000D01*
X133500000Y-92000000D02*
X149500000Y-92000000D01*
X149500000Y-92000000D02*
X150000000Y-91500000D01*
X158000000Y-88000000D02*
X164863604Y-88000000D01*
X103000000Y-84500000D02*
X100500000Y-84500000D01*
X150000000Y-91500000D02*
X150500000Y-91500000D01*
X103275000Y-87050000D02*
X103275000Y-84775000D01*
X103500000Y-103000000D02*
X104000000Y-102500000D01*
X103275000Y-103225000D02*
X103500000Y-103000000D01*
X100500000Y-84500000D02*
X100000000Y-84000000D01*
X103275000Y-106050000D02*
X103275000Y-103225000D01*
X103275000Y-122225000D02*
X103500000Y-122000000D01*
X110500000Y-102500000D02*
X114500000Y-98500000D01*
X133000000Y-92000000D02*
X133500000Y-92000000D01*
X104000000Y-102500000D02*
X110500000Y-102500000D01*
X103500000Y-103000000D02*
X100000000Y-103000000D01*
X220775000Y-94460000D02*
X219400000Y-94460000D01*
X154000000Y-88000000D02*
X154500000Y-88000000D01*
%TO.N,pinky_bottom*%
X103810000Y-155000000D02*
X103810000Y-153690000D01*
X103810000Y-153690000D02*
X108500000Y-149000000D01*
X99650000Y-153000000D02*
X92500000Y-153000000D01*
X101650000Y-155000000D02*
X103810000Y-155000000D01*
X92500000Y-153000000D02*
X91725000Y-152225000D01*
X101650000Y-155000000D02*
X99650000Y-153000000D01*
X91725000Y-152225000D02*
X91725000Y-146250000D01*
%TO.N,pinky_home*%
X101650000Y-136000000D02*
X100150000Y-134500000D01*
X100150000Y-134500000D02*
X93500000Y-134500000D01*
X93500000Y-134500000D02*
X91725000Y-132725000D01*
X101650000Y-136000000D02*
X103810000Y-136000000D01*
X103810000Y-136000000D02*
X108500000Y-136000000D01*
X91725000Y-132725000D02*
X91725000Y-127250000D01*
%TO.N,pinky_num*%
X101650000Y-117000000D02*
X103810000Y-117000000D01*
X100436000Y-115786000D02*
X92286000Y-115786000D01*
X101650000Y-117000000D02*
X100436000Y-115786000D01*
X92286000Y-115786000D02*
X91725000Y-115225000D01*
X91725000Y-115225000D02*
X91725000Y-108250000D01*
X103810000Y-117000000D02*
X108000000Y-117000000D01*
%TO.N,pinky_top*%
X103810000Y-98000000D02*
X101650000Y-98000000D01*
X91725000Y-91958684D02*
X91725000Y-89250000D01*
X103810000Y-98000000D02*
X103810000Y-96690000D01*
X96552316Y-96786000D02*
X91725000Y-91958684D01*
X103810000Y-96690000D02*
X108000000Y-92500000D01*
X101650000Y-98000000D02*
X100436000Y-96786000D01*
X100436000Y-96786000D02*
X96552316Y-96786000D01*
%TO.N,COL1*%
X122275000Y-82775000D02*
X122000000Y-82500000D01*
X180775000Y-113775000D02*
X181500000Y-114500000D01*
X220775000Y-97000000D02*
X219400000Y-97000000D01*
X127000000Y-116500000D02*
X133000000Y-110500000D01*
X204000000Y-114000000D02*
X204500000Y-113500000D01*
X197500000Y-114000000D02*
X204000000Y-114000000D01*
X122275000Y-123050000D02*
X122275000Y-121225000D01*
X122275000Y-121225000D02*
X127000000Y-116500000D01*
X122275000Y-120775000D02*
X122000000Y-120500000D01*
X122275000Y-142050000D02*
X122275000Y-139775000D01*
X122275000Y-104050000D02*
X122275000Y-101275000D01*
X191500000Y-114000000D02*
X197500000Y-114000000D01*
X122000000Y-101000000D02*
X119000000Y-101000000D01*
X122000000Y-82500000D02*
X119000000Y-82500000D01*
X172138604Y-113775000D02*
X180775000Y-113775000D01*
X122275000Y-85050000D02*
X122275000Y-82775000D01*
X122275000Y-139775000D02*
X122000000Y-139500000D01*
X122000000Y-139500000D02*
X121500000Y-139000000D01*
X122000000Y-120500000D02*
X119000000Y-120500000D01*
X121500000Y-139000000D02*
X119000000Y-139000000D01*
X151000000Y-110500000D02*
X154000000Y-107500000D01*
X133000000Y-110500000D02*
X147000000Y-110500000D01*
X183500000Y-116500000D02*
X189000000Y-116500000D01*
X122275000Y-123050000D02*
X122275000Y-120775000D01*
X165863604Y-107500000D02*
X172138604Y-113775000D01*
X181500000Y-114500000D02*
X183500000Y-116500000D01*
X154000000Y-107500000D02*
X165863604Y-107500000D01*
X147000000Y-110500000D02*
X151000000Y-110500000D01*
X122275000Y-101275000D02*
X122000000Y-101000000D01*
X189000000Y-116500000D02*
X191500000Y-114000000D01*
%TO.N,shift_bottom*%
X120650000Y-153000000D02*
X122810000Y-153000000D01*
X122810000Y-153000000D02*
X127500000Y-153000000D01*
X120650000Y-153000000D02*
X118650000Y-151000000D01*
X112500000Y-151000000D02*
X110725000Y-149225000D01*
X110725000Y-149225000D02*
X110725000Y-144250000D01*
X118650000Y-151000000D02*
X112500000Y-151000000D01*
%TO.N,shift_home*%
X120650000Y-134000000D02*
X119150000Y-132500000D01*
X119150000Y-132500000D02*
X112500000Y-132500000D01*
X125974694Y-134000000D02*
X127487347Y-132487347D01*
X122810000Y-134000000D02*
X120650000Y-134000000D01*
X110725000Y-130725000D02*
X110725000Y-125250000D01*
X122810000Y-134000000D02*
X125974694Y-134000000D01*
X112500000Y-132500000D02*
X110725000Y-130725000D01*
%TO.N,shift_num*%
X120650000Y-115000000D02*
X119436000Y-113786000D01*
X119436000Y-113786000D02*
X111286000Y-113786000D01*
X110725000Y-113225000D02*
X110725000Y-106250000D01*
X126000000Y-115000000D02*
X127500000Y-113500000D01*
X111286000Y-113786000D02*
X110725000Y-113225000D01*
X120650000Y-115000000D02*
X122810000Y-115000000D01*
X122810000Y-115000000D02*
X126000000Y-115000000D01*
%TO.N,shift_top*%
X112992216Y-92225900D02*
X110725000Y-89958684D01*
X110725000Y-89958684D02*
X110725000Y-87250000D01*
X120650000Y-96000000D02*
X122810000Y-96000000D01*
X126164694Y-96000000D02*
X127332347Y-94832347D01*
X120650000Y-96000000D02*
X116875900Y-92225900D01*
X116875900Y-92225900D02*
X112992216Y-92225900D01*
X122810000Y-96000000D02*
X126164694Y-96000000D01*
%TO.N,COL2*%
X205500000Y-127000000D02*
X205950000Y-126550000D01*
X141275000Y-135050000D02*
X141275000Y-132775000D01*
X141275000Y-135050000D02*
X149825000Y-126500000D01*
X167500000Y-132000000D02*
X185000000Y-132000000D01*
X162000000Y-126500000D02*
X164000000Y-128500000D01*
X140500000Y-113500000D02*
X141275000Y-114275000D01*
X138000000Y-113500000D02*
X140500000Y-113500000D01*
X140500000Y-94500000D02*
X141275000Y-95275000D01*
X149825000Y-126500000D02*
X157500000Y-126500000D01*
X164000000Y-128500000D02*
X167500000Y-132000000D01*
X141275000Y-76275000D02*
X141275000Y-78050000D01*
X141275000Y-132775000D02*
X141000000Y-132500000D01*
X157500000Y-126500000D02*
X162000000Y-126500000D01*
X138000000Y-75500000D02*
X140500000Y-75500000D01*
X205950000Y-126550000D02*
X205950000Y-126500000D01*
X141000000Y-132500000D02*
X138000000Y-132500000D01*
X141275000Y-95275000D02*
X141275000Y-97050000D01*
X141275000Y-114275000D02*
X141275000Y-116050000D01*
X138000000Y-94500000D02*
X140500000Y-94500000D01*
X220775000Y-99540000D02*
X219400000Y-99540000D01*
X140500000Y-75500000D02*
X141275000Y-76275000D01*
X185000000Y-132000000D02*
X200500000Y-132000000D01*
X200500000Y-132000000D02*
X205500000Y-127000000D01*
%TO.N,ring_bottom*%
X144725900Y-140103306D02*
X144561297Y-139938703D01*
X129725000Y-142225000D02*
X129725000Y-137250000D01*
X131500000Y-144000000D02*
X129725000Y-142225000D01*
X141810000Y-146000000D02*
X139650000Y-146000000D01*
X139650000Y-146000000D02*
X137650000Y-144000000D01*
X144725900Y-143084100D02*
X144725900Y-140103306D01*
X137650000Y-144000000D02*
X131500000Y-144000000D01*
X141810000Y-146000000D02*
X144725900Y-143084100D01*
%TO.N,ring_home*%
X139650000Y-127000000D02*
X138436000Y-125786000D01*
X131786000Y-125786000D02*
X129725000Y-123725000D01*
X139650000Y-127000000D02*
X141810000Y-127000000D01*
X138436000Y-125786000D02*
X131786000Y-125786000D01*
X141810000Y-127000000D02*
X146500000Y-127000000D01*
X129725000Y-123725000D02*
X129725000Y-118250000D01*
%TO.N,ring_num*%
X129725000Y-104225000D02*
X129725000Y-99250000D01*
X131500000Y-106000000D02*
X129725000Y-104225000D01*
X143500000Y-108000000D02*
X146500000Y-105000000D01*
X139650000Y-108000000D02*
X141810000Y-108000000D01*
X139650000Y-108000000D02*
X137650000Y-106000000D01*
X141810000Y-108000000D02*
X143500000Y-108000000D01*
X137650000Y-106000000D02*
X131500000Y-106000000D01*
%TO.N,ring_top*%
X141810000Y-89000000D02*
X143810000Y-87000000D01*
X139650000Y-89000000D02*
X138436000Y-87786000D01*
X129725000Y-82958684D02*
X129725000Y-80250000D01*
X143810000Y-87000000D02*
X145000000Y-87000000D01*
X139650000Y-89000000D02*
X141810000Y-89000000D01*
X134552316Y-87786000D02*
X129725000Y-82958684D01*
X138436000Y-87786000D02*
X134552316Y-87786000D01*
%TO.N,COL3*%
X157000000Y-89500000D02*
X159500000Y-89500000D01*
X225000000Y-106878299D02*
X224106701Y-105985000D01*
X180275000Y-154775000D02*
X180275000Y-157050000D01*
X220775000Y-102080000D02*
X219400000Y-102080000D01*
X160275000Y-109775000D02*
X160275000Y-111050000D01*
X160275000Y-128775000D02*
X159000000Y-127500000D01*
X225000000Y-130525305D02*
X225000000Y-106878299D01*
X209699695Y-145225000D02*
X210300305Y-145225000D01*
X157000000Y-70500000D02*
X159500000Y-70500000D01*
X224106701Y-105985000D02*
X221015000Y-105985000D01*
X159500000Y-70500000D02*
X160275000Y-71275000D01*
X177500000Y-154500000D02*
X180000000Y-154500000D01*
X197874695Y-157050000D02*
X209699695Y-145225000D01*
X218000000Y-105500000D02*
X218000000Y-103000000D01*
X220000000Y-103000000D02*
X220000000Y-102855000D01*
X219754695Y-106000000D02*
X219254695Y-105500000D01*
X221015000Y-105985000D02*
X221000000Y-106000000D01*
X180000000Y-154500000D02*
X180275000Y-154775000D01*
X160275000Y-71275000D02*
X160275000Y-73050000D01*
X157000000Y-108500000D02*
X159000000Y-108500000D01*
X160275000Y-90275000D02*
X160275000Y-92050000D01*
X159000000Y-127500000D02*
X157000000Y-127500000D01*
X159000000Y-108500000D02*
X160275000Y-109775000D01*
X180275000Y-157050000D02*
X197874695Y-157050000D01*
X160275000Y-130050000D02*
X160275000Y-128775000D01*
X218000000Y-103000000D02*
X220000000Y-103000000D01*
X219254695Y-105500000D02*
X218000000Y-105500000D01*
X220000000Y-102855000D02*
X220775000Y-102080000D01*
X210300305Y-145225000D02*
X225000000Y-130525305D01*
X159500000Y-89500000D02*
X160275000Y-90275000D01*
X221000000Y-106000000D02*
X219754695Y-106000000D01*
%TO.N,middle_bottom*%
X158650000Y-141000000D02*
X156650000Y-139000000D01*
X156650000Y-139000000D02*
X150500000Y-139000000D01*
X160810000Y-141000000D02*
X165000000Y-141000000D01*
X150500000Y-139000000D02*
X148725000Y-137225000D01*
X158650000Y-141000000D02*
X160810000Y-141000000D01*
X148725000Y-137225000D02*
X148725000Y-132250000D01*
%TO.N,middle_home*%
X158650000Y-122000000D02*
X160810000Y-122000000D01*
X158650000Y-122000000D02*
X157150000Y-120500000D01*
X157150000Y-120500000D02*
X151000000Y-120500000D01*
X148725000Y-118225000D02*
X148725000Y-113250000D01*
X151000000Y-120500000D02*
X148725000Y-118225000D01*
X160810000Y-122000000D02*
X165000000Y-122000000D01*
%TO.N,middle_num*%
X160810000Y-103000000D02*
X164810000Y-99000000D01*
X164810000Y-99000000D02*
X165000000Y-99000000D01*
X150500000Y-101500000D02*
X148725000Y-99725000D01*
X158650000Y-103000000D02*
X157150000Y-101500000D01*
X157150000Y-101500000D02*
X150500000Y-101500000D01*
X158650000Y-103000000D02*
X160810000Y-103000000D01*
X148725000Y-99725000D02*
X148725000Y-94250000D01*
%TO.N,middle_top*%
X160810000Y-84000000D02*
X165000000Y-84000000D01*
X160810000Y-84000000D02*
X158650000Y-84000000D01*
X158650000Y-84000000D02*
X157436000Y-82786000D01*
X157436000Y-82786000D02*
X153552316Y-82786000D01*
X153552316Y-82786000D02*
X148725000Y-77958684D01*
X148725000Y-77958684D02*
X148725000Y-75250000D01*
%TO.N,COL4*%
X179275000Y-95725000D02*
X179275000Y-98050000D01*
X223500000Y-134000000D02*
X226000000Y-131500000D01*
X226000000Y-131500000D02*
X226000000Y-103500000D01*
X220775000Y-103990000D02*
X220775000Y-104620000D01*
X176000000Y-95500000D02*
X179500000Y-95500000D01*
X200000000Y-156500000D02*
X202552907Y-159052907D01*
X178500000Y-133500000D02*
X179275000Y-134275000D01*
X176000000Y-133500000D02*
X178500000Y-133500000D01*
X226000000Y-103500000D02*
X225945000Y-103445000D01*
X178500000Y-114500000D02*
X179275000Y-115275000D01*
X219400000Y-104620000D02*
X220775000Y-104620000D01*
X202552907Y-159052907D02*
X202552907Y-160053303D01*
X178500000Y-76500000D02*
X179275000Y-77275000D01*
X223500000Y-154500000D02*
X223500000Y-134000000D01*
X202552907Y-160053303D02*
X208106210Y-154500000D01*
X176000000Y-114500000D02*
X178500000Y-114500000D01*
X179275000Y-115275000D02*
X179275000Y-117050000D01*
X225945000Y-103445000D02*
X221320000Y-103445000D01*
X179275000Y-134275000D02*
X179275000Y-136050000D01*
X208106210Y-154500000D02*
X223500000Y-154500000D01*
X179275000Y-77275000D02*
X179275000Y-79050000D01*
X179500000Y-95500000D02*
X179275000Y-95725000D01*
X221320000Y-103445000D02*
X220775000Y-103990000D01*
X176000000Y-76500000D02*
X178500000Y-76500000D01*
%TO.N,index_bottom*%
X177650000Y-147000000D02*
X179810000Y-147000000D01*
X177650000Y-147000000D02*
X175650000Y-145000000D01*
X179810000Y-147000000D02*
X183810000Y-143000000D01*
X183810000Y-143000000D02*
X184000000Y-143000000D01*
X175650000Y-145000000D02*
X169500000Y-145000000D01*
X169500000Y-145000000D02*
X167725000Y-143225000D01*
X167725000Y-143225000D02*
X167725000Y-138250000D01*
%TO.N,index_home*%
X169786000Y-126786000D02*
X167725000Y-124725000D01*
X179810000Y-128000000D02*
X184000000Y-128000000D01*
X177650000Y-128000000D02*
X176436000Y-126786000D01*
X167725000Y-124725000D02*
X167725000Y-119250000D01*
X176436000Y-126786000D02*
X169786000Y-126786000D01*
X177650000Y-128000000D02*
X179810000Y-128000000D01*
%TO.N,index_num*%
X169500000Y-107500000D02*
X167725000Y-105725000D01*
X176150000Y-107500000D02*
X169500000Y-107500000D01*
X177650000Y-109000000D02*
X179810000Y-109000000D01*
X177650000Y-109000000D02*
X176150000Y-107500000D01*
X179810000Y-109000000D02*
X184500000Y-109000000D01*
X167725000Y-105725000D02*
X167725000Y-100250000D01*
%TO.N,index_top*%
X167725000Y-83958684D02*
X167725000Y-81250000D01*
X173875900Y-86225900D02*
X169992216Y-86225900D01*
X177650000Y-90000000D02*
X179810000Y-90000000D01*
X180500000Y-90000000D02*
X184000000Y-86500000D01*
X177650000Y-90000000D02*
X173875900Y-86225900D01*
X169992216Y-86225900D02*
X167725000Y-83958684D01*
X179810000Y-90000000D02*
X180500000Y-90000000D01*
%TO.N,COL5*%
X198275000Y-79775000D02*
X198275000Y-81050000D01*
X197500000Y-116500000D02*
X198275000Y-117275000D01*
X195000000Y-78500000D02*
X197000000Y-78500000D01*
X195000000Y-97500000D02*
X197500000Y-97500000D01*
X224500000Y-134950000D02*
X226800000Y-132650000D01*
X197000000Y-78500000D02*
X198275000Y-79775000D01*
X215000000Y-156500000D02*
X216000000Y-155500000D01*
X216500000Y-101000000D02*
X216500000Y-107000000D01*
X215062196Y-164298472D02*
X215062196Y-156562196D01*
X220775000Y-107020305D02*
X220775000Y-107160000D01*
X218500000Y-101000000D02*
X216500000Y-101000000D01*
X221000000Y-107385000D02*
X220775000Y-107160000D01*
X221000000Y-108500000D02*
X221000000Y-107385000D01*
X226500000Y-101000000D02*
X226405000Y-100905000D01*
X226800000Y-132650000D02*
X226800000Y-101000000D01*
X218000000Y-108500000D02*
X221000000Y-108500000D01*
X226800000Y-101000000D02*
X226500000Y-101000000D01*
X195000000Y-116500000D02*
X197500000Y-116500000D01*
X198275000Y-98275000D02*
X198275000Y-100050000D01*
X226405000Y-100905000D02*
X218595000Y-100905000D01*
X210701528Y-164298472D02*
X215062196Y-164298472D01*
X220775000Y-107790000D02*
X220775000Y-107160000D01*
X215062196Y-156562196D02*
X215000000Y-156500000D01*
X210500000Y-164500000D02*
X210701528Y-164298472D01*
X198275000Y-136275000D02*
X198275000Y-138050000D01*
X216000000Y-155500000D02*
X224500000Y-155500000D01*
X198275000Y-117275000D02*
X198275000Y-119050000D01*
X218595000Y-100905000D02*
X218500000Y-101000000D01*
X220775000Y-107160000D02*
X219400000Y-107160000D01*
X195000000Y-135500000D02*
X197500000Y-135500000D01*
X224500000Y-155500000D02*
X224500000Y-134950000D01*
X216500000Y-107000000D02*
X218000000Y-108500000D01*
X197500000Y-97500000D02*
X198275000Y-98275000D01*
X197500000Y-135500000D02*
X198275000Y-136275000D01*
%TO.N,inner_bottom*%
X186725000Y-144225000D02*
X186725000Y-140250000D01*
X193650000Y-146000000D02*
X188500000Y-146000000D01*
X196650000Y-149000000D02*
X193650000Y-146000000D01*
X203000000Y-144810000D02*
X203000000Y-144500000D01*
X196650000Y-149000000D02*
X198810000Y-149000000D01*
X188500000Y-146000000D02*
X186725000Y-144225000D01*
X198810000Y-149000000D02*
X203000000Y-144810000D01*
%TO.N,inner_home*%
X186725000Y-127225000D02*
X186725000Y-121250000D01*
X188286000Y-128786000D02*
X186725000Y-127225000D01*
X196650000Y-130000000D02*
X195436000Y-128786000D01*
X198810000Y-130000000D02*
X202810000Y-126000000D01*
X202810000Y-126000000D02*
X203000000Y-126000000D01*
X196650000Y-130000000D02*
X198810000Y-130000000D01*
X195436000Y-128786000D02*
X188286000Y-128786000D01*
%TO.N,inner_num*%
X186725000Y-108725000D02*
X186725000Y-102250000D01*
X196650000Y-111000000D02*
X198810000Y-111000000D01*
X188000000Y-110000000D02*
X186725000Y-108725000D01*
X188214000Y-109786000D02*
X188000000Y-110000000D01*
X198810000Y-111000000D02*
X203500000Y-111000000D01*
X196650000Y-111000000D02*
X195436000Y-109786000D01*
X195436000Y-109786000D02*
X188214000Y-109786000D01*
%TO.N,inner_top*%
X196650000Y-92000000D02*
X195436000Y-90786000D01*
X195436000Y-90786000D02*
X191286000Y-90786000D01*
X191286000Y-90786000D02*
X186725000Y-86225000D01*
X196650000Y-92000000D02*
X198810000Y-92000000D01*
X186725000Y-86225000D02*
X186725000Y-83250000D01*
X198810000Y-92000000D02*
X203000000Y-92000000D01*
%TO.N,near_thumb*%
X180810000Y-168000000D02*
X185000000Y-168000000D01*
X178650000Y-168000000D02*
X176650000Y-166000000D01*
X171500000Y-166000000D02*
X168725000Y-163225000D01*
X168725000Y-163225000D02*
X168725000Y-159250000D01*
X178650000Y-168000000D02*
X180810000Y-168000000D01*
X176650000Y-166000000D02*
X171500000Y-166000000D01*
%TO.N,home_thumb*%
X195996378Y-167500000D02*
X191000000Y-167500000D01*
X199051147Y-170554769D02*
X195996378Y-167500000D01*
X200803251Y-170554769D02*
X201178332Y-170929850D01*
X190796352Y-167296352D02*
X190796352Y-160214243D01*
X199051147Y-170554769D02*
X200803251Y-170554769D01*
X191000000Y-167500000D02*
X190796352Y-167296352D01*
X202570150Y-170929850D02*
X206000000Y-167500000D01*
X201178332Y-170929850D02*
X202570150Y-170929850D01*
%TO.N,far_thumb*%
X225534811Y-167540856D02*
X226500000Y-166575667D01*
X226500000Y-160500000D02*
X225000000Y-160500000D01*
X215274821Y-178000000D02*
X213179187Y-175904366D01*
X219500000Y-174866639D02*
X219500000Y-178000000D01*
X219500000Y-178000000D02*
X215274821Y-178000000D01*
X224796047Y-168279620D02*
X225534811Y-167540856D01*
X226500000Y-166575667D02*
X226500000Y-160500000D01*
X224796047Y-169570592D02*
X219500000Y-174866639D01*
X224796047Y-169570592D02*
X224796047Y-168279620D01*
%TO.N,ROW4*%
X134190000Y-149310000D02*
X134190000Y-146000000D01*
X190190000Y-150000000D02*
X191190000Y-149000000D01*
X137627500Y-147277500D02*
X146912500Y-147277500D01*
X136350000Y-146000000D02*
X137627500Y-147277500D01*
X210490000Y-105985000D02*
X211225000Y-105250000D01*
X155350000Y-141000000D02*
X161350000Y-147000000D01*
X174350000Y-147000000D02*
X177350000Y-150000000D01*
X118627500Y-154277500D02*
X129222500Y-154277500D01*
X153190000Y-141000000D02*
X155350000Y-141000000D01*
X206675000Y-142941658D02*
X206675000Y-107203299D01*
X161350000Y-147000000D02*
X172190000Y-147000000D01*
X99627500Y-156277500D02*
X111912500Y-156277500D01*
X207893299Y-105985000D02*
X210490000Y-105985000D01*
X199339158Y-150277500D02*
X206675000Y-142941658D01*
X211225000Y-105250000D02*
X211225000Y-104620000D01*
X177350000Y-150000000D02*
X190190000Y-150000000D01*
X117350000Y-153000000D02*
X118627500Y-154277500D01*
X96190000Y-155000000D02*
X98350000Y-155000000D01*
X172190000Y-147000000D02*
X174350000Y-147000000D01*
X211225000Y-104620000D02*
X212600000Y-104620000D01*
X115190000Y-153000000D02*
X117350000Y-153000000D01*
X111912500Y-156277500D02*
X115190000Y-153000000D01*
X191190000Y-149000000D02*
X193350000Y-149000000D01*
X193350000Y-149000000D02*
X194627500Y-150277500D01*
X129222500Y-154277500D02*
X134190000Y-149310000D01*
X134190000Y-146000000D02*
X136350000Y-146000000D01*
X146912500Y-147277500D02*
X153190000Y-141000000D01*
X194627500Y-150277500D02*
X199339158Y-150277500D01*
X98350000Y-155000000D02*
X99627500Y-156277500D01*
X206675000Y-107203299D02*
X207893299Y-105985000D01*
%TO.N,ROW3*%
X172190000Y-128000000D02*
X167000000Y-128000000D01*
X174350000Y-128000000D02*
X176350000Y-130000000D01*
X115190000Y-134000000D02*
X117350000Y-134000000D01*
X211225000Y-102710000D02*
X211225000Y-102080000D01*
X138350000Y-129000000D02*
X146190000Y-129000000D01*
X207893299Y-103255000D02*
X210680000Y-103255000D01*
X191190000Y-130000000D02*
X193350000Y-130000000D01*
X99627500Y-137277500D02*
X111912500Y-137277500D01*
X125722500Y-135277500D02*
X134000000Y-127000000D01*
X98350000Y-136000000D02*
X99627500Y-137277500D01*
X211225000Y-102080000D02*
X212600000Y-102080000D01*
X111912500Y-137277500D02*
X115190000Y-134000000D01*
X96190000Y-136000000D02*
X98350000Y-136000000D01*
X134000000Y-127000000D02*
X134190000Y-127000000D01*
X153190000Y-122000000D02*
X155350000Y-122000000D01*
X146190000Y-129000000D02*
X153190000Y-122000000D01*
X164500000Y-125500000D02*
X158850000Y-125500000D01*
X210680000Y-103255000D02*
X211225000Y-102710000D01*
X176350000Y-130000000D02*
X191190000Y-130000000D01*
X199447500Y-131277500D02*
X206000000Y-124725000D01*
X206000000Y-124725000D02*
X206000000Y-105148299D01*
X136350000Y-127000000D02*
X138350000Y-129000000D01*
X167000000Y-128000000D02*
X164500000Y-125500000D01*
X134190000Y-127000000D02*
X136350000Y-127000000D01*
X117350000Y-134000000D02*
X118627500Y-135277500D01*
X158850000Y-125500000D02*
X155350000Y-122000000D01*
X118627500Y-135277500D02*
X125722500Y-135277500D01*
X194627500Y-131277500D02*
X199447500Y-131277500D01*
X206000000Y-105148299D02*
X207893299Y-103255000D01*
X172190000Y-128000000D02*
X174350000Y-128000000D01*
X193350000Y-130000000D02*
X194627500Y-131277500D01*
%TO.N,ROW2*%
X191190000Y-111000000D02*
X193350000Y-111000000D01*
X153190000Y-103000000D02*
X155350000Y-103000000D01*
X134190000Y-108000000D02*
X136350000Y-108000000D01*
X165500000Y-106500000D02*
X158850000Y-106500000D01*
X117350000Y-115000000D02*
X118627500Y-116277500D01*
X193350000Y-111000000D02*
X194627500Y-112277500D01*
X125912500Y-116277500D02*
X134190000Y-108000000D01*
X207893299Y-100905000D02*
X211095000Y-100905000D01*
X150225000Y-109775000D02*
X153190000Y-106810000D01*
X168000000Y-109000000D02*
X165500000Y-106500000D01*
X205500000Y-103298299D02*
X207893299Y-100905000D01*
X176350000Y-111000000D02*
X191190000Y-111000000D01*
X211225000Y-100775000D02*
X211225000Y-99540000D01*
X99627500Y-118277500D02*
X111912500Y-118277500D01*
X118627500Y-116277500D02*
X125912500Y-116277500D01*
X205500000Y-112000000D02*
X205500000Y-103298299D01*
X136350000Y-108000000D02*
X138125000Y-109775000D01*
X194627500Y-112277500D02*
X205222500Y-112277500D01*
X98350000Y-117000000D02*
X99627500Y-118277500D01*
X158850000Y-106500000D02*
X155350000Y-103000000D01*
X211225000Y-99540000D02*
X212600000Y-99540000D01*
X211095000Y-100905000D02*
X211225000Y-100775000D01*
X172190000Y-109000000D02*
X168000000Y-109000000D01*
X138125000Y-109775000D02*
X150225000Y-109775000D01*
X172190000Y-109000000D02*
X174350000Y-109000000D01*
X115190000Y-115000000D02*
X117350000Y-115000000D01*
X153190000Y-106810000D02*
X153190000Y-103000000D01*
X111912500Y-118277500D02*
X115190000Y-115000000D01*
X96190000Y-117000000D02*
X98350000Y-117000000D01*
X205222500Y-112277500D02*
X205500000Y-112000000D01*
X174350000Y-109000000D02*
X176350000Y-111000000D01*
%TO.N,ROW1*%
X117350000Y-96150000D02*
X118700000Y-97500000D01*
X96190000Y-98000000D02*
X98350000Y-98000000D01*
X167500000Y-90000000D02*
X164500000Y-87000000D01*
X117350000Y-96000000D02*
X117350000Y-96150000D01*
X176350000Y-92000000D02*
X191190000Y-92000000D01*
X136350000Y-89000000D02*
X138025000Y-90675000D01*
X111912500Y-99277500D02*
X115190000Y-96000000D01*
X115190000Y-96000000D02*
X117350000Y-96000000D01*
X153190000Y-84000000D02*
X155350000Y-84000000D01*
X172190000Y-90000000D02*
X174350000Y-90000000D01*
X118700000Y-97500000D02*
X125690000Y-97500000D01*
X174350000Y-90000000D02*
X176350000Y-92000000D01*
X191190000Y-92000000D02*
X193350000Y-92000000D01*
X148825000Y-90675000D02*
X153190000Y-86310000D01*
X98350000Y-98000000D02*
X99627500Y-99277500D01*
X211225000Y-97000000D02*
X212600000Y-97000000D01*
X172190000Y-90000000D02*
X167500000Y-90000000D01*
X164500000Y-87000000D02*
X158350000Y-87000000D01*
X211225000Y-97630000D02*
X211225000Y-97000000D01*
X158350000Y-87000000D02*
X155350000Y-84000000D01*
X199525000Y-98175000D02*
X210680000Y-98175000D01*
X134190000Y-89000000D02*
X136350000Y-89000000D01*
X99627500Y-99277500D02*
X111912500Y-99277500D01*
X125690000Y-97500000D02*
X134190000Y-89000000D01*
X153190000Y-86310000D02*
X153190000Y-84000000D01*
X193350000Y-92000000D02*
X199525000Y-98175000D01*
X138025000Y-90675000D02*
X148825000Y-90675000D01*
X210680000Y-98175000D02*
X211225000Y-97630000D01*
%TO.N,ROW0*%
X222928617Y-174701314D02*
X222928617Y-173410342D01*
X227328422Y-172671578D02*
X227500000Y-172500000D01*
X193500000Y-171500000D02*
X193500000Y-171000000D01*
X211225000Y-94460000D02*
X212600000Y-94460000D01*
X220500000Y-177129931D02*
X222928617Y-174701314D01*
X223667381Y-172671578D02*
X227328422Y-172671578D01*
X213500000Y-96735000D02*
X211225000Y-94460000D01*
X220500000Y-181000000D02*
X220500000Y-177129931D01*
X193674096Y-170825904D02*
X193674096Y-169606650D01*
X210000000Y-144500000D02*
X208000000Y-142500000D01*
X227500000Y-172500000D02*
X227500000Y-158500000D01*
X195801281Y-172301281D02*
X197000000Y-173500000D01*
X195801281Y-169981731D02*
X195801281Y-172301281D01*
X213500000Y-113000000D02*
X213500000Y-96735000D01*
X193674096Y-169606650D02*
X195426200Y-169606650D01*
X193500000Y-171000000D02*
X193674096Y-170825904D01*
X223500000Y-158500000D02*
X221500000Y-156500000D01*
X178850000Y-171500000D02*
X193500000Y-171500000D01*
X175350000Y-168000000D02*
X178850000Y-171500000D01*
X216500000Y-114500000D02*
X215000000Y-113000000D01*
X208000000Y-142500000D02*
X207500000Y-142500000D01*
X215000000Y-113000000D02*
X213500000Y-113000000D01*
X207500000Y-142500000D02*
X207500000Y-121500000D01*
X224500000Y-114500000D02*
X216500000Y-114500000D01*
X206000000Y-173500000D02*
X213500000Y-181000000D01*
X222928617Y-173410342D02*
X223667381Y-172671578D01*
X224500000Y-121000000D02*
X224500000Y-114500000D01*
X207500000Y-121500000D02*
X224000000Y-121500000D01*
X173190000Y-168000000D02*
X175350000Y-168000000D01*
X195426200Y-169606650D02*
X195801281Y-169981731D01*
X197000000Y-173500000D02*
X206000000Y-173500000D01*
X227500000Y-158500000D02*
X223500000Y-158500000D01*
X213500000Y-181000000D02*
X220500000Y-181000000D01*
X224000000Y-121500000D02*
X224500000Y-121000000D01*
%TO.N,RAW*%
X211225000Y-84300000D02*
X212600000Y-84300000D01*
%TO.N,GND*%
X209000000Y-128500000D02*
X209000000Y-126600000D01*
X214000000Y-122225000D02*
X214125000Y-122350000D01*
X213000000Y-126500000D02*
X216000000Y-123500000D01*
X225500000Y-149285949D02*
X225500000Y-142500000D01*
X219000000Y-117000000D02*
X219500000Y-116500000D01*
X214100000Y-115150000D02*
X215150000Y-115150000D01*
X214225000Y-122000000D02*
X214000000Y-122225000D01*
X212990990Y-125300000D02*
X214125000Y-124165990D01*
X227128512Y-150914461D02*
X225500000Y-149285949D01*
X215825000Y-118175000D02*
X215825000Y-119175000D01*
X220775000Y-91920000D02*
X219400000Y-91920000D01*
X209000000Y-125300000D02*
X212990990Y-125300000D01*
X217000000Y-117000000D02*
X219000000Y-117000000D01*
X216000000Y-123500000D02*
X216000000Y-122000000D01*
X220775000Y-89380000D02*
X219400000Y-89380000D01*
X216000000Y-122000000D02*
X214225000Y-122000000D01*
X220775000Y-89380000D02*
X213765000Y-89380000D01*
X227793623Y-150914461D02*
X227128512Y-150914461D01*
X215000000Y-120000000D02*
X213500000Y-120000000D01*
X215825000Y-119175000D02*
X215000000Y-120000000D01*
X211225000Y-86840000D02*
X212600000Y-86840000D01*
X217000000Y-117000000D02*
X215825000Y-118175000D01*
X215150000Y-115150000D02*
X217000000Y-117000000D01*
X213765000Y-89380000D02*
X211225000Y-86840000D01*
X207900000Y-115150000D02*
X214100000Y-115150000D01*
%TO.N,RST*%
X216500000Y-113195000D02*
X213950000Y-110645000D01*
X213950000Y-110645000D02*
X213950000Y-92105000D01*
X207900000Y-118850000D02*
X214100000Y-118850000D01*
X214100000Y-118850000D02*
X213624695Y-118850000D01*
X212000000Y-116750000D02*
X212000000Y-116500000D01*
X213624695Y-118850000D02*
X212474695Y-120000000D01*
X211225000Y-89380000D02*
X212600000Y-89380000D01*
X213950000Y-92105000D02*
X211225000Y-89380000D01*
X212474695Y-120000000D02*
X210500000Y-120000000D01*
X214100000Y-118850000D02*
X212000000Y-116750000D01*
%TO.N,VCC*%
X230017077Y-146000000D02*
X228087165Y-146000000D01*
X233200906Y-149183829D02*
X230017077Y-146000000D01*
X229828240Y-155664395D02*
X232335605Y-155664395D01*
X217000000Y-119000000D02*
X223775000Y-119000000D01*
X209000000Y-124000000D02*
X209000000Y-122225000D01*
X232335605Y-155664395D02*
X233200906Y-154799094D01*
X228819683Y-153733539D02*
X228819683Y-154655838D01*
X212500000Y-122225000D02*
X212375000Y-122350000D01*
X228087165Y-146000000D02*
X226225000Y-147862165D01*
X211225000Y-91920000D02*
X212600000Y-91920000D01*
X226225000Y-147862165D02*
X226225000Y-148362165D01*
X217000000Y-119000000D02*
X215225000Y-120775000D01*
X228819683Y-154655838D02*
X229828240Y-155664395D01*
X233200906Y-154799094D02*
X233200906Y-149183829D01*
X215225000Y-120775000D02*
X212500000Y-120775000D01*
%TO.N,P14*%
X211225000Y-107160000D02*
X212600000Y-107160000D01*
%TO.N,P16*%
X211225000Y-109700000D02*
X212600000Y-109700000D01*
%TO.N,P10*%
X211225000Y-112240000D02*
X212600000Y-112240000D01*
%TO.N,P1*%
X217800000Y-128000000D02*
X217800000Y-123400000D01*
X220775000Y-84300000D02*
X219400000Y-84300000D01*
X217800000Y-123400000D02*
X218975000Y-122225000D01*
X218975000Y-122225000D02*
X222500000Y-122225000D01*
%TO.N,P0*%
X220800000Y-123400000D02*
X222600000Y-123400000D01*
X220775000Y-86840000D02*
X219400000Y-86840000D01*
X222600000Y-123400000D02*
X223500000Y-122500000D01*
X220800000Y-128000000D02*
X220800000Y-123400000D01*
%TO.N,P8*%
X220775000Y-109700000D02*
X219400000Y-109700000D01*
%TO.N,P9*%
X220775000Y-112240000D02*
X219400000Y-112240000D01*
%TO.N,MCU1_24*%
X210500000Y-84300000D02*
X208380000Y-84300000D01*
%TO.N,MCU1_1*%
X221500000Y-84300000D02*
X223620000Y-84300000D01*
%TO.N,MCU1_23*%
X210500000Y-86840000D02*
X208380000Y-86840000D01*
%TO.N,MCU1_2*%
X221500000Y-86840000D02*
X223620000Y-86840000D01*
%TO.N,MCU1_22*%
X210500000Y-89380000D02*
X208380000Y-89380000D01*
%TO.N,MCU1_3*%
X221500000Y-89380000D02*
X223620000Y-89380000D01*
%TO.N,MCU1_21*%
X210500000Y-91920000D02*
X208380000Y-91920000D01*
%TO.N,MCU1_4*%
X221500000Y-91920000D02*
X223620000Y-91920000D01*
%TO.N,MCU1_20*%
X210500000Y-94460000D02*
X208380000Y-94460000D01*
%TO.N,MCU1_5*%
X221500000Y-94460000D02*
X223620000Y-94460000D01*
%TO.N,MCU1_19*%
X210500000Y-97000000D02*
X208380000Y-97000000D01*
%TO.N,MCU1_6*%
X223620000Y-97000000D02*
X221500000Y-97000000D01*
%TO.N,MCU1_18*%
X210500000Y-99540000D02*
X208380000Y-99540000D01*
%TO.N,MCU1_7*%
X223620000Y-99540000D02*
X221500000Y-99540000D01*
%TO.N,MCU1_17*%
X210500000Y-102080000D02*
X208380000Y-102080000D01*
%TO.N,MCU1_8*%
X223620000Y-102080000D02*
X221500000Y-102080000D01*
%TO.N,MCU1_16*%
X210500000Y-104620000D02*
X208380000Y-104620000D01*
%TO.N,MCU1_9*%
X221500000Y-104620000D02*
X223620000Y-104620000D01*
%TO.N,MCU1_15*%
X208380000Y-107160000D02*
X210500000Y-107160000D01*
%TO.N,MCU1_10*%
X221500000Y-107160000D02*
X223620000Y-107160000D01*
%TO.N,MCU1_14*%
X208380000Y-109700000D02*
X210500000Y-109700000D01*
%TO.N,MCU1_11*%
X221500000Y-109700000D02*
X223620000Y-109700000D01*
%TO.N,MCU1_13*%
X208380000Y-112240000D02*
X210500000Y-112240000D01*
%TO.N,MCU1_12*%
X221500000Y-112240000D02*
X223620000Y-112240000D01*
%TD*%
M02*
