0
SECTION
2
HEADER
9
$INSUNITS
70
4
0
ENDSEC
0
SECTION
2
TABLES
0
TABLE
2
LTYPE
0
LTYPE
72
65
70
64
2
CONTINUOUS
3
______
73
0
40
0
0
ENDTAB
0
TABLE
2
LAYER
0
ENDTAB
0
ENDSEC
0
SECTION
2
ENTITIES
0
LINE
8
0
10
224.0212781
20
-184.8563734
11
235.0672296
21
-154.507871
0
LINE
8
0
10
221.4381877
20
-186.0444439
11
207.3872493
21
-180.7628562
0
LINE
8
0
10
206.121339
20
-178.5434489
11
206.1455782
21
-178.4059819
0
LINE
8
0
10
204.5232591
20
-176.0890701
11
186.9458367
21
-172.9896963
0
LINE
8
0
10
186.6453437
20
-172.9598595
11
168.9531966
21
-172.5457206
0
LINE
8
0
10
167
20
-170.5462683
11
167
21
-161.8019643
0
LINE
8
0
10
165.0080518
20
-159.8019805
11
91.9919482
21
-159.5080195
0
LINE
8
0
10
90
20
-157.5080357
11
90
21
-85.5
0
LINE
8
0
10
92
20
-83.5
11
106.763932
21
-83.5
0
LINE
8
0
10
108.5527864
20
-82.3944272
11
109
21
-81.5
0
LINE
8
0
10
109
20
-81.5
11
125.2654092
21
-81.5
0
LINE
8
0
10
127.2453082
20
-79.7828428
11
127.7546918
21
-76.2171572
0
LINE
8
0
10
129.7345908
20
-74.5
11
144.3603921
21
-74.5
0
LINE
8
0
10
146.3215536
20
-72.8922322
11
146.6784464
21
-71.1077678
0
LINE
8
0
10
148.6396079
20
-69.5
11
165.3057459
21
-69.5
0
LINE
8
0
10
167.2785337
20
-71.171202
11
167.7214663
21
-73.828798
0
LINE
8
0
10
169.6942541
20
-75.5
11
184.763932
21
-75.5
0
LINE
8
0
10
186.5527864
20
-76.6055728
11
187
21
-77.5
0
LINE
8
0
10
187
20
-77.5
11
225
21
-77.5
0
LINE
8
0
10
227
20
-79.5
11
227
21
-127.5386726
0
LINE
8
0
10
227.0946318
20
-128.1465968
11
235.0932126
21
-153.2159066
0
ARC
8
0
10
222.1418929
20
-184.172333
40
2
50
249.3993293
51
339.9999965
0
ARC
8
0
10
208.0909545
20
-178.8907453
40
2
50
169.9999992
51
249.3993293
0
ARC
8
0
10
204.1759627
20
-178.0586856
40
2
50
349.9999992
51
79.9999992
0
ARC
8
0
10
186.5985403
20
-174.9593118
40
2
50
79.9999992
51
88.6590589
0
ARC
8
0
10
169
20
-170.5462683
40
2
50
180
51
268.6590589
0
ARC
8
0
10
165
20
-161.8019643
40
2
50
0
51
89.7693323
0
ARC
8
0
10
92
20
-157.5080357
40
2
50
180
51
269.7693323
0
ARC
8
0
10
92
20
-85.5
40
2
50
90
51
180
0
ARC
8
0
10
106.763932
20
-81.5
40
2
50
270
51
333.4349488
0
ARC
8
0
10
125.2654092
20
-79.5
40
2
50
270
51
351.8698952
0
ARC
8
0
10
129.7345908
20
-76.5
40
2
50
90
51
171.8698952
0
ARC
8
0
10
144.3603921
20
-72.5
40
2
50
270
51
348.6900698
0
ARC
8
0
10
148.6396079
20
-71.5
40
2
50
90
51
168.6900698
0
ARC
8
0
10
165.3057459
20
-71.5
40
2
50
9.4623231
51
90
0
ARC
8
0
10
169.6942541
20
-73.5
40
2
50
189.4623231
51
270
0
ARC
8
0
10
184.763932
20
-77.5
40
2
50
26.5650512
51
90
0
ARC
8
0
10
225
20
-79.5
40
2
50
0
51
90
0
ARC
8
0
10
229
20
-127.5386726
40
2
50
180
51
197.6957327
0
ARC
8
0
10
233.1878444
20
-153.8238308
40
2
50
340.0000019
51
17.6957327
0
LINE
8
0
10
223.5874066
20
-183.124621
11
231.4538699
21
-161.5116906
0
LINE
8
0
10
230.2585249
20
-158.9482652
11
218.0425208
21
-154.5020033
0
LINE
8
0
10
207.6126321
20
-177.3102788
11
215.4790954
21
-155.6973484
0
LINE
8
0
10
208.8079771
20
-179.8737042
11
221.0239812
21
-184.3199661
0
ARC
8
0
10
229.5744847
20
-160.8276504
40
2
50
340.0000019
51
70.0000019
0
ARC
8
0
10
217.3584806
20
-156.3813886
40
2
50
70.0000019
51
160.0000019
0
ARC
8
0
10
209.4920173
20
-177.994319
40
2
50
160.0000019
51
250.0000019
0
ARC
8
0
10
221.7080214
20
-182.4405808
40
2
50
250.0000019
51
340.0000019
0
LINE
8
0
10
93
20
-158.5
11
107
21
-158.5
0
LINE
8
0
10
109
20
-156.5
11
109
21
-143.5
0
LINE
8
0
10
107
20
-141.5
11
93
21
-141.5
0
LINE
8
0
10
91
20
-143.5
11
91
21
-156.5
0
LINE
8
0
10
93
20
-139.5
11
107
21
-139.5
0
LINE
8
0
10
109
20
-137.5
11
109
21
-124.5
0
LINE
8
0
10
107
20
-122.5
11
93
21
-122.5
0
LINE
8
0
10
91
20
-124.5
11
91
21
-137.5
0
LINE
8
0
10
93
20
-120.5
11
107
21
-120.5
0
LINE
8
0
10
109
20
-118.5
11
109
21
-105.5
0
LINE
8
0
10
107
20
-103.5
11
93
21
-103.5
0
LINE
8
0
10
91
20
-105.5
11
91
21
-118.5
0
LINE
8
0
10
93
20
-101.5
11
107
21
-101.5
0
LINE
8
0
10
109
20
-99.5
11
109
21
-86.5
0
LINE
8
0
10
107
20
-84.5
11
93
21
-84.5
0
LINE
8
0
10
91
20
-86.5
11
91
21
-99.5
0
LINE
8
0
10
112
20
-156.5
11
126
21
-156.5
0
LINE
8
0
10
128
20
-154.5
11
128
21
-141.5
0
LINE
8
0
10
126
20
-139.5
11
112
21
-139.5
0
LINE
8
0
10
110
20
-141.5
11
110
21
-154.5
0
LINE
8
0
10
112
20
-137.5
11
126
21
-137.5
0
LINE
8
0
10
128
20
-135.5
11
128
21
-122.5
0
LINE
8
0
10
126
20
-120.5
11
112
21
-120.5
0
LINE
8
0
10
110
20
-122.5
11
110
21
-135.5
0
LINE
8
0
10
112
20
-118.5
11
126
21
-118.5
0
LINE
8
0
10
128
20
-116.5
11
128
21
-103.5
0
LINE
8
0
10
126
20
-101.5
11
112
21
-101.5
0
LINE
8
0
10
110
20
-103.5
11
110
21
-116.5
0
LINE
8
0
10
112
20
-99.5
11
126
21
-99.5
0
LINE
8
0
10
128
20
-97.5
11
128
21
-84.5
0
LINE
8
0
10
126
20
-82.5
11
112
21
-82.5
0
LINE
8
0
10
110
20
-84.5
11
110
21
-97.5
0
LINE
8
0
10
131
20
-149.5
11
145
21
-149.5
0
LINE
8
0
10
147
20
-147.5
11
147
21
-134.5
0
LINE
8
0
10
145
20
-132.5
11
131
21
-132.5
0
LINE
8
0
10
129
20
-134.5
11
129
21
-147.5
0
LINE
8
0
10
131
20
-130.5
11
145
21
-130.5
0
LINE
8
0
10
147
20
-128.5
11
147
21
-115.5
0
LINE
8
0
10
145
20
-113.5
11
131
21
-113.5
0
LINE
8
0
10
129
20
-115.5
11
129
21
-128.5
0
LINE
8
0
10
131
20
-111.5
11
145
21
-111.5
0
LINE
8
0
10
147
20
-109.5
11
147
21
-96.5
0
LINE
8
0
10
145
20
-94.5
11
131
21
-94.5
0
LINE
8
0
10
129
20
-96.5
11
129
21
-109.5
0
LINE
8
0
10
131
20
-92.5
11
145
21
-92.5
0
LINE
8
0
10
147
20
-90.5
11
147
21
-77.5
0
LINE
8
0
10
145
20
-75.5
11
131
21
-75.5
0
LINE
8
0
10
129
20
-77.5
11
129
21
-90.5
0
LINE
8
0
10
150
20
-144.5
11
164
21
-144.5
0
LINE
8
0
10
166
20
-142.5
11
166
21
-129.5
0
LINE
8
0
10
164
20
-127.5
11
150
21
-127.5
0
LINE
8
0
10
148
20
-129.5
11
148
21
-142.5
0
LINE
8
0
10
150
20
-125.5
11
164
21
-125.5
0
LINE
8
0
10
166
20
-123.5
11
166
21
-110.5
0
LINE
8
0
10
164
20
-108.5
11
150
21
-108.5
0
LINE
8
0
10
148
20
-110.5
11
148
21
-123.5
0
LINE
8
0
10
150
20
-106.5
11
164
21
-106.5
0
LINE
8
0
10
166
20
-104.5
11
166
21
-91.5
0
LINE
8
0
10
164
20
-89.5
11
150
21
-89.5
0
LINE
8
0
10
148
20
-91.5
11
148
21
-104.5
0
LINE
8
0
10
150
20
-87.5
11
164
21
-87.5
0
LINE
8
0
10
166
20
-85.5
11
166
21
-72.5
0
LINE
8
0
10
164
20
-70.5
11
150
21
-70.5
0
LINE
8
0
10
148
20
-72.5
11
148
21
-85.5
0
LINE
8
0
10
169
20
-150.5
11
183
21
-150.5
0
LINE
8
0
10
185
20
-148.5
11
185
21
-135.5
0
LINE
8
0
10
183
20
-133.5
11
169
21
-133.5
0
LINE
8
0
10
167
20
-135.5
11
167
21
-148.5
0
LINE
8
0
10
169
20
-131.5
11
183
21
-131.5
0
LINE
8
0
10
185
20
-129.5
11
185
21
-116.5
0
LINE
8
0
10
183
20
-114.5
11
169
21
-114.5
0
LINE
8
0
10
167
20
-116.5
11
167
21
-129.5
0
LINE
8
0
10
169
20
-112.5
11
183
21
-112.5
0
LINE
8
0
10
185
20
-110.5
11
185
21
-97.5
0
LINE
8
0
10
183
20
-95.5
11
169
21
-95.5
0
LINE
8
0
10
167
20
-97.5
11
167
21
-110.5
0
LINE
8
0
10
169
20
-93.5
11
183
21
-93.5
0
LINE
8
0
10
185
20
-91.5
11
185
21
-78.5
0
LINE
8
0
10
183
20
-76.5
11
169
21
-76.5
0
LINE
8
0
10
167
20
-78.5
11
167
21
-91.5
0
LINE
8
0
10
188
20
-152.5
11
202
21
-152.5
0
LINE
8
0
10
204
20
-150.5
11
204
21
-137.5
0
LINE
8
0
10
202
20
-135.5
11
188
21
-135.5
0
LINE
8
0
10
186
20
-137.5
11
186
21
-150.5
0
LINE
8
0
10
188
20
-133.5
11
202
21
-133.5
0
LINE
8
0
10
204
20
-131.5
11
204
21
-118.5
0
LINE
8
0
10
202
20
-116.5
11
188
21
-116.5
0
LINE
8
0
10
186
20
-118.5
11
186
21
-131.5
0
LINE
8
0
10
188
20
-114.5
11
202
21
-114.5
0
LINE
8
0
10
204
20
-112.5
11
204
21
-99.5
0
LINE
8
0
10
202
20
-97.5
11
188
21
-97.5
0
LINE
8
0
10
186
20
-99.5
11
186
21
-112.5
0
LINE
8
0
10
188
20
-95.5
11
202
21
-95.5
0
LINE
8
0
10
204
20
-93.5
11
204
21
-80.5
0
LINE
8
0
10
202
20
-78.5
11
188
21
-78.5
0
LINE
8
0
10
186
20
-80.5
11
186
21
-93.5
0
LINE
8
0
10
170
20
-171.5
11
184
21
-171.5
0
LINE
8
0
10
186
20
-169.5
11
186
21
-156.5
0
LINE
8
0
10
184
20
-154.5
11
170
21
-154.5
0
LINE
8
0
10
168
20
-156.5
11
168
21
-169.5
0
LINE
8
0
10
189.9247909
20
-172.4995396
11
203.7120995
21
-174.9306141
0
LINE
8
0
10
206.0290113
20
-173.308295
11
208.2864376
21
-160.5057942
0
LINE
8
0
10
206.6641185
20
-158.1888824
11
192.8768099
21
-155.7578079
0
LINE
8
0
10
190.5598981
20
-157.380127
11
188.3024718
21
-170.1826278
0
ARC
8
0
10
204.0593958
20
-172.9609986
40
2
50
259.9999992
51
349.9999992
0
ARC
8
0
10
206.3168221
20
-160.1584979
40
2
50
349.9999992
51
79.9999992
0
ARC
8
0
10
192.5295136
20
-157.7274234
40
2
50
79.9999992
51
169.9999992
0
ARC
8
0
10
190.2720873
20
-170.5299241
40
2
50
169.9999992
51
259.9999992
0
ARC
8
0
10
107
20
-156.5
40
2
50
270
51
0
0
ARC
8
0
10
107
20
-143.5
40
2
50
0
51
90
0
ARC
8
0
10
93
20
-143.5
40
2
50
90
51
180
0
ARC
8
0
10
93
20
-156.5
40
2
50
180
51
270
0
ARC
8
0
10
107
20
-137.5
40
2
50
270
51
0
0
ARC
8
0
10
107
20
-124.5
40
2
50
0
51
90
0
ARC
8
0
10
93
20
-124.5
40
2
50
90
51
180
0
ARC
8
0
10
93
20
-137.5
40
2
50
180
51
270
0
ARC
8
0
10
107
20
-118.5
40
2
50
270
51
0
0
ARC
8
0
10
107
20
-105.5
40
2
50
0
51
90
0
ARC
8
0
10
93
20
-105.5
40
2
50
90
51
180
0
ARC
8
0
10
93
20
-118.5
40
2
50
180
51
270
0
ARC
8
0
10
107
20
-99.5
40
2
50
270
51
0
0
ARC
8
0
10
107
20
-86.5
40
2
50
0
51
90
0
ARC
8
0
10
93
20
-86.5
40
2
50
90
51
180
0
ARC
8
0
10
93
20
-99.5
40
2
50
180
51
270
0
ARC
8
0
10
126
20
-154.5
40
2
50
270
51
0
0
ARC
8
0
10
126
20
-141.5
40
2
50
0
51
90
0
ARC
8
0
10
112
20
-141.5
40
2
50
90
51
180
0
ARC
8
0
10
112
20
-154.5
40
2
50
180
51
270
0
ARC
8
0
10
126
20
-135.5
40
2
50
270
51
0
0
ARC
8
0
10
126
20
-122.5
40
2
50
0
51
90
0
ARC
8
0
10
112
20
-122.5
40
2
50
90
51
180
0
ARC
8
0
10
112
20
-135.5
40
2
50
180
51
270
0
ARC
8
0
10
126
20
-116.5
40
2
50
270
51
0
0
ARC
8
0
10
126
20
-103.5
40
2
50
0
51
90
0
ARC
8
0
10
112
20
-103.5
40
2
50
90
51
180
0
ARC
8
0
10
112
20
-116.5
40
2
50
180
51
270
0
ARC
8
0
10
126
20
-97.5
40
2
50
270
51
0
0
ARC
8
0
10
126
20
-84.5
40
2
50
0
51
90
0
ARC
8
0
10
112
20
-84.5
40
2
50
90
51
180
0
ARC
8
0
10
112
20
-97.5
40
2
50
180
51
270
0
ARC
8
0
10
145
20
-147.5
40
2
50
270
51
0
0
ARC
8
0
10
145
20
-134.5
40
2
50
0
51
90
0
ARC
8
0
10
131
20
-134.5
40
2
50
90
51
180
0
ARC
8
0
10
131
20
-147.5
40
2
50
180
51
270
0
ARC
8
0
10
145
20
-128.5
40
2
50
270
51
0
0
ARC
8
0
10
145
20
-115.5
40
2
50
0
51
90
0
ARC
8
0
10
131
20
-115.5
40
2
50
90
51
180
0
ARC
8
0
10
131
20
-128.5
40
2
50
180
51
270
0
ARC
8
0
10
145
20
-109.5
40
2
50
270
51
0
0
ARC
8
0
10
145
20
-96.5
40
2
50
0
51
90
0
ARC
8
0
10
131
20
-96.5
40
2
50
90
51
180
0
ARC
8
0
10
131
20
-109.5
40
2
50
180
51
270
0
ARC
8
0
10
145
20
-90.5
40
2
50
270
51
0
0
ARC
8
0
10
145
20
-77.5
40
2
50
0
51
90
0
ARC
8
0
10
131
20
-77.5
40
2
50
90
51
180
0
ARC
8
0
10
131
20
-90.5
40
2
50
180
51
270
0
ARC
8
0
10
164
20
-142.5
40
2
50
270
51
0
0
ARC
8
0
10
164
20
-129.5
40
2
50
0
51
90
0
ARC
8
0
10
150
20
-129.5
40
2
50
90
51
180
0
ARC
8
0
10
150
20
-142.5
40
2
50
180
51
270
0
ARC
8
0
10
164
20
-123.5
40
2
50
270
51
0
0
ARC
8
0
10
164
20
-110.5
40
2
50
0
51
90
0
ARC
8
0
10
150
20
-110.5
40
2
50
90
51
180
0
ARC
8
0
10
150
20
-123.5
40
2
50
180
51
270
0
ARC
8
0
10
164
20
-104.5
40
2
50
270
51
0
0
ARC
8
0
10
164
20
-91.5
40
2
50
0
51
90
0
ARC
8
0
10
150
20
-91.5
40
2
50
90
51
180
0
ARC
8
0
10
150
20
-104.5
40
2
50
180
51
270
0
ARC
8
0
10
164
20
-85.5
40
2
50
270
51
0
0
ARC
8
0
10
164
20
-72.5
40
2
50
0
51
90
0
ARC
8
0
10
150
20
-72.5
40
2
50
90
51
180
0
ARC
8
0
10
150
20
-85.5
40
2
50
180
51
270
0
ARC
8
0
10
183
20
-148.5
40
2
50
270
51
0
0
ARC
8
0
10
183
20
-135.5
40
2
50
0
51
90
0
ARC
8
0
10
169
20
-135.5
40
2
50
90
51
180
0
ARC
8
0
10
169
20
-148.5
40
2
50
180
51
270
0
ARC
8
0
10
183
20
-129.5
40
2
50
270
51
0
0
ARC
8
0
10
183
20
-116.5
40
2
50
0
51
90
0
ARC
8
0
10
169
20
-116.5
40
2
50
90
51
180
0
ARC
8
0
10
169
20
-129.5
40
2
50
180
51
270
0
ARC
8
0
10
183
20
-110.5
40
2
50
270
51
0
0
ARC
8
0
10
183
20
-97.5
40
2
50
0
51
90
0
ARC
8
0
10
169
20
-97.5
40
2
50
90
51
180
0
ARC
8
0
10
169
20
-110.5
40
2
50
180
51
270
0
ARC
8
0
10
183
20
-91.5
40
2
50
270
51
0
0
ARC
8
0
10
183
20
-78.5
40
2
50
0
51
90
0
ARC
8
0
10
169
20
-78.5
40
2
50
90
51
180
0
ARC
8
0
10
169
20
-91.5
40
2
50
180
51
270
0
ARC
8
0
10
202
20
-150.5
40
2
50
270
51
0
0
ARC
8
0
10
202
20
-137.5
40
2
50
0
51
90
0
ARC
8
0
10
188
20
-137.5
40
2
50
90
51
180
0
ARC
8
0
10
188
20
-150.5
40
2
50
180
51
270
0
ARC
8
0
10
202
20
-131.5
40
2
50
270
51
0
0
ARC
8
0
10
202
20
-118.5
40
2
50
0
51
90
0
ARC
8
0
10
188
20
-118.5
40
2
50
90
51
180
0
ARC
8
0
10
188
20
-131.5
40
2
50
180
51
270
0
ARC
8
0
10
202
20
-112.5
40
2
50
270
51
0
0
ARC
8
0
10
202
20
-99.5
40
2
50
0
51
90
0
ARC
8
0
10
188
20
-99.5
40
2
50
90
51
180
0
ARC
8
0
10
188
20
-112.5
40
2
50
180
51
270
0
ARC
8
0
10
202
20
-93.5
40
2
50
270
51
0
0
ARC
8
0
10
202
20
-80.5
40
2
50
0
51
90
0
ARC
8
0
10
188
20
-80.5
40
2
50
90
51
180
0
ARC
8
0
10
188
20
-93.5
40
2
50
180
51
270
0
ARC
8
0
10
184
20
-169.5
40
2
50
270
51
0
0
ARC
8
0
10
184
20
-156.5
40
2
50
0
51
90
0
ARC
8
0
10
170
20
-156.5
40
2
50
90
51
180
0
ARC
8
0
10
170
20
-169.5
40
2
50
180
51
270
0
ENDSEC
0
EOF