0
SECTION
2
HEADER
9
$INSUNITS
70
4
0
ENDSEC
0
SECTION
2
TABLES
0
TABLE
2
LTYPE
0
LTYPE
72
65
70
64
2
CONTINUOUS
3
______
73
0
40
0
0
ENDTAB
0
TABLE
2
LAYER
0
ENDTAB
0
ENDSEC
0
SECTION
2
ENTITIES
0
LINE
8
0
10
224.0212781
20
-184.8563734
11
235.0672296
21
-154.507871
0
LINE
8
0
10
221.4381877
20
-186.0444439
11
207.3872493
21
-180.7628562
0
LINE
8
0
10
206.121339
20
-178.5434489
11
206.1455782
21
-178.4059819
0
LINE
8
0
10
204.5232591
20
-176.0890701
11
186.9458367
21
-172.9896963
0
LINE
8
0
10
186.6453437
20
-172.9598595
11
168.9531966
21
-172.5457206
0
LINE
8
0
10
167
20
-170.5462683
11
167
21
-161.8019643
0
LINE
8
0
10
165.0080518
20
-159.8019805
11
91.9919482
21
-159.5080195
0
LINE
8
0
10
90
20
-157.5080357
11
90
21
-85.5
0
LINE
8
0
10
92
20
-83.5
11
106.763932
21
-83.5
0
LINE
8
0
10
108.5527864
20
-82.3944272
11
109
21
-81.5
0
LINE
8
0
10
109
20
-81.5
11
125.2654092
21
-81.5
0
LINE
8
0
10
127.2453082
20
-79.7828428
11
127.7546918
21
-76.2171572
0
LINE
8
0
10
129.7345908
20
-74.5
11
144.3603921
21
-74.5
0
LINE
8
0
10
146.3215536
20
-72.8922322
11
146.6784464
21
-71.1077678
0
LINE
8
0
10
148.6396079
20
-69.5
11
165.3057459
21
-69.5
0
LINE
8
0
10
167.2785337
20
-71.171202
11
167.7214663
21
-73.828798
0
LINE
8
0
10
169.6942541
20
-75.5
11
184.763932
21
-75.5
0
LINE
8
0
10
186.5527864
20
-76.6055728
11
187
21
-77.5
0
LINE
8
0
10
187
20
-77.5
11
225
21
-77.5
0
LINE
8
0
10
227
20
-79.5
11
227
21
-127.5386726
0
LINE
8
0
10
227.0946318
20
-128.1465968
11
235.0932126
21
-153.2159066
0
ARC
8
0
10
222.1418929
20
-184.172333
40
2
50
249.3993293
51
339.9999965
0
ARC
8
0
10
208.0909545
20
-178.8907453
40
2
50
169.9999992
51
249.3993293
0
ARC
8
0
10
204.1759627
20
-178.0586856
40
2
50
349.9999992
51
79.9999992
0
ARC
8
0
10
186.5985403
20
-174.9593118
40
2
50
79.9999992
51
88.6590589
0
ARC
8
0
10
169
20
-170.5462683
40
2
50
180
51
268.6590589
0
ARC
8
0
10
165
20
-161.8019643
40
2
50
0
51
89.7693323
0
ARC
8
0
10
92
20
-157.5080357
40
2
50
180
51
269.7693323
0
ARC
8
0
10
92
20
-85.5
40
2
50
90
51
180
0
ARC
8
0
10
106.763932
20
-81.5
40
2
50
270
51
333.4349488
0
ARC
8
0
10
125.2654092
20
-79.5
40
2
50
270
51
351.8698952
0
ARC
8
0
10
129.7345908
20
-76.5
40
2
50
90
51
171.8698952
0
ARC
8
0
10
144.3603921
20
-72.5
40
2
50
270
51
348.6900698
0
ARC
8
0
10
148.6396079
20
-71.5
40
2
50
90
51
168.6900698
0
ARC
8
0
10
165.3057459
20
-71.5
40
2
50
9.4623231
51
90
0
ARC
8
0
10
169.6942541
20
-73.5
40
2
50
189.4623231
51
270
0
ARC
8
0
10
184.763932
20
-77.5
40
2
50
26.5650512
51
90
0
ARC
8
0
10
225
20
-79.5
40
2
50
0
51
90
0
ARC
8
0
10
229
20
-127.5386726
40
2
50
180
51
197.6957327
0
ARC
8
0
10
233.1878444
20
-153.8238308
40
2
50
340.0000019
51
17.6957327
0
LINE
8
0
10
91.25
20
-158.25
11
108.75
21
-158.25
0
LINE
8
0
10
108.75
20
-158.25
11
108.75
21
-141.75
0
LINE
8
0
10
108.75
20
-141.75
11
91.25
21
-141.75
0
LINE
8
0
10
91.25
20
-141.75
11
91.25
21
-158.25
0
LINE
8
0
10
91.25
20
-139.25
11
108.75
21
-139.25
0
LINE
8
0
10
108.75
20
-139.25
11
108.75
21
-122.75
0
LINE
8
0
10
108.75
20
-122.75
11
91.25
21
-122.75
0
LINE
8
0
10
91.25
20
-122.75
11
91.25
21
-139.25
0
LINE
8
0
10
91.25
20
-120.25
11
108.75
21
-120.25
0
LINE
8
0
10
108.75
20
-120.25
11
108.75
21
-103.75
0
LINE
8
0
10
108.75
20
-103.75
11
91.25
21
-103.75
0
LINE
8
0
10
91.25
20
-103.75
11
91.25
21
-120.25
0
LINE
8
0
10
91.25
20
-101.25
11
108.75
21
-101.25
0
LINE
8
0
10
108.75
20
-101.25
11
108.75
21
-84.75
0
LINE
8
0
10
108.75
20
-84.75
11
91.25
21
-84.75
0
LINE
8
0
10
91.25
20
-84.75
11
91.25
21
-101.25
0
LINE
8
0
10
110.25
20
-156.25
11
127.75
21
-156.25
0
LINE
8
0
10
127.75
20
-156.25
11
127.75
21
-139.75
0
LINE
8
0
10
127.75
20
-139.75
11
110.25
21
-139.75
0
LINE
8
0
10
110.25
20
-139.75
11
110.25
21
-156.25
0
LINE
8
0
10
110.25
20
-137.25
11
127.75
21
-137.25
0
LINE
8
0
10
127.75
20
-137.25
11
127.75
21
-120.75
0
LINE
8
0
10
127.75
20
-120.75
11
110.25
21
-120.75
0
LINE
8
0
10
110.25
20
-120.75
11
110.25
21
-137.25
0
LINE
8
0
10
110.25
20
-118.25
11
127.75
21
-118.25
0
LINE
8
0
10
127.75
20
-118.25
11
127.75
21
-101.75
0
LINE
8
0
10
127.75
20
-101.75
11
110.25
21
-101.75
0
LINE
8
0
10
110.25
20
-101.75
11
110.25
21
-118.25
0
LINE
8
0
10
110.25
20
-99.25
11
127.75
21
-99.25
0
LINE
8
0
10
127.75
20
-99.25
11
127.75
21
-82.75
0
LINE
8
0
10
127.75
20
-82.75
11
110.25
21
-82.75
0
LINE
8
0
10
110.25
20
-82.75
11
110.25
21
-99.25
0
LINE
8
0
10
129.25
20
-149.25
11
146.75
21
-149.25
0
LINE
8
0
10
146.75
20
-149.25
11
146.75
21
-132.75
0
LINE
8
0
10
146.75
20
-132.75
11
129.25
21
-132.75
0
LINE
8
0
10
129.25
20
-132.75
11
129.25
21
-149.25
0
LINE
8
0
10
129.25
20
-130.25
11
146.75
21
-130.25
0
LINE
8
0
10
146.75
20
-130.25
11
146.75
21
-113.75
0
LINE
8
0
10
146.75
20
-113.75
11
129.25
21
-113.75
0
LINE
8
0
10
129.25
20
-113.75
11
129.25
21
-130.25
0
LINE
8
0
10
129.25
20
-111.25
11
146.75
21
-111.25
0
LINE
8
0
10
146.75
20
-111.25
11
146.75
21
-94.75
0
LINE
8
0
10
146.75
20
-94.75
11
129.25
21
-94.75
0
LINE
8
0
10
129.25
20
-94.75
11
129.25
21
-111.25
0
LINE
8
0
10
129.25
20
-92.25
11
146.75
21
-92.25
0
LINE
8
0
10
146.75
20
-92.25
11
146.75
21
-75.75
0
LINE
8
0
10
146.75
20
-75.75
11
129.25
21
-75.75
0
LINE
8
0
10
129.25
20
-75.75
11
129.25
21
-92.25
0
LINE
8
0
10
148.25
20
-144.25
11
165.75
21
-144.25
0
LINE
8
0
10
165.75
20
-144.25
11
165.75
21
-127.75
0
LINE
8
0
10
165.75
20
-127.75
11
148.25
21
-127.75
0
LINE
8
0
10
148.25
20
-127.75
11
148.25
21
-144.25
0
LINE
8
0
10
148.25
20
-125.25
11
165.75
21
-125.25
0
LINE
8
0
10
165.75
20
-125.25
11
165.75
21
-108.75
0
LINE
8
0
10
165.75
20
-108.75
11
148.25
21
-108.75
0
LINE
8
0
10
148.25
20
-108.75
11
148.25
21
-125.25
0
LINE
8
0
10
148.25
20
-106.25
11
165.75
21
-106.25
0
LINE
8
0
10
165.75
20
-106.25
11
165.75
21
-89.75
0
LINE
8
0
10
165.75
20
-89.75
11
148.25
21
-89.75
0
LINE
8
0
10
148.25
20
-89.75
11
148.25
21
-106.25
0
LINE
8
0
10
148.25
20
-87.25
11
165.75
21
-87.25
0
LINE
8
0
10
165.75
20
-87.25
11
165.75
21
-70.75
0
LINE
8
0
10
165.75
20
-70.75
11
148.25
21
-70.75
0
LINE
8
0
10
148.25
20
-70.75
11
148.25
21
-87.25
0
LINE
8
0
10
167.25
20
-150.25
11
184.75
21
-150.25
0
LINE
8
0
10
184.75
20
-150.25
11
184.75
21
-133.75
0
LINE
8
0
10
184.75
20
-133.75
11
167.25
21
-133.75
0
LINE
8
0
10
167.25
20
-133.75
11
167.25
21
-150.25
0
LINE
8
0
10
167.25
20
-131.25
11
184.75
21
-131.25
0
LINE
8
0
10
184.75
20
-131.25
11
184.75
21
-114.75
0
LINE
8
0
10
184.75
20
-114.75
11
167.25
21
-114.75
0
LINE
8
0
10
167.25
20
-114.75
11
167.25
21
-131.25
0
LINE
8
0
10
167.25
20
-112.25
11
184.75
21
-112.25
0
LINE
8
0
10
184.75
20
-112.25
11
184.75
21
-95.75
0
LINE
8
0
10
184.75
20
-95.75
11
167.25
21
-95.75
0
LINE
8
0
10
167.25
20
-95.75
11
167.25
21
-112.25
0
LINE
8
0
10
167.25
20
-93.25
11
184.75
21
-93.25
0
LINE
8
0
10
184.75
20
-93.25
11
184.75
21
-76.75
0
LINE
8
0
10
184.75
20
-76.75
11
167.25
21
-76.75
0
LINE
8
0
10
167.25
20
-76.75
11
167.25
21
-93.25
0
LINE
8
0
10
186.25
20
-152.25
11
203.75
21
-152.25
0
LINE
8
0
10
203.75
20
-152.25
11
203.75
21
-135.75
0
LINE
8
0
10
203.75
20
-135.75
11
186.25
21
-135.75
0
LINE
8
0
10
186.25
20
-135.75
11
186.25
21
-152.25
0
LINE
8
0
10
186.25
20
-133.25
11
203.75
21
-133.25
0
LINE
8
0
10
203.75
20
-133.25
11
203.75
21
-116.75
0
LINE
8
0
10
203.75
20
-116.75
11
186.25
21
-116.75
0
LINE
8
0
10
186.25
20
-116.75
11
186.25
21
-133.25
0
LINE
8
0
10
186.25
20
-114.25
11
203.75
21
-114.25
0
LINE
8
0
10
203.75
20
-114.25
11
203.75
21
-97.75
0
LINE
8
0
10
203.75
20
-97.75
11
186.25
21
-97.75
0
LINE
8
0
10
186.25
20
-97.75
11
186.25
21
-114.25
0
LINE
8
0
10
186.25
20
-95.25
11
203.75
21
-95.25
0
LINE
8
0
10
203.75
20
-95.25
11
203.75
21
-78.75
0
LINE
8
0
10
203.75
20
-78.75
11
186.25
21
-78.75
0
LINE
8
0
10
186.25
20
-78.75
11
186.25
21
-95.25
0
LINE
8
0
10
168.25
20
-171.25
11
185.75
21
-171.25
0
LINE
8
0
10
185.75
20
-171.25
11
185.75
21
-154.75
0
LINE
8
0
10
185.75
20
-154.75
11
168.25
21
-154.75
0
LINE
8
0
10
168.25
20
-154.75
11
168.25
21
-171.25
0
LINE
8
0
10
188.2447894
20
-171.9494534
11
205.4789251
21
-174.9882965
0
LINE
8
0
10
205.4789251
20
-174.9882965
11
208.34412
21
-158.7389686
0
LINE
8
0
10
208.34412
20
-158.7389686
11
191.1099843
21
-155.7001255
0
LINE
8
0
10
191.1099843
20
-155.7001255
11
188.2447894
21
-171.9494534
0
LINE
8
0
10
224.2930389
20
-180.4549613
11
230.2783914
21
-164.0103405
0
LINE
8
0
10
230.2783914
20
-164.0103405
11
214.7734631
21
-158.3670081
0
LINE
8
0
10
214.7734631
20
-158.3670081
11
208.7881106
21
-174.8116289
0
LINE
8
0
10
208.7881106
20
-174.8116289
11
224.2930389
21
-180.4549613
0
ENDSEC
0
EOF