0
SECTION
2
HEADER
9
$INSUNITS
70
4
0
ENDSEC
0
SECTION
2
TABLES
0
TABLE
2
LTYPE
0
LTYPE
72
65
70
64
2
CONTINUOUS
3
______
73
0
40
0
0
ENDTAB
0
TABLE
2
LAYER
0
ENDTAB
0
ENDSEC
0
SECTION
2
ENTITIES
0
LINE
8
0
10
93.1
20
-156.9
11
106.9
21
-156.9
0
LINE
8
0
10
106.9
20
-156.9
11
106.9
21
-143.1
0
LINE
8
0
10
106.9
20
-143.1
11
93.1
21
-143.1
0
LINE
8
0
10
93.1
20
-143.1
11
93.1
21
-156.9
0
LINE
8
0
10
93.1
20
-137.9
11
106.9
21
-137.9
0
LINE
8
0
10
106.9
20
-137.9
11
106.9
21
-124.1
0
LINE
8
0
10
106.9
20
-124.1
11
93.1
21
-124.1
0
LINE
8
0
10
93.1
20
-124.1
11
93.1
21
-137.9
0
LINE
8
0
10
93.1
20
-118.9
11
106.9
21
-118.9
0
LINE
8
0
10
106.9
20
-118.9
11
106.9
21
-105.1
0
LINE
8
0
10
106.9
20
-105.1
11
93.1
21
-105.1
0
LINE
8
0
10
93.1
20
-105.1
11
93.1
21
-118.9
0
LINE
8
0
10
93.1
20
-99.9
11
106.9
21
-99.9
0
LINE
8
0
10
106.9
20
-99.9
11
106.9
21
-86.1
0
LINE
8
0
10
106.9
20
-86.1
11
93.1
21
-86.1
0
LINE
8
0
10
93.1
20
-86.1
11
93.1
21
-99.9
0
LINE
8
0
10
112.1
20
-154.9
11
125.9
21
-154.9
0
LINE
8
0
10
125.9
20
-154.9
11
125.9
21
-141.1
0
LINE
8
0
10
125.9
20
-141.1
11
112.1
21
-141.1
0
LINE
8
0
10
112.1
20
-141.1
11
112.1
21
-154.9
0
LINE
8
0
10
112.1
20
-135.9
11
125.9
21
-135.9
0
LINE
8
0
10
125.9
20
-135.9
11
125.9
21
-122.1
0
LINE
8
0
10
125.9
20
-122.1
11
112.1
21
-122.1
0
LINE
8
0
10
112.1
20
-122.1
11
112.1
21
-135.9
0
LINE
8
0
10
112.1
20
-116.9
11
125.9
21
-116.9
0
LINE
8
0
10
125.9
20
-116.9
11
125.9
21
-103.1
0
LINE
8
0
10
125.9
20
-103.1
11
112.1
21
-103.1
0
LINE
8
0
10
112.1
20
-103.1
11
112.1
21
-116.9
0
LINE
8
0
10
112.1
20
-97.9
11
125.9
21
-97.9
0
LINE
8
0
10
125.9
20
-97.9
11
125.9
21
-84.1
0
LINE
8
0
10
125.9
20
-84.1
11
112.1
21
-84.1
0
LINE
8
0
10
112.1
20
-84.1
11
112.1
21
-97.9
0
LINE
8
0
10
131.1
20
-147.9
11
144.9
21
-147.9
0
LINE
8
0
10
144.9
20
-147.9
11
144.9
21
-134.1
0
LINE
8
0
10
144.9
20
-134.1
11
131.1
21
-134.1
0
LINE
8
0
10
131.1
20
-134.1
11
131.1
21
-147.9
0
LINE
8
0
10
131.1
20
-128.9
11
144.9
21
-128.9
0
LINE
8
0
10
144.9
20
-128.9
11
144.9
21
-115.1
0
LINE
8
0
10
144.9
20
-115.1
11
131.1
21
-115.1
0
LINE
8
0
10
131.1
20
-115.1
11
131.1
21
-128.9
0
LINE
8
0
10
131.1
20
-109.9
11
144.9
21
-109.9
0
LINE
8
0
10
144.9
20
-109.9
11
144.9
21
-96.1
0
LINE
8
0
10
144.9
20
-96.1
11
131.1
21
-96.1
0
LINE
8
0
10
131.1
20
-96.1
11
131.1
21
-109.9
0
LINE
8
0
10
131.1
20
-90.9
11
144.9
21
-90.9
0
LINE
8
0
10
144.9
20
-90.9
11
144.9
21
-77.1
0
LINE
8
0
10
144.9
20
-77.1
11
131.1
21
-77.1
0
LINE
8
0
10
131.1
20
-77.1
11
131.1
21
-90.9
0
LINE
8
0
10
150.1
20
-142.9
11
163.9
21
-142.9
0
LINE
8
0
10
163.9
20
-142.9
11
163.9
21
-129.1
0
LINE
8
0
10
163.9
20
-129.1
11
150.1
21
-129.1
0
LINE
8
0
10
150.1
20
-129.1
11
150.1
21
-142.9
0
LINE
8
0
10
150.1
20
-123.9
11
163.9
21
-123.9
0
LINE
8
0
10
163.9
20
-123.9
11
163.9
21
-110.1
0
LINE
8
0
10
163.9
20
-110.1
11
150.1
21
-110.1
0
LINE
8
0
10
150.1
20
-110.1
11
150.1
21
-123.9
0
LINE
8
0
10
150.1
20
-104.9
11
163.9
21
-104.9
0
LINE
8
0
10
163.9
20
-104.9
11
163.9
21
-91.1
0
LINE
8
0
10
163.9
20
-91.1
11
150.1
21
-91.1
0
LINE
8
0
10
150.1
20
-91.1
11
150.1
21
-104.9
0
LINE
8
0
10
150.1
20
-85.9
11
163.9
21
-85.9
0
LINE
8
0
10
163.9
20
-85.9
11
163.9
21
-72.1
0
LINE
8
0
10
163.9
20
-72.1
11
150.1
21
-72.1
0
LINE
8
0
10
150.1
20
-72.1
11
150.1
21
-85.9
0
LINE
8
0
10
169.1
20
-148.9
11
182.9
21
-148.9
0
LINE
8
0
10
182.9
20
-148.9
11
182.9
21
-135.1
0
LINE
8
0
10
182.9
20
-135.1
11
169.1
21
-135.1
0
LINE
8
0
10
169.1
20
-135.1
11
169.1
21
-148.9
0
LINE
8
0
10
169.1
20
-129.9
11
182.9
21
-129.9
0
LINE
8
0
10
182.9
20
-129.9
11
182.9
21
-116.1
0
LINE
8
0
10
182.9
20
-116.1
11
169.1
21
-116.1
0
LINE
8
0
10
169.1
20
-116.1
11
169.1
21
-129.9
0
LINE
8
0
10
169.1
20
-110.9
11
182.9
21
-110.9
0
LINE
8
0
10
182.9
20
-110.9
11
182.9
21
-97.1
0
LINE
8
0
10
182.9
20
-97.1
11
169.1
21
-97.1
0
LINE
8
0
10
169.1
20
-97.1
11
169.1
21
-110.9
0
LINE
8
0
10
169.1
20
-91.9
11
182.9
21
-91.9
0
LINE
8
0
10
182.9
20
-91.9
11
182.9
21
-78.1
0
LINE
8
0
10
182.9
20
-78.1
11
169.1
21
-78.1
0
LINE
8
0
10
169.1
20
-78.1
11
169.1
21
-91.9
0
LINE
8
0
10
188.1
20
-150.9
11
201.9
21
-150.9
0
LINE
8
0
10
201.9
20
-150.9
11
201.9
21
-137.1
0
LINE
8
0
10
201.9
20
-137.1
11
188.1
21
-137.1
0
LINE
8
0
10
188.1
20
-137.1
11
188.1
21
-150.9
0
LINE
8
0
10
188.1
20
-131.9
11
201.9
21
-131.9
0
LINE
8
0
10
201.9
20
-131.9
11
201.9
21
-118.1
0
LINE
8
0
10
201.9
20
-118.1
11
188.1
21
-118.1
0
LINE
8
0
10
188.1
20
-118.1
11
188.1
21
-131.9
0
LINE
8
0
10
188.1
20
-112.9
11
201.9
21
-112.9
0
LINE
8
0
10
201.9
20
-112.9
11
201.9
21
-99.1
0
LINE
8
0
10
201.9
20
-99.1
11
188.1
21
-99.1
0
LINE
8
0
10
188.1
20
-99.1
11
188.1
21
-112.9
0
LINE
8
0
10
188.1
20
-93.9
11
201.9
21
-93.9
0
LINE
8
0
10
201.9
20
-93.9
11
201.9
21
-80.1
0
LINE
8
0
10
201.9
20
-80.1
11
188.1
21
-80.1
0
LINE
8
0
10
188.1
20
-80.1
11
188.1
21
-93.9
0
LINE
8
0
10
170.1
20
-169.9
11
183.9
21
-169.9
0
LINE
8
0
10
183.9
20
-169.9
11
183.9
21
-156.1
0
LINE
8
0
10
183.9
20
-156.1
11
170.1
21
-156.1
0
LINE
8
0
10
170.1
20
-156.1
11
170.1
21
-169.9
0
LINE
8
0
10
190.3011088
20
-170.9412121
11
203.8914558
21
-173.3375569
0
LINE
8
0
10
203.8914558
20
-173.3375569
11
206.2878006
21
-159.7472099
0
LINE
8
0
10
206.2878006
20
-159.7472099
11
192.6974536
21
-157.3508651
0
LINE
8
0
10
192.6974536
20
-157.3508651
11
190.3011088
21
-170.9412121
0
LINE
8
0
10
223.6571911
20
-178.2548028
11
228.3770691
21
-165.2870446
0
LINE
8
0
10
228.3770691
20
-165.2870446
11
215.4093109
21
-160.5671666
0
LINE
8
0
10
215.4093109
20
-160.5671666
11
210.6894329
21
-173.5349248
0
LINE
8
0
10
210.6894329
20
-173.5349248
11
223.6571911
21
-178.2548028
0
ENDSEC
0
EOF