0
SECTION
2
HEADER
9
$INSUNITS
70
4
0
ENDSEC
0
SECTION
2
TABLES
0
TABLE
2
LTYPE
0
LTYPE
72
65
70
64
2
CONTINUOUS
3
______
73
0
40
0
0
ENDTAB
0
TABLE
2
LAYER
0
ENDTAB
0
ENDSEC
0
SECTION
2
ENTITIES
0
LINE
8
0
10
91.25
20
-158.25
11
108.75
21
-158.25
0
LINE
8
0
10
108.75
20
-158.25
11
108.75
21
-141.75
0
LINE
8
0
10
108.75
20
-141.75
11
91.25
21
-141.75
0
LINE
8
0
10
91.25
20
-141.75
11
91.25
21
-158.25
0
LINE
8
0
10
91.25
20
-139.25
11
108.75
21
-139.25
0
LINE
8
0
10
108.75
20
-139.25
11
108.75
21
-122.75
0
LINE
8
0
10
108.75
20
-122.75
11
91.25
21
-122.75
0
LINE
8
0
10
91.25
20
-122.75
11
91.25
21
-139.25
0
LINE
8
0
10
91.25
20
-120.25
11
108.75
21
-120.25
0
LINE
8
0
10
108.75
20
-120.25
11
108.75
21
-103.75
0
LINE
8
0
10
108.75
20
-103.75
11
91.25
21
-103.75
0
LINE
8
0
10
91.25
20
-103.75
11
91.25
21
-120.25
0
LINE
8
0
10
91.25
20
-101.25
11
108.75
21
-101.25
0
LINE
8
0
10
108.75
20
-101.25
11
108.75
21
-84.75
0
LINE
8
0
10
108.75
20
-84.75
11
91.25
21
-84.75
0
LINE
8
0
10
91.25
20
-84.75
11
91.25
21
-101.25
0
LINE
8
0
10
110.25
20
-156.25
11
127.75
21
-156.25
0
LINE
8
0
10
127.75
20
-156.25
11
127.75
21
-139.75
0
LINE
8
0
10
127.75
20
-139.75
11
110.25
21
-139.75
0
LINE
8
0
10
110.25
20
-139.75
11
110.25
21
-156.25
0
LINE
8
0
10
110.25
20
-137.25
11
127.75
21
-137.25
0
LINE
8
0
10
127.75
20
-137.25
11
127.75
21
-120.75
0
LINE
8
0
10
127.75
20
-120.75
11
110.25
21
-120.75
0
LINE
8
0
10
110.25
20
-120.75
11
110.25
21
-137.25
0
LINE
8
0
10
110.25
20
-118.25
11
127.75
21
-118.25
0
LINE
8
0
10
127.75
20
-118.25
11
127.75
21
-101.75
0
LINE
8
0
10
127.75
20
-101.75
11
110.25
21
-101.75
0
LINE
8
0
10
110.25
20
-101.75
11
110.25
21
-118.25
0
LINE
8
0
10
110.25
20
-99.25
11
127.75
21
-99.25
0
LINE
8
0
10
127.75
20
-99.25
11
127.75
21
-82.75
0
LINE
8
0
10
127.75
20
-82.75
11
110.25
21
-82.75
0
LINE
8
0
10
110.25
20
-82.75
11
110.25
21
-99.25
0
LINE
8
0
10
129.25
20
-149.25
11
146.75
21
-149.25
0
LINE
8
0
10
146.75
20
-149.25
11
146.75
21
-132.75
0
LINE
8
0
10
146.75
20
-132.75
11
129.25
21
-132.75
0
LINE
8
0
10
129.25
20
-132.75
11
129.25
21
-149.25
0
LINE
8
0
10
129.25
20
-130.25
11
146.75
21
-130.25
0
LINE
8
0
10
146.75
20
-130.25
11
146.75
21
-113.75
0
LINE
8
0
10
146.75
20
-113.75
11
129.25
21
-113.75
0
LINE
8
0
10
129.25
20
-113.75
11
129.25
21
-130.25
0
LINE
8
0
10
129.25
20
-111.25
11
146.75
21
-111.25
0
LINE
8
0
10
146.75
20
-111.25
11
146.75
21
-94.75
0
LINE
8
0
10
146.75
20
-94.75
11
129.25
21
-94.75
0
LINE
8
0
10
129.25
20
-94.75
11
129.25
21
-111.25
0
LINE
8
0
10
129.25
20
-92.25
11
146.75
21
-92.25
0
LINE
8
0
10
146.75
20
-92.25
11
146.75
21
-75.75
0
LINE
8
0
10
146.75
20
-75.75
11
129.25
21
-75.75
0
LINE
8
0
10
129.25
20
-75.75
11
129.25
21
-92.25
0
LINE
8
0
10
148.25
20
-144.25
11
165.75
21
-144.25
0
LINE
8
0
10
165.75
20
-144.25
11
165.75
21
-127.75
0
LINE
8
0
10
165.75
20
-127.75
11
148.25
21
-127.75
0
LINE
8
0
10
148.25
20
-127.75
11
148.25
21
-144.25
0
LINE
8
0
10
148.25
20
-125.25
11
165.75
21
-125.25
0
LINE
8
0
10
165.75
20
-125.25
11
165.75
21
-108.75
0
LINE
8
0
10
165.75
20
-108.75
11
148.25
21
-108.75
0
LINE
8
0
10
148.25
20
-108.75
11
148.25
21
-125.25
0
LINE
8
0
10
148.25
20
-106.25
11
165.75
21
-106.25
0
LINE
8
0
10
165.75
20
-106.25
11
165.75
21
-89.75
0
LINE
8
0
10
165.75
20
-89.75
11
148.25
21
-89.75
0
LINE
8
0
10
148.25
20
-89.75
11
148.25
21
-106.25
0
LINE
8
0
10
148.25
20
-87.25
11
165.75
21
-87.25
0
LINE
8
0
10
165.75
20
-87.25
11
165.75
21
-70.75
0
LINE
8
0
10
165.75
20
-70.75
11
148.25
21
-70.75
0
LINE
8
0
10
148.25
20
-70.75
11
148.25
21
-87.25
0
LINE
8
0
10
167.25
20
-150.25
11
184.75
21
-150.25
0
LINE
8
0
10
184.75
20
-150.25
11
184.75
21
-133.75
0
LINE
8
0
10
184.75
20
-133.75
11
167.25
21
-133.75
0
LINE
8
0
10
167.25
20
-133.75
11
167.25
21
-150.25
0
LINE
8
0
10
167.25
20
-131.25
11
184.75
21
-131.25
0
LINE
8
0
10
184.75
20
-131.25
11
184.75
21
-114.75
0
LINE
8
0
10
184.75
20
-114.75
11
167.25
21
-114.75
0
LINE
8
0
10
167.25
20
-114.75
11
167.25
21
-131.25
0
LINE
8
0
10
167.25
20
-112.25
11
184.75
21
-112.25
0
LINE
8
0
10
184.75
20
-112.25
11
184.75
21
-95.75
0
LINE
8
0
10
184.75
20
-95.75
11
167.25
21
-95.75
0
LINE
8
0
10
167.25
20
-95.75
11
167.25
21
-112.25
0
LINE
8
0
10
167.25
20
-93.25
11
184.75
21
-93.25
0
LINE
8
0
10
184.75
20
-93.25
11
184.75
21
-76.75
0
LINE
8
0
10
184.75
20
-76.75
11
167.25
21
-76.75
0
LINE
8
0
10
167.25
20
-76.75
11
167.25
21
-93.25
0
LINE
8
0
10
186.25
20
-152.25
11
203.75
21
-152.25
0
LINE
8
0
10
203.75
20
-152.25
11
203.75
21
-135.75
0
LINE
8
0
10
203.75
20
-135.75
11
186.25
21
-135.75
0
LINE
8
0
10
186.25
20
-135.75
11
186.25
21
-152.25
0
LINE
8
0
10
186.25
20
-133.25
11
203.75
21
-133.25
0
LINE
8
0
10
203.75
20
-133.25
11
203.75
21
-116.75
0
LINE
8
0
10
203.75
20
-116.75
11
186.25
21
-116.75
0
LINE
8
0
10
186.25
20
-116.75
11
186.25
21
-133.25
0
LINE
8
0
10
186.25
20
-114.25
11
203.75
21
-114.25
0
LINE
8
0
10
203.75
20
-114.25
11
203.75
21
-97.75
0
LINE
8
0
10
203.75
20
-97.75
11
186.25
21
-97.75
0
LINE
8
0
10
186.25
20
-97.75
11
186.25
21
-114.25
0
LINE
8
0
10
186.25
20
-95.25
11
203.75
21
-95.25
0
LINE
8
0
10
203.75
20
-95.25
11
203.75
21
-78.75
0
LINE
8
0
10
203.75
20
-78.75
11
186.25
21
-78.75
0
LINE
8
0
10
186.25
20
-78.75
11
186.25
21
-95.25
0
LINE
8
0
10
168.25
20
-171.25
11
185.75
21
-171.25
0
LINE
8
0
10
185.75
20
-171.25
11
185.75
21
-154.75
0
LINE
8
0
10
185.75
20
-154.75
11
168.25
21
-154.75
0
LINE
8
0
10
168.25
20
-154.75
11
168.25
21
-171.25
0
LINE
8
0
10
188.2447894
20
-171.9494534
11
205.4789251
21
-174.9882965
0
LINE
8
0
10
205.4789251
20
-174.9882965
11
208.34412
21
-158.7389686
0
LINE
8
0
10
208.34412
20
-158.7389686
11
191.1099843
21
-155.7001255
0
LINE
8
0
10
191.1099843
20
-155.7001255
11
188.2447894
21
-171.9494534
0
LINE
8
0
10
224.2930389
20
-180.4549613
11
230.2783914
21
-164.0103405
0
LINE
8
0
10
230.2783914
20
-164.0103405
11
214.7734631
21
-158.3670081
0
LINE
8
0
10
214.7734631
20
-158.3670081
11
208.7881106
21
-174.8116289
0
LINE
8
0
10
208.7881106
20
-174.8116289
11
224.2930389
21
-180.4549613
0
ENDSEC
0
EOF