0
SECTION
2
HEADER
9
$INSUNITS
70
4
0
ENDSEC
0
SECTION
2
TABLES
0
TABLE
2
LTYPE
0
LTYPE
72
65
70
64
2
CONTINUOUS
3
______
73
0
40
0
0
ENDTAB
0
TABLE
2
LAYER
0
ENDTAB
0
ENDSEC
0
SECTION
2
ENTITIES
0
LINE
8
0
10
224.0212781
20
-184.8563734
11
232.9140977
21
-160.4235522
0
LINE
8
0
10
221.4381877
20
-186.0444439
11
207.3872493
21
-180.7628562
0
LINE
8
0
10
206.121339
20
-178.5434489
11
206.1455782
21
-178.4059819
0
LINE
8
0
10
204.5232591
20
-176.0890701
11
186.9458367
21
-172.9896963
0
LINE
8
0
10
186.6453437
20
-172.9598595
11
168.9531966
21
-172.5457206
0
LINE
8
0
10
167
20
-170.5462683
11
167
21
-161.8019643
0
LINE
8
0
10
165.0080518
20
-159.8019805
11
91.9919482
21
-159.5080195
0
LINE
8
0
10
90
20
-157.5080357
11
90
21
-85.5
0
LINE
8
0
10
92
20
-83.5
11
106.763932
21
-83.5
0
LINE
8
0
10
108.5527864
20
-82.3944272
11
109
21
-81.5
0
LINE
8
0
10
109
20
-81.5
11
125.2654092
21
-81.5
0
LINE
8
0
10
127.2453082
20
-79.7828428
11
127.7546918
21
-76.2171572
0
LINE
8
0
10
129.7345908
20
-74.5
11
144.3603921
21
-74.5
0
LINE
8
0
10
146.3215536
20
-72.8922322
11
146.6784464
21
-71.1077678
0
LINE
8
0
10
148.6396079
20
-69.5
11
165.3057459
21
-69.5
0
LINE
8
0
10
167.2785337
20
-71.171202
11
167.7214663
21
-73.828798
0
LINE
8
0
10
169.6942541
20
-75.5
11
184.763932
21
-75.5
0
LINE
8
0
10
186.5527864
20
-76.6055728
11
187
21
-77.5
0
LINE
8
0
10
187
20
-77.5
11
203
21
-77.5
0
LINE
8
0
10
205
20
-79.5
11
205
21
-146.4159626
0
LINE
8
0
10
206.2952686
20
-148.2876874
11
231.7394439
21
-157.8677872
0
ARC
8
0
10
222.1418929
20
-184.172333
40
2
50
249.3993293
51
339.9999965
0
ARC
8
0
10
208.0909545
20
-178.8907453
40
2
50
169.9999992
51
249.3993293
0
ARC
8
0
10
204.1759627
20
-178.0586856
40
2
50
349.9999992
51
79.9999992
0
ARC
8
0
10
186.5985403
20
-174.9593118
40
2
50
79.9999992
51
88.6590589
0
ARC
8
0
10
169
20
-170.5462683
40
2
50
180
51
268.6590589
0
ARC
8
0
10
165
20
-161.8019643
40
2
50
0
51
89.7693323
0
ARC
8
0
10
92
20
-157.5080357
40
2
50
180
51
269.7693323
0
ARC
8
0
10
92
20
-85.5
40
2
50
90
51
180
0
ARC
8
0
10
106.763932
20
-81.5
40
2
50
270
51
333.4349488
0
ARC
8
0
10
125.2654092
20
-79.5
40
2
50
270
51
351.8698952
0
ARC
8
0
10
129.7345908
20
-76.5
40
2
50
90
51
171.8698952
0
ARC
8
0
10
144.3603921
20
-72.5
40
2
50
270
51
348.6900698
0
ARC
8
0
10
148.6396079
20
-71.5
40
2
50
90
51
168.6900698
0
ARC
8
0
10
165.3057459
20
-71.5
40
2
50
9.4623231
51
90
0
ARC
8
0
10
169.6942541
20
-73.5
40
2
50
189.4623231
51
270
0
ARC
8
0
10
184.763932
20
-77.5
40
2
50
26.5650512
51
90
0
ARC
8
0
10
203
20
-79.5
40
2
50
0
51
90
0
ARC
8
0
10
207
20
-146.4159626
40
2
50
180
51
249.3679199
0
ARC
8
0
10
231.0347125
20
-159.739512
40
2
50
340.0000019
51
69.3679199
0
ENDSEC
0
EOF