0
SECTION
2
HEADER
9
$INSUNITS
70
4
0
ENDSEC
0
SECTION
2
TABLES
0
TABLE
2
LTYPE
0
LTYPE
72
65
70
64
2
CONTINUOUS
3
______
73
0
40
0
0
ENDTAB
0
TABLE
2
LAYER
0
ENDTAB
0
ENDSEC
0
SECTION
2
ENTITIES
0
LINE
8
0
10
90
20
-159.5
11
110
21
-159.5
0
LINE
8
0
10
110
20
-159.5
11
110
21
-157.5
0
LINE
8
0
10
90
20
-159.5
11
90
21
-83.5
0
LINE
8
0
10
109
20
-83.5
11
90
21
-83.5
0
LINE
8
0
10
110
20
-157.5
11
129
21
-157.5
0
LINE
8
0
10
129
20
-157.5
11
129
21
-150.5
0
LINE
8
0
10
128
20
-81.5
11
109
21
-81.5
0
LINE
8
0
10
109
20
-81.5
11
109
21
-83.5
0
LINE
8
0
10
129
20
-150.5
11
148
21
-150.5
0
LINE
8
0
10
148
20
-150.5
11
148
21
-145.5
0
LINE
8
0
10
147
20
-74.5
11
128
21
-74.5
0
LINE
8
0
10
128
20
-74.5
11
128
21
-81.5
0
LINE
8
0
10
148
20
-145.5
11
166
21
-145.5
0
LINE
8
0
10
167
20
-75.5
11
167
21
-69.5
0
LINE
8
0
10
167
20
-69.5
11
147
21
-69.5
0
LINE
8
0
10
147
20
-69.5
11
147
21
-74.5
0
LINE
8
0
10
166
20
-151.5
11
185
21
-151.5
0
LINE
8
0
10
166
20
-145.5
11
166
21
-151.5
0
LINE
8
0
10
186
20
-77.5
11
186
21
-75.5
0
LINE
8
0
10
186
20
-75.5
11
167
21
-75.5
0
LINE
8
0
10
187
20
-153.5
11
205
21
-153.5
0
LINE
8
0
10
205
20
-153.5
11
205
21
-77.5
0
LINE
8
0
10
185
20
-151.5
11
185
21
-153.5
0
LINE
8
0
10
205
20
-77.5
11
186
21
-77.5
0
LINE
8
0
10
167
20
-172.5
11
186.8784299
21
-172.5
0
LINE
8
0
10
187
20
-171.8105419
11
187
21
-153.5
0
LINE
8
0
10
185
20
-153.5
11
167
21
-153.5
0
LINE
8
0
10
167
20
-153.5
11
167
21
-172.5
0
LINE
8
0
10
186.7967195
20
-172.9634029
11
206.4928745
21
-176.4363664
0
LINE
8
0
10
206.4928745
20
-176.4363664
11
209.7921899
21
-157.7250191
0
LINE
8
0
10
209.7921899
20
-157.7250191
11
190.0960349
21
-154.2520556
0
LINE
8
0
10
190.0960349
20
-154.2520556
11
187
21
-171.8105419
0
LINE
8
0
10
186.8784299
20
-172.5
11
186.7967195
21
-172.9634029
0
LINE
8
0
10
225.0401295
20
-182.0571023
11
231.8805323
21
-163.2632499
0
LINE
8
0
10
231.8805323
20
-163.2632499
11
214.0263725
21
-156.7648671
0
LINE
8
0
10
214.0263725
20
-156.7648671
11
207.1859697
21
-175.5587195
0
LINE
8
0
10
207.1859697
20
-175.5587195
11
225.0401295
21
-182.0571023
0
ENDSEC
0
EOF