%TF.GenerationSoftware,KiCad,Pcbnew,8.0.5-8.0.5-0~ubuntu20.04.1*%
%TF.CreationDate,2024-10-04T15:10:35+02:00*%
%TF.ProjectId,switchplate,73776974-6368-4706-9c61-74652e6b6963,v1.0.0*%
%TF.SameCoordinates,Original*%
%TF.FileFunction,Profile,NP*%
%FSLAX46Y46*%
G04 Gerber Fmt 4.6, Leading zero omitted, Abs format (unit mm)*
G04 Created by KiCad (PCBNEW 8.0.5-8.0.5-0~ubuntu20.04.1) date 2024-10-04 15:10:35*
%MOMM*%
%LPD*%
G01*
G04 APERTURE LIST*
%TA.AperFunction,Profile*%
%ADD10C,0.150000*%
%TD*%
G04 APERTURE END LIST*
D10*
X223806352Y-184970018D02*
X231715284Y-163240405D01*
X221324329Y-186193025D02*
X206983418Y-181661216D01*
X205616440Y-179406872D02*
X205624634Y-179360405D01*
X204002314Y-177043493D02*
X186426606Y-173944422D01*
X186122652Y-173914507D02*
X168573417Y-173534106D01*
X166663117Y-171962693D02*
X164342985Y-161375153D01*
X162397721Y-159803288D02*
X91991622Y-159508343D01*
X90000000Y-157508361D02*
X90000000Y-88500000D01*
X92000000Y-86500000D02*
X106763932Y-86500000D01*
X108552786Y-85394427D02*
X109000000Y-84500000D01*
X109000000Y-84500000D02*
X125265409Y-84500000D01*
X127245308Y-82782843D02*
X127754692Y-79217157D01*
X129734591Y-77500000D02*
X144360392Y-77500000D01*
X146321554Y-75892232D02*
X146678446Y-74107768D01*
X148639608Y-72500000D02*
X165305746Y-72500000D01*
X167278534Y-74171202D02*
X167721466Y-76828798D01*
X169694254Y-78500000D02*
X184763932Y-78500000D01*
X186552786Y-79605573D02*
X187000000Y-80500000D01*
X187000000Y-80500000D02*
X203000000Y-80500000D01*
X205000000Y-82500000D02*
X205000000Y-149429471D01*
X206278148Y-151294660D02*
X230557751Y-160691176D01*
X223806352Y-184970019D02*
G75*
G02*
X221324329Y-186193025I-1879385J684041D01*
G01*
X206983418Y-181661216D02*
G75*
G02*
X205616440Y-179406872I602638J1907047D01*
G01*
X204002314Y-177043493D02*
G75*
G02*
X205624634Y-179360405I-347296J-1969616D01*
G01*
X186122653Y-173914507D02*
G75*
G02*
X186426607Y-173944422I-43343J-1999530D01*
G01*
X168573417Y-173534106D02*
G75*
G02*
X166663117Y-171962693I43342J1999531D01*
G01*
X162397722Y-159803287D02*
G75*
G02*
X164342985Y-161375153I-8379J-1999983D01*
G01*
X91991622Y-159508343D02*
G75*
G02*
X90000000Y-157508361I8378J1999982D01*
G01*
X90000000Y-88500000D02*
G75*
G02*
X92000000Y-86500000I2000000J0D01*
G01*
X108552786Y-85394427D02*
G75*
G02*
X106763932Y-86500000I-1788854J894427D01*
G01*
X127245308Y-82782843D02*
G75*
G02*
X125265409Y-84500000I-1979899J282843D01*
G01*
X127754692Y-79217157D02*
G75*
G02*
X129734591Y-77500000I1979899J-282843D01*
G01*
X146321553Y-75892232D02*
G75*
G02*
X144360392Y-77500000I-1961161J392232D01*
G01*
X146678447Y-74107768D02*
G75*
G02*
X148639608Y-72500000I1961161J-392232D01*
G01*
X165305746Y-72500000D02*
G75*
G02*
X167278534Y-74171202I0J-2000000D01*
G01*
X169694254Y-78500000D02*
G75*
G02*
X167721466Y-76828798I0J2000000D01*
G01*
X184763932Y-78500000D02*
G75*
G02*
X186552786Y-79605573I0J-2000000D01*
G01*
X203000000Y-80500000D02*
G75*
G02*
X205000000Y-82500000I0J-2000000D01*
G01*
X206278148Y-151294660D02*
G75*
G02*
X205000000Y-149429471I721852J1865189D01*
G01*
X230557751Y-160691176D02*
G75*
G02*
X231715284Y-163240405I-721852J-1865189D01*
G01*
X91250000Y-158250000D02*
X108750000Y-158250000D01*
X108750000Y-158250000D02*
X108750000Y-141750000D01*
X108750000Y-141750000D02*
X91250000Y-141750000D01*
X91250000Y-141750000D02*
X91250000Y-158250000D01*
X91250000Y-140250000D02*
X108750000Y-140250000D01*
X108750000Y-140250000D02*
X108750000Y-123750000D01*
X108750000Y-123750000D02*
X91250000Y-123750000D01*
X91250000Y-123750000D02*
X91250000Y-140250000D01*
X91250000Y-122250000D02*
X108750000Y-122250000D01*
X108750000Y-122250000D02*
X108750000Y-105750000D01*
X108750000Y-105750000D02*
X91250000Y-105750000D01*
X91250000Y-105750000D02*
X91250000Y-122250000D01*
X91250000Y-104250000D02*
X108750000Y-104250000D01*
X108750000Y-104250000D02*
X108750000Y-87750000D01*
X108750000Y-87750000D02*
X91250000Y-87750000D01*
X91250000Y-87750000D02*
X91250000Y-104250000D01*
X110250000Y-156250000D02*
X127750000Y-156250000D01*
X127750000Y-156250000D02*
X127750000Y-139750000D01*
X127750000Y-139750000D02*
X110250000Y-139750000D01*
X110250000Y-139750000D02*
X110250000Y-156250000D01*
X110250000Y-138250000D02*
X127750000Y-138250000D01*
X127750000Y-138250000D02*
X127750000Y-121750000D01*
X127750000Y-121750000D02*
X110250000Y-121750000D01*
X110250000Y-121750000D02*
X110250000Y-138250000D01*
X110250000Y-120250000D02*
X127750000Y-120250000D01*
X127750000Y-120250000D02*
X127750000Y-103750000D01*
X127750000Y-103750000D02*
X110250000Y-103750000D01*
X110250000Y-103750000D02*
X110250000Y-120250000D01*
X110250000Y-102250000D02*
X127750000Y-102250000D01*
X127750000Y-102250000D02*
X127750000Y-85750000D01*
X127750000Y-85750000D02*
X110250000Y-85750000D01*
X110250000Y-85750000D02*
X110250000Y-102250000D01*
X129250000Y-149250000D02*
X146750000Y-149250000D01*
X146750000Y-149250000D02*
X146750000Y-132750000D01*
X146750000Y-132750000D02*
X129250000Y-132750000D01*
X129250000Y-132750000D02*
X129250000Y-149250000D01*
X129250000Y-131250000D02*
X146750000Y-131250000D01*
X146750000Y-131250000D02*
X146750000Y-114750000D01*
X146750000Y-114750000D02*
X129250000Y-114750000D01*
X129250000Y-114750000D02*
X129250000Y-131250000D01*
X129250000Y-113250000D02*
X146750000Y-113250000D01*
X146750000Y-113250000D02*
X146750000Y-96750000D01*
X146750000Y-96750000D02*
X129250000Y-96750000D01*
X129250000Y-96750000D02*
X129250000Y-113250000D01*
X129250000Y-95250000D02*
X146750000Y-95250000D01*
X146750000Y-95250000D02*
X146750000Y-78750000D01*
X146750000Y-78750000D02*
X129250000Y-78750000D01*
X129250000Y-78750000D02*
X129250000Y-95250000D01*
X148250000Y-144250000D02*
X165750000Y-144250000D01*
X165750000Y-144250000D02*
X165750000Y-127750000D01*
X165750000Y-127750000D02*
X148250000Y-127750000D01*
X148250000Y-127750000D02*
X148250000Y-144250000D01*
X148250000Y-126250000D02*
X165750000Y-126250000D01*
X165750000Y-126250000D02*
X165750000Y-109750000D01*
X165750000Y-109750000D02*
X148250000Y-109750000D01*
X148250000Y-109750000D02*
X148250000Y-126250000D01*
X148250000Y-108250000D02*
X165750000Y-108250000D01*
X165750000Y-108250000D02*
X165750000Y-91750000D01*
X165750000Y-91750000D02*
X148250000Y-91750000D01*
X148250000Y-91750000D02*
X148250000Y-108250000D01*
X148250000Y-90250000D02*
X165750000Y-90250000D01*
X165750000Y-90250000D02*
X165750000Y-73750000D01*
X165750000Y-73750000D02*
X148250000Y-73750000D01*
X148250000Y-73750000D02*
X148250000Y-90250000D01*
X167250000Y-150250000D02*
X184750000Y-150250000D01*
X184750000Y-150250000D02*
X184750000Y-133750000D01*
X184750000Y-133750000D02*
X167250000Y-133750000D01*
X167250000Y-133750000D02*
X167250000Y-150250000D01*
X167250000Y-132250000D02*
X184750000Y-132250000D01*
X184750000Y-132250000D02*
X184750000Y-115750000D01*
X184750000Y-115750000D02*
X167250000Y-115750000D01*
X167250000Y-115750000D02*
X167250000Y-132250000D01*
X167250000Y-114250000D02*
X184750000Y-114250000D01*
X184750000Y-114250000D02*
X184750000Y-97750000D01*
X184750000Y-97750000D02*
X167250000Y-97750000D01*
X167250000Y-97750000D02*
X167250000Y-114250000D01*
X167250000Y-96250000D02*
X184750000Y-96250000D01*
X184750000Y-96250000D02*
X184750000Y-79750000D01*
X184750000Y-79750000D02*
X167250000Y-79750000D01*
X167250000Y-79750000D02*
X167250000Y-96250000D01*
X186250000Y-152250000D02*
X203750000Y-152250000D01*
X203750000Y-152250000D02*
X203750000Y-135750000D01*
X203750000Y-135750000D02*
X186250000Y-135750000D01*
X186250000Y-135750000D02*
X186250000Y-152250000D01*
X186250000Y-134250000D02*
X203750000Y-134250000D01*
X203750000Y-134250000D02*
X203750000Y-117750000D01*
X203750000Y-117750000D02*
X186250000Y-117750000D01*
X186250000Y-117750000D02*
X186250000Y-134250000D01*
X186250000Y-116250000D02*
X203750000Y-116250000D01*
X203750000Y-116250000D02*
X203750000Y-99750000D01*
X203750000Y-99750000D02*
X186250000Y-99750000D01*
X186250000Y-99750000D02*
X186250000Y-116250000D01*
X186250000Y-98250000D02*
X203750000Y-98250000D01*
X203750000Y-98250000D02*
X203750000Y-81750000D01*
X203750000Y-81750000D02*
X186250000Y-81750000D01*
X186250000Y-81750000D02*
X186250000Y-98250000D01*
X168250000Y-172250000D02*
X185750000Y-172250000D01*
X185750000Y-172250000D02*
X185750000Y-155750000D01*
X185750000Y-155750000D02*
X168250000Y-155750000D01*
X168250000Y-155750000D02*
X168250000Y-172250000D01*
X187723845Y-172903877D02*
X204957981Y-175942720D01*
X204957981Y-175942720D02*
X207823175Y-159693392D01*
X207823175Y-159693392D02*
X190589040Y-156654549D01*
X190589040Y-156654549D02*
X187723845Y-172903877D01*
X223772094Y-181409384D02*
X229757447Y-164964764D01*
X229757447Y-164964764D02*
X214252519Y-159321431D01*
X214252519Y-159321431D02*
X208267166Y-175766052D01*
X208267166Y-175766052D02*
X223772094Y-181409384D01*
M02*
