%TF.GenerationSoftware,KiCad,Pcbnew,8.0.5-8.0.5-0~ubuntu20.04.1*%
%TF.CreationDate,2024-10-04T15:10:40+02:00*%
%TF.ProjectId,switchplate,73776974-6368-4706-9c61-74652e6b6963,v1.0.0*%
%TF.SameCoordinates,Original*%
%TF.FileFunction,Drillmap*%
%TF.FilePolarity,Positive*%
%FSLAX45Y45*%
G04 Gerber Fmt 4.5, Leading zero omitted, Abs format (unit mm)*
G04 Created by KiCad (PCBNEW 8.0.5-8.0.5-0~ubuntu20.04.1) date 2024-10-04 15:10:40*
%MOMM*%
%LPD*%
G01*
G04 APERTURE LIST*
%ADD10C,0.150000*%
%ADD11C,0.200000*%
G04 APERTURE END LIST*
D10*
X22380635Y-18497002D02*
X23171528Y-16324040D01*
X22132433Y-18619303D02*
X20698342Y-18166122D01*
X20561644Y-17940687D02*
X20562463Y-17936041D01*
X20400231Y-17704349D02*
X18642661Y-17394442D01*
X18612265Y-17391451D02*
X16857342Y-17353411D01*
X16666312Y-17196269D02*
X16434298Y-16137515D01*
X16239772Y-15980329D02*
X9199162Y-15950834D01*
X9000000Y-15750836D02*
X9000000Y-8850000D01*
X9200000Y-8650000D02*
X10676393Y-8650000D01*
X10855279Y-8539443D02*
X10900000Y-8450000D01*
X10900000Y-8450000D02*
X12526541Y-8450000D01*
X12724531Y-8278284D02*
X12775469Y-7921716D01*
X12973459Y-7750000D02*
X14436039Y-7750000D01*
X14632155Y-7589223D02*
X14667845Y-7410777D01*
X14863961Y-7250000D02*
X16530575Y-7250000D01*
X16727853Y-7417120D02*
X16772147Y-7682880D01*
X16969425Y-7850000D02*
X18476393Y-7850000D01*
X18655279Y-7960557D02*
X18700000Y-8050000D01*
X18700000Y-8050000D02*
X20300000Y-8050000D01*
X20500000Y-8250000D02*
X20500000Y-14942947D01*
X20627815Y-15129466D02*
X23055775Y-16069118D01*
X22380635Y-18497002D02*
G75*
G02*
X22132433Y-18619303I-187939J68404D01*
G01*
X20698342Y-18166122D02*
G75*
G02*
X20561644Y-17940687I60264J190705D01*
G01*
X20400231Y-17704349D02*
G75*
G02*
X20562463Y-17936041I-34730J-196962D01*
G01*
X18612265Y-17391451D02*
G75*
G02*
X18642661Y-17394442I-4334J-199953D01*
G01*
X16857342Y-17353411D02*
G75*
G02*
X16666312Y-17196269I4334J199953D01*
G01*
X16239772Y-15980329D02*
G75*
G02*
X16434298Y-16137515I-838J-199998D01*
G01*
X9199162Y-15950834D02*
G75*
G02*
X9000000Y-15750836I838J199998D01*
G01*
X9000000Y-8850000D02*
G75*
G02*
X9200000Y-8650000I200000J0D01*
G01*
X10855279Y-8539443D02*
G75*
G02*
X10676393Y-8650000I-178885J89443D01*
G01*
X12724531Y-8278284D02*
G75*
G02*
X12526541Y-8450000I-197990J28284D01*
G01*
X12775469Y-7921716D02*
G75*
G02*
X12973459Y-7750000I197990J-28284D01*
G01*
X14632155Y-7589223D02*
G75*
G02*
X14436039Y-7750000I-196116J39223D01*
G01*
X14667845Y-7410777D02*
G75*
G02*
X14863961Y-7250000I196116J-39223D01*
G01*
X16530575Y-7250000D02*
G75*
G02*
X16727853Y-7417120I0J-200000D01*
G01*
X16969425Y-7850000D02*
G75*
G02*
X16772147Y-7682880I0J200000D01*
G01*
X18476393Y-7850000D02*
G75*
G02*
X18655279Y-7960557I0J-200000D01*
G01*
X20300000Y-8050000D02*
G75*
G02*
X20500000Y-8250000I0J-200000D01*
G01*
X20627815Y-15129466D02*
G75*
G02*
X20500000Y-14942947I72185J186519D01*
G01*
X23055775Y-16069118D02*
G75*
G02*
X23171528Y-16324040I-72185J-186519D01*
G01*
X9125000Y-15825000D02*
X10875000Y-15825000D01*
X10875000Y-15825000D02*
X10875000Y-14175000D01*
X10875000Y-14175000D02*
X9125000Y-14175000D01*
X9125000Y-14175000D02*
X9125000Y-15825000D01*
X9125000Y-14025000D02*
X10875000Y-14025000D01*
X10875000Y-14025000D02*
X10875000Y-12375000D01*
X10875000Y-12375000D02*
X9125000Y-12375000D01*
X9125000Y-12375000D02*
X9125000Y-14025000D01*
X9125000Y-12225000D02*
X10875000Y-12225000D01*
X10875000Y-12225000D02*
X10875000Y-10575000D01*
X10875000Y-10575000D02*
X9125000Y-10575000D01*
X9125000Y-10575000D02*
X9125000Y-12225000D01*
X9125000Y-10425000D02*
X10875000Y-10425000D01*
X10875000Y-10425000D02*
X10875000Y-8775000D01*
X10875000Y-8775000D02*
X9125000Y-8775000D01*
X9125000Y-8775000D02*
X9125000Y-10425000D01*
X11025000Y-15625000D02*
X12775000Y-15625000D01*
X12775000Y-15625000D02*
X12775000Y-13975000D01*
X12775000Y-13975000D02*
X11025000Y-13975000D01*
X11025000Y-13975000D02*
X11025000Y-15625000D01*
X11025000Y-13825000D02*
X12775000Y-13825000D01*
X12775000Y-13825000D02*
X12775000Y-12175000D01*
X12775000Y-12175000D02*
X11025000Y-12175000D01*
X11025000Y-12175000D02*
X11025000Y-13825000D01*
X11025000Y-12025000D02*
X12775000Y-12025000D01*
X12775000Y-12025000D02*
X12775000Y-10375000D01*
X12775000Y-10375000D02*
X11025000Y-10375000D01*
X11025000Y-10375000D02*
X11025000Y-12025000D01*
X11025000Y-10225000D02*
X12775000Y-10225000D01*
X12775000Y-10225000D02*
X12775000Y-8575000D01*
X12775000Y-8575000D02*
X11025000Y-8575000D01*
X11025000Y-8575000D02*
X11025000Y-10225000D01*
X12925000Y-14925000D02*
X14675000Y-14925000D01*
X14675000Y-14925000D02*
X14675000Y-13275000D01*
X14675000Y-13275000D02*
X12925000Y-13275000D01*
X12925000Y-13275000D02*
X12925000Y-14925000D01*
X12925000Y-13125000D02*
X14675000Y-13125000D01*
X14675000Y-13125000D02*
X14675000Y-11475000D01*
X14675000Y-11475000D02*
X12925000Y-11475000D01*
X12925000Y-11475000D02*
X12925000Y-13125000D01*
X12925000Y-11325000D02*
X14675000Y-11325000D01*
X14675000Y-11325000D02*
X14675000Y-9675000D01*
X14675000Y-9675000D02*
X12925000Y-9675000D01*
X12925000Y-9675000D02*
X12925000Y-11325000D01*
X12925000Y-9525000D02*
X14675000Y-9525000D01*
X14675000Y-9525000D02*
X14675000Y-7875000D01*
X14675000Y-7875000D02*
X12925000Y-7875000D01*
X12925000Y-7875000D02*
X12925000Y-9525000D01*
X14825000Y-14425000D02*
X16575000Y-14425000D01*
X16575000Y-14425000D02*
X16575000Y-12775000D01*
X16575000Y-12775000D02*
X14825000Y-12775000D01*
X14825000Y-12775000D02*
X14825000Y-14425000D01*
X14825000Y-12625000D02*
X16575000Y-12625000D01*
X16575000Y-12625000D02*
X16575000Y-10975000D01*
X16575000Y-10975000D02*
X14825000Y-10975000D01*
X14825000Y-10975000D02*
X14825000Y-12625000D01*
X14825000Y-10825000D02*
X16575000Y-10825000D01*
X16575000Y-10825000D02*
X16575000Y-9175000D01*
X16575000Y-9175000D02*
X14825000Y-9175000D01*
X14825000Y-9175000D02*
X14825000Y-10825000D01*
X14825000Y-9025000D02*
X16575000Y-9025000D01*
X16575000Y-9025000D02*
X16575000Y-7375000D01*
X16575000Y-7375000D02*
X14825000Y-7375000D01*
X14825000Y-7375000D02*
X14825000Y-9025000D01*
X16725000Y-15025000D02*
X18475000Y-15025000D01*
X18475000Y-15025000D02*
X18475000Y-13375000D01*
X18475000Y-13375000D02*
X16725000Y-13375000D01*
X16725000Y-13375000D02*
X16725000Y-15025000D01*
X16725000Y-13225000D02*
X18475000Y-13225000D01*
X18475000Y-13225000D02*
X18475000Y-11575000D01*
X18475000Y-11575000D02*
X16725000Y-11575000D01*
X16725000Y-11575000D02*
X16725000Y-13225000D01*
X16725000Y-11425000D02*
X18475000Y-11425000D01*
X18475000Y-11425000D02*
X18475000Y-9775000D01*
X18475000Y-9775000D02*
X16725000Y-9775000D01*
X16725000Y-9775000D02*
X16725000Y-11425000D01*
X16725000Y-9625000D02*
X18475000Y-9625000D01*
X18475000Y-9625000D02*
X18475000Y-7975000D01*
X18475000Y-7975000D02*
X16725000Y-7975000D01*
X16725000Y-7975000D02*
X16725000Y-9625000D01*
X18625000Y-15225000D02*
X20375000Y-15225000D01*
X20375000Y-15225000D02*
X20375000Y-13575000D01*
X20375000Y-13575000D02*
X18625000Y-13575000D01*
X18625000Y-13575000D02*
X18625000Y-15225000D01*
X18625000Y-13425000D02*
X20375000Y-13425000D01*
X20375000Y-13425000D02*
X20375000Y-11775000D01*
X20375000Y-11775000D02*
X18625000Y-11775000D01*
X18625000Y-11775000D02*
X18625000Y-13425000D01*
X18625000Y-11625000D02*
X20375000Y-11625000D01*
X20375000Y-11625000D02*
X20375000Y-9975000D01*
X20375000Y-9975000D02*
X18625000Y-9975000D01*
X18625000Y-9975000D02*
X18625000Y-11625000D01*
X18625000Y-9825000D02*
X20375000Y-9825000D01*
X20375000Y-9825000D02*
X20375000Y-8175000D01*
X20375000Y-8175000D02*
X18625000Y-8175000D01*
X18625000Y-8175000D02*
X18625000Y-9825000D01*
X16825000Y-17225000D02*
X18575000Y-17225000D01*
X18575000Y-17225000D02*
X18575000Y-15575000D01*
X18575000Y-15575000D02*
X16825000Y-15575000D01*
X16825000Y-15575000D02*
X16825000Y-17225000D01*
X18772385Y-17290388D02*
X20495798Y-17594272D01*
X20495798Y-17594272D02*
X20782318Y-15969339D01*
X20782318Y-15969339D02*
X19058904Y-15665455D01*
X19058904Y-15665455D02*
X18772385Y-17290388D01*
X22377209Y-18140938D02*
X22975745Y-16496476D01*
X22975745Y-16496476D02*
X21425252Y-15932143D01*
X21425252Y-15932143D02*
X20826717Y-17576605D01*
X20826717Y-17576605D02*
X22377209Y-18140938D01*
D11*
X9253277Y-18947582D02*
X9253277Y-18747582D01*
X9253277Y-18747582D02*
X9300896Y-18747582D01*
X9300896Y-18747582D02*
X9329467Y-18757105D01*
X9329467Y-18757105D02*
X9348515Y-18776153D01*
X9348515Y-18776153D02*
X9358039Y-18795201D01*
X9358039Y-18795201D02*
X9367563Y-18833296D01*
X9367563Y-18833296D02*
X9367563Y-18861867D01*
X9367563Y-18861867D02*
X9358039Y-18899963D01*
X9358039Y-18899963D02*
X9348515Y-18919010D01*
X9348515Y-18919010D02*
X9329467Y-18938058D01*
X9329467Y-18938058D02*
X9300896Y-18947582D01*
X9300896Y-18947582D02*
X9253277Y-18947582D01*
X9453277Y-18947582D02*
X9453277Y-18814248D01*
X9453277Y-18852344D02*
X9462801Y-18833296D01*
X9462801Y-18833296D02*
X9472324Y-18823772D01*
X9472324Y-18823772D02*
X9491372Y-18814248D01*
X9491372Y-18814248D02*
X9510420Y-18814248D01*
X9577086Y-18947582D02*
X9577086Y-18814248D01*
X9577086Y-18747582D02*
X9567563Y-18757105D01*
X9567563Y-18757105D02*
X9577086Y-18766629D01*
X9577086Y-18766629D02*
X9586610Y-18757105D01*
X9586610Y-18757105D02*
X9577086Y-18747582D01*
X9577086Y-18747582D02*
X9577086Y-18766629D01*
X9700896Y-18947582D02*
X9681848Y-18938058D01*
X9681848Y-18938058D02*
X9672324Y-18919010D01*
X9672324Y-18919010D02*
X9672324Y-18747582D01*
X9805658Y-18947582D02*
X9786610Y-18938058D01*
X9786610Y-18938058D02*
X9777086Y-18919010D01*
X9777086Y-18919010D02*
X9777086Y-18747582D01*
X10034229Y-18947582D02*
X10034229Y-18747582D01*
X10034229Y-18747582D02*
X10100896Y-18890439D01*
X10100896Y-18890439D02*
X10167563Y-18747582D01*
X10167563Y-18747582D02*
X10167563Y-18947582D01*
X10348515Y-18947582D02*
X10348515Y-18842820D01*
X10348515Y-18842820D02*
X10338991Y-18823772D01*
X10338991Y-18823772D02*
X10319944Y-18814248D01*
X10319944Y-18814248D02*
X10281848Y-18814248D01*
X10281848Y-18814248D02*
X10262801Y-18823772D01*
X10348515Y-18938058D02*
X10329467Y-18947582D01*
X10329467Y-18947582D02*
X10281848Y-18947582D01*
X10281848Y-18947582D02*
X10262801Y-18938058D01*
X10262801Y-18938058D02*
X10253277Y-18919010D01*
X10253277Y-18919010D02*
X10253277Y-18899963D01*
X10253277Y-18899963D02*
X10262801Y-18880915D01*
X10262801Y-18880915D02*
X10281848Y-18871391D01*
X10281848Y-18871391D02*
X10329467Y-18871391D01*
X10329467Y-18871391D02*
X10348515Y-18861867D01*
X10443753Y-18814248D02*
X10443753Y-19014248D01*
X10443753Y-18823772D02*
X10462801Y-18814248D01*
X10462801Y-18814248D02*
X10500896Y-18814248D01*
X10500896Y-18814248D02*
X10519944Y-18823772D01*
X10519944Y-18823772D02*
X10529467Y-18833296D01*
X10529467Y-18833296D02*
X10538991Y-18852344D01*
X10538991Y-18852344D02*
X10538991Y-18909486D01*
X10538991Y-18909486D02*
X10529467Y-18928534D01*
X10529467Y-18928534D02*
X10519944Y-18938058D01*
X10519944Y-18938058D02*
X10500896Y-18947582D01*
X10500896Y-18947582D02*
X10462801Y-18947582D01*
X10462801Y-18947582D02*
X10443753Y-18938058D01*
X10624705Y-18928534D02*
X10634229Y-18938058D01*
X10634229Y-18938058D02*
X10624705Y-18947582D01*
X10624705Y-18947582D02*
X10615182Y-18938058D01*
X10615182Y-18938058D02*
X10624705Y-18928534D01*
X10624705Y-18928534D02*
X10624705Y-18947582D01*
X10624705Y-18823772D02*
X10634229Y-18833296D01*
X10634229Y-18833296D02*
X10624705Y-18842820D01*
X10624705Y-18842820D02*
X10615182Y-18833296D01*
X10615182Y-18833296D02*
X10624705Y-18823772D01*
X10624705Y-18823772D02*
X10624705Y-18842820D01*
M02*
